G04 #@! TF.GenerationSoftware,KiCad,Pcbnew,(5.99.0-8084-g866e5df16a)*
G04 #@! TF.CreationDate,2021-01-03T17:36:52+01:00*
G04 #@! TF.ProjectId,e-ink_pmod,652d696e-6b5f-4706-9d6f-642e6b696361,1.1*
G04 #@! TF.SameCoordinates,PX525bfc0PY429d390*
G04 #@! TF.FileFunction,Soldermask,Bot*
G04 #@! TF.FilePolarity,Negative*
%FSLAX46Y46*%
G04 Gerber Fmt 4.6, Leading zero omitted, Abs format (unit mm)*
G04 Created by KiCad (PCBNEW (5.99.0-8084-g866e5df16a)) date 2021-01-03 17:36:52*
%MOMM*%
%LPD*%
G01*
G04 APERTURE LIST*
%ADD10C,0.010000*%
%ADD11C,1.524000*%
%ADD12R,1.524000X1.524000*%
G04 APERTURE END LIST*
D10*
X39197013Y-13070630D02*
X39243752Y-13200422D01*
X39243752Y-13200422D02*
X39323550Y-13289747D01*
X39323550Y-13289747D02*
X39355944Y-13310181D01*
X39355944Y-13310181D02*
X39384249Y-13323554D01*
X39384249Y-13323554D02*
X39419075Y-13334394D01*
X39419075Y-13334394D02*
X39466255Y-13342962D01*
X39466255Y-13342962D02*
X39531622Y-13349522D01*
X39531622Y-13349522D02*
X39621012Y-13354336D01*
X39621012Y-13354336D02*
X39740258Y-13357668D01*
X39740258Y-13357668D02*
X39895193Y-13359779D01*
X39895193Y-13359779D02*
X40091652Y-13360933D01*
X40091652Y-13360933D02*
X40335468Y-13361393D01*
X40335468Y-13361393D02*
X40494111Y-13361445D01*
X40494111Y-13361445D02*
X40765104Y-13361325D01*
X40765104Y-13361325D02*
X40985538Y-13360769D01*
X40985538Y-13360769D02*
X41161295Y-13359478D01*
X41161295Y-13359478D02*
X41298262Y-13357154D01*
X41298262Y-13357154D02*
X41402322Y-13353500D01*
X41402322Y-13353500D02*
X41479360Y-13348217D01*
X41479360Y-13348217D02*
X41535260Y-13341009D01*
X41535260Y-13341009D02*
X41575907Y-13331577D01*
X41575907Y-13331577D02*
X41607184Y-13319624D01*
X41607184Y-13319624D02*
X41634977Y-13304852D01*
X41634977Y-13304852D02*
X41637111Y-13303607D01*
X41637111Y-13303607D02*
X41720257Y-13232775D01*
X41720257Y-13232775D02*
X41773512Y-13130942D01*
X41773512Y-13130942D02*
X41800222Y-12989827D01*
X41800222Y-12989827D02*
X41804852Y-12888722D01*
X41804852Y-12888722D02*
X41806445Y-12726445D01*
X41806445Y-12726445D02*
X39181778Y-12726445D01*
X39181778Y-12726445D02*
X39181778Y-12896684D01*
X39181778Y-12896684D02*
X39197013Y-13070630D01*
X39197013Y-13070630D02*
X39197013Y-13070630D01*
G36*
X41804852Y-12888722D02*
G01*
X41800222Y-12989827D01*
X41773512Y-13130942D01*
X41720257Y-13232775D01*
X41637111Y-13303607D01*
X41634977Y-13304852D01*
X41607184Y-13319624D01*
X41575907Y-13331577D01*
X41535260Y-13341009D01*
X41479360Y-13348217D01*
X41402322Y-13353500D01*
X41298262Y-13357154D01*
X41161295Y-13359478D01*
X40985538Y-13360769D01*
X40765104Y-13361325D01*
X40494111Y-13361445D01*
X40335468Y-13361393D01*
X40091652Y-13360933D01*
X39895193Y-13359779D01*
X39740258Y-13357668D01*
X39621012Y-13354336D01*
X39531622Y-13349522D01*
X39466255Y-13342962D01*
X39419075Y-13334394D01*
X39384249Y-13323554D01*
X39355944Y-13310181D01*
X39323550Y-13289747D01*
X39243752Y-13200422D01*
X39197013Y-13070630D01*
X39181778Y-12896684D01*
X39181778Y-12726445D01*
X41806445Y-12726445D01*
X41804852Y-12888722D01*
G37*
X41804852Y-12888722D02*
X41800222Y-12989827D01*
X41773512Y-13130942D01*
X41720257Y-13232775D01*
X41637111Y-13303607D01*
X41634977Y-13304852D01*
X41607184Y-13319624D01*
X41575907Y-13331577D01*
X41535260Y-13341009D01*
X41479360Y-13348217D01*
X41402322Y-13353500D01*
X41298262Y-13357154D01*
X41161295Y-13359478D01*
X40985538Y-13360769D01*
X40765104Y-13361325D01*
X40494111Y-13361445D01*
X40335468Y-13361393D01*
X40091652Y-13360933D01*
X39895193Y-13359779D01*
X39740258Y-13357668D01*
X39621012Y-13354336D01*
X39531622Y-13349522D01*
X39466255Y-13342962D01*
X39419075Y-13334394D01*
X39384249Y-13323554D01*
X39355944Y-13310181D01*
X39323550Y-13289747D01*
X39243752Y-13200422D01*
X39197013Y-13070630D01*
X39181778Y-12896684D01*
X39181778Y-12726445D01*
X41806445Y-12726445D01*
X41804852Y-12888722D01*
X42878889Y-16790445D02*
X42878889Y-14281686D01*
X42878889Y-14281686D02*
X42878841Y-13847449D01*
X42878841Y-13847449D02*
X42878652Y-13466192D01*
X42878652Y-13466192D02*
X42878255Y-13134448D01*
X42878255Y-13134448D02*
X42877582Y-12848753D01*
X42877582Y-12848753D02*
X42876564Y-12605642D01*
X42876564Y-12605642D02*
X42875135Y-12401649D01*
X42875135Y-12401649D02*
X42873227Y-12233309D01*
X42873227Y-12233309D02*
X42870772Y-12097157D01*
X42870772Y-12097157D02*
X42867702Y-11989728D01*
X42867702Y-11989728D02*
X42863950Y-11907556D01*
X42863950Y-11907556D02*
X42859448Y-11847176D01*
X42859448Y-11847176D02*
X42854128Y-11805124D01*
X42854128Y-11805124D02*
X42847923Y-11777933D01*
X42847923Y-11777933D02*
X42840766Y-11762139D01*
X42840766Y-11762139D02*
X42832587Y-11754277D01*
X42832587Y-11754277D02*
X42829500Y-11752770D01*
X42829500Y-11752770D02*
X42792003Y-11739343D01*
X42792003Y-11739343D02*
X42707406Y-11710156D01*
X42707406Y-11710156D02*
X42582124Y-11667386D01*
X42582124Y-11667386D02*
X42422576Y-11613214D01*
X42422576Y-11613214D02*
X42235177Y-11549818D01*
X42235177Y-11549818D02*
X42026345Y-11479378D01*
X42026345Y-11479378D02*
X41825023Y-11411642D01*
X41825023Y-11411642D02*
X40869934Y-11090672D01*
X40869934Y-11090672D02*
X40710245Y-11221421D01*
X40710245Y-11221421D02*
X40531653Y-11350798D01*
X40531653Y-11350798D02*
X40346664Y-11448080D01*
X40346664Y-11448080D02*
X40144878Y-11516330D01*
X40144878Y-11516330D02*
X39915894Y-11558610D01*
X39915894Y-11558610D02*
X39649311Y-11577981D01*
X39649311Y-11577981D02*
X39492222Y-11580016D01*
X39492222Y-11580016D02*
X39164341Y-11565929D01*
X39164341Y-11565929D02*
X38880722Y-11524675D01*
X38880722Y-11524675D02*
X38730222Y-11481645D01*
X38730222Y-11481645D02*
X38730222Y-12218445D01*
X38730222Y-12218445D02*
X42258000Y-12218445D01*
X42258000Y-12218445D02*
X42258000Y-12693100D01*
X42258000Y-12693100D02*
X42255835Y-12910275D01*
X42255835Y-12910275D02*
X42249004Y-13078479D01*
X42249004Y-13078479D02*
X42237008Y-13205035D01*
X42237008Y-13205035D02*
X42219345Y-13297262D01*
X42219345Y-13297262D02*
X42215798Y-13309867D01*
X42215798Y-13309867D02*
X42145817Y-13461717D01*
X42145817Y-13461717D02*
X42034875Y-13605633D01*
X42034875Y-13605633D02*
X41897712Y-13724571D01*
X41897712Y-13724571D02*
X41814075Y-13774344D01*
X41814075Y-13774344D02*
X41679445Y-13841222D01*
X41679445Y-13841222D02*
X39280556Y-13841222D01*
X39280556Y-13841222D02*
X39129410Y-13757505D01*
X39129410Y-13757505D02*
X39030585Y-13693519D01*
X39030585Y-13693519D02*
X38939748Y-13619474D01*
X38939748Y-13619474D02*
X38897364Y-13575641D01*
X38897364Y-13575641D02*
X38841578Y-13500492D01*
X38841578Y-13500492D02*
X38799448Y-13422268D01*
X38799448Y-13422268D02*
X38769163Y-13331725D01*
X38769163Y-13331725D02*
X38748915Y-13219617D01*
X38748915Y-13219617D02*
X38736896Y-13076700D01*
X38736896Y-13076700D02*
X38731297Y-12893732D01*
X38731297Y-12893732D02*
X38730222Y-12721417D01*
X38730222Y-12721417D02*
X38730222Y-14363334D01*
X38730222Y-14363334D02*
X42258000Y-14363334D01*
X42258000Y-14363334D02*
X42258000Y-14843111D01*
X42258000Y-14843111D02*
X41236508Y-14843111D01*
X41236508Y-14843111D02*
X41017265Y-14957174D01*
X41017265Y-14957174D02*
X40911441Y-15013400D01*
X40911441Y-15013400D02*
X40820486Y-15063837D01*
X40820486Y-15063837D02*
X40759525Y-15100026D01*
X40759525Y-15100026D02*
X40748249Y-15107632D01*
X40748249Y-15107632D02*
X40736522Y-15116714D01*
X40736522Y-15116714D02*
X40730822Y-15125719D01*
X40730822Y-15125719D02*
X40735488Y-15136447D01*
X40735488Y-15136447D02*
X40754859Y-15150696D01*
X40754859Y-15150696D02*
X40793275Y-15170267D01*
X40793275Y-15170267D02*
X40855075Y-15196958D01*
X40855075Y-15196958D02*
X40944599Y-15232569D01*
X40944599Y-15232569D02*
X41066184Y-15278899D01*
X41066184Y-15278899D02*
X41224172Y-15337748D01*
X41224172Y-15337748D02*
X41422900Y-15410916D01*
X41422900Y-15410916D02*
X41666709Y-15500200D01*
X41666709Y-15500200D02*
X41905222Y-15587400D01*
X41905222Y-15587400D02*
X42243889Y-15711201D01*
X42243889Y-15711201D02*
X42259973Y-16248311D01*
X42259973Y-16248311D02*
X41207709Y-15841045D01*
X41207709Y-15841045D02*
X40976357Y-15752190D01*
X40976357Y-15752190D02*
X40760509Y-15670610D01*
X40760509Y-15670610D02*
X40566023Y-15598421D01*
X40566023Y-15598421D02*
X40398757Y-15537737D01*
X40398757Y-15537737D02*
X40264568Y-15490676D01*
X40264568Y-15490676D02*
X40169314Y-15459352D01*
X40169314Y-15459352D02*
X40118853Y-15445882D01*
X40118853Y-15445882D02*
X40113111Y-15445690D01*
X40113111Y-15445690D02*
X40077187Y-15460850D01*
X40077187Y-15460850D02*
X39997738Y-15497437D01*
X39997738Y-15497437D02*
X39881929Y-15552050D01*
X39881929Y-15552050D02*
X39736925Y-15621287D01*
X39736925Y-15621287D02*
X39569893Y-15701748D01*
X39569893Y-15701748D02*
X39400500Y-15783942D01*
X39400500Y-15783942D02*
X38730222Y-16110282D01*
X38730222Y-16110282D02*
X38730222Y-15614780D01*
X38730222Y-15614780D02*
X39521423Y-15252889D01*
X39521423Y-15252889D02*
X39718078Y-15162402D01*
X39718078Y-15162402D02*
X39897863Y-15078647D01*
X39897863Y-15078647D02*
X40054416Y-15004667D01*
X40054416Y-15004667D02*
X40181375Y-14943509D01*
X40181375Y-14943509D02*
X40272381Y-14898218D01*
X40272381Y-14898218D02*
X40321072Y-14871837D01*
X40321072Y-14871837D02*
X40327422Y-14867055D01*
X40327422Y-14867055D02*
X40304275Y-14860926D01*
X40304275Y-14860926D02*
X40231582Y-14855376D01*
X40231582Y-14855376D02*
X40116242Y-14850615D01*
X40116242Y-14850615D02*
X39965152Y-14846852D01*
X39965152Y-14846852D02*
X39785212Y-14844295D01*
X39785212Y-14844295D02*
X39583318Y-14843152D01*
X39583318Y-14843152D02*
X39536221Y-14843111D01*
X39536221Y-14843111D02*
X38730222Y-14843111D01*
X38730222Y-14843111D02*
X38730222Y-14363334D01*
X38730222Y-14363334D02*
X38730222Y-12721417D01*
X38730222Y-12721417D02*
X38730222Y-12218445D01*
X38730222Y-12218445D02*
X38730222Y-11481645D01*
X38730222Y-11481645D02*
X38635219Y-11454482D01*
X38635219Y-11454482D02*
X38421688Y-11353581D01*
X38421688Y-11353581D02*
X38233983Y-11220200D01*
X38233983Y-11220200D02*
X38229278Y-11216185D01*
X38229278Y-11216185D02*
X38109334Y-11113380D01*
X38109334Y-11113380D02*
X38109334Y-16790445D01*
X38109334Y-16790445D02*
X42878889Y-16790445D01*
X42878889Y-16790445D02*
X42878889Y-16790445D01*
G36*
X41825023Y-11411642D02*
G01*
X42026345Y-11479378D01*
X42235177Y-11549818D01*
X42422576Y-11613214D01*
X42582124Y-11667386D01*
X42707406Y-11710156D01*
X42792003Y-11739343D01*
X42829500Y-11752770D01*
X42832587Y-11754277D01*
X42840766Y-11762139D01*
X42847923Y-11777933D01*
X42854128Y-11805124D01*
X42859448Y-11847176D01*
X42863950Y-11907556D01*
X42867702Y-11989728D01*
X42870772Y-12097157D01*
X42873227Y-12233309D01*
X42875135Y-12401649D01*
X42876564Y-12605642D01*
X42877582Y-12848753D01*
X42878255Y-13134448D01*
X42878652Y-13466192D01*
X42878841Y-13847449D01*
X42878889Y-14281686D01*
X42878889Y-16790445D01*
X38109334Y-16790445D01*
X38109334Y-15614780D01*
X38730222Y-15614780D01*
X38730222Y-16110282D01*
X39400500Y-15783942D01*
X39569893Y-15701748D01*
X39736925Y-15621287D01*
X39881929Y-15552050D01*
X39997738Y-15497437D01*
X40077187Y-15460850D01*
X40113111Y-15445690D01*
X40118853Y-15445882D01*
X40169314Y-15459352D01*
X40264568Y-15490676D01*
X40398757Y-15537737D01*
X40566023Y-15598421D01*
X40760509Y-15670610D01*
X40976357Y-15752190D01*
X41207709Y-15841045D01*
X42259973Y-16248311D01*
X42243889Y-15711201D01*
X41905222Y-15587400D01*
X41666709Y-15500200D01*
X41422900Y-15410916D01*
X41224172Y-15337748D01*
X41066184Y-15278899D01*
X40944599Y-15232569D01*
X40855075Y-15196958D01*
X40793275Y-15170267D01*
X40754859Y-15150696D01*
X40735488Y-15136447D01*
X40730822Y-15125719D01*
X40736522Y-15116714D01*
X40748249Y-15107632D01*
X40759525Y-15100026D01*
X40820486Y-15063837D01*
X40911441Y-15013400D01*
X41017265Y-14957174D01*
X41236508Y-14843111D01*
X42258000Y-14843111D01*
X42258000Y-14363334D01*
X38730222Y-14363334D01*
X38730222Y-14843111D01*
X39536221Y-14843111D01*
X39583318Y-14843152D01*
X39785212Y-14844295D01*
X39965152Y-14846852D01*
X40116242Y-14850615D01*
X40231582Y-14855376D01*
X40304275Y-14860926D01*
X40327422Y-14867055D01*
X40321072Y-14871837D01*
X40272381Y-14898218D01*
X40181375Y-14943509D01*
X40054416Y-15004667D01*
X39897863Y-15078647D01*
X39718078Y-15162402D01*
X39521423Y-15252889D01*
X38730222Y-15614780D01*
X38109334Y-15614780D01*
X38109334Y-12218445D01*
X38730222Y-12218445D01*
X38730222Y-12721417D01*
X38731297Y-12893732D01*
X38736896Y-13076700D01*
X38748915Y-13219617D01*
X38769163Y-13331725D01*
X38799448Y-13422268D01*
X38841578Y-13500492D01*
X38897364Y-13575641D01*
X38939748Y-13619474D01*
X39030585Y-13693519D01*
X39129410Y-13757505D01*
X39280556Y-13841222D01*
X41679445Y-13841222D01*
X41814075Y-13774344D01*
X41897712Y-13724571D01*
X42034875Y-13605633D01*
X42145817Y-13461717D01*
X42215798Y-13309867D01*
X42219345Y-13297262D01*
X42237008Y-13205035D01*
X42249004Y-13078479D01*
X42255835Y-12910275D01*
X42258000Y-12693100D01*
X42258000Y-12218445D01*
X38730222Y-12218445D01*
X38109334Y-12218445D01*
X38109334Y-11113380D01*
X38229278Y-11216185D01*
X38233983Y-11220200D01*
X38421688Y-11353581D01*
X38635219Y-11454482D01*
X38730222Y-11481645D01*
X38880722Y-11524675D01*
X39164341Y-11565929D01*
X39492222Y-11580016D01*
X39649311Y-11577981D01*
X39915894Y-11558610D01*
X40144878Y-11516330D01*
X40346664Y-11448080D01*
X40531653Y-11350798D01*
X40710245Y-11221421D01*
X40869934Y-11090672D01*
X41825023Y-11411642D01*
G37*
X41825023Y-11411642D02*
X42026345Y-11479378D01*
X42235177Y-11549818D01*
X42422576Y-11613214D01*
X42582124Y-11667386D01*
X42707406Y-11710156D01*
X42792003Y-11739343D01*
X42829500Y-11752770D01*
X42832587Y-11754277D01*
X42840766Y-11762139D01*
X42847923Y-11777933D01*
X42854128Y-11805124D01*
X42859448Y-11847176D01*
X42863950Y-11907556D01*
X42867702Y-11989728D01*
X42870772Y-12097157D01*
X42873227Y-12233309D01*
X42875135Y-12401649D01*
X42876564Y-12605642D01*
X42877582Y-12848753D01*
X42878255Y-13134448D01*
X42878652Y-13466192D01*
X42878841Y-13847449D01*
X42878889Y-14281686D01*
X42878889Y-16790445D01*
X38109334Y-16790445D01*
X38109334Y-15614780D01*
X38730222Y-15614780D01*
X38730222Y-16110282D01*
X39400500Y-15783942D01*
X39569893Y-15701748D01*
X39736925Y-15621287D01*
X39881929Y-15552050D01*
X39997738Y-15497437D01*
X40077187Y-15460850D01*
X40113111Y-15445690D01*
X40118853Y-15445882D01*
X40169314Y-15459352D01*
X40264568Y-15490676D01*
X40398757Y-15537737D01*
X40566023Y-15598421D01*
X40760509Y-15670610D01*
X40976357Y-15752190D01*
X41207709Y-15841045D01*
X42259973Y-16248311D01*
X42243889Y-15711201D01*
X41905222Y-15587400D01*
X41666709Y-15500200D01*
X41422900Y-15410916D01*
X41224172Y-15337748D01*
X41066184Y-15278899D01*
X40944599Y-15232569D01*
X40855075Y-15196958D01*
X40793275Y-15170267D01*
X40754859Y-15150696D01*
X40735488Y-15136447D01*
X40730822Y-15125719D01*
X40736522Y-15116714D01*
X40748249Y-15107632D01*
X40759525Y-15100026D01*
X40820486Y-15063837D01*
X40911441Y-15013400D01*
X41017265Y-14957174D01*
X41236508Y-14843111D01*
X42258000Y-14843111D01*
X42258000Y-14363334D01*
X38730222Y-14363334D01*
X38730222Y-14843111D01*
X39536221Y-14843111D01*
X39583318Y-14843152D01*
X39785212Y-14844295D01*
X39965152Y-14846852D01*
X40116242Y-14850615D01*
X40231582Y-14855376D01*
X40304275Y-14860926D01*
X40327422Y-14867055D01*
X40321072Y-14871837D01*
X40272381Y-14898218D01*
X40181375Y-14943509D01*
X40054416Y-15004667D01*
X39897863Y-15078647D01*
X39718078Y-15162402D01*
X39521423Y-15252889D01*
X38730222Y-15614780D01*
X38109334Y-15614780D01*
X38109334Y-12218445D01*
X38730222Y-12218445D01*
X38730222Y-12721417D01*
X38731297Y-12893732D01*
X38736896Y-13076700D01*
X38748915Y-13219617D01*
X38769163Y-13331725D01*
X38799448Y-13422268D01*
X38841578Y-13500492D01*
X38897364Y-13575641D01*
X38939748Y-13619474D01*
X39030585Y-13693519D01*
X39129410Y-13757505D01*
X39280556Y-13841222D01*
X41679445Y-13841222D01*
X41814075Y-13774344D01*
X41897712Y-13724571D01*
X42034875Y-13605633D01*
X42145817Y-13461717D01*
X42215798Y-13309867D01*
X42219345Y-13297262D01*
X42237008Y-13205035D01*
X42249004Y-13078479D01*
X42255835Y-12910275D01*
X42258000Y-12693100D01*
X42258000Y-12218445D01*
X38730222Y-12218445D01*
X38109334Y-12218445D01*
X38109334Y-11113380D01*
X38229278Y-11216185D01*
X38233983Y-11220200D01*
X38421688Y-11353581D01*
X38635219Y-11454482D01*
X38730222Y-11481645D01*
X38880722Y-11524675D01*
X39164341Y-11565929D01*
X39492222Y-11580016D01*
X39649311Y-11577981D01*
X39915894Y-11558610D01*
X40144878Y-11516330D01*
X40346664Y-11448080D01*
X40531653Y-11350798D01*
X40710245Y-11221421D01*
X40869934Y-11090672D01*
X41825023Y-11411642D01*
D11*
X3810000Y-3810000D03*
D12*
X6350000Y-3810000D03*
D11*
X3810000Y-6350000D03*
X6350000Y-6350000D03*
X3810000Y-8890000D03*
X6350000Y-8890000D03*
X3810000Y-11430000D03*
X6350000Y-11430000D03*
X3810000Y-13970000D03*
X6350000Y-13970000D03*
X3810000Y-16510000D03*
X6350000Y-16510000D03*
M02*
