G04 #@! TF.GenerationSoftware,KiCad,Pcbnew,(5.1.0-rc1-17-gb4eda32f8)*
G04 #@! TF.CreationDate,2019-03-22T20:33:51+01:00
G04 #@! TF.ProjectId,e-ink_pmod,652d696e-6b5f-4706-9d6f-642e6b696361,rev?*
G04 #@! TF.SameCoordinates,PX525bfc0PY429d390*
G04 #@! TF.FileFunction,Legend,Top*
G04 #@! TF.FilePolarity,Positive*
%FSLAX46Y46*%
G04 Gerber Fmt 4.6, Leading zero omitted, Abs format (unit mm)*
G04 Created by KiCad (PCBNEW (5.1.0-rc1-17-gb4eda32f8)) date 2019-03-22 20:33:51*
%MOMM*%
%LPD*%
G04 APERTURE LIST*
%ADD10C,0.200000*%
%ADD11C,0.500000*%
%ADD12C,0.304800*%
%ADD13C,0.120000*%
%ADD14C,0.127000*%
%ADD15C,0.100000*%
%ADD16C,0.254000*%
%ADD17C,0.150000*%
G04 APERTURE END LIST*
D10*
X9201428Y-11950609D02*
X9201428Y-10350609D01*
X9658571Y-10350609D01*
X9772857Y-10426800D01*
X9830000Y-10502990D01*
X9887142Y-10655371D01*
X9887142Y-10883942D01*
X9830000Y-11036323D01*
X9772857Y-11112514D01*
X9658571Y-11188704D01*
X9201428Y-11188704D01*
X10401428Y-11950609D02*
X10401428Y-10350609D01*
X10801428Y-11493466D01*
X11201428Y-10350609D01*
X11201428Y-11950609D01*
X12001428Y-10350609D02*
X12230000Y-10350609D01*
X12344285Y-10426800D01*
X12458571Y-10579180D01*
X12515714Y-10883942D01*
X12515714Y-11417276D01*
X12458571Y-11722038D01*
X12344285Y-11874419D01*
X12230000Y-11950609D01*
X12001428Y-11950609D01*
X11887142Y-11874419D01*
X11772857Y-11722038D01*
X11715714Y-11417276D01*
X11715714Y-10883942D01*
X11772857Y-10579180D01*
X11887142Y-10426800D01*
X12001428Y-10350609D01*
X13030000Y-11950609D02*
X13030000Y-10350609D01*
X13315714Y-10350609D01*
X13487142Y-10426800D01*
X13601428Y-10579180D01*
X13658571Y-10731561D01*
X13715714Y-11036323D01*
X13715714Y-11264895D01*
X13658571Y-11569657D01*
X13601428Y-11722038D01*
X13487142Y-11874419D01*
X13315714Y-11950609D01*
X13030000Y-11950609D01*
D11*
X10322904Y-9626438D02*
X10113380Y-9778819D01*
X9694333Y-9778819D01*
X9484809Y-9626438D01*
X9380047Y-9321676D01*
X9380047Y-8102628D01*
X9484809Y-7797866D01*
X9694333Y-7645485D01*
X10113380Y-7645485D01*
X10322904Y-7797866D01*
X10427666Y-8102628D01*
X10427666Y-8407390D01*
X9380047Y-8712152D01*
X11370523Y-8559771D02*
X13046714Y-8559771D01*
X14094333Y-9778819D02*
X14094333Y-7645485D01*
X14094333Y-6578819D02*
X13989571Y-6731200D01*
X14094333Y-6883580D01*
X14199095Y-6731200D01*
X14094333Y-6578819D01*
X14094333Y-6883580D01*
X15141952Y-7645485D02*
X15141952Y-9778819D01*
X15141952Y-7950247D02*
X15246714Y-7797866D01*
X15456238Y-7645485D01*
X15770523Y-7645485D01*
X15980047Y-7797866D01*
X16084809Y-8102628D01*
X16084809Y-9778819D01*
X17132428Y-9778819D02*
X17132428Y-6578819D01*
X17341952Y-8559771D02*
X17970523Y-9778819D01*
X17970523Y-7645485D02*
X17132428Y-8864533D01*
D12*
X7620000Y-12700000D02*
X2540000Y-12700000D01*
X2540000Y-2540000D02*
X2540000Y-17780000D01*
X2540000Y-17780000D02*
X7620000Y-17780000D01*
X7620000Y-17780000D02*
X7620000Y-2540000D01*
X7620000Y-2540000D02*
X2540000Y-2540000D01*
D13*
X27694000Y-6057000D02*
X28694000Y-6057000D01*
X28694000Y-4357000D02*
X27694000Y-4357000D01*
X32885000Y-5500000D02*
X31885000Y-5500000D01*
X31885000Y-7200000D02*
X32885000Y-7200000D01*
X31885000Y-12280000D02*
X32885000Y-12280000D01*
X32885000Y-10580000D02*
X31885000Y-10580000D01*
X28694000Y-12866000D02*
X27694000Y-12866000D01*
X27694000Y-14566000D02*
X28694000Y-14566000D01*
X27694000Y-16852000D02*
X28694000Y-16852000D01*
X28694000Y-15152000D02*
X27694000Y-15152000D01*
X28694000Y-17438000D02*
X27694000Y-17438000D01*
X27694000Y-19138000D02*
X28694000Y-19138000D01*
X31885000Y-16852000D02*
X32885000Y-16852000D01*
X32885000Y-15152000D02*
X31885000Y-15152000D01*
X32885000Y-17438000D02*
X31885000Y-17438000D01*
X31885000Y-19138000D02*
X32885000Y-19138000D01*
X20312000Y-10707000D02*
X19312000Y-10707000D01*
X19312000Y-12407000D02*
X20312000Y-12407000D01*
X28694000Y-10580000D02*
X27694000Y-10580000D01*
X27694000Y-12280000D02*
X28694000Y-12280000D01*
X17562000Y-15637000D02*
X21462000Y-15637000D01*
X17562000Y-17637000D02*
X21462000Y-17637000D01*
X17562000Y-15637000D02*
X17562000Y-17637000D01*
X22062000Y-14970000D02*
X22062000Y-12970000D01*
X22062000Y-12970000D02*
X18162000Y-12970000D01*
X22062000Y-14970000D02*
X18162000Y-14970000D01*
X23130000Y-15331000D02*
X23130000Y-11431000D01*
X25130000Y-15331000D02*
X25130000Y-11431000D01*
X23130000Y-15331000D02*
X25130000Y-15331000D01*
X19510000Y-5563000D02*
X16050000Y-5563000D01*
X19510000Y-1803000D02*
X16050000Y-1803000D01*
X23243000Y-2103000D02*
X24703000Y-2103000D01*
X23243000Y-5263000D02*
X25403000Y-5263000D01*
X23243000Y-5263000D02*
X23243000Y-4333000D01*
X23243000Y-2103000D02*
X23243000Y-3033000D01*
X27594000Y-2041000D02*
X28794000Y-2041000D01*
X28794000Y-3801000D02*
X27594000Y-3801000D01*
X32985000Y-4944000D02*
X31785000Y-4944000D01*
X31785000Y-3184000D02*
X32985000Y-3184000D01*
D14*
X44600000Y-18460000D02*
X44600000Y-1860000D01*
X38700000Y-3510000D02*
X38700000Y-16860000D01*
X44600000Y-18460000D02*
X41800000Y-18460000D01*
X44600000Y-1860000D02*
X41800000Y-1860000D01*
D15*
X38250000Y-16660000D02*
G75*
G03X38250000Y-16660000I-200000J0D01*
G01*
D13*
X32885000Y-12866000D02*
X31885000Y-12866000D01*
X31885000Y-14566000D02*
X32885000Y-14566000D01*
D16*
X1983619Y-12046857D02*
X967619Y-12046857D01*
X967619Y-11659809D01*
X1016000Y-11563047D01*
X1064380Y-11514666D01*
X1161142Y-11466285D01*
X1306285Y-11466285D01*
X1403047Y-11514666D01*
X1451428Y-11563047D01*
X1499809Y-11659809D01*
X1499809Y-12046857D01*
X1983619Y-11030857D02*
X967619Y-11030857D01*
X1693333Y-10692190D01*
X967619Y-10353523D01*
X1983619Y-10353523D01*
X967619Y-9676190D02*
X967619Y-9482666D01*
X1016000Y-9385904D01*
X1112761Y-9289142D01*
X1306285Y-9240761D01*
X1644952Y-9240761D01*
X1838476Y-9289142D01*
X1935238Y-9385904D01*
X1983619Y-9482666D01*
X1983619Y-9676190D01*
X1935238Y-9772952D01*
X1838476Y-9869714D01*
X1644952Y-9918095D01*
X1306285Y-9918095D01*
X1112761Y-9869714D01*
X1016000Y-9772952D01*
X967619Y-9676190D01*
X1983619Y-8805333D02*
X967619Y-8805333D01*
X967619Y-8563428D01*
X1016000Y-8418285D01*
X1112761Y-8321523D01*
X1209523Y-8273142D01*
X1403047Y-8224761D01*
X1548190Y-8224761D01*
X1741714Y-8273142D01*
X1838476Y-8321523D01*
X1935238Y-8418285D01*
X1983619Y-8563428D01*
X1983619Y-8805333D01*
D17*
X8064666Y-15962380D02*
X8398000Y-16962380D01*
X8731333Y-15962380D01*
X9636095Y-16867142D02*
X9588476Y-16914761D01*
X9445619Y-16962380D01*
X9350380Y-16962380D01*
X9207523Y-16914761D01*
X9112285Y-16819523D01*
X9064666Y-16724285D01*
X9017047Y-16533809D01*
X9017047Y-16390952D01*
X9064666Y-16200476D01*
X9112285Y-16105238D01*
X9207523Y-16010000D01*
X9350380Y-15962380D01*
X9445619Y-15962380D01*
X9588476Y-16010000D01*
X9636095Y-16057619D01*
X10636095Y-16867142D02*
X10588476Y-16914761D01*
X10445619Y-16962380D01*
X10350380Y-16962380D01*
X10207523Y-16914761D01*
X10112285Y-16819523D01*
X10064666Y-16724285D01*
X10017047Y-16533809D01*
X10017047Y-16390952D01*
X10064666Y-16200476D01*
X10112285Y-16105238D01*
X10207523Y-16010000D01*
X10350380Y-15962380D01*
X10445619Y-15962380D01*
X10588476Y-16010000D01*
X10636095Y-16057619D01*
X8636095Y-13470000D02*
X8540857Y-13422380D01*
X8398000Y-13422380D01*
X8255142Y-13470000D01*
X8159904Y-13565238D01*
X8112285Y-13660476D01*
X8064666Y-13850952D01*
X8064666Y-13993809D01*
X8112285Y-14184285D01*
X8159904Y-14279523D01*
X8255142Y-14374761D01*
X8398000Y-14422380D01*
X8493238Y-14422380D01*
X8636095Y-14374761D01*
X8683714Y-14327142D01*
X8683714Y-13993809D01*
X8493238Y-13993809D01*
X9112285Y-14422380D02*
X9112285Y-13422380D01*
X9683714Y-14422380D01*
X9683714Y-13422380D01*
X10159904Y-14422380D02*
X10159904Y-13422380D01*
X10398000Y-13422380D01*
X10540857Y-13470000D01*
X10636095Y-13565238D01*
X10683714Y-13660476D01*
X10731333Y-13850952D01*
X10731333Y-13993809D01*
X10683714Y-14184285D01*
X10636095Y-14279523D01*
X10540857Y-14374761D01*
X10398000Y-14422380D01*
X10159904Y-14422380D01*
X28027333Y-7215142D02*
X27979714Y-7262761D01*
X27836857Y-7310380D01*
X27741619Y-7310380D01*
X27598761Y-7262761D01*
X27503523Y-7167523D01*
X27455904Y-7072285D01*
X27408285Y-6881809D01*
X27408285Y-6738952D01*
X27455904Y-6548476D01*
X27503523Y-6453238D01*
X27598761Y-6358000D01*
X27741619Y-6310380D01*
X27836857Y-6310380D01*
X27979714Y-6358000D01*
X28027333Y-6405619D01*
X28979714Y-7310380D02*
X28408285Y-7310380D01*
X28694000Y-7310380D02*
X28694000Y-6310380D01*
X28598761Y-6453238D01*
X28503523Y-6548476D01*
X28408285Y-6596095D01*
X35012333Y-6707142D02*
X34964714Y-6754761D01*
X34821857Y-6802380D01*
X34726619Y-6802380D01*
X34583761Y-6754761D01*
X34488523Y-6659523D01*
X34440904Y-6564285D01*
X34393285Y-6373809D01*
X34393285Y-6230952D01*
X34440904Y-6040476D01*
X34488523Y-5945238D01*
X34583761Y-5850000D01*
X34726619Y-5802380D01*
X34821857Y-5802380D01*
X34964714Y-5850000D01*
X35012333Y-5897619D01*
X35393285Y-5897619D02*
X35440904Y-5850000D01*
X35536142Y-5802380D01*
X35774238Y-5802380D01*
X35869476Y-5850000D01*
X35917095Y-5897619D01*
X35964714Y-5992857D01*
X35964714Y-6088095D01*
X35917095Y-6230952D01*
X35345666Y-6802380D01*
X35964714Y-6802380D01*
X35012333Y-11787142D02*
X34964714Y-11834761D01*
X34821857Y-11882380D01*
X34726619Y-11882380D01*
X34583761Y-11834761D01*
X34488523Y-11739523D01*
X34440904Y-11644285D01*
X34393285Y-11453809D01*
X34393285Y-11310952D01*
X34440904Y-11120476D01*
X34488523Y-11025238D01*
X34583761Y-10930000D01*
X34726619Y-10882380D01*
X34821857Y-10882380D01*
X34964714Y-10930000D01*
X35012333Y-10977619D01*
X35345666Y-10882380D02*
X35964714Y-10882380D01*
X35631380Y-11263333D01*
X35774238Y-11263333D01*
X35869476Y-11310952D01*
X35917095Y-11358571D01*
X35964714Y-11453809D01*
X35964714Y-11691904D01*
X35917095Y-11787142D01*
X35869476Y-11834761D01*
X35774238Y-11882380D01*
X35488523Y-11882380D01*
X35393285Y-11834761D01*
X35345666Y-11787142D01*
X26265142Y-13882666D02*
X26312761Y-13930285D01*
X26360380Y-14073142D01*
X26360380Y-14168380D01*
X26312761Y-14311238D01*
X26217523Y-14406476D01*
X26122285Y-14454095D01*
X25931809Y-14501714D01*
X25788952Y-14501714D01*
X25598476Y-14454095D01*
X25503238Y-14406476D01*
X25408000Y-14311238D01*
X25360380Y-14168380D01*
X25360380Y-14073142D01*
X25408000Y-13930285D01*
X25455619Y-13882666D01*
X25693714Y-13025523D02*
X26360380Y-13025523D01*
X25312761Y-13263619D02*
X26027047Y-13501714D01*
X26027047Y-12882666D01*
X25233333Y-16359142D02*
X25185714Y-16406761D01*
X25042857Y-16454380D01*
X24947619Y-16454380D01*
X24804761Y-16406761D01*
X24709523Y-16311523D01*
X24661904Y-16216285D01*
X24614285Y-16025809D01*
X24614285Y-15882952D01*
X24661904Y-15692476D01*
X24709523Y-15597238D01*
X24804761Y-15502000D01*
X24947619Y-15454380D01*
X25042857Y-15454380D01*
X25185714Y-15502000D01*
X25233333Y-15549619D01*
X26138095Y-15454380D02*
X25661904Y-15454380D01*
X25614285Y-15930571D01*
X25661904Y-15882952D01*
X25757142Y-15835333D01*
X25995238Y-15835333D01*
X26090476Y-15882952D01*
X26138095Y-15930571D01*
X26185714Y-16025809D01*
X26185714Y-16263904D01*
X26138095Y-16359142D01*
X26090476Y-16406761D01*
X25995238Y-16454380D01*
X25757142Y-16454380D01*
X25661904Y-16406761D01*
X25614285Y-16359142D01*
X25233333Y-18645142D02*
X25185714Y-18692761D01*
X25042857Y-18740380D01*
X24947619Y-18740380D01*
X24804761Y-18692761D01*
X24709523Y-18597523D01*
X24661904Y-18502285D01*
X24614285Y-18311809D01*
X24614285Y-18168952D01*
X24661904Y-17978476D01*
X24709523Y-17883238D01*
X24804761Y-17788000D01*
X24947619Y-17740380D01*
X25042857Y-17740380D01*
X25185714Y-17788000D01*
X25233333Y-17835619D01*
X26090476Y-17740380D02*
X25900000Y-17740380D01*
X25804761Y-17788000D01*
X25757142Y-17835619D01*
X25661904Y-17978476D01*
X25614285Y-18168952D01*
X25614285Y-18549904D01*
X25661904Y-18645142D01*
X25709523Y-18692761D01*
X25804761Y-18740380D01*
X25995238Y-18740380D01*
X26090476Y-18692761D01*
X26138095Y-18645142D01*
X26185714Y-18549904D01*
X26185714Y-18311809D01*
X26138095Y-18216571D01*
X26090476Y-18168952D01*
X25995238Y-18121333D01*
X25804761Y-18121333D01*
X25709523Y-18168952D01*
X25661904Y-18216571D01*
X25614285Y-18311809D01*
X35012333Y-16359142D02*
X34964714Y-16406761D01*
X34821857Y-16454380D01*
X34726619Y-16454380D01*
X34583761Y-16406761D01*
X34488523Y-16311523D01*
X34440904Y-16216285D01*
X34393285Y-16025809D01*
X34393285Y-15882952D01*
X34440904Y-15692476D01*
X34488523Y-15597238D01*
X34583761Y-15502000D01*
X34726619Y-15454380D01*
X34821857Y-15454380D01*
X34964714Y-15502000D01*
X35012333Y-15549619D01*
X35345666Y-15454380D02*
X36012333Y-15454380D01*
X35583761Y-16454380D01*
X35012333Y-18645142D02*
X34964714Y-18692761D01*
X34821857Y-18740380D01*
X34726619Y-18740380D01*
X34583761Y-18692761D01*
X34488523Y-18597523D01*
X34440904Y-18502285D01*
X34393285Y-18311809D01*
X34393285Y-18168952D01*
X34440904Y-17978476D01*
X34488523Y-17883238D01*
X34583761Y-17788000D01*
X34726619Y-17740380D01*
X34821857Y-17740380D01*
X34964714Y-17788000D01*
X35012333Y-17835619D01*
X35583761Y-18168952D02*
X35488523Y-18121333D01*
X35440904Y-18073714D01*
X35393285Y-17978476D01*
X35393285Y-17930857D01*
X35440904Y-17835619D01*
X35488523Y-17788000D01*
X35583761Y-17740380D01*
X35774238Y-17740380D01*
X35869476Y-17788000D01*
X35917095Y-17835619D01*
X35964714Y-17930857D01*
X35964714Y-17978476D01*
X35917095Y-18073714D01*
X35869476Y-18121333D01*
X35774238Y-18168952D01*
X35583761Y-18168952D01*
X35488523Y-18216571D01*
X35440904Y-18264190D01*
X35393285Y-18359428D01*
X35393285Y-18549904D01*
X35440904Y-18645142D01*
X35488523Y-18692761D01*
X35583761Y-18740380D01*
X35774238Y-18740380D01*
X35869476Y-18692761D01*
X35917095Y-18645142D01*
X35964714Y-18549904D01*
X35964714Y-18359428D01*
X35917095Y-18264190D01*
X35869476Y-18216571D01*
X35774238Y-18168952D01*
X16190933Y-11939542D02*
X16143314Y-11987161D01*
X16000457Y-12034780D01*
X15905219Y-12034780D01*
X15762361Y-11987161D01*
X15667123Y-11891923D01*
X15619504Y-11796685D01*
X15571885Y-11606209D01*
X15571885Y-11463352D01*
X15619504Y-11272876D01*
X15667123Y-11177638D01*
X15762361Y-11082400D01*
X15905219Y-11034780D01*
X16000457Y-11034780D01*
X16143314Y-11082400D01*
X16190933Y-11130019D01*
X16667123Y-12034780D02*
X16857600Y-12034780D01*
X16952838Y-11987161D01*
X17000457Y-11939542D01*
X17095695Y-11796685D01*
X17143314Y-11606209D01*
X17143314Y-11225257D01*
X17095695Y-11130019D01*
X17048076Y-11082400D01*
X16952838Y-11034780D01*
X16762361Y-11034780D01*
X16667123Y-11082400D01*
X16619504Y-11130019D01*
X16571885Y-11225257D01*
X16571885Y-11463352D01*
X16619504Y-11558590D01*
X16667123Y-11606209D01*
X16762361Y-11653828D01*
X16952838Y-11653828D01*
X17048076Y-11606209D01*
X17095695Y-11558590D01*
X17143314Y-11463352D01*
X27424142Y-10263142D02*
X27376523Y-10310761D01*
X27233666Y-10358380D01*
X27138428Y-10358380D01*
X26995571Y-10310761D01*
X26900333Y-10215523D01*
X26852714Y-10120285D01*
X26805095Y-9929809D01*
X26805095Y-9786952D01*
X26852714Y-9596476D01*
X26900333Y-9501238D01*
X26995571Y-9406000D01*
X27138428Y-9358380D01*
X27233666Y-9358380D01*
X27376523Y-9406000D01*
X27424142Y-9453619D01*
X28376523Y-10358380D02*
X27805095Y-10358380D01*
X28090809Y-10358380D02*
X28090809Y-9358380D01*
X27995571Y-9501238D01*
X27900333Y-9596476D01*
X27805095Y-9644095D01*
X28995571Y-9358380D02*
X29090809Y-9358380D01*
X29186047Y-9406000D01*
X29233666Y-9453619D01*
X29281285Y-9548857D01*
X29328904Y-9739333D01*
X29328904Y-9977428D01*
X29281285Y-10167904D01*
X29233666Y-10263142D01*
X29186047Y-10310761D01*
X29090809Y-10358380D01*
X28995571Y-10358380D01*
X28900333Y-10310761D01*
X28852714Y-10263142D01*
X28805095Y-10167904D01*
X28757476Y-9977428D01*
X28757476Y-9739333D01*
X28805095Y-9548857D01*
X28852714Y-9453619D01*
X28900333Y-9406000D01*
X28995571Y-9358380D01*
X15771904Y-17089380D02*
X15771904Y-16089380D01*
X16010000Y-16089380D01*
X16152857Y-16137000D01*
X16248095Y-16232238D01*
X16295714Y-16327476D01*
X16343333Y-16517952D01*
X16343333Y-16660809D01*
X16295714Y-16851285D01*
X16248095Y-16946523D01*
X16152857Y-17041761D01*
X16010000Y-17089380D01*
X15771904Y-17089380D01*
X17295714Y-17089380D02*
X16724285Y-17089380D01*
X17010000Y-17089380D02*
X17010000Y-16089380D01*
X16914761Y-16232238D01*
X16819523Y-16327476D01*
X16724285Y-16375095D01*
X15644904Y-14422380D02*
X15644904Y-13422380D01*
X15883000Y-13422380D01*
X16025857Y-13470000D01*
X16121095Y-13565238D01*
X16168714Y-13660476D01*
X16216333Y-13850952D01*
X16216333Y-13993809D01*
X16168714Y-14184285D01*
X16121095Y-14279523D01*
X16025857Y-14374761D01*
X15883000Y-14422380D01*
X15644904Y-14422380D01*
X16597285Y-13517619D02*
X16644904Y-13470000D01*
X16740142Y-13422380D01*
X16978238Y-13422380D01*
X17073476Y-13470000D01*
X17121095Y-13517619D01*
X17168714Y-13612857D01*
X17168714Y-13708095D01*
X17121095Y-13850952D01*
X16549666Y-14422380D01*
X17168714Y-14422380D01*
X23391904Y-10485380D02*
X23391904Y-9485380D01*
X23630000Y-9485380D01*
X23772857Y-9533000D01*
X23868095Y-9628238D01*
X23915714Y-9723476D01*
X23963333Y-9913952D01*
X23963333Y-10056809D01*
X23915714Y-10247285D01*
X23868095Y-10342523D01*
X23772857Y-10437761D01*
X23630000Y-10485380D01*
X23391904Y-10485380D01*
X24296666Y-9485380D02*
X24915714Y-9485380D01*
X24582380Y-9866333D01*
X24725238Y-9866333D01*
X24820476Y-9913952D01*
X24868095Y-9961571D01*
X24915714Y-10056809D01*
X24915714Y-10294904D01*
X24868095Y-10390142D01*
X24820476Y-10437761D01*
X24725238Y-10485380D01*
X24439523Y-10485380D01*
X24344285Y-10437761D01*
X24296666Y-10390142D01*
X17664133Y-1569980D02*
X17187942Y-1569980D01*
X17187942Y-569980D01*
X18521276Y-1569980D02*
X17949847Y-1569980D01*
X18235561Y-1569980D02*
X18235561Y-569980D01*
X18140323Y-712838D01*
X18045085Y-808076D01*
X17949847Y-855695D01*
X23907761Y-6730619D02*
X23812523Y-6683000D01*
X23717285Y-6587761D01*
X23574428Y-6444904D01*
X23479190Y-6397285D01*
X23383952Y-6397285D01*
X23431571Y-6635380D02*
X23336333Y-6587761D01*
X23241095Y-6492523D01*
X23193476Y-6302047D01*
X23193476Y-5968714D01*
X23241095Y-5778238D01*
X23336333Y-5683000D01*
X23431571Y-5635380D01*
X23622047Y-5635380D01*
X23717285Y-5683000D01*
X23812523Y-5778238D01*
X23860142Y-5968714D01*
X23860142Y-6302047D01*
X23812523Y-6492523D01*
X23717285Y-6587761D01*
X23622047Y-6635380D01*
X23431571Y-6635380D01*
X24812523Y-6635380D02*
X24241095Y-6635380D01*
X24526809Y-6635380D02*
X24526809Y-5635380D01*
X24431571Y-5778238D01*
X24336333Y-5873476D01*
X24241095Y-5921095D01*
X28027333Y-1722380D02*
X27694000Y-1246190D01*
X27455904Y-1722380D02*
X27455904Y-722380D01*
X27836857Y-722380D01*
X27932095Y-770000D01*
X27979714Y-817619D01*
X28027333Y-912857D01*
X28027333Y-1055714D01*
X27979714Y-1150952D01*
X27932095Y-1198571D01*
X27836857Y-1246190D01*
X27455904Y-1246190D01*
X28979714Y-1722380D02*
X28408285Y-1722380D01*
X28694000Y-1722380D02*
X28694000Y-722380D01*
X28598761Y-865238D01*
X28503523Y-960476D01*
X28408285Y-1008095D01*
X35012333Y-4516380D02*
X34679000Y-4040190D01*
X34440904Y-4516380D02*
X34440904Y-3516380D01*
X34821857Y-3516380D01*
X34917095Y-3564000D01*
X34964714Y-3611619D01*
X35012333Y-3706857D01*
X35012333Y-3849714D01*
X34964714Y-3944952D01*
X34917095Y-3992571D01*
X34821857Y-4040190D01*
X34440904Y-4040190D01*
X35393285Y-3611619D02*
X35440904Y-3564000D01*
X35536142Y-3516380D01*
X35774238Y-3516380D01*
X35869476Y-3564000D01*
X35917095Y-3611619D01*
X35964714Y-3706857D01*
X35964714Y-3802095D01*
X35917095Y-3944952D01*
X35345666Y-4516380D01*
X35964714Y-4516380D01*
X35044142Y-14073142D02*
X34996523Y-14120761D01*
X34853666Y-14168380D01*
X34758428Y-14168380D01*
X34615571Y-14120761D01*
X34520333Y-14025523D01*
X34472714Y-13930285D01*
X34425095Y-13739809D01*
X34425095Y-13596952D01*
X34472714Y-13406476D01*
X34520333Y-13311238D01*
X34615571Y-13216000D01*
X34758428Y-13168380D01*
X34853666Y-13168380D01*
X34996523Y-13216000D01*
X35044142Y-13263619D01*
X35996523Y-14168380D02*
X35425095Y-14168380D01*
X35710809Y-14168380D02*
X35710809Y-13168380D01*
X35615571Y-13311238D01*
X35520333Y-13406476D01*
X35425095Y-13454095D01*
X36948904Y-14168380D02*
X36377476Y-14168380D01*
X36663190Y-14168380D02*
X36663190Y-13168380D01*
X36567952Y-13311238D01*
X36472714Y-13406476D01*
X36377476Y-13454095D01*
M02*
