G04 #@! TF.GenerationSoftware,KiCad,Pcbnew,(5.1.0-rc1-17-gb4eda32f8)*
G04 #@! TF.CreationDate,2019-03-22T20:33:51+01:00
G04 #@! TF.ProjectId,e-ink_pmod,652d696e-6b5f-4706-9d6f-642e6b696361,rev?*
G04 #@! TF.SameCoordinates,PX525bfc0PY429d390*
G04 #@! TF.FileFunction,Soldermask,Top*
G04 #@! TF.FilePolarity,Negative*
%FSLAX46Y46*%
G04 Gerber Fmt 4.6, Leading zero omitted, Abs format (unit mm)*
G04 Created by KiCad (PCBNEW (5.1.0-rc1-17-gb4eda32f8)) date 2019-03-22 20:33:51*
%MOMM*%
%LPD*%
G04 APERTURE LIST*
%ADD10C,0.050000*%
G04 APERTURE END LIST*
D10*
G36*
X38400000Y-19660000D02*
G01*
X40800000Y-19660000D01*
X40800000Y-18560000D01*
X41650000Y-18560000D01*
X41650000Y-17060000D01*
X38400000Y-17060000D01*
X38400000Y-19660000D01*
G37*
G36*
X38400000Y-660000D02*
G01*
X40800000Y-660000D01*
X40800000Y-1760000D01*
X41650000Y-1760000D01*
X41650000Y-3260000D01*
X38400000Y-3260000D01*
X38400000Y-660000D01*
G37*
G36*
X33936000Y-18964000D02*
G01*
X32834000Y-18964000D01*
X32834000Y-17612000D01*
X33936000Y-17612000D01*
X33936000Y-18964000D01*
X33936000Y-18964000D01*
G37*
G36*
X31936000Y-18964000D02*
G01*
X30834000Y-18964000D01*
X30834000Y-17612000D01*
X31936000Y-17612000D01*
X31936000Y-18964000D01*
X31936000Y-18964000D01*
G37*
G36*
X29745000Y-18964000D02*
G01*
X28643000Y-18964000D01*
X28643000Y-17612000D01*
X29745000Y-17612000D01*
X29745000Y-18964000D01*
X29745000Y-18964000D01*
G37*
G36*
X27745000Y-18964000D02*
G01*
X26643000Y-18964000D01*
X26643000Y-17612000D01*
X27745000Y-17612000D01*
X27745000Y-18964000D01*
X27745000Y-18964000D01*
G37*
G36*
X4047142Y-15728242D02*
G01*
X4195101Y-15789529D01*
X4328255Y-15878499D01*
X4441501Y-15991745D01*
X4530471Y-16124899D01*
X4591758Y-16272858D01*
X4623000Y-16429925D01*
X4623000Y-16590075D01*
X4591758Y-16747142D01*
X4530471Y-16895101D01*
X4441501Y-17028255D01*
X4328255Y-17141501D01*
X4195101Y-17230471D01*
X4047142Y-17291758D01*
X3890075Y-17323000D01*
X3729925Y-17323000D01*
X3572858Y-17291758D01*
X3424899Y-17230471D01*
X3291745Y-17141501D01*
X3178499Y-17028255D01*
X3089529Y-16895101D01*
X3028242Y-16747142D01*
X2997000Y-16590075D01*
X2997000Y-16429925D01*
X3028242Y-16272858D01*
X3089529Y-16124899D01*
X3178499Y-15991745D01*
X3291745Y-15878499D01*
X3424899Y-15789529D01*
X3572858Y-15728242D01*
X3729925Y-15697000D01*
X3890075Y-15697000D01*
X4047142Y-15728242D01*
X4047142Y-15728242D01*
G37*
G36*
X6587142Y-15728242D02*
G01*
X6735101Y-15789529D01*
X6868255Y-15878499D01*
X6981501Y-15991745D01*
X7070471Y-16124899D01*
X7131758Y-16272858D01*
X7163000Y-16429925D01*
X7163000Y-16590075D01*
X7131758Y-16747142D01*
X7070471Y-16895101D01*
X6981501Y-17028255D01*
X6868255Y-17141501D01*
X6735101Y-17230471D01*
X6587142Y-17291758D01*
X6430075Y-17323000D01*
X6269925Y-17323000D01*
X6112858Y-17291758D01*
X5964899Y-17230471D01*
X5831745Y-17141501D01*
X5718499Y-17028255D01*
X5629529Y-16895101D01*
X5568242Y-16747142D01*
X5537000Y-16590075D01*
X5537000Y-16429925D01*
X5568242Y-16272858D01*
X5629529Y-16124899D01*
X5718499Y-15991745D01*
X5831745Y-15878499D01*
X5964899Y-15789529D01*
X6112858Y-15728242D01*
X6269925Y-15697000D01*
X6430075Y-15697000D01*
X6587142Y-15728242D01*
X6587142Y-15728242D01*
G37*
G36*
X18663000Y-17288000D02*
G01*
X17661000Y-17288000D01*
X17661000Y-15986000D01*
X18663000Y-15986000D01*
X18663000Y-17288000D01*
X18663000Y-17288000D01*
G37*
G36*
X21963000Y-17288000D02*
G01*
X20961000Y-17288000D01*
X20961000Y-15986000D01*
X21963000Y-15986000D01*
X21963000Y-17288000D01*
X21963000Y-17288000D01*
G37*
G36*
X31936000Y-16678000D02*
G01*
X30834000Y-16678000D01*
X30834000Y-15326000D01*
X31936000Y-15326000D01*
X31936000Y-16678000D01*
X31936000Y-16678000D01*
G37*
G36*
X29745000Y-16678000D02*
G01*
X28643000Y-16678000D01*
X28643000Y-15326000D01*
X29745000Y-15326000D01*
X29745000Y-16678000D01*
X29745000Y-16678000D01*
G37*
G36*
X27745000Y-16678000D02*
G01*
X26643000Y-16678000D01*
X26643000Y-15326000D01*
X27745000Y-15326000D01*
X27745000Y-16678000D01*
X27745000Y-16678000D01*
G37*
G36*
X33936000Y-16678000D02*
G01*
X32834000Y-16678000D01*
X32834000Y-15326000D01*
X33936000Y-15326000D01*
X33936000Y-16678000D01*
X33936000Y-16678000D01*
G37*
G36*
X38551000Y-16111000D02*
G01*
X37649000Y-16111000D01*
X37649000Y-4209000D01*
X38551000Y-4209000D01*
X38551000Y-16111000D01*
X38551000Y-16111000D01*
G37*
G36*
X24781000Y-15232000D02*
G01*
X23479000Y-15232000D01*
X23479000Y-14230000D01*
X24781000Y-14230000D01*
X24781000Y-15232000D01*
X24781000Y-15232000D01*
G37*
G36*
X6587142Y-13188242D02*
G01*
X6735101Y-13249529D01*
X6868255Y-13338499D01*
X6981501Y-13451745D01*
X7070471Y-13584899D01*
X7131758Y-13732858D01*
X7163000Y-13889925D01*
X7163000Y-14050075D01*
X7131758Y-14207142D01*
X7070471Y-14355101D01*
X6981501Y-14488255D01*
X6868255Y-14601501D01*
X6735101Y-14690471D01*
X6587142Y-14751758D01*
X6430075Y-14783000D01*
X6269925Y-14783000D01*
X6112858Y-14751758D01*
X5964899Y-14690471D01*
X5831745Y-14601501D01*
X5718499Y-14488255D01*
X5629529Y-14355101D01*
X5568242Y-14207142D01*
X5537000Y-14050075D01*
X5537000Y-13889925D01*
X5568242Y-13732858D01*
X5629529Y-13584899D01*
X5718499Y-13451745D01*
X5831745Y-13338499D01*
X5964899Y-13249529D01*
X6112858Y-13188242D01*
X6269925Y-13157000D01*
X6430075Y-13157000D01*
X6587142Y-13188242D01*
X6587142Y-13188242D01*
G37*
G36*
X4047142Y-13188242D02*
G01*
X4195101Y-13249529D01*
X4328255Y-13338499D01*
X4441501Y-13451745D01*
X4530471Y-13584899D01*
X4591758Y-13732858D01*
X4623000Y-13889925D01*
X4623000Y-14050075D01*
X4591758Y-14207142D01*
X4530471Y-14355101D01*
X4441501Y-14488255D01*
X4328255Y-14601501D01*
X4195101Y-14690471D01*
X4047142Y-14751758D01*
X3890075Y-14783000D01*
X3729925Y-14783000D01*
X3572858Y-14751758D01*
X3424899Y-14690471D01*
X3291745Y-14601501D01*
X3178499Y-14488255D01*
X3089529Y-14355101D01*
X3028242Y-14207142D01*
X2997000Y-14050075D01*
X2997000Y-13889925D01*
X3028242Y-13732858D01*
X3089529Y-13584899D01*
X3178499Y-13451745D01*
X3291745Y-13338499D01*
X3424899Y-13249529D01*
X3572858Y-13188242D01*
X3729925Y-13157000D01*
X3890075Y-13157000D01*
X4047142Y-13188242D01*
X4047142Y-13188242D01*
G37*
G36*
X21963000Y-14621000D02*
G01*
X20961000Y-14621000D01*
X20961000Y-13319000D01*
X21963000Y-13319000D01*
X21963000Y-14621000D01*
X21963000Y-14621000D01*
G37*
G36*
X18663000Y-14621000D02*
G01*
X17661000Y-14621000D01*
X17661000Y-13319000D01*
X18663000Y-13319000D01*
X18663000Y-14621000D01*
X18663000Y-14621000D01*
G37*
G36*
X33936000Y-14392000D02*
G01*
X32834000Y-14392000D01*
X32834000Y-13040000D01*
X33936000Y-13040000D01*
X33936000Y-14392000D01*
X33936000Y-14392000D01*
G37*
G36*
X31936000Y-14392000D02*
G01*
X30834000Y-14392000D01*
X30834000Y-13040000D01*
X31936000Y-13040000D01*
X31936000Y-14392000D01*
X31936000Y-14392000D01*
G37*
G36*
X29745000Y-14392000D02*
G01*
X28643000Y-14392000D01*
X28643000Y-13040000D01*
X29745000Y-13040000D01*
X29745000Y-14392000D01*
X29745000Y-14392000D01*
G37*
G36*
X27745000Y-14392000D02*
G01*
X26643000Y-14392000D01*
X26643000Y-13040000D01*
X27745000Y-13040000D01*
X27745000Y-14392000D01*
X27745000Y-14392000D01*
G37*
G36*
X6587142Y-10648242D02*
G01*
X6735101Y-10709529D01*
X6868255Y-10798499D01*
X6981501Y-10911745D01*
X7070471Y-11044899D01*
X7131758Y-11192858D01*
X7163000Y-11349925D01*
X7163000Y-11510075D01*
X7131758Y-11667142D01*
X7070471Y-11815101D01*
X6981501Y-11948255D01*
X6868255Y-12061501D01*
X6735101Y-12150471D01*
X6587142Y-12211758D01*
X6430075Y-12243000D01*
X6269925Y-12243000D01*
X6112858Y-12211758D01*
X5964899Y-12150471D01*
X5831745Y-12061501D01*
X5718499Y-11948255D01*
X5629529Y-11815101D01*
X5568242Y-11667142D01*
X5537000Y-11510075D01*
X5537000Y-11349925D01*
X5568242Y-11192858D01*
X5629529Y-11044899D01*
X5718499Y-10911745D01*
X5831745Y-10798499D01*
X5964899Y-10709529D01*
X6112858Y-10648242D01*
X6269925Y-10617000D01*
X6430075Y-10617000D01*
X6587142Y-10648242D01*
X6587142Y-10648242D01*
G37*
G36*
X4047142Y-10648242D02*
G01*
X4195101Y-10709529D01*
X4328255Y-10798499D01*
X4441501Y-10911745D01*
X4530471Y-11044899D01*
X4591758Y-11192858D01*
X4623000Y-11349925D01*
X4623000Y-11510075D01*
X4591758Y-11667142D01*
X4530471Y-11815101D01*
X4441501Y-11948255D01*
X4328255Y-12061501D01*
X4195101Y-12150471D01*
X4047142Y-12211758D01*
X3890075Y-12243000D01*
X3729925Y-12243000D01*
X3572858Y-12211758D01*
X3424899Y-12150471D01*
X3291745Y-12061501D01*
X3178499Y-11948255D01*
X3089529Y-11815101D01*
X3028242Y-11667142D01*
X2997000Y-11510075D01*
X2997000Y-11349925D01*
X3028242Y-11192858D01*
X3089529Y-11044899D01*
X3178499Y-10911745D01*
X3291745Y-10798499D01*
X3424899Y-10709529D01*
X3572858Y-10648242D01*
X3729925Y-10617000D01*
X3890075Y-10617000D01*
X4047142Y-10648242D01*
X4047142Y-10648242D01*
G37*
G36*
X21363000Y-12233000D02*
G01*
X20261000Y-12233000D01*
X20261000Y-10881000D01*
X21363000Y-10881000D01*
X21363000Y-12233000D01*
X21363000Y-12233000D01*
G37*
G36*
X19363000Y-12233000D02*
G01*
X18261000Y-12233000D01*
X18261000Y-10881000D01*
X19363000Y-10881000D01*
X19363000Y-12233000D01*
X19363000Y-12233000D01*
G37*
G36*
X33936000Y-12106000D02*
G01*
X32834000Y-12106000D01*
X32834000Y-10754000D01*
X33936000Y-10754000D01*
X33936000Y-12106000D01*
X33936000Y-12106000D01*
G37*
G36*
X27745000Y-12106000D02*
G01*
X26643000Y-12106000D01*
X26643000Y-10754000D01*
X27745000Y-10754000D01*
X27745000Y-12106000D01*
X27745000Y-12106000D01*
G37*
G36*
X31936000Y-12106000D02*
G01*
X30834000Y-12106000D01*
X30834000Y-10754000D01*
X31936000Y-10754000D01*
X31936000Y-12106000D01*
X31936000Y-12106000D01*
G37*
G36*
X29745000Y-12106000D02*
G01*
X28643000Y-12106000D01*
X28643000Y-10754000D01*
X29745000Y-10754000D01*
X29745000Y-12106000D01*
X29745000Y-12106000D01*
G37*
G36*
X24781000Y-11932000D02*
G01*
X23479000Y-11932000D01*
X23479000Y-10930000D01*
X24781000Y-10930000D01*
X24781000Y-11932000D01*
X24781000Y-11932000D01*
G37*
G36*
X4047142Y-8108242D02*
G01*
X4195101Y-8169529D01*
X4328255Y-8258499D01*
X4441501Y-8371745D01*
X4530471Y-8504899D01*
X4591758Y-8652858D01*
X4623000Y-8809925D01*
X4623000Y-8970075D01*
X4591758Y-9127142D01*
X4530471Y-9275101D01*
X4441501Y-9408255D01*
X4328255Y-9521501D01*
X4195101Y-9610471D01*
X4047142Y-9671758D01*
X3890075Y-9703000D01*
X3729925Y-9703000D01*
X3572858Y-9671758D01*
X3424899Y-9610471D01*
X3291745Y-9521501D01*
X3178499Y-9408255D01*
X3089529Y-9275101D01*
X3028242Y-9127142D01*
X2997000Y-8970075D01*
X2997000Y-8809925D01*
X3028242Y-8652858D01*
X3089529Y-8504899D01*
X3178499Y-8371745D01*
X3291745Y-8258499D01*
X3424899Y-8169529D01*
X3572858Y-8108242D01*
X3729925Y-8077000D01*
X3890075Y-8077000D01*
X4047142Y-8108242D01*
X4047142Y-8108242D01*
G37*
G36*
X6587142Y-8108242D02*
G01*
X6735101Y-8169529D01*
X6868255Y-8258499D01*
X6981501Y-8371745D01*
X7070471Y-8504899D01*
X7131758Y-8652858D01*
X7163000Y-8809925D01*
X7163000Y-8970075D01*
X7131758Y-9127142D01*
X7070471Y-9275101D01*
X6981501Y-9408255D01*
X6868255Y-9521501D01*
X6735101Y-9610471D01*
X6587142Y-9671758D01*
X6430075Y-9703000D01*
X6269925Y-9703000D01*
X6112858Y-9671758D01*
X5964899Y-9610471D01*
X5831745Y-9521501D01*
X5718499Y-9408255D01*
X5629529Y-9275101D01*
X5568242Y-9127142D01*
X5537000Y-8970075D01*
X5537000Y-8809925D01*
X5568242Y-8652858D01*
X5629529Y-8504899D01*
X5718499Y-8371745D01*
X5831745Y-8258499D01*
X5964899Y-8169529D01*
X6112858Y-8108242D01*
X6269925Y-8077000D01*
X6430075Y-8077000D01*
X6587142Y-8108242D01*
X6587142Y-8108242D01*
G37*
G36*
X6587142Y-5568242D02*
G01*
X6735101Y-5629529D01*
X6868255Y-5718499D01*
X6981501Y-5831745D01*
X7070471Y-5964899D01*
X7131758Y-6112858D01*
X7163000Y-6269925D01*
X7163000Y-6430075D01*
X7131758Y-6587142D01*
X7070471Y-6735101D01*
X6981501Y-6868255D01*
X6868255Y-6981501D01*
X6735101Y-7070471D01*
X6587142Y-7131758D01*
X6430075Y-7163000D01*
X6269925Y-7163000D01*
X6112858Y-7131758D01*
X5964899Y-7070471D01*
X5831745Y-6981501D01*
X5718499Y-6868255D01*
X5629529Y-6735101D01*
X5568242Y-6587142D01*
X5537000Y-6430075D01*
X5537000Y-6269925D01*
X5568242Y-6112858D01*
X5629529Y-5964899D01*
X5718499Y-5831745D01*
X5831745Y-5718499D01*
X5964899Y-5629529D01*
X6112858Y-5568242D01*
X6269925Y-5537000D01*
X6430075Y-5537000D01*
X6587142Y-5568242D01*
X6587142Y-5568242D01*
G37*
G36*
X4047142Y-5568242D02*
G01*
X4195101Y-5629529D01*
X4328255Y-5718499D01*
X4441501Y-5831745D01*
X4530471Y-5964899D01*
X4591758Y-6112858D01*
X4623000Y-6269925D01*
X4623000Y-6430075D01*
X4591758Y-6587142D01*
X4530471Y-6735101D01*
X4441501Y-6868255D01*
X4328255Y-6981501D01*
X4195101Y-7070471D01*
X4047142Y-7131758D01*
X3890075Y-7163000D01*
X3729925Y-7163000D01*
X3572858Y-7131758D01*
X3424899Y-7070471D01*
X3291745Y-6981501D01*
X3178499Y-6868255D01*
X3089529Y-6735101D01*
X3028242Y-6587142D01*
X2997000Y-6430075D01*
X2997000Y-6269925D01*
X3028242Y-6112858D01*
X3089529Y-5964899D01*
X3178499Y-5831745D01*
X3291745Y-5718499D01*
X3424899Y-5629529D01*
X3572858Y-5568242D01*
X3729925Y-5537000D01*
X3890075Y-5537000D01*
X4047142Y-5568242D01*
X4047142Y-5568242D01*
G37*
G36*
X33936000Y-7026000D02*
G01*
X32834000Y-7026000D01*
X32834000Y-5674000D01*
X33936000Y-5674000D01*
X33936000Y-7026000D01*
X33936000Y-7026000D01*
G37*
G36*
X31936000Y-7026000D02*
G01*
X30834000Y-7026000D01*
X30834000Y-5674000D01*
X31936000Y-5674000D01*
X31936000Y-7026000D01*
X31936000Y-7026000D01*
G37*
G36*
X27745000Y-5883000D02*
G01*
X26643000Y-5883000D01*
X26643000Y-4531000D01*
X27745000Y-4531000D01*
X27745000Y-5883000D01*
X27745000Y-5883000D01*
G37*
G36*
X29745000Y-5883000D02*
G01*
X28643000Y-5883000D01*
X28643000Y-4531000D01*
X29745000Y-4531000D01*
X29745000Y-5883000D01*
X29745000Y-5883000D01*
G37*
G36*
X16191000Y-5484000D02*
G01*
X14489000Y-5484000D01*
X14489000Y-1882000D01*
X16191000Y-1882000D01*
X16191000Y-5484000D01*
X16191000Y-5484000D01*
G37*
G36*
X21071000Y-5484000D02*
G01*
X19369000Y-5484000D01*
X19369000Y-1882000D01*
X21071000Y-1882000D01*
X21071000Y-5484000D01*
X21071000Y-5484000D01*
G37*
G36*
X25504000Y-5084000D02*
G01*
X24502000Y-5084000D01*
X24502000Y-4182000D01*
X25504000Y-4182000D01*
X25504000Y-5084000D01*
X25504000Y-5084000D01*
G37*
G36*
X31836000Y-4765000D02*
G01*
X31034000Y-4765000D01*
X31034000Y-3363000D01*
X31836000Y-3363000D01*
X31836000Y-4765000D01*
X31836000Y-4765000D01*
G37*
G36*
X33736000Y-4765000D02*
G01*
X32934000Y-4765000D01*
X32934000Y-3363000D01*
X33736000Y-3363000D01*
X33736000Y-4765000D01*
X33736000Y-4765000D01*
G37*
G36*
X4047142Y-3028242D02*
G01*
X4195101Y-3089529D01*
X4328255Y-3178499D01*
X4441501Y-3291745D01*
X4530471Y-3424899D01*
X4591758Y-3572858D01*
X4623000Y-3729925D01*
X4623000Y-3890075D01*
X4591758Y-4047142D01*
X4530471Y-4195101D01*
X4441501Y-4328255D01*
X4328255Y-4441501D01*
X4195101Y-4530471D01*
X4047142Y-4591758D01*
X3890075Y-4623000D01*
X3729925Y-4623000D01*
X3572858Y-4591758D01*
X3424899Y-4530471D01*
X3291745Y-4441501D01*
X3178499Y-4328255D01*
X3089529Y-4195101D01*
X3028242Y-4047142D01*
X2997000Y-3890075D01*
X2997000Y-3729925D01*
X3028242Y-3572858D01*
X3089529Y-3424899D01*
X3178499Y-3291745D01*
X3291745Y-3178499D01*
X3424899Y-3089529D01*
X3572858Y-3028242D01*
X3729925Y-2997000D01*
X3890075Y-2997000D01*
X4047142Y-3028242D01*
X4047142Y-3028242D01*
G37*
G36*
X7163000Y-4623000D02*
G01*
X5537000Y-4623000D01*
X5537000Y-2997000D01*
X7163000Y-2997000D01*
X7163000Y-4623000D01*
X7163000Y-4623000D01*
G37*
G36*
X23504000Y-4134000D02*
G01*
X22502000Y-4134000D01*
X22502000Y-3232000D01*
X23504000Y-3232000D01*
X23504000Y-4134000D01*
X23504000Y-4134000D01*
G37*
G36*
X27645000Y-3622000D02*
G01*
X26843000Y-3622000D01*
X26843000Y-2220000D01*
X27645000Y-2220000D01*
X27645000Y-3622000D01*
X27645000Y-3622000D01*
G37*
G36*
X29545000Y-3622000D02*
G01*
X28743000Y-3622000D01*
X28743000Y-2220000D01*
X29545000Y-2220000D01*
X29545000Y-3622000D01*
X29545000Y-3622000D01*
G37*
G36*
X25504000Y-3184000D02*
G01*
X24502000Y-3184000D01*
X24502000Y-2282000D01*
X25504000Y-2282000D01*
X25504000Y-3184000D01*
X25504000Y-3184000D01*
G37*
M02*
