G04 #@! TF.GenerationSoftware,KiCad,Pcbnew,(5.99.0-8084-g866e5df16a)*
G04 #@! TF.CreationDate,2021-01-03T17:36:52+01:00*
G04 #@! TF.ProjectId,e-ink_pmod,652d696e-6b5f-4706-9d6f-642e6b696361,1.1*
G04 #@! TF.SameCoordinates,PX525bfc0PY429d390*
G04 #@! TF.FileFunction,Legend,Bot*
G04 #@! TF.FilePolarity,Positive*
%FSLAX46Y46*%
G04 Gerber Fmt 4.6, Leading zero omitted, Abs format (unit mm)*
G04 Created by KiCad (PCBNEW (5.99.0-8084-g866e5df16a)) date 2021-01-03 17:36:52*
%MOMM*%
%LPD*%
G01*
G04 APERTURE LIST*
%ADD10C,0.120000*%
%ADD11C,0.200000*%
%ADD12C,0.150000*%
%ADD13C,0.304800*%
%ADD14C,0.010000*%
G04 APERTURE END LIST*
D10*
X13970000Y-2540000D02*
X21590000Y-2540000D01*
X29210000Y-17780000D02*
X21590000Y-17780000D01*
X13970000Y-15240000D02*
X29210000Y-15240000D01*
X29210000Y-12700000D02*
X13970000Y-12700000D01*
X21590000Y-2540000D02*
X29210000Y-2540000D01*
X21590000Y-17780000D02*
X13970000Y-17780000D01*
X13970000Y-10160000D02*
X29210000Y-10160000D01*
X29210000Y-2540000D02*
X29210000Y-17780000D01*
X13970000Y-5080000D02*
X29210000Y-5080000D01*
X29210000Y-7620000D02*
X13970000Y-7620000D01*
X13970000Y-17780000D02*
X13970000Y-2540000D01*
X21590000Y-2540000D02*
X21590000Y-17780000D01*
D11*
X32814285Y-2330000D02*
X32742857Y-2263333D01*
X32671428Y-2130000D01*
X32671428Y-1996666D01*
X32742857Y-1863333D01*
X32814285Y-1796666D01*
X32957142Y-1730000D01*
X33100000Y-1730000D01*
X33242857Y-1796666D01*
X33314285Y-1863333D01*
X33385714Y-1996666D01*
X33385714Y-2130000D01*
X33314285Y-2263333D01*
X33242857Y-2330000D01*
X32671428Y-2330000D02*
X33242857Y-2330000D01*
X33314285Y-2396666D01*
X33314285Y-2463333D01*
X33242857Y-2596666D01*
X33100000Y-2663333D01*
X32742857Y-2663333D01*
X32528571Y-2530000D01*
X32385714Y-2330000D01*
X32314285Y-2063333D01*
X32385714Y-1796666D01*
X32528571Y-1596666D01*
X32742857Y-1463333D01*
X33028571Y-1396666D01*
X33314285Y-1463333D01*
X33528571Y-1596666D01*
X33671428Y-1796666D01*
X33742857Y-2063333D01*
X33671428Y-2330000D01*
X33528571Y-2530000D01*
X32528571Y-3063333D02*
X32528571Y-3596666D01*
X32028571Y-3263333D02*
X33314285Y-3263333D01*
X33457142Y-3330000D01*
X33528571Y-3463333D01*
X33528571Y-3596666D01*
X33528571Y-4063333D02*
X32028571Y-4063333D01*
X33528571Y-4663333D02*
X32742857Y-4663333D01*
X32600000Y-4596666D01*
X32528571Y-4463333D01*
X32528571Y-4263333D01*
X32600000Y-4130000D01*
X32671428Y-4063333D01*
X33528571Y-5530000D02*
X33457142Y-5396666D01*
X33385714Y-5330000D01*
X33242857Y-5263333D01*
X32814285Y-5263333D01*
X32671428Y-5330000D01*
X32600000Y-5396666D01*
X32528571Y-5530000D01*
X32528571Y-5730000D01*
X32600000Y-5863333D01*
X32671428Y-5930000D01*
X32814285Y-5996666D01*
X33242857Y-5996666D01*
X33385714Y-5930000D01*
X33457142Y-5863333D01*
X33528571Y-5730000D01*
X33528571Y-5530000D01*
X33528571Y-6596666D02*
X32528571Y-6596666D01*
X32671428Y-6596666D02*
X32600000Y-6663333D01*
X32528571Y-6796666D01*
X32528571Y-6996666D01*
X32600000Y-7130000D01*
X32742857Y-7196666D01*
X33528571Y-7196666D01*
X32742857Y-7196666D02*
X32600000Y-7263333D01*
X32528571Y-7396666D01*
X32528571Y-7596666D01*
X32600000Y-7730000D01*
X32742857Y-7796666D01*
X33528571Y-7796666D01*
X33528571Y-9063333D02*
X32742857Y-9063333D01*
X32600000Y-8996666D01*
X32528571Y-8863333D01*
X32528571Y-8596666D01*
X32600000Y-8463333D01*
X33457142Y-9063333D02*
X33528571Y-8930000D01*
X33528571Y-8596666D01*
X33457142Y-8463333D01*
X33314285Y-8396666D01*
X33171428Y-8396666D01*
X33028571Y-8463333D01*
X32957142Y-8596666D01*
X32957142Y-8930000D01*
X32885714Y-9063333D01*
X33457142Y-9663333D02*
X33528571Y-9796666D01*
X33528571Y-10063333D01*
X33457142Y-10196666D01*
X33314285Y-10263333D01*
X33242857Y-10263333D01*
X33100000Y-10196666D01*
X33028571Y-10063333D01*
X33028571Y-9863333D01*
X32957142Y-9730000D01*
X32814285Y-9663333D01*
X32742857Y-9663333D01*
X32600000Y-9730000D01*
X32528571Y-9863333D01*
X32528571Y-10063333D01*
X32600000Y-10196666D01*
X32528571Y-10663333D02*
X32528571Y-11196666D01*
X33528571Y-10863333D02*
X32242857Y-10863333D01*
X32100000Y-10930000D01*
X32028571Y-11063333D01*
X32028571Y-11196666D01*
X33528571Y-11863333D02*
X33457142Y-11730000D01*
X33314285Y-11663333D01*
X32028571Y-11663333D01*
X32528571Y-12996666D02*
X33528571Y-12996666D01*
X32528571Y-12396666D02*
X33314285Y-12396666D01*
X33457142Y-12463333D01*
X33528571Y-12596666D01*
X33528571Y-12796666D01*
X33457142Y-12930000D01*
X33385714Y-12996666D01*
X33528571Y-13663333D02*
X32528571Y-13663333D01*
X32671428Y-13663333D02*
X32600000Y-13730000D01*
X32528571Y-13863333D01*
X32528571Y-14063333D01*
X32600000Y-14196666D01*
X32742857Y-14263333D01*
X33528571Y-14263333D01*
X32742857Y-14263333D02*
X32600000Y-14330000D01*
X32528571Y-14463333D01*
X32528571Y-14663333D01*
X32600000Y-14796666D01*
X32742857Y-14863333D01*
X33528571Y-14863333D01*
X33528571Y-15530000D02*
X32528571Y-15530000D01*
X32671428Y-15530000D02*
X32600000Y-15596666D01*
X32528571Y-15730000D01*
X32528571Y-15930000D01*
X32600000Y-16063333D01*
X32742857Y-16130000D01*
X33528571Y-16130000D01*
X32742857Y-16130000D02*
X32600000Y-16196666D01*
X32528571Y-16330000D01*
X32528571Y-16530000D01*
X32600000Y-16663333D01*
X32742857Y-16730000D01*
X33528571Y-16730000D01*
X33457142Y-17930000D02*
X33528571Y-17796666D01*
X33528571Y-17530000D01*
X33457142Y-17396666D01*
X33314285Y-17330000D01*
X32742857Y-17330000D01*
X32600000Y-17396666D01*
X32528571Y-17530000D01*
X32528571Y-17796666D01*
X32600000Y-17930000D01*
X32742857Y-17996666D01*
X32885714Y-17996666D01*
X33028571Y-17330000D01*
X33528571Y-18596666D02*
X32528571Y-18596666D01*
X32814285Y-18596666D02*
X32671428Y-18663333D01*
X32600000Y-18730000D01*
X32528571Y-18863333D01*
X32528571Y-18996666D01*
D12*
X20567261Y-15952380D02*
X20233928Y-16952380D01*
X19900595Y-15952380D01*
X18995833Y-16857142D02*
X19043452Y-16904761D01*
X19186309Y-16952380D01*
X19281547Y-16952380D01*
X19424404Y-16904761D01*
X19519642Y-16809523D01*
X19567261Y-16714285D01*
X19614880Y-16523809D01*
X19614880Y-16380952D01*
X19567261Y-16190476D01*
X19519642Y-16095238D01*
X19424404Y-16000000D01*
X19281547Y-15952380D01*
X19186309Y-15952380D01*
X19043452Y-16000000D01*
X18995833Y-16047619D01*
X17995833Y-16857142D02*
X18043452Y-16904761D01*
X18186309Y-16952380D01*
X18281547Y-16952380D01*
X18424404Y-16904761D01*
X18519642Y-16809523D01*
X18567261Y-16714285D01*
X18614880Y-16523809D01*
X18614880Y-16380952D01*
X18567261Y-16190476D01*
X18519642Y-16095238D01*
X18424404Y-16000000D01*
X18281547Y-15952380D01*
X18186309Y-15952380D01*
X18043452Y-16000000D01*
X17995833Y-16047619D01*
X20662500Y-5510000D02*
X19662500Y-5510000D01*
X19852976Y-6792380D02*
X20186309Y-6316190D01*
X20424404Y-6792380D02*
X20424404Y-5792380D01*
X20043452Y-5792380D01*
X19948214Y-5840000D01*
X19900595Y-5887619D01*
X19852976Y-5982857D01*
X19852976Y-6125714D01*
X19900595Y-6220952D01*
X19948214Y-6268571D01*
X20043452Y-6316190D01*
X20424404Y-6316190D01*
X19662500Y-5510000D02*
X18757738Y-5510000D01*
X19424404Y-6268571D02*
X19091071Y-6268571D01*
X18948214Y-6792380D02*
X19424404Y-6792380D01*
X19424404Y-5792380D01*
X18948214Y-5792380D01*
X18757738Y-5510000D02*
X17805357Y-5510000D01*
X18567261Y-6744761D02*
X18424404Y-6792380D01*
X18186309Y-6792380D01*
X18091071Y-6744761D01*
X18043452Y-6697142D01*
X17995833Y-6601904D01*
X17995833Y-6506666D01*
X18043452Y-6411428D01*
X18091071Y-6363809D01*
X18186309Y-6316190D01*
X18376785Y-6268571D01*
X18472023Y-6220952D01*
X18519642Y-6173333D01*
X18567261Y-6078095D01*
X18567261Y-5982857D01*
X18519642Y-5887619D01*
X18472023Y-5840000D01*
X18376785Y-5792380D01*
X18138690Y-5792380D01*
X17995833Y-5840000D01*
X17805357Y-5510000D02*
X16900595Y-5510000D01*
X17567261Y-6268571D02*
X17233928Y-6268571D01*
X17091071Y-6792380D02*
X17567261Y-6792380D01*
X17567261Y-5792380D01*
X17091071Y-5792380D01*
X16900595Y-5510000D02*
X16138690Y-5510000D01*
X16805357Y-5792380D02*
X16233928Y-5792380D01*
X16519642Y-6792380D02*
X16519642Y-5792380D01*
X25301785Y-6697142D02*
X25349404Y-6744761D01*
X25492261Y-6792380D01*
X25587500Y-6792380D01*
X25730357Y-6744761D01*
X25825595Y-6649523D01*
X25873214Y-6554285D01*
X25920833Y-6363809D01*
X25920833Y-6220952D01*
X25873214Y-6030476D01*
X25825595Y-5935238D01*
X25730357Y-5840000D01*
X25587500Y-5792380D01*
X25492261Y-5792380D01*
X25349404Y-5840000D01*
X25301785Y-5887619D01*
X24682738Y-5792380D02*
X24492261Y-5792380D01*
X24397023Y-5840000D01*
X24301785Y-5935238D01*
X24254166Y-6125714D01*
X24254166Y-6459047D01*
X24301785Y-6649523D01*
X24397023Y-6744761D01*
X24492261Y-6792380D01*
X24682738Y-6792380D01*
X24777976Y-6744761D01*
X24873214Y-6649523D01*
X24920833Y-6459047D01*
X24920833Y-6125714D01*
X24873214Y-5935238D01*
X24777976Y-5840000D01*
X24682738Y-5792380D01*
X23825595Y-6792380D02*
X23825595Y-5792380D01*
X23444642Y-5792380D01*
X23349404Y-5840000D01*
X23301785Y-5887619D01*
X23254166Y-5982857D01*
X23254166Y-6125714D01*
X23301785Y-6220952D01*
X23349404Y-6268571D01*
X23444642Y-6316190D01*
X23825595Y-6316190D01*
X22825595Y-6792380D02*
X22825595Y-5792380D01*
X24873214Y-13460000D02*
X24968452Y-13412380D01*
X25111309Y-13412380D01*
X25254166Y-13460000D01*
X25349404Y-13555238D01*
X25397023Y-13650476D01*
X25444642Y-13840952D01*
X25444642Y-13983809D01*
X25397023Y-14174285D01*
X25349404Y-14269523D01*
X25254166Y-14364761D01*
X25111309Y-14412380D01*
X25016071Y-14412380D01*
X24873214Y-14364761D01*
X24825595Y-14317142D01*
X24825595Y-13983809D01*
X25016071Y-13983809D01*
X24397023Y-14412380D02*
X24397023Y-13412380D01*
X23825595Y-14412380D01*
X23825595Y-13412380D01*
X23349404Y-14412380D02*
X23349404Y-13412380D01*
X23111309Y-13412380D01*
X22968452Y-13460000D01*
X22873214Y-13555238D01*
X22825595Y-13650476D01*
X22777976Y-13840952D01*
X22777976Y-13983809D01*
X22825595Y-14174285D01*
X22873214Y-14269523D01*
X22968452Y-14364761D01*
X23111309Y-14412380D01*
X23349404Y-14412380D01*
X20662500Y-2970000D02*
X19710119Y-2970000D01*
X20472023Y-4204761D02*
X20329166Y-4252380D01*
X20091071Y-4252380D01*
X19995833Y-4204761D01*
X19948214Y-4157142D01*
X19900595Y-4061904D01*
X19900595Y-3966666D01*
X19948214Y-3871428D01*
X19995833Y-3823809D01*
X20091071Y-3776190D01*
X20281547Y-3728571D01*
X20376785Y-3680952D01*
X20424404Y-3633333D01*
X20472023Y-3538095D01*
X20472023Y-3442857D01*
X20424404Y-3347619D01*
X20376785Y-3300000D01*
X20281547Y-3252380D01*
X20043452Y-3252380D01*
X19900595Y-3300000D01*
X19710119Y-2970000D02*
X18710119Y-2970000D01*
X18900595Y-4252380D02*
X19233928Y-3776190D01*
X19472023Y-4252380D02*
X19472023Y-3252380D01*
X19091071Y-3252380D01*
X18995833Y-3300000D01*
X18948214Y-3347619D01*
X18900595Y-3442857D01*
X18900595Y-3585714D01*
X18948214Y-3680952D01*
X18995833Y-3728571D01*
X19091071Y-3776190D01*
X19472023Y-3776190D01*
X18710119Y-2970000D02*
X17852976Y-2970000D01*
X18519642Y-3966666D02*
X18043452Y-3966666D01*
X18614880Y-4252380D02*
X18281547Y-3252380D01*
X17948214Y-4252380D01*
X17852976Y-2970000D02*
X16710119Y-2970000D01*
X17614880Y-4252380D02*
X17614880Y-3252380D01*
X17281547Y-3966666D01*
X16948214Y-3252380D01*
X16948214Y-4252380D01*
X16710119Y-2970000D02*
X15710119Y-2970000D01*
X15900595Y-4157142D02*
X15948214Y-4204761D01*
X16091071Y-4252380D01*
X16186309Y-4252380D01*
X16329166Y-4204761D01*
X16424404Y-4109523D01*
X16472023Y-4014285D01*
X16519642Y-3823809D01*
X16519642Y-3680952D01*
X16472023Y-3490476D01*
X16424404Y-3395238D01*
X16329166Y-3300000D01*
X16186309Y-3252380D01*
X16091071Y-3252380D01*
X15948214Y-3300000D01*
X15900595Y-3347619D01*
X15710119Y-2970000D02*
X14757738Y-2970000D01*
X15519642Y-4204761D02*
X15376785Y-4252380D01*
X15138690Y-4252380D01*
X15043452Y-4204761D01*
X14995833Y-4157142D01*
X14948214Y-4061904D01*
X14948214Y-3966666D01*
X14995833Y-3871428D01*
X15043452Y-3823809D01*
X15138690Y-3776190D01*
X15329166Y-3728571D01*
X15424404Y-3680952D01*
X15472023Y-3633333D01*
X15519642Y-3538095D01*
X15519642Y-3442857D01*
X15472023Y-3347619D01*
X15424404Y-3300000D01*
X15329166Y-3252380D01*
X15091071Y-3252380D01*
X14948214Y-3300000D01*
X26158928Y-11824761D02*
X26016071Y-11872380D01*
X25777976Y-11872380D01*
X25682738Y-11824761D01*
X25635119Y-11777142D01*
X25587500Y-11681904D01*
X25587500Y-11586666D01*
X25635119Y-11491428D01*
X25682738Y-11443809D01*
X25777976Y-11396190D01*
X25968452Y-11348571D01*
X26063690Y-11300952D01*
X26111309Y-11253333D01*
X26158928Y-11158095D01*
X26158928Y-11062857D01*
X26111309Y-10967619D01*
X26063690Y-10920000D01*
X25968452Y-10872380D01*
X25730357Y-10872380D01*
X25587500Y-10920000D01*
X24587500Y-11777142D02*
X24635119Y-11824761D01*
X24777976Y-11872380D01*
X24873214Y-11872380D01*
X25016071Y-11824761D01*
X25111309Y-11729523D01*
X25158928Y-11634285D01*
X25206547Y-11443809D01*
X25206547Y-11300952D01*
X25158928Y-11110476D01*
X25111309Y-11015238D01*
X25016071Y-10920000D01*
X24873214Y-10872380D01*
X24777976Y-10872380D01*
X24635119Y-10920000D01*
X24587500Y-10967619D01*
X23682738Y-11872380D02*
X24158928Y-11872380D01*
X24158928Y-10872380D01*
X23349404Y-11872380D02*
X23349404Y-10872380D01*
X22777976Y-11872380D02*
X23206547Y-11300952D01*
X22777976Y-10872380D02*
X23349404Y-11443809D01*
D11*
X11928571Y-6363333D02*
X10928571Y-6363333D01*
X11214285Y-6363333D02*
X11071428Y-6430000D01*
X11000000Y-6496666D01*
X10928571Y-6630000D01*
X10928571Y-6763333D01*
X11857142Y-7763333D02*
X11928571Y-7630000D01*
X11928571Y-7363333D01*
X11857142Y-7230000D01*
X11714285Y-7163333D01*
X11142857Y-7163333D01*
X11000000Y-7230000D01*
X10928571Y-7363333D01*
X10928571Y-7630000D01*
X11000000Y-7763333D01*
X11142857Y-7830000D01*
X11285714Y-7830000D01*
X11428571Y-7163333D01*
X10928571Y-8296666D02*
X11928571Y-8630000D01*
X10928571Y-8963333D01*
X11785714Y-9496666D02*
X11857142Y-9563333D01*
X11928571Y-9496666D01*
X11857142Y-9430000D01*
X11785714Y-9496666D01*
X11928571Y-9496666D01*
X11928571Y-11963333D02*
X11928571Y-11163333D01*
X11928571Y-11563333D02*
X10428571Y-11563333D01*
X10642857Y-11430000D01*
X10785714Y-11296666D01*
X10857142Y-11163333D01*
X11785714Y-12563333D02*
X11857142Y-12630000D01*
X11928571Y-12563333D01*
X11857142Y-12496666D01*
X11785714Y-12563333D01*
X11928571Y-12563333D01*
X11928571Y-13963333D02*
X11928571Y-13163333D01*
X11928571Y-13563333D02*
X10428571Y-13563333D01*
X10642857Y-13430000D01*
X10785714Y-13296666D01*
X10857142Y-13163333D01*
D12*
X20662500Y-8050000D02*
X19662500Y-8050000D01*
X20091071Y-8808571D02*
X19948214Y-8856190D01*
X19900595Y-8903809D01*
X19852976Y-8999047D01*
X19852976Y-9141904D01*
X19900595Y-9237142D01*
X19948214Y-9284761D01*
X20043452Y-9332380D01*
X20424404Y-9332380D01*
X20424404Y-8332380D01*
X20091071Y-8332380D01*
X19995833Y-8380000D01*
X19948214Y-8427619D01*
X19900595Y-8522857D01*
X19900595Y-8618095D01*
X19948214Y-8713333D01*
X19995833Y-8760952D01*
X20091071Y-8808571D01*
X20424404Y-8808571D01*
X19662500Y-8050000D02*
X18614880Y-8050000D01*
X19424404Y-8332380D02*
X19424404Y-9141904D01*
X19376785Y-9237142D01*
X19329166Y-9284761D01*
X19233928Y-9332380D01*
X19043452Y-9332380D01*
X18948214Y-9284761D01*
X18900595Y-9237142D01*
X18852976Y-9141904D01*
X18852976Y-8332380D01*
X18614880Y-8050000D02*
X17662500Y-8050000D01*
X18424404Y-9284761D02*
X18281547Y-9332380D01*
X18043452Y-9332380D01*
X17948214Y-9284761D01*
X17900595Y-9237142D01*
X17852976Y-9141904D01*
X17852976Y-9046666D01*
X17900595Y-8951428D01*
X17948214Y-8903809D01*
X18043452Y-8856190D01*
X18233928Y-8808571D01*
X18329166Y-8760952D01*
X18376785Y-8713333D01*
X18424404Y-8618095D01*
X18424404Y-8522857D01*
X18376785Y-8427619D01*
X18329166Y-8380000D01*
X18233928Y-8332380D01*
X17995833Y-8332380D01*
X17852976Y-8380000D01*
X17662500Y-8050000D02*
X16805357Y-8050000D01*
X17233928Y-8856190D02*
X17233928Y-9332380D01*
X17567261Y-8332380D02*
X17233928Y-8856190D01*
X16900595Y-8332380D01*
X20662500Y-10590000D02*
X19662500Y-10590000D01*
X20424404Y-11872380D02*
X20424404Y-10872380D01*
X20186309Y-10872380D01*
X20043452Y-10920000D01*
X19948214Y-11015238D01*
X19900595Y-11110476D01*
X19852976Y-11300952D01*
X19852976Y-11443809D01*
X19900595Y-11634285D01*
X19948214Y-11729523D01*
X20043452Y-11824761D01*
X20186309Y-11872380D01*
X20424404Y-11872380D01*
X19662500Y-10590000D02*
X18614880Y-10590000D01*
X18710119Y-10824761D02*
X19567261Y-12110476D01*
X18614880Y-10590000D02*
X17614880Y-10590000D01*
X17805357Y-11777142D02*
X17852976Y-11824761D01*
X17995833Y-11872380D01*
X18091071Y-11872380D01*
X18233928Y-11824761D01*
X18329166Y-11729523D01*
X18376785Y-11634285D01*
X18424404Y-11443809D01*
X18424404Y-11300952D01*
X18376785Y-11110476D01*
X18329166Y-11015238D01*
X18233928Y-10920000D01*
X18091071Y-10872380D01*
X17995833Y-10872380D01*
X17852976Y-10920000D01*
X17805357Y-10967619D01*
X19900595Y-13460000D02*
X19995833Y-13412380D01*
X20138690Y-13412380D01*
X20281547Y-13460000D01*
X20376785Y-13555238D01*
X20424404Y-13650476D01*
X20472023Y-13840952D01*
X20472023Y-13983809D01*
X20424404Y-14174285D01*
X20376785Y-14269523D01*
X20281547Y-14364761D01*
X20138690Y-14412380D01*
X20043452Y-14412380D01*
X19900595Y-14364761D01*
X19852976Y-14317142D01*
X19852976Y-13983809D01*
X20043452Y-13983809D01*
X19424404Y-14412380D02*
X19424404Y-13412380D01*
X18852976Y-14412380D01*
X18852976Y-13412380D01*
X18376785Y-14412380D02*
X18376785Y-13412380D01*
X18138690Y-13412380D01*
X17995833Y-13460000D01*
X17900595Y-13555238D01*
X17852976Y-13650476D01*
X17805357Y-13840952D01*
X17805357Y-13983809D01*
X17852976Y-14174285D01*
X17900595Y-14269523D01*
X17995833Y-14364761D01*
X18138690Y-14412380D01*
X18376785Y-14412380D01*
X25349404Y-15952380D02*
X25016071Y-16952380D01*
X24682738Y-15952380D01*
X23777976Y-16857142D02*
X23825595Y-16904761D01*
X23968452Y-16952380D01*
X24063690Y-16952380D01*
X24206547Y-16904761D01*
X24301785Y-16809523D01*
X24349404Y-16714285D01*
X24397023Y-16523809D01*
X24397023Y-16380952D01*
X24349404Y-16190476D01*
X24301785Y-16095238D01*
X24206547Y-16000000D01*
X24063690Y-15952380D01*
X23968452Y-15952380D01*
X23825595Y-16000000D01*
X23777976Y-16047619D01*
X22777976Y-16857142D02*
X22825595Y-16904761D01*
X22968452Y-16952380D01*
X23063690Y-16952380D01*
X23206547Y-16904761D01*
X23301785Y-16809523D01*
X23349404Y-16714285D01*
X23397023Y-16523809D01*
X23397023Y-16380952D01*
X23349404Y-16190476D01*
X23301785Y-16095238D01*
X23206547Y-16000000D01*
X23063690Y-15952380D01*
X22968452Y-15952380D01*
X22825595Y-16000000D01*
X22777976Y-16047619D01*
X25301785Y-9237142D02*
X25349404Y-9284761D01*
X25492261Y-9332380D01*
X25587500Y-9332380D01*
X25730357Y-9284761D01*
X25825595Y-9189523D01*
X25873214Y-9094285D01*
X25920833Y-8903809D01*
X25920833Y-8760952D01*
X25873214Y-8570476D01*
X25825595Y-8475238D01*
X25730357Y-8380000D01*
X25587500Y-8332380D01*
X25492261Y-8332380D01*
X25349404Y-8380000D01*
X25301785Y-8427619D01*
X24873214Y-9332380D02*
X24873214Y-8332380D01*
X24397023Y-9332380D02*
X24397023Y-8332380D01*
X24016071Y-8332380D01*
X23920833Y-8380000D01*
X23873214Y-8427619D01*
X23825595Y-8522857D01*
X23825595Y-8665714D01*
X23873214Y-8760952D01*
X23920833Y-8808571D01*
X24016071Y-8856190D01*
X24397023Y-8856190D01*
X23206547Y-8332380D02*
X23016071Y-8332380D01*
X22920833Y-8380000D01*
X22825595Y-8475238D01*
X22777976Y-8665714D01*
X22777976Y-8999047D01*
X22825595Y-9189523D01*
X22920833Y-9284761D01*
X23016071Y-9332380D01*
X23206547Y-9332380D01*
X23301785Y-9284761D01*
X23397023Y-9189523D01*
X23444642Y-8999047D01*
X23444642Y-8665714D01*
X23397023Y-8475238D01*
X23301785Y-8380000D01*
X23206547Y-8332380D01*
X27968452Y-2970000D02*
X27063690Y-2970000D01*
X27730357Y-3728571D02*
X27397023Y-3728571D01*
X27254166Y-4252380D02*
X27730357Y-4252380D01*
X27730357Y-3252380D01*
X27254166Y-3252380D01*
X27063690Y-2970000D02*
X26587500Y-2970000D01*
X26825595Y-4252380D02*
X26825595Y-3252380D01*
X26587500Y-2970000D02*
X25539880Y-2970000D01*
X26349404Y-4252380D02*
X26349404Y-3252380D01*
X25777976Y-4252380D01*
X25777976Y-3252380D01*
X25539880Y-2970000D02*
X24539880Y-2970000D01*
X25301785Y-4252380D02*
X25301785Y-3252380D01*
X24730357Y-4252380D02*
X25158928Y-3680952D01*
X24730357Y-3252380D02*
X25301785Y-3823809D01*
X24539880Y-2970000D02*
X23539880Y-2970000D01*
X23730357Y-4157142D02*
X23777976Y-4204761D01*
X23920833Y-4252380D01*
X24016071Y-4252380D01*
X24158928Y-4204761D01*
X24254166Y-4109523D01*
X24301785Y-4014285D01*
X24349404Y-3823809D01*
X24349404Y-3680952D01*
X24301785Y-3490476D01*
X24254166Y-3395238D01*
X24158928Y-3300000D01*
X24016071Y-3252380D01*
X23920833Y-3252380D01*
X23777976Y-3300000D01*
X23730357Y-3347619D01*
X23539880Y-2970000D02*
X22587500Y-2970000D01*
X23349404Y-4204761D02*
X23206547Y-4252380D01*
X22968452Y-4252380D01*
X22873214Y-4204761D01*
X22825595Y-4157142D01*
X22777976Y-4061904D01*
X22777976Y-3966666D01*
X22825595Y-3871428D01*
X22873214Y-3823809D01*
X22968452Y-3776190D01*
X23158928Y-3728571D01*
X23254166Y-3680952D01*
X23301785Y-3633333D01*
X23349404Y-3538095D01*
X23349404Y-3442857D01*
X23301785Y-3347619D01*
X23254166Y-3300000D01*
X23158928Y-3252380D01*
X22920833Y-3252380D01*
X22777976Y-3300000D01*
D13*
X7620000Y-2540000D02*
X2540000Y-2540000D01*
X2540000Y-2540000D02*
X2540000Y-17780000D01*
X2540000Y-17780000D02*
X7620000Y-17780000D01*
X7620000Y-17780000D02*
X7620000Y-2540000D01*
X7620000Y-12700000D02*
X2540000Y-12700000D01*
D14*
X38109751Y-9530278D02*
X38112395Y-9813828D01*
X38112395Y-9813828D02*
X38121190Y-10048425D01*
X38121190Y-10048425D02*
X38138030Y-10241399D01*
X38138030Y-10241399D02*
X38164814Y-10400080D01*
X38164814Y-10400080D02*
X38203436Y-10531800D01*
X38203436Y-10531800D02*
X38255794Y-10643888D01*
X38255794Y-10643888D02*
X38323784Y-10743675D01*
X38323784Y-10743675D02*
X38409302Y-10838491D01*
X38409302Y-10838491D02*
X38460973Y-10887937D01*
X38460973Y-10887937D02*
X38643800Y-11019060D01*
X38643800Y-11019060D02*
X38868043Y-11115093D01*
X38868043Y-11115093D02*
X39130168Y-11175089D01*
X39130168Y-11175089D02*
X39426641Y-11198098D01*
X39426641Y-11198098D02*
X39603818Y-11194606D01*
X39603818Y-11194606D02*
X39879833Y-11166787D01*
X39879833Y-11166787D02*
X40111388Y-11112238D01*
X40111388Y-11112238D02*
X40305207Y-11028022D01*
X40305207Y-11028022D02*
X40468014Y-10911202D01*
X40468014Y-10911202D02*
X40606532Y-10758841D01*
X40606532Y-10758841D02*
X40608948Y-10755616D01*
X40608948Y-10755616D02*
X40711482Y-10618276D01*
X40711482Y-10618276D02*
X41731685Y-10963135D01*
X41731685Y-10963135D02*
X41962462Y-11041099D01*
X41962462Y-11041099D02*
X42178281Y-11113922D01*
X42178281Y-11113922D02*
X42372859Y-11179491D01*
X42372859Y-11179491D02*
X42539911Y-11235692D01*
X42539911Y-11235692D02*
X42673153Y-11280411D01*
X42673153Y-11280411D02*
X42766302Y-11311534D01*
X42766302Y-11311534D02*
X42813073Y-11326947D01*
X42813073Y-11326947D02*
X42815389Y-11327677D01*
X42815389Y-11327677D02*
X42878889Y-11347359D01*
X42878889Y-11347359D02*
X42878889Y-10621466D01*
X42878889Y-10621466D02*
X42265056Y-10430303D01*
X42265056Y-10430303D02*
X42056438Y-10365268D01*
X42056438Y-10365268D02*
X41836352Y-10296542D01*
X41836352Y-10296542D02*
X41620643Y-10229081D01*
X41620643Y-10229081D02*
X41425156Y-10167841D01*
X41425156Y-10167841D02*
X41265734Y-10117777D01*
X41265734Y-10117777D02*
X41249056Y-10112528D01*
X41249056Y-10112528D02*
X40846889Y-9985915D01*
X40846889Y-9985915D02*
X40846889Y-9593778D01*
X40846889Y-9593778D02*
X42878889Y-9593778D01*
X42878889Y-9593778D02*
X42878889Y-8888222D01*
X42878889Y-8888222D02*
X40226000Y-8888222D01*
X40226000Y-8888222D02*
X40226000Y-9593778D01*
X40226000Y-9593778D02*
X40226000Y-9877124D01*
X40226000Y-9877124D02*
X40223578Y-10021977D01*
X40223578Y-10021977D02*
X40214855Y-10125728D01*
X40214855Y-10125728D02*
X40197647Y-10203567D01*
X40197647Y-10203567D02*
X40169771Y-10270687D01*
X40169771Y-10270687D02*
X40169279Y-10271654D01*
X40169279Y-10271654D02*
X40124441Y-10346277D01*
X40124441Y-10346277D02*
X40071035Y-10401389D01*
X40071035Y-10401389D02*
X39999979Y-10440125D01*
X39999979Y-10440125D02*
X39902192Y-10465623D01*
X39902192Y-10465623D02*
X39768591Y-10481020D01*
X39768591Y-10481020D02*
X39590097Y-10489453D01*
X39590097Y-10489453D02*
X39534556Y-10490907D01*
X39534556Y-10490907D02*
X39374962Y-10493964D01*
X39374962Y-10493964D02*
X39259937Y-10493616D01*
X39259937Y-10493616D02*
X39177645Y-10488594D01*
X39177645Y-10488594D02*
X39116251Y-10477629D01*
X39116251Y-10477629D02*
X39063918Y-10459453D01*
X39063918Y-10459453D02*
X39013090Y-10435008D01*
X39013090Y-10435008D02*
X38919396Y-10376682D01*
X38919396Y-10376682D02*
X38852643Y-10306729D01*
X38852643Y-10306729D02*
X38808000Y-10214506D01*
X38808000Y-10214506D02*
X38780639Y-10089371D01*
X38780639Y-10089371D02*
X38765727Y-9920682D01*
X38765727Y-9920682D02*
X38764058Y-9886343D01*
X38764058Y-9886343D02*
X38751046Y-9593778D01*
X38751046Y-9593778D02*
X40226000Y-9593778D01*
X40226000Y-9593778D02*
X40226000Y-8888222D01*
X40226000Y-8888222D02*
X38109334Y-8888222D01*
X38109334Y-8888222D02*
X38109751Y-9530278D01*
X38109751Y-9530278D02*
X38109751Y-9530278D01*
G36*
X42878889Y-9593778D02*
G01*
X40846889Y-9593778D01*
X40846889Y-9985915D01*
X41249056Y-10112528D01*
X41265734Y-10117777D01*
X41425156Y-10167841D01*
X41620643Y-10229081D01*
X41836352Y-10296542D01*
X42056438Y-10365268D01*
X42265056Y-10430303D01*
X42878889Y-10621466D01*
X42878889Y-11347359D01*
X42815389Y-11327677D01*
X42813073Y-11326947D01*
X42766302Y-11311534D01*
X42673153Y-11280411D01*
X42539911Y-11235692D01*
X42372859Y-11179491D01*
X42178281Y-11113922D01*
X41962462Y-11041099D01*
X41731685Y-10963135D01*
X40711482Y-10618276D01*
X40608948Y-10755616D01*
X40606532Y-10758841D01*
X40468014Y-10911202D01*
X40305207Y-11028022D01*
X40111388Y-11112238D01*
X39879833Y-11166787D01*
X39603818Y-11194606D01*
X39426641Y-11198098D01*
X39130168Y-11175089D01*
X38868043Y-11115093D01*
X38643800Y-11019060D01*
X38460973Y-10887937D01*
X38409302Y-10838491D01*
X38323784Y-10743675D01*
X38255794Y-10643888D01*
X38203436Y-10531800D01*
X38164814Y-10400080D01*
X38138030Y-10241399D01*
X38121190Y-10048425D01*
X38112395Y-9813828D01*
X38110344Y-9593778D01*
X38751046Y-9593778D01*
X38764058Y-9886343D01*
X38765727Y-9920682D01*
X38780639Y-10089371D01*
X38808000Y-10214506D01*
X38852643Y-10306729D01*
X38919396Y-10376682D01*
X39013090Y-10435008D01*
X39063918Y-10459453D01*
X39116251Y-10477629D01*
X39177645Y-10488594D01*
X39259937Y-10493616D01*
X39374962Y-10493964D01*
X39534556Y-10490907D01*
X39590097Y-10489453D01*
X39768591Y-10481020D01*
X39902192Y-10465623D01*
X39999979Y-10440125D01*
X40071035Y-10401389D01*
X40124441Y-10346277D01*
X40169279Y-10271654D01*
X40169771Y-10270687D01*
X40197647Y-10203567D01*
X40214855Y-10125728D01*
X40223578Y-10021977D01*
X40226000Y-9877124D01*
X40226000Y-9593778D01*
X38751046Y-9593778D01*
X38110344Y-9593778D01*
X38109751Y-9530278D01*
X38109334Y-8888222D01*
X42878889Y-8888222D01*
X42878889Y-9593778D01*
G37*
X42878889Y-9593778D02*
X40846889Y-9593778D01*
X40846889Y-9985915D01*
X41249056Y-10112528D01*
X41265734Y-10117777D01*
X41425156Y-10167841D01*
X41620643Y-10229081D01*
X41836352Y-10296542D01*
X42056438Y-10365268D01*
X42265056Y-10430303D01*
X42878889Y-10621466D01*
X42878889Y-11347359D01*
X42815389Y-11327677D01*
X42813073Y-11326947D01*
X42766302Y-11311534D01*
X42673153Y-11280411D01*
X42539911Y-11235692D01*
X42372859Y-11179491D01*
X42178281Y-11113922D01*
X41962462Y-11041099D01*
X41731685Y-10963135D01*
X40711482Y-10618276D01*
X40608948Y-10755616D01*
X40606532Y-10758841D01*
X40468014Y-10911202D01*
X40305207Y-11028022D01*
X40111388Y-11112238D01*
X39879833Y-11166787D01*
X39603818Y-11194606D01*
X39426641Y-11198098D01*
X39130168Y-11175089D01*
X38868043Y-11115093D01*
X38643800Y-11019060D01*
X38460973Y-10887937D01*
X38409302Y-10838491D01*
X38323784Y-10743675D01*
X38255794Y-10643888D01*
X38203436Y-10531800D01*
X38164814Y-10400080D01*
X38138030Y-10241399D01*
X38121190Y-10048425D01*
X38112395Y-9813828D01*
X38110344Y-9593778D01*
X38751046Y-9593778D01*
X38764058Y-9886343D01*
X38765727Y-9920682D01*
X38780639Y-10089371D01*
X38808000Y-10214506D01*
X38852643Y-10306729D01*
X38919396Y-10376682D01*
X39013090Y-10435008D01*
X39063918Y-10459453D01*
X39116251Y-10477629D01*
X39177645Y-10488594D01*
X39259937Y-10493616D01*
X39374962Y-10493964D01*
X39534556Y-10490907D01*
X39590097Y-10489453D01*
X39768591Y-10481020D01*
X39902192Y-10465623D01*
X39999979Y-10440125D01*
X40071035Y-10401389D01*
X40124441Y-10346277D01*
X40169279Y-10271654D01*
X40169771Y-10270687D01*
X40197647Y-10203567D01*
X40214855Y-10125728D01*
X40223578Y-10021977D01*
X40226000Y-9877124D01*
X40226000Y-9593778D01*
X38751046Y-9593778D01*
X38110344Y-9593778D01*
X38109751Y-9530278D01*
X38109334Y-8888222D01*
X42878889Y-8888222D01*
X42878889Y-9593778D01*
X38110599Y-8317485D02*
X38114834Y-8423625D01*
X38114834Y-8423625D02*
X38122701Y-8486558D01*
X38122701Y-8486558D02*
X38134858Y-8512877D01*
X38134858Y-8512877D02*
X38144611Y-8513791D01*
X38144611Y-8513791D02*
X38177625Y-8500685D01*
X38177625Y-8500685D02*
X38257389Y-8468845D01*
X38257389Y-8468845D02*
X38378260Y-8420528D01*
X38378260Y-8420528D02*
X38534592Y-8357995D01*
X38534592Y-8357995D02*
X38720740Y-8283501D01*
X38720740Y-8283501D02*
X38931060Y-8199307D01*
X38931060Y-8199307D02*
X39159907Y-8107669D01*
X39159907Y-8107669D02*
X39280556Y-8059348D01*
X39280556Y-8059348D02*
X40381222Y-7618487D01*
X40381222Y-7618487D02*
X42864778Y-8598763D01*
X42864778Y-8598763D02*
X42872712Y-8244838D01*
X42872712Y-8244838D02*
X42874064Y-8108794D01*
X42874064Y-8108794D02*
X42872008Y-7993781D01*
X42872008Y-7993781D02*
X42866976Y-7911243D01*
X42866976Y-7911243D02*
X42859402Y-7872625D01*
X42859402Y-7872625D02*
X42858601Y-7871687D01*
X42858601Y-7871687D02*
X42827342Y-7857351D01*
X42827342Y-7857351D02*
X42749953Y-7826370D01*
X42749953Y-7826370D02*
X42633350Y-7781380D01*
X42633350Y-7781380D02*
X42484451Y-7725017D01*
X42484451Y-7725017D02*
X42310176Y-7659919D01*
X42310176Y-7659919D02*
X42117440Y-7588721D01*
X42117440Y-7588721D02*
X42081611Y-7575567D01*
X42081611Y-7575567D02*
X41887604Y-7503816D01*
X41887604Y-7503816D02*
X41712055Y-7437747D01*
X41712055Y-7437747D02*
X41561626Y-7379961D01*
X41561626Y-7379961D02*
X41442980Y-7333058D01*
X41442980Y-7333058D02*
X41362779Y-7299637D01*
X41362779Y-7299637D02*
X41327686Y-7282297D01*
X41327686Y-7282297D02*
X41326667Y-7281003D01*
X41326667Y-7281003D02*
X41352109Y-7267177D01*
X41352109Y-7267177D02*
X41424034Y-7236739D01*
X41424034Y-7236739D02*
X41535840Y-7192259D01*
X41535840Y-7192259D02*
X41680926Y-7136309D01*
X41680926Y-7136309D02*
X41852690Y-7071459D01*
X41852690Y-7071459D02*
X42044531Y-7000282D01*
X42044531Y-7000282D02*
X42095722Y-6981482D01*
X42095722Y-6981482D02*
X42864778Y-6699633D01*
X42864778Y-6699633D02*
X42872677Y-6340483D01*
X42872677Y-6340483D02*
X42873793Y-6205317D01*
X42873793Y-6205317D02*
X42871177Y-6093480D01*
X42871177Y-6093480D02*
X42865335Y-6015497D01*
X42865335Y-6015497D02*
X42856774Y-5981897D01*
X42856774Y-5981897D02*
X42855368Y-5981334D01*
X42855368Y-5981334D02*
X42824648Y-5991204D01*
X42824648Y-5991204D02*
X42746655Y-6019467D01*
X42746655Y-6019467D02*
X42626737Y-6064099D01*
X42626737Y-6064099D02*
X42470245Y-6123077D01*
X42470245Y-6123077D02*
X42282527Y-6194377D01*
X42282527Y-6194377D02*
X42068933Y-6275975D01*
X42068933Y-6275975D02*
X41834812Y-6365849D01*
X41834812Y-6365849D02*
X41624277Y-6447000D01*
X41624277Y-6447000D02*
X41376437Y-6542397D01*
X41376437Y-6542397D02*
X41144130Y-6631218D01*
X41144130Y-6631218D02*
X40932777Y-6711434D01*
X40932777Y-6711434D02*
X40747799Y-6781016D01*
X40747799Y-6781016D02*
X40594615Y-6837933D01*
X40594615Y-6837933D02*
X40478646Y-6880156D01*
X40478646Y-6880156D02*
X40405313Y-6905656D01*
X40405313Y-6905656D02*
X40380629Y-6912667D01*
X40380629Y-6912667D02*
X40347042Y-6902660D01*
X40347042Y-6902660D02*
X40266607Y-6874066D01*
X40266607Y-6874066D02*
X40144978Y-6829028D01*
X40144978Y-6829028D02*
X39987809Y-6769688D01*
X39987809Y-6769688D02*
X39800751Y-6698188D01*
X39800751Y-6698188D02*
X39589459Y-6616671D01*
X39589459Y-6616671D02*
X39359585Y-6527279D01*
X39359585Y-6527279D02*
X39233155Y-6477834D01*
X39233155Y-6477834D02*
X38123445Y-6043001D01*
X38123445Y-6043001D02*
X38115510Y-6398014D01*
X38115510Y-6398014D02*
X38114094Y-6572346D01*
X38114094Y-6572346D02*
X38118944Y-6691960D01*
X38118944Y-6691960D02*
X38130146Y-6758246D01*
X38130146Y-6758246D02*
X38139251Y-6772603D01*
X38139251Y-6772603D02*
X38173686Y-6787360D01*
X38173686Y-6787360D02*
X38253538Y-6818379D01*
X38253538Y-6818379D02*
X38371127Y-6862779D01*
X38371127Y-6862779D02*
X38518773Y-6917676D01*
X38518773Y-6917676D02*
X38688794Y-6980189D01*
X38688794Y-6980189D02*
X38817464Y-7027102D01*
X38817464Y-7027102D02*
X38996517Y-7092900D01*
X38996517Y-7092900D02*
X39156541Y-7153119D01*
X39156541Y-7153119D02*
X39290322Y-7204928D01*
X39290322Y-7204928D02*
X39390643Y-7245496D01*
X39390643Y-7245496D02*
X39450289Y-7271992D01*
X39450289Y-7271992D02*
X39464000Y-7280822D01*
X39464000Y-7280822D02*
X39438620Y-7295206D01*
X39438620Y-7295206D02*
X39367171Y-7325937D01*
X39367171Y-7325937D02*
X39256693Y-7370244D01*
X39256693Y-7370244D02*
X39114224Y-7425352D01*
X39114224Y-7425352D02*
X38946804Y-7488489D01*
X38946804Y-7488489D02*
X38786667Y-7547667D01*
X38786667Y-7547667D02*
X38109334Y-7795713D01*
X38109334Y-7795713D02*
X38109334Y-8161543D01*
X38109334Y-8161543D02*
X38110599Y-8317485D01*
X38110599Y-8317485D02*
X38110599Y-8317485D01*
G36*
X42856774Y-5981897D02*
G01*
X42865335Y-6015497D01*
X42871177Y-6093480D01*
X42873793Y-6205317D01*
X42872677Y-6340483D01*
X42864778Y-6699633D01*
X42095722Y-6981482D01*
X42044531Y-7000282D01*
X41852690Y-7071459D01*
X41680926Y-7136309D01*
X41535840Y-7192259D01*
X41424034Y-7236739D01*
X41352109Y-7267177D01*
X41326667Y-7281003D01*
X41327686Y-7282297D01*
X41362779Y-7299637D01*
X41442980Y-7333058D01*
X41561626Y-7379961D01*
X41712055Y-7437747D01*
X41887604Y-7503816D01*
X42081611Y-7575567D01*
X42117440Y-7588721D01*
X42310176Y-7659919D01*
X42484451Y-7725017D01*
X42633350Y-7781380D01*
X42749953Y-7826370D01*
X42827342Y-7857351D01*
X42858601Y-7871687D01*
X42859402Y-7872625D01*
X42866976Y-7911243D01*
X42872008Y-7993781D01*
X42874064Y-8108794D01*
X42872712Y-8244838D01*
X42864778Y-8598763D01*
X40381222Y-7618487D01*
X39280556Y-8059348D01*
X39159907Y-8107669D01*
X38931060Y-8199307D01*
X38720740Y-8283501D01*
X38534592Y-8357995D01*
X38378260Y-8420528D01*
X38257389Y-8468845D01*
X38177625Y-8500685D01*
X38144611Y-8513791D01*
X38134858Y-8512877D01*
X38122701Y-8486558D01*
X38114834Y-8423625D01*
X38110599Y-8317485D01*
X38109334Y-8161543D01*
X38109334Y-7795713D01*
X38786667Y-7547667D01*
X38946804Y-7488489D01*
X39114224Y-7425352D01*
X39256693Y-7370244D01*
X39367171Y-7325937D01*
X39438620Y-7295206D01*
X39464000Y-7280822D01*
X39450289Y-7271992D01*
X39390643Y-7245496D01*
X39290322Y-7204928D01*
X39156541Y-7153119D01*
X38996517Y-7092900D01*
X38817464Y-7027102D01*
X38688794Y-6980189D01*
X38518773Y-6917676D01*
X38371127Y-6862779D01*
X38253538Y-6818379D01*
X38173686Y-6787360D01*
X38139251Y-6772603D01*
X38130146Y-6758246D01*
X38118944Y-6691960D01*
X38114094Y-6572346D01*
X38115510Y-6398014D01*
X38123445Y-6043001D01*
X39233155Y-6477834D01*
X39359585Y-6527279D01*
X39589459Y-6616671D01*
X39800751Y-6698188D01*
X39987809Y-6769688D01*
X40144978Y-6829028D01*
X40266607Y-6874066D01*
X40347042Y-6902660D01*
X40380629Y-6912667D01*
X40405313Y-6905656D01*
X40478646Y-6880156D01*
X40594615Y-6837933D01*
X40747799Y-6781016D01*
X40932777Y-6711434D01*
X41144130Y-6631218D01*
X41376437Y-6542397D01*
X41624277Y-6447000D01*
X41834812Y-6365849D01*
X42068933Y-6275975D01*
X42282527Y-6194377D01*
X42470245Y-6123077D01*
X42626737Y-6064099D01*
X42746655Y-6019467D01*
X42824648Y-5991204D01*
X42855368Y-5981334D01*
X42856774Y-5981897D01*
G37*
X42856774Y-5981897D02*
X42865335Y-6015497D01*
X42871177Y-6093480D01*
X42873793Y-6205317D01*
X42872677Y-6340483D01*
X42864778Y-6699633D01*
X42095722Y-6981482D01*
X42044531Y-7000282D01*
X41852690Y-7071459D01*
X41680926Y-7136309D01*
X41535840Y-7192259D01*
X41424034Y-7236739D01*
X41352109Y-7267177D01*
X41326667Y-7281003D01*
X41327686Y-7282297D01*
X41362779Y-7299637D01*
X41442980Y-7333058D01*
X41561626Y-7379961D01*
X41712055Y-7437747D01*
X41887604Y-7503816D01*
X42081611Y-7575567D01*
X42117440Y-7588721D01*
X42310176Y-7659919D01*
X42484451Y-7725017D01*
X42633350Y-7781380D01*
X42749953Y-7826370D01*
X42827342Y-7857351D01*
X42858601Y-7871687D01*
X42859402Y-7872625D01*
X42866976Y-7911243D01*
X42872008Y-7993781D01*
X42874064Y-8108794D01*
X42872712Y-8244838D01*
X42864778Y-8598763D01*
X40381222Y-7618487D01*
X39280556Y-8059348D01*
X39159907Y-8107669D01*
X38931060Y-8199307D01*
X38720740Y-8283501D01*
X38534592Y-8357995D01*
X38378260Y-8420528D01*
X38257389Y-8468845D01*
X38177625Y-8500685D01*
X38144611Y-8513791D01*
X38134858Y-8512877D01*
X38122701Y-8486558D01*
X38114834Y-8423625D01*
X38110599Y-8317485D01*
X38109334Y-8161543D01*
X38109334Y-7795713D01*
X38786667Y-7547667D01*
X38946804Y-7488489D01*
X39114224Y-7425352D01*
X39256693Y-7370244D01*
X39367171Y-7325937D01*
X39438620Y-7295206D01*
X39464000Y-7280822D01*
X39450289Y-7271992D01*
X39390643Y-7245496D01*
X39290322Y-7204928D01*
X39156541Y-7153119D01*
X38996517Y-7092900D01*
X38817464Y-7027102D01*
X38688794Y-6980189D01*
X38518773Y-6917676D01*
X38371127Y-6862779D01*
X38253538Y-6818379D01*
X38173686Y-6787360D01*
X38139251Y-6772603D01*
X38130146Y-6758246D01*
X38118944Y-6691960D01*
X38114094Y-6572346D01*
X38115510Y-6398014D01*
X38123445Y-6043001D01*
X39233155Y-6477834D01*
X39359585Y-6527279D01*
X39589459Y-6616671D01*
X39800751Y-6698188D01*
X39987809Y-6769688D01*
X40144978Y-6829028D01*
X40266607Y-6874066D01*
X40347042Y-6902660D01*
X40380629Y-6912667D01*
X40405313Y-6905656D01*
X40478646Y-6880156D01*
X40594615Y-6837933D01*
X40747799Y-6781016D01*
X40932777Y-6711434D01*
X41144130Y-6631218D01*
X41376437Y-6542397D01*
X41624277Y-6447000D01*
X41834812Y-6365849D01*
X42068933Y-6275975D01*
X42282527Y-6194377D01*
X42470245Y-6123077D01*
X42626737Y-6064099D01*
X42746655Y-6019467D01*
X42824648Y-5991204D01*
X42855368Y-5981334D01*
X42856774Y-5981897D01*
X42880626Y-5670889D02*
X42864778Y-4979445D01*
X42864778Y-4979445D02*
X40762222Y-4964647D01*
X40762222Y-4964647D02*
X40762222Y-4146889D01*
X40762222Y-4146889D02*
X42878889Y-4146889D01*
X42878889Y-4146889D02*
X42878889Y-3469556D01*
X42878889Y-3469556D02*
X38109334Y-3469556D01*
X38109334Y-3469556D02*
X38109334Y-4146889D01*
X38109334Y-4146889D02*
X40141334Y-4146889D01*
X40141334Y-4146889D02*
X40141334Y-4964621D01*
X40141334Y-4964621D02*
X39132389Y-4972033D01*
X39132389Y-4972033D02*
X38123445Y-4979445D01*
X38123445Y-4979445D02*
X38115520Y-5325167D01*
X38115520Y-5325167D02*
X38107597Y-5670889D01*
X38107597Y-5670889D02*
X42880626Y-5670889D01*
X42880626Y-5670889D02*
X42880626Y-5670889D01*
G36*
X42878889Y-4146889D02*
G01*
X40762222Y-4146889D01*
X40762222Y-4964647D01*
X42864778Y-4979445D01*
X42880626Y-5670889D01*
X38107597Y-5670889D01*
X38115520Y-5325167D01*
X38123445Y-4979445D01*
X39132389Y-4972033D01*
X40141334Y-4964621D01*
X40141334Y-4146889D01*
X38109334Y-4146889D01*
X38109334Y-3469556D01*
X42878889Y-3469556D01*
X42878889Y-4146889D01*
G37*
X42878889Y-4146889D02*
X40762222Y-4146889D01*
X40762222Y-4964647D01*
X42864778Y-4979445D01*
X42880626Y-5670889D01*
X38107597Y-5670889D01*
X38115520Y-5325167D01*
X38123445Y-4979445D01*
X39132389Y-4972033D01*
X40141334Y-4964621D01*
X40141334Y-4146889D01*
X38109334Y-4146889D01*
X38109334Y-3469556D01*
X42878889Y-3469556D01*
X42878889Y-4146889D01*
M02*
