G04 #@! TF.GenerationSoftware,KiCad,Pcbnew,(5.1.0-rc1-17-gb4eda32f8)*
G04 #@! TF.CreationDate,2019-03-22T20:33:51+01:00
G04 #@! TF.ProjectId,e-ink_pmod,652d696e-6b5f-4706-9d6f-642e6b696361,rev?*
G04 #@! TF.SameCoordinates,PX525bfc0PY429d390*
G04 #@! TF.FileFunction,Copper,L1,Top*
G04 #@! TF.FilePolarity,Positive*
%FSLAX46Y46*%
G04 Gerber Fmt 4.6, Leading zero omitted, Abs format (unit mm)*
G04 Created by KiCad (PCBNEW (5.1.0-rc1-17-gb4eda32f8)) date 2019-03-22 20:33:51*
%MOMM*%
%LPD*%
G04 APERTURE LIST*
%ADD10C,0.050000*%
%ADD11R,1.524000X1.524000*%
%ADD12C,1.524000*%
%ADD13R,1.000000X1.250000*%
%ADD14R,0.900000X1.200000*%
%ADD15R,1.200000X0.900000*%
%ADD16R,1.600000X3.500000*%
%ADD17R,0.900000X0.800000*%
%ADD18R,0.700000X1.300000*%
%ADD19R,0.800000X0.300000*%
%ADD20C,0.550000*%
%ADD21C,0.250000*%
%ADD22C,0.500000*%
%ADD23C,0.200000*%
G04 APERTURE END LIST*
D10*
G36*
X38500000Y-19560000D02*
G01*
X40700000Y-19560000D01*
X40700000Y-18460000D01*
X41550000Y-18460000D01*
X41550000Y-17160000D01*
X38500000Y-17160000D01*
X38500000Y-19560000D01*
G37*
G36*
X38500000Y-760000D02*
G01*
X40700000Y-760000D01*
X40700000Y-1860000D01*
X41550000Y-1860000D01*
X41550000Y-3160000D01*
X38500000Y-3160000D01*
X38500000Y-760000D01*
G37*
G36*
X38500000Y-19560000D02*
G01*
X40700000Y-19560000D01*
X40700000Y-18460000D01*
X41550000Y-18460000D01*
X41550000Y-17160000D01*
X38500000Y-17160000D01*
X38500000Y-19560000D01*
G37*
G36*
X38500000Y-760000D02*
G01*
X40700000Y-760000D01*
X40700000Y-1860000D01*
X41550000Y-1860000D01*
X41550000Y-3160000D01*
X38500000Y-3160000D01*
X38500000Y-760000D01*
G37*
D11*
X6350000Y-3810000D03*
D12*
X3810000Y-3810000D03*
X6350000Y-6350000D03*
X3810000Y-6350000D03*
X6350000Y-8890000D03*
X3810000Y-8890000D03*
X6350000Y-11430000D03*
X3810000Y-11430000D03*
X6350000Y-13970000D03*
X3810000Y-13970000D03*
X6350000Y-16510000D03*
X3810000Y-16510000D03*
D13*
X29194000Y-5207000D03*
X27194000Y-5207000D03*
X31385000Y-6350000D03*
X33385000Y-6350000D03*
X33385000Y-11430000D03*
X31385000Y-11430000D03*
X27194000Y-13716000D03*
X29194000Y-13716000D03*
X29194000Y-16002000D03*
X27194000Y-16002000D03*
X27194000Y-18288000D03*
X29194000Y-18288000D03*
X33385000Y-16002000D03*
X31385000Y-16002000D03*
X31385000Y-18288000D03*
X33385000Y-18288000D03*
X18812000Y-11557000D03*
X20812000Y-11557000D03*
X27194000Y-11430000D03*
X29194000Y-11430000D03*
D14*
X21462000Y-16637000D03*
X18162000Y-16637000D03*
X21462000Y-13970000D03*
X18162000Y-13970000D03*
D15*
X24130000Y-11431000D03*
X24130000Y-14731000D03*
D16*
X15340000Y-3683000D03*
X20220000Y-3683000D03*
D17*
X23003000Y-3683000D03*
X25003000Y-2733000D03*
X25003000Y-4633000D03*
D18*
X29144000Y-2921000D03*
X27244000Y-2921000D03*
X31435000Y-4064000D03*
X33335000Y-4064000D03*
D19*
X38100000Y-15910000D03*
X38100000Y-15410000D03*
X38100000Y-14910000D03*
X38100000Y-14410000D03*
X38100000Y-13910000D03*
X38100000Y-13410000D03*
X38100000Y-12910000D03*
X38100000Y-12410000D03*
X38100000Y-11910000D03*
X38100000Y-11410000D03*
X38100000Y-10910000D03*
X38100000Y-10410000D03*
X38100000Y-9910000D03*
X38100000Y-9410000D03*
X38100000Y-8910000D03*
X38100000Y-8410000D03*
X38100000Y-7910000D03*
X38100000Y-7410000D03*
X38100000Y-6910000D03*
X38100000Y-6410000D03*
X38100000Y-5910000D03*
X38100000Y-5410000D03*
X38100000Y-4910000D03*
X38100000Y-4410000D03*
D13*
X31385000Y-13716000D03*
X33385000Y-13716000D03*
D20*
X29972000Y-6604000D03*
X30353000Y-4064000D03*
X36830000Y-18923000D03*
X36830000Y-1905000D03*
X10160000Y-4826000D03*
X25429184Y-18395009D03*
X36647120Y-7396480D03*
X30292040Y-12573000D03*
X30276800Y-15570200D03*
X30292040Y-18496280D03*
X34645600Y-12613640D03*
X36195000Y-12268200D03*
X13398500Y-13589000D03*
X26860500Y-6921500D03*
X20828000Y-6921500D03*
X36830000Y-4000500D03*
X26416000Y-1651000D03*
X7975600Y-9296400D03*
X17170400Y-10668000D03*
X24130000Y-16002000D03*
X35051988Y-14859000D03*
X34925000Y-17145000D03*
X23241000Y-17145000D03*
X21844000Y-3683000D03*
X22479000Y-11468990D03*
X12827000Y-5080000D03*
X30297989Y-11485011D03*
X37160200Y-11633200D03*
X34290000Y-4064000D03*
X26162000Y-2794000D03*
X9525000Y-10795000D03*
X10795000Y-9525000D03*
X8229600Y-8382000D03*
D21*
X35451987Y-14459001D02*
X35051988Y-14859000D01*
X38100000Y-14410000D02*
X35500988Y-14410000D01*
X35500988Y-14410000D02*
X35451987Y-14459001D01*
D22*
X24130000Y-16002000D02*
X24130000Y-14731000D01*
X35051988Y-14859000D02*
X34036000Y-15874988D01*
X33512012Y-15874988D02*
X33385000Y-16002000D01*
X34036000Y-15874988D02*
X33512012Y-15874988D01*
X22733000Y-16637000D02*
X23241000Y-17145000D01*
X21462000Y-16637000D02*
X22733000Y-16637000D01*
X33782000Y-18288000D02*
X34925000Y-17145000D01*
X33385000Y-18288000D02*
X33782000Y-18288000D01*
D21*
X36660000Y-15410000D02*
X34925000Y-17145000D01*
X38100000Y-15410000D02*
X36660000Y-15410000D01*
D22*
X18162000Y-16637000D02*
X18162000Y-13970000D01*
X18162000Y-12207000D02*
X18812000Y-11557000D01*
X18162000Y-13970000D02*
X18162000Y-12207000D01*
X22390990Y-11557000D02*
X22479000Y-11468990D01*
X20812000Y-11557000D02*
X22390990Y-11557000D01*
X22516990Y-11431000D02*
X22479000Y-11468990D01*
X24130000Y-11431000D02*
X22516990Y-11431000D01*
X20220000Y-3683000D02*
X21844000Y-3683000D01*
X23003000Y-3683000D02*
X21844000Y-3683000D01*
D21*
X29214000Y-11410000D02*
X29194000Y-11430000D01*
D22*
X29194000Y-11430000D02*
X29194000Y-11555000D01*
X29249011Y-11485011D02*
X29194000Y-11430000D01*
X30297989Y-11485011D02*
X29249011Y-11485011D01*
D21*
X38100000Y-11410000D02*
X37383400Y-11410000D01*
X37383400Y-11410000D02*
X37160200Y-11633200D01*
X37437000Y-11910000D02*
X38100000Y-11910000D01*
X37160200Y-11633200D02*
X37437000Y-11910000D01*
D22*
X12827000Y-5080000D02*
X12827000Y-4254500D01*
X12827000Y-4254500D02*
X13398500Y-3683000D01*
X13398500Y-3683000D02*
X15340000Y-3683000D01*
D21*
X34290000Y-4064000D02*
X33335000Y-4064000D01*
X25064000Y-2794000D02*
X25003000Y-2733000D01*
X26162000Y-2794000D02*
X25064000Y-2794000D01*
X34295080Y-4064000D02*
X34290000Y-4064000D01*
X35641080Y-5410000D02*
X34295080Y-4064000D01*
X38100000Y-5410000D02*
X35641080Y-5410000D01*
X29144000Y-3221000D02*
X29144000Y-2921000D01*
X28468999Y-3896001D02*
X29144000Y-3221000D01*
X26439999Y-3896001D02*
X28468999Y-3896001D01*
X25703000Y-4633000D02*
X26439999Y-3896001D01*
X25003000Y-4633000D02*
X25703000Y-4633000D01*
X29744000Y-2921000D02*
X29144000Y-2921000D01*
X34173160Y-2921000D02*
X29744000Y-2921000D01*
X36162160Y-4910000D02*
X34173160Y-2921000D01*
X38100000Y-4910000D02*
X36162160Y-4910000D01*
X34234120Y-5207000D02*
X29194000Y-5207000D01*
X34937120Y-5910000D02*
X34234120Y-5207000D01*
X38100000Y-5910000D02*
X34937120Y-5910000D01*
X33445000Y-6410000D02*
X33385000Y-6350000D01*
X38100000Y-6410000D02*
X33445000Y-6410000D01*
X34417000Y-11430000D02*
X33385000Y-11430000D01*
X35897000Y-12910000D02*
X34417000Y-11430000D01*
X38100000Y-12910000D02*
X35897000Y-12910000D01*
X29194000Y-13841000D02*
X29194000Y-13716000D01*
X30212000Y-14859000D02*
X29194000Y-13841000D01*
X33952002Y-14859000D02*
X30212000Y-14859000D01*
X34901002Y-13910000D02*
X33952002Y-14859000D01*
X38100000Y-13910000D02*
X34901002Y-13910000D01*
X30217080Y-17150080D02*
X29194000Y-16127000D01*
X29194000Y-16127000D02*
X29194000Y-16002000D01*
X34210001Y-16887001D02*
X33946922Y-17150080D01*
X34579560Y-16220440D02*
X34210001Y-16589999D01*
X34960560Y-16220440D02*
X34579560Y-16220440D01*
X34210001Y-16589999D02*
X34210001Y-16887001D01*
X36271000Y-14910000D02*
X34960560Y-16220440D01*
X33946922Y-17150080D02*
X30217080Y-17150080D01*
X38100000Y-14910000D02*
X36271000Y-14910000D01*
X29585920Y-19512280D02*
X29194000Y-19120360D01*
X29194000Y-19120360D02*
X29194000Y-18288000D01*
X33771840Y-19512280D02*
X29585920Y-19512280D01*
X37374120Y-15910000D02*
X33771840Y-19512280D01*
X38100000Y-15910000D02*
X37374120Y-15910000D01*
X38100000Y-10910000D02*
X35363146Y-10910000D01*
X11356622Y-10795000D02*
X9913908Y-10795000D01*
X35363146Y-10910000D02*
X34486146Y-10033000D01*
X34486146Y-10033000D02*
X12118622Y-10033000D01*
X12118622Y-10033000D02*
X11356622Y-10795000D01*
X9913908Y-10795000D02*
X9525000Y-10795000D01*
X11932221Y-9582989D02*
X11362399Y-10152811D01*
X8923999Y-10152811D02*
X7646810Y-11430000D01*
X34672546Y-9582989D02*
X11932221Y-9582989D01*
X38100000Y-10410000D02*
X35499557Y-10410000D01*
X35499557Y-10410000D02*
X34672546Y-9582989D01*
X11362399Y-10152811D02*
X8923999Y-10152811D01*
X7427630Y-11430000D02*
X6350000Y-11430000D01*
X7646810Y-11430000D02*
X7427630Y-11430000D01*
X11753799Y-9125001D02*
X11353800Y-9525000D01*
X11353800Y-9525000D02*
X10795000Y-9525000D01*
X34850969Y-9125001D02*
X11753799Y-9125001D01*
X38100000Y-9910000D02*
X35635968Y-9910000D01*
X35635968Y-9910000D02*
X34850969Y-9125001D01*
X8280400Y-10160000D02*
X5080000Y-10160000D01*
X8737600Y-9702800D02*
X8280400Y-10160000D01*
X4571999Y-10668001D02*
X3810000Y-11430000D01*
X35009401Y-8647022D02*
X10644693Y-8647022D01*
X9588915Y-9702800D02*
X8737600Y-9702800D01*
X10644693Y-8647022D02*
X9588915Y-9702800D01*
X35772379Y-9410000D02*
X35009401Y-8647022D01*
X5080000Y-10160000D02*
X4571999Y-10668001D01*
X38100000Y-9410000D02*
X35772379Y-9410000D01*
X8767270Y-8382000D02*
X8229600Y-8382000D01*
X8952259Y-8197011D02*
X8767270Y-8382000D01*
X35195801Y-8197011D02*
X8952259Y-8197011D01*
X35908790Y-8910000D02*
X35195801Y-8197011D01*
X38100000Y-8910000D02*
X35908790Y-8910000D01*
X4571999Y-8128001D02*
X3810000Y-8890000D01*
X35382200Y-7747000D02*
X4953000Y-7747000D01*
X36045200Y-8410000D02*
X35382200Y-7747000D01*
X4953000Y-7747000D02*
X4571999Y-8128001D01*
X38100000Y-8410000D02*
X36045200Y-8410000D01*
X33691000Y-13410000D02*
X33385000Y-13716000D01*
X38100000Y-13410000D02*
X33691000Y-13410000D01*
D23*
G36*
X44633247Y-344526D02*
G01*
X44809519Y-397746D01*
X44972091Y-484187D01*
X45114784Y-600564D01*
X45232150Y-742436D01*
X45319724Y-904401D01*
X45374172Y-1080292D01*
X45395000Y-1278464D01*
X45395001Y-19034093D01*
X45375474Y-19233247D01*
X45322253Y-19409521D01*
X45235812Y-19572093D01*
X45119436Y-19714784D01*
X44977569Y-19832147D01*
X44815598Y-19919724D01*
X44639708Y-19974172D01*
X44441536Y-19995000D01*
X1285897Y-19995000D01*
X1086753Y-19975474D01*
X910479Y-19922253D01*
X747907Y-19835812D01*
X605216Y-19719436D01*
X487853Y-19577569D01*
X400276Y-19415598D01*
X345828Y-19239708D01*
X325000Y-19041536D01*
X325000Y-18517000D01*
X26394000Y-18517000D01*
X26394000Y-18942548D01*
X26405529Y-19000507D01*
X26428144Y-19055104D01*
X26460975Y-19104239D01*
X26502761Y-19146025D01*
X26551897Y-19178857D01*
X26606494Y-19201471D01*
X26664453Y-19213000D01*
X26965000Y-19213000D01*
X27040000Y-19138000D01*
X27040000Y-18442000D01*
X27348000Y-18442000D01*
X27348000Y-19138000D01*
X27423000Y-19213000D01*
X27723547Y-19213000D01*
X27781506Y-19201471D01*
X27836103Y-19178857D01*
X27885239Y-19146025D01*
X27927025Y-19104239D01*
X27959856Y-19055104D01*
X27982471Y-19000507D01*
X27994000Y-18942548D01*
X27994000Y-18517000D01*
X27919000Y-18442000D01*
X27348000Y-18442000D01*
X27040000Y-18442000D01*
X26469000Y-18442000D01*
X26394000Y-18517000D01*
X325000Y-18517000D01*
X325000Y-16405402D01*
X2748000Y-16405402D01*
X2748000Y-16614598D01*
X2788812Y-16819774D01*
X2868867Y-17013046D01*
X2985090Y-17186986D01*
X3133014Y-17334910D01*
X3306954Y-17451133D01*
X3500226Y-17531188D01*
X3705402Y-17572000D01*
X3914598Y-17572000D01*
X4119774Y-17531188D01*
X4313046Y-17451133D01*
X4486986Y-17334910D01*
X4634910Y-17186986D01*
X4751133Y-17013046D01*
X4831188Y-16819774D01*
X4872000Y-16614598D01*
X4872000Y-16405402D01*
X5288000Y-16405402D01*
X5288000Y-16614598D01*
X5328812Y-16819774D01*
X5408867Y-17013046D01*
X5525090Y-17186986D01*
X5673014Y-17334910D01*
X5846954Y-17451133D01*
X6040226Y-17531188D01*
X6245402Y-17572000D01*
X6454598Y-17572000D01*
X6659774Y-17531188D01*
X6853046Y-17451133D01*
X7026986Y-17334910D01*
X7174910Y-17186986D01*
X7291133Y-17013046D01*
X7371188Y-16819774D01*
X7412000Y-16614598D01*
X7412000Y-16405402D01*
X7371188Y-16200226D01*
X7291133Y-16006954D01*
X7174910Y-15833014D01*
X7026986Y-15685090D01*
X6853046Y-15568867D01*
X6659774Y-15488812D01*
X6454598Y-15448000D01*
X6245402Y-15448000D01*
X6040226Y-15488812D01*
X5846954Y-15568867D01*
X5673014Y-15685090D01*
X5525090Y-15833014D01*
X5408867Y-16006954D01*
X5328812Y-16200226D01*
X5288000Y-16405402D01*
X4872000Y-16405402D01*
X4831188Y-16200226D01*
X4751133Y-16006954D01*
X4634910Y-15833014D01*
X4486986Y-15685090D01*
X4313046Y-15568867D01*
X4119774Y-15488812D01*
X3914598Y-15448000D01*
X3705402Y-15448000D01*
X3500226Y-15488812D01*
X3306954Y-15568867D01*
X3133014Y-15685090D01*
X2985090Y-15833014D01*
X2868867Y-16006954D01*
X2788812Y-16200226D01*
X2748000Y-16405402D01*
X325000Y-16405402D01*
X325000Y-14771940D01*
X3225849Y-14771940D01*
X3313906Y-14914816D01*
X3507762Y-14993444D01*
X3713234Y-15032743D01*
X3922424Y-15031201D01*
X4127294Y-14988878D01*
X4306094Y-14914816D01*
X4394151Y-14771940D01*
X5765849Y-14771940D01*
X5853906Y-14914816D01*
X6047762Y-14993444D01*
X6253234Y-15032743D01*
X6462424Y-15031201D01*
X6667294Y-14988878D01*
X6846094Y-14914816D01*
X6934151Y-14771940D01*
X6350000Y-14187789D01*
X5765849Y-14771940D01*
X4394151Y-14771940D01*
X3810000Y-14187789D01*
X3225849Y-14771940D01*
X325000Y-14771940D01*
X325000Y-13873234D01*
X2747257Y-13873234D01*
X2748799Y-14082424D01*
X2791122Y-14287294D01*
X2865184Y-14466094D01*
X3008060Y-14554151D01*
X3592211Y-13970000D01*
X4027789Y-13970000D01*
X4611940Y-14554151D01*
X4754816Y-14466094D01*
X4833444Y-14272238D01*
X4872743Y-14066766D01*
X4871317Y-13873234D01*
X5287257Y-13873234D01*
X5288799Y-14082424D01*
X5331122Y-14287294D01*
X5405184Y-14466094D01*
X5548060Y-14554151D01*
X6132211Y-13970000D01*
X6567789Y-13970000D01*
X7151940Y-14554151D01*
X7294816Y-14466094D01*
X7373444Y-14272238D01*
X7412743Y-14066766D01*
X7411201Y-13857576D01*
X7368878Y-13652706D01*
X7294816Y-13473906D01*
X7151940Y-13385849D01*
X6567789Y-13970000D01*
X6132211Y-13970000D01*
X5548060Y-13385849D01*
X5405184Y-13473906D01*
X5326556Y-13667762D01*
X5287257Y-13873234D01*
X4871317Y-13873234D01*
X4871201Y-13857576D01*
X4828878Y-13652706D01*
X4754816Y-13473906D01*
X4611940Y-13385849D01*
X4027789Y-13970000D01*
X3592211Y-13970000D01*
X3008060Y-13385849D01*
X2865184Y-13473906D01*
X2786556Y-13667762D01*
X2747257Y-13873234D01*
X325000Y-13873234D01*
X325000Y-13168060D01*
X3225849Y-13168060D01*
X3810000Y-13752211D01*
X4394151Y-13168060D01*
X5765849Y-13168060D01*
X6350000Y-13752211D01*
X6732211Y-13370000D01*
X17410549Y-13370000D01*
X17410549Y-14570000D01*
X17416341Y-14628810D01*
X17433496Y-14685360D01*
X17461353Y-14737477D01*
X17498842Y-14783158D01*
X17544523Y-14820647D01*
X17596640Y-14848504D01*
X17612001Y-14853164D01*
X17612000Y-15753836D01*
X17596640Y-15758496D01*
X17544523Y-15786353D01*
X17498842Y-15823842D01*
X17461353Y-15869523D01*
X17433496Y-15921640D01*
X17416341Y-15978190D01*
X17410549Y-16037000D01*
X17410549Y-17237000D01*
X17416341Y-17295810D01*
X17433496Y-17352360D01*
X17461353Y-17404477D01*
X17498842Y-17450158D01*
X17544523Y-17487647D01*
X17596640Y-17515504D01*
X17653190Y-17532659D01*
X17712000Y-17538451D01*
X18612000Y-17538451D01*
X18670810Y-17532659D01*
X18727360Y-17515504D01*
X18779477Y-17487647D01*
X18825158Y-17450158D01*
X18862647Y-17404477D01*
X18890504Y-17352360D01*
X18907659Y-17295810D01*
X18913451Y-17237000D01*
X18913451Y-16037000D01*
X20710549Y-16037000D01*
X20710549Y-17237000D01*
X20716341Y-17295810D01*
X20733496Y-17352360D01*
X20761353Y-17404477D01*
X20798842Y-17450158D01*
X20844523Y-17487647D01*
X20896640Y-17515504D01*
X20953190Y-17532659D01*
X21012000Y-17538451D01*
X21912000Y-17538451D01*
X21970810Y-17532659D01*
X22027360Y-17515504D01*
X22079477Y-17487647D01*
X22125158Y-17450158D01*
X22162647Y-17404477D01*
X22190504Y-17352360D01*
X22207659Y-17295810D01*
X22213451Y-17237000D01*
X22213451Y-17187000D01*
X22505183Y-17187000D01*
X22728539Y-17410356D01*
X22731442Y-17417365D01*
X22794368Y-17511541D01*
X22874459Y-17591632D01*
X22968635Y-17654558D01*
X23073279Y-17697903D01*
X23184367Y-17720000D01*
X23297633Y-17720000D01*
X23408721Y-17697903D01*
X23513365Y-17654558D01*
X23544952Y-17633452D01*
X26394000Y-17633452D01*
X26394000Y-18059000D01*
X26469000Y-18134000D01*
X27040000Y-18134000D01*
X27040000Y-17438000D01*
X27348000Y-17438000D01*
X27348000Y-18134000D01*
X27919000Y-18134000D01*
X27994000Y-18059000D01*
X27994000Y-17633452D01*
X27982471Y-17575493D01*
X27959856Y-17520896D01*
X27927025Y-17471761D01*
X27885239Y-17429975D01*
X27836103Y-17397143D01*
X27781506Y-17374529D01*
X27723547Y-17363000D01*
X27423000Y-17363000D01*
X27348000Y-17438000D01*
X27040000Y-17438000D01*
X26965000Y-17363000D01*
X26664453Y-17363000D01*
X26606494Y-17374529D01*
X26551897Y-17397143D01*
X26502761Y-17429975D01*
X26460975Y-17471761D01*
X26428144Y-17520896D01*
X26405529Y-17575493D01*
X26394000Y-17633452D01*
X23544952Y-17633452D01*
X23607541Y-17591632D01*
X23687632Y-17511541D01*
X23750558Y-17417365D01*
X23793903Y-17312721D01*
X23816000Y-17201633D01*
X23816000Y-17088367D01*
X23793903Y-16977279D01*
X23750558Y-16872635D01*
X23687632Y-16778459D01*
X23607541Y-16698368D01*
X23513365Y-16635442D01*
X23506356Y-16632539D01*
X23141013Y-16267196D01*
X23123790Y-16246210D01*
X23040042Y-16177479D01*
X22944494Y-16126408D01*
X22840819Y-16094958D01*
X22760018Y-16087000D01*
X22760008Y-16087000D01*
X22733000Y-16084340D01*
X22705992Y-16087000D01*
X22213451Y-16087000D01*
X22213451Y-16037000D01*
X22207659Y-15978190D01*
X22190504Y-15921640D01*
X22162647Y-15869523D01*
X22125158Y-15823842D01*
X22079477Y-15786353D01*
X22027360Y-15758496D01*
X21970810Y-15741341D01*
X21912000Y-15735549D01*
X21012000Y-15735549D01*
X20953190Y-15741341D01*
X20896640Y-15758496D01*
X20844523Y-15786353D01*
X20798842Y-15823842D01*
X20761353Y-15869523D01*
X20733496Y-15921640D01*
X20716341Y-15978190D01*
X20710549Y-16037000D01*
X18913451Y-16037000D01*
X18907659Y-15978190D01*
X18890504Y-15921640D01*
X18862647Y-15869523D01*
X18825158Y-15823842D01*
X18779477Y-15786353D01*
X18727360Y-15758496D01*
X18712000Y-15753836D01*
X18712000Y-14853164D01*
X18727360Y-14848504D01*
X18779477Y-14820647D01*
X18825158Y-14783158D01*
X18862647Y-14737477D01*
X18890504Y-14685360D01*
X18907659Y-14628810D01*
X18913451Y-14570000D01*
X18913451Y-14199000D01*
X20712000Y-14199000D01*
X20712000Y-14599548D01*
X20723529Y-14657507D01*
X20746144Y-14712104D01*
X20778975Y-14761239D01*
X20820761Y-14803025D01*
X20869897Y-14835857D01*
X20924494Y-14858471D01*
X20982453Y-14870000D01*
X21233000Y-14870000D01*
X21308000Y-14795000D01*
X21308000Y-14124000D01*
X21616000Y-14124000D01*
X21616000Y-14795000D01*
X21691000Y-14870000D01*
X21941547Y-14870000D01*
X21999506Y-14858471D01*
X22054103Y-14835857D01*
X22103239Y-14803025D01*
X22145025Y-14761239D01*
X22177856Y-14712104D01*
X22200471Y-14657507D01*
X22212000Y-14599548D01*
X22212000Y-14281000D01*
X23228549Y-14281000D01*
X23228549Y-15181000D01*
X23234341Y-15239810D01*
X23251496Y-15296360D01*
X23279353Y-15348477D01*
X23316842Y-15394158D01*
X23362523Y-15431647D01*
X23414640Y-15459504D01*
X23471190Y-15476659D01*
X23530000Y-15482451D01*
X23580000Y-15482451D01*
X23580000Y-15827270D01*
X23577097Y-15834279D01*
X23555000Y-15945367D01*
X23555000Y-16058633D01*
X23577097Y-16169721D01*
X23620442Y-16274365D01*
X23683368Y-16368541D01*
X23763459Y-16448632D01*
X23857635Y-16511558D01*
X23962279Y-16554903D01*
X24073367Y-16577000D01*
X24186633Y-16577000D01*
X24297721Y-16554903D01*
X24402365Y-16511558D01*
X24496541Y-16448632D01*
X24576632Y-16368541D01*
X24639558Y-16274365D01*
X24657520Y-16231000D01*
X26394000Y-16231000D01*
X26394000Y-16656548D01*
X26405529Y-16714507D01*
X26428144Y-16769104D01*
X26460975Y-16818239D01*
X26502761Y-16860025D01*
X26551897Y-16892857D01*
X26606494Y-16915471D01*
X26664453Y-16927000D01*
X26965000Y-16927000D01*
X27040000Y-16852000D01*
X27040000Y-16156000D01*
X27348000Y-16156000D01*
X27348000Y-16852000D01*
X27423000Y-16927000D01*
X27723547Y-16927000D01*
X27781506Y-16915471D01*
X27836103Y-16892857D01*
X27885239Y-16860025D01*
X27927025Y-16818239D01*
X27959856Y-16769104D01*
X27982471Y-16714507D01*
X27994000Y-16656548D01*
X27994000Y-16231000D01*
X27919000Y-16156000D01*
X27348000Y-16156000D01*
X27040000Y-16156000D01*
X26469000Y-16156000D01*
X26394000Y-16231000D01*
X24657520Y-16231000D01*
X24682903Y-16169721D01*
X24705000Y-16058633D01*
X24705000Y-15945367D01*
X24682903Y-15834279D01*
X24680000Y-15827271D01*
X24680000Y-15482451D01*
X24730000Y-15482451D01*
X24788810Y-15476659D01*
X24845360Y-15459504D01*
X24897477Y-15431647D01*
X24943158Y-15394158D01*
X24980647Y-15348477D01*
X24981194Y-15347452D01*
X26394000Y-15347452D01*
X26394000Y-15773000D01*
X26469000Y-15848000D01*
X27040000Y-15848000D01*
X27040000Y-15152000D01*
X27348000Y-15152000D01*
X27348000Y-15848000D01*
X27919000Y-15848000D01*
X27994000Y-15773000D01*
X27994000Y-15347452D01*
X27982471Y-15289493D01*
X27959856Y-15234896D01*
X27927025Y-15185761D01*
X27885239Y-15143975D01*
X27836103Y-15111143D01*
X27781506Y-15088529D01*
X27723547Y-15077000D01*
X27423000Y-15077000D01*
X27348000Y-15152000D01*
X27040000Y-15152000D01*
X26965000Y-15077000D01*
X26664453Y-15077000D01*
X26606494Y-15088529D01*
X26551897Y-15111143D01*
X26502761Y-15143975D01*
X26460975Y-15185761D01*
X26428144Y-15234896D01*
X26405529Y-15289493D01*
X26394000Y-15347452D01*
X24981194Y-15347452D01*
X25008504Y-15296360D01*
X25025659Y-15239810D01*
X25031451Y-15181000D01*
X25031451Y-14281000D01*
X25025659Y-14222190D01*
X25008504Y-14165640D01*
X24980647Y-14113523D01*
X24943158Y-14067842D01*
X24897477Y-14030353D01*
X24845360Y-14002496D01*
X24788810Y-13985341D01*
X24730000Y-13979549D01*
X23530000Y-13979549D01*
X23471190Y-13985341D01*
X23414640Y-14002496D01*
X23362523Y-14030353D01*
X23316842Y-14067842D01*
X23279353Y-14113523D01*
X23251496Y-14165640D01*
X23234341Y-14222190D01*
X23228549Y-14281000D01*
X22212000Y-14281000D01*
X22212000Y-14199000D01*
X22137000Y-14124000D01*
X21616000Y-14124000D01*
X21308000Y-14124000D01*
X20787000Y-14124000D01*
X20712000Y-14199000D01*
X18913451Y-14199000D01*
X18913451Y-13945000D01*
X26394000Y-13945000D01*
X26394000Y-14370548D01*
X26405529Y-14428507D01*
X26428144Y-14483104D01*
X26460975Y-14532239D01*
X26502761Y-14574025D01*
X26551897Y-14606857D01*
X26606494Y-14629471D01*
X26664453Y-14641000D01*
X26965000Y-14641000D01*
X27040000Y-14566000D01*
X27040000Y-13870000D01*
X27348000Y-13870000D01*
X27348000Y-14566000D01*
X27423000Y-14641000D01*
X27723547Y-14641000D01*
X27781506Y-14629471D01*
X27836103Y-14606857D01*
X27885239Y-14574025D01*
X27927025Y-14532239D01*
X27959856Y-14483104D01*
X27982471Y-14428507D01*
X27994000Y-14370548D01*
X27994000Y-13945000D01*
X27919000Y-13870000D01*
X27348000Y-13870000D01*
X27040000Y-13870000D01*
X26469000Y-13870000D01*
X26394000Y-13945000D01*
X18913451Y-13945000D01*
X18913451Y-13370000D01*
X18910541Y-13340452D01*
X20712000Y-13340452D01*
X20712000Y-13741000D01*
X20787000Y-13816000D01*
X21308000Y-13816000D01*
X21308000Y-13145000D01*
X21616000Y-13145000D01*
X21616000Y-13816000D01*
X22137000Y-13816000D01*
X22212000Y-13741000D01*
X22212000Y-13340452D01*
X22200471Y-13282493D01*
X22177856Y-13227896D01*
X22145025Y-13178761D01*
X22103239Y-13136975D01*
X22054103Y-13104143D01*
X21999506Y-13081529D01*
X21941547Y-13070000D01*
X21691000Y-13070000D01*
X21616000Y-13145000D01*
X21308000Y-13145000D01*
X21233000Y-13070000D01*
X20982453Y-13070000D01*
X20924494Y-13081529D01*
X20869897Y-13104143D01*
X20820761Y-13136975D01*
X20778975Y-13178761D01*
X20746144Y-13227896D01*
X20723529Y-13282493D01*
X20712000Y-13340452D01*
X18910541Y-13340452D01*
X18907659Y-13311190D01*
X18890504Y-13254640D01*
X18862647Y-13202523D01*
X18825158Y-13156842D01*
X18779477Y-13119353D01*
X18727360Y-13091496D01*
X18712000Y-13086836D01*
X18712000Y-13061452D01*
X26394000Y-13061452D01*
X26394000Y-13487000D01*
X26469000Y-13562000D01*
X27040000Y-13562000D01*
X27040000Y-12866000D01*
X27348000Y-12866000D01*
X27348000Y-13562000D01*
X27919000Y-13562000D01*
X27994000Y-13487000D01*
X27994000Y-13091000D01*
X28392549Y-13091000D01*
X28392549Y-14341000D01*
X28398341Y-14399810D01*
X28415496Y-14456360D01*
X28443353Y-14508477D01*
X28480842Y-14554158D01*
X28526523Y-14591647D01*
X28578640Y-14619504D01*
X28635190Y-14636659D01*
X28694000Y-14642451D01*
X29394411Y-14642451D01*
X29896721Y-15144762D01*
X29910026Y-15160974D01*
X29974740Y-15214084D01*
X30048573Y-15253548D01*
X30104383Y-15270478D01*
X30128685Y-15277850D01*
X30137098Y-15278679D01*
X30191126Y-15284000D01*
X30191132Y-15284000D01*
X30211999Y-15286055D01*
X30232866Y-15284000D01*
X30598804Y-15284000D01*
X30596529Y-15289493D01*
X30585000Y-15347452D01*
X30585000Y-15773000D01*
X30660000Y-15848000D01*
X31231000Y-15848000D01*
X31231000Y-15828000D01*
X31539000Y-15828000D01*
X31539000Y-15848000D01*
X32110000Y-15848000D01*
X32185000Y-15773000D01*
X32185000Y-15347452D01*
X32173471Y-15289493D01*
X32171196Y-15284000D01*
X32599713Y-15284000D01*
X32589341Y-15318190D01*
X32583549Y-15377000D01*
X32583549Y-16627000D01*
X32589341Y-16685810D01*
X32601254Y-16725080D01*
X32169091Y-16725080D01*
X32173471Y-16714507D01*
X32185000Y-16656548D01*
X32185000Y-16231000D01*
X32110000Y-16156000D01*
X31539000Y-16156000D01*
X31539000Y-16176000D01*
X31231000Y-16176000D01*
X31231000Y-16156000D01*
X30660000Y-16156000D01*
X30585000Y-16231000D01*
X30585000Y-16656548D01*
X30596529Y-16714507D01*
X30600909Y-16725080D01*
X30393120Y-16725080D01*
X29995451Y-16327411D01*
X29995451Y-15377000D01*
X29989659Y-15318190D01*
X29972504Y-15261640D01*
X29944647Y-15209523D01*
X29907158Y-15163842D01*
X29861477Y-15126353D01*
X29809360Y-15098496D01*
X29752810Y-15081341D01*
X29694000Y-15075549D01*
X28694000Y-15075549D01*
X28635190Y-15081341D01*
X28578640Y-15098496D01*
X28526523Y-15126353D01*
X28480842Y-15163842D01*
X28443353Y-15209523D01*
X28415496Y-15261640D01*
X28398341Y-15318190D01*
X28392549Y-15377000D01*
X28392549Y-16627000D01*
X28398341Y-16685810D01*
X28415496Y-16742360D01*
X28443353Y-16794477D01*
X28480842Y-16840158D01*
X28526523Y-16877647D01*
X28578640Y-16905504D01*
X28635190Y-16922659D01*
X28694000Y-16928451D01*
X29394411Y-16928451D01*
X29901796Y-17435836D01*
X29915106Y-17452054D01*
X29979820Y-17505164D01*
X30044147Y-17539547D01*
X30053653Y-17544628D01*
X30133766Y-17568930D01*
X30217080Y-17577136D01*
X30237954Y-17575080D01*
X30596700Y-17575080D01*
X30596529Y-17575493D01*
X30585000Y-17633452D01*
X30585000Y-18059000D01*
X30660000Y-18134000D01*
X31231000Y-18134000D01*
X31231000Y-18114000D01*
X31539000Y-18114000D01*
X31539000Y-18134000D01*
X32110000Y-18134000D01*
X32185000Y-18059000D01*
X32185000Y-17633452D01*
X32173471Y-17575493D01*
X32173300Y-17575080D01*
X32598172Y-17575080D01*
X32589341Y-17604190D01*
X32583549Y-17663000D01*
X32583549Y-18913000D01*
X32589341Y-18971810D01*
X32606496Y-19028360D01*
X32634353Y-19080477D01*
X32639936Y-19087280D01*
X32129357Y-19087280D01*
X32150856Y-19055104D01*
X32173471Y-19000507D01*
X32185000Y-18942548D01*
X32185000Y-18517000D01*
X32110000Y-18442000D01*
X31539000Y-18442000D01*
X31539000Y-18462000D01*
X31231000Y-18462000D01*
X31231000Y-18442000D01*
X30660000Y-18442000D01*
X30585000Y-18517000D01*
X30585000Y-18942548D01*
X30596529Y-19000507D01*
X30619144Y-19055104D01*
X30640643Y-19087280D01*
X29939064Y-19087280D01*
X29944647Y-19080477D01*
X29972504Y-19028360D01*
X29989659Y-18971810D01*
X29995451Y-18913000D01*
X29995451Y-17663000D01*
X29989659Y-17604190D01*
X29972504Y-17547640D01*
X29944647Y-17495523D01*
X29907158Y-17449842D01*
X29861477Y-17412353D01*
X29809360Y-17384496D01*
X29752810Y-17367341D01*
X29694000Y-17361549D01*
X28694000Y-17361549D01*
X28635190Y-17367341D01*
X28578640Y-17384496D01*
X28526523Y-17412353D01*
X28480842Y-17449842D01*
X28443353Y-17495523D01*
X28415496Y-17547640D01*
X28398341Y-17604190D01*
X28392549Y-17663000D01*
X28392549Y-18913000D01*
X28398341Y-18971810D01*
X28415496Y-19028360D01*
X28443353Y-19080477D01*
X28480842Y-19126158D01*
X28526523Y-19163647D01*
X28578640Y-19191504D01*
X28635190Y-19208659D01*
X28694000Y-19214451D01*
X28778419Y-19214451D01*
X28799452Y-19283786D01*
X28838916Y-19357619D01*
X28892026Y-19422334D01*
X28908244Y-19435644D01*
X29270636Y-19798036D01*
X29283946Y-19814254D01*
X29348660Y-19867364D01*
X29410931Y-19900648D01*
X29422493Y-19906828D01*
X29502606Y-19931130D01*
X29585920Y-19939336D01*
X29606794Y-19937280D01*
X33750973Y-19937280D01*
X33771840Y-19939335D01*
X33792707Y-19937280D01*
X33792714Y-19937280D01*
X33855154Y-19931130D01*
X33935267Y-19906828D01*
X34009100Y-19867364D01*
X34073814Y-19814254D01*
X34087124Y-19798037D01*
X36725161Y-17160000D01*
X38200000Y-17160000D01*
X38200000Y-19560000D01*
X38202757Y-19588119D01*
X38205314Y-19616214D01*
X38205610Y-19617220D01*
X38205713Y-19618270D01*
X38213892Y-19645361D01*
X38221845Y-19672382D01*
X38222332Y-19673313D01*
X38222636Y-19674321D01*
X38235890Y-19699247D01*
X38248971Y-19724269D01*
X38249631Y-19725090D01*
X38250124Y-19726017D01*
X38267928Y-19747847D01*
X38285658Y-19769899D01*
X38286466Y-19770577D01*
X38287129Y-19771390D01*
X38308855Y-19789364D01*
X38330510Y-19807534D01*
X38331432Y-19808041D01*
X38332242Y-19808711D01*
X38357047Y-19822123D01*
X38381817Y-19835741D01*
X38382821Y-19836060D01*
X38383745Y-19836559D01*
X38410720Y-19844909D01*
X38437626Y-19853444D01*
X38438669Y-19853561D01*
X38439677Y-19853873D01*
X38467796Y-19856828D01*
X38495811Y-19859971D01*
X38497830Y-19859985D01*
X38497906Y-19859993D01*
X38497983Y-19859986D01*
X38500000Y-19860000D01*
X40700000Y-19860000D01*
X40728119Y-19857243D01*
X40756214Y-19854686D01*
X40757220Y-19854390D01*
X40758270Y-19854287D01*
X40785361Y-19846108D01*
X40812382Y-19838155D01*
X40813313Y-19837668D01*
X40814321Y-19837364D01*
X40839247Y-19824110D01*
X40864269Y-19811029D01*
X40865090Y-19810369D01*
X40866017Y-19809876D01*
X40887847Y-19792072D01*
X40909899Y-19774342D01*
X40910577Y-19773534D01*
X40911390Y-19772871D01*
X40929364Y-19751145D01*
X40947534Y-19729490D01*
X40948041Y-19728568D01*
X40948711Y-19727758D01*
X40962123Y-19702953D01*
X40975741Y-19678183D01*
X40976060Y-19677179D01*
X40976559Y-19676255D01*
X40984909Y-19649280D01*
X40993444Y-19622374D01*
X40993561Y-19621331D01*
X40993873Y-19620323D01*
X40996828Y-19592204D01*
X40999971Y-19564189D01*
X40999985Y-19562170D01*
X40999993Y-19562094D01*
X40999986Y-19562017D01*
X41000000Y-19560000D01*
X41000000Y-18760000D01*
X41550000Y-18760000D01*
X41578119Y-18757243D01*
X41606214Y-18754686D01*
X41607220Y-18754390D01*
X41608270Y-18754287D01*
X41635361Y-18746108D01*
X41662382Y-18738155D01*
X41663313Y-18737668D01*
X41664321Y-18737364D01*
X41689247Y-18724110D01*
X41714269Y-18711029D01*
X41715090Y-18710369D01*
X41716017Y-18709876D01*
X41737847Y-18692072D01*
X41759899Y-18674342D01*
X41760577Y-18673534D01*
X41761390Y-18672871D01*
X41779364Y-18651145D01*
X41797534Y-18629490D01*
X41798041Y-18628568D01*
X41798711Y-18627758D01*
X41812123Y-18602953D01*
X41825741Y-18578183D01*
X41826060Y-18577179D01*
X41826559Y-18576255D01*
X41834909Y-18549280D01*
X41843444Y-18522374D01*
X41843561Y-18521331D01*
X41843873Y-18520323D01*
X41846828Y-18492204D01*
X41849971Y-18464189D01*
X41849985Y-18462170D01*
X41849993Y-18462094D01*
X41849986Y-18462017D01*
X41850000Y-18460000D01*
X41850000Y-17160000D01*
X41847243Y-17131881D01*
X41844686Y-17103786D01*
X41844390Y-17102780D01*
X41844287Y-17101730D01*
X41836108Y-17074639D01*
X41828155Y-17047618D01*
X41827668Y-17046687D01*
X41827364Y-17045679D01*
X41814110Y-17020753D01*
X41801029Y-16995731D01*
X41800369Y-16994910D01*
X41799876Y-16993983D01*
X41782072Y-16972153D01*
X41764342Y-16950101D01*
X41763534Y-16949423D01*
X41762871Y-16948610D01*
X41741145Y-16930636D01*
X41719490Y-16912466D01*
X41718568Y-16911959D01*
X41717758Y-16911289D01*
X41692953Y-16897877D01*
X41668183Y-16884259D01*
X41667179Y-16883940D01*
X41666255Y-16883441D01*
X41639280Y-16875091D01*
X41612374Y-16866556D01*
X41611331Y-16866439D01*
X41610323Y-16866127D01*
X41582204Y-16863172D01*
X41554189Y-16860029D01*
X41552170Y-16860015D01*
X41552094Y-16860007D01*
X41552017Y-16860014D01*
X41550000Y-16860000D01*
X38500000Y-16860000D01*
X38471881Y-16862757D01*
X38443786Y-16865314D01*
X38442780Y-16865610D01*
X38441730Y-16865713D01*
X38414639Y-16873892D01*
X38387618Y-16881845D01*
X38386687Y-16882332D01*
X38385679Y-16882636D01*
X38360753Y-16895890D01*
X38335731Y-16908971D01*
X38334910Y-16909631D01*
X38333983Y-16910124D01*
X38312153Y-16927928D01*
X38290101Y-16945658D01*
X38289423Y-16946466D01*
X38288610Y-16947129D01*
X38270636Y-16968855D01*
X38252466Y-16990510D01*
X38251959Y-16991432D01*
X38251289Y-16992242D01*
X38237877Y-17017047D01*
X38224259Y-17041817D01*
X38223940Y-17042821D01*
X38223441Y-17043745D01*
X38215091Y-17070720D01*
X38206556Y-17097626D01*
X38206439Y-17098669D01*
X38206127Y-17099677D01*
X38203172Y-17127796D01*
X38200029Y-17155811D01*
X38200015Y-17157830D01*
X38200007Y-17157906D01*
X38200014Y-17157983D01*
X38200000Y-17160000D01*
X36725161Y-17160000D01*
X37550161Y-16335000D01*
X37578084Y-16335000D01*
X37584640Y-16338504D01*
X37641190Y-16355659D01*
X37700000Y-16361451D01*
X38500000Y-16361451D01*
X38558810Y-16355659D01*
X38615360Y-16338504D01*
X38667477Y-16310647D01*
X38713158Y-16273158D01*
X38750647Y-16227477D01*
X38778504Y-16175360D01*
X38795659Y-16118810D01*
X38801451Y-16060000D01*
X38801451Y-15760000D01*
X38795659Y-15701190D01*
X38783164Y-15660000D01*
X38795659Y-15618810D01*
X38801451Y-15560000D01*
X38801451Y-15260000D01*
X38795659Y-15201190D01*
X38783164Y-15160000D01*
X38795659Y-15118810D01*
X38801451Y-15060000D01*
X38801451Y-14760000D01*
X38795659Y-14701190D01*
X38783164Y-14660000D01*
X38795659Y-14618810D01*
X38801451Y-14560000D01*
X38801451Y-14260000D01*
X38795659Y-14201190D01*
X38783164Y-14160000D01*
X38795659Y-14118810D01*
X38801451Y-14060000D01*
X38801451Y-13760000D01*
X38795659Y-13701190D01*
X38783164Y-13660000D01*
X38795659Y-13618810D01*
X38801451Y-13560000D01*
X38801451Y-13260000D01*
X38795659Y-13201190D01*
X38783164Y-13160000D01*
X38795659Y-13118810D01*
X38801451Y-13060000D01*
X38801451Y-12760000D01*
X38795659Y-12701190D01*
X38783220Y-12660185D01*
X38788471Y-12647506D01*
X38800000Y-12589547D01*
X38800000Y-12560000D01*
X38725000Y-12485000D01*
X38621916Y-12485000D01*
X38615360Y-12481496D01*
X38558810Y-12464341D01*
X38500000Y-12458549D01*
X37700000Y-12458549D01*
X37641190Y-12464341D01*
X37584640Y-12481496D01*
X37578084Y-12485000D01*
X36073041Y-12485000D01*
X34732283Y-11144243D01*
X34718974Y-11128026D01*
X34654260Y-11074916D01*
X34580427Y-11035452D01*
X34500314Y-11011150D01*
X34437874Y-11005000D01*
X34437867Y-11005000D01*
X34417000Y-11002945D01*
X34396133Y-11005000D01*
X34186451Y-11005000D01*
X34186451Y-10805000D01*
X34180659Y-10746190D01*
X34163504Y-10689640D01*
X34135647Y-10637523D01*
X34098158Y-10591842D01*
X34052477Y-10554353D01*
X34000360Y-10526496D01*
X33943810Y-10509341D01*
X33885000Y-10503549D01*
X32885000Y-10503549D01*
X32826190Y-10509341D01*
X32769640Y-10526496D01*
X32717523Y-10554353D01*
X32671842Y-10591842D01*
X32634353Y-10637523D01*
X32606496Y-10689640D01*
X32589341Y-10746190D01*
X32583549Y-10805000D01*
X32583549Y-12055000D01*
X32589341Y-12113810D01*
X32606496Y-12170360D01*
X32634353Y-12222477D01*
X32671842Y-12268158D01*
X32717523Y-12305647D01*
X32769640Y-12333504D01*
X32826190Y-12350659D01*
X32885000Y-12356451D01*
X33885000Y-12356451D01*
X33943810Y-12350659D01*
X34000360Y-12333504D01*
X34052477Y-12305647D01*
X34098158Y-12268158D01*
X34135647Y-12222477D01*
X34163504Y-12170360D01*
X34180659Y-12113810D01*
X34186451Y-12055000D01*
X34186451Y-11855000D01*
X34240960Y-11855000D01*
X35370959Y-12985000D01*
X34166343Y-12985000D01*
X34163504Y-12975640D01*
X34135647Y-12923523D01*
X34098158Y-12877842D01*
X34052477Y-12840353D01*
X34000360Y-12812496D01*
X33943810Y-12795341D01*
X33885000Y-12789549D01*
X32885000Y-12789549D01*
X32826190Y-12795341D01*
X32769640Y-12812496D01*
X32717523Y-12840353D01*
X32671842Y-12877842D01*
X32634353Y-12923523D01*
X32606496Y-12975640D01*
X32589341Y-13032190D01*
X32583549Y-13091000D01*
X32583549Y-14341000D01*
X32589341Y-14399810D01*
X32599713Y-14434000D01*
X32171196Y-14434000D01*
X32173471Y-14428507D01*
X32185000Y-14370548D01*
X32185000Y-13945000D01*
X32110000Y-13870000D01*
X31539000Y-13870000D01*
X31539000Y-13890000D01*
X31231000Y-13890000D01*
X31231000Y-13870000D01*
X30660000Y-13870000D01*
X30585000Y-13945000D01*
X30585000Y-14370548D01*
X30596529Y-14428507D01*
X30598804Y-14434000D01*
X30388041Y-14434000D01*
X29995451Y-14041411D01*
X29995451Y-13091000D01*
X29992541Y-13061452D01*
X30585000Y-13061452D01*
X30585000Y-13487000D01*
X30660000Y-13562000D01*
X31231000Y-13562000D01*
X31231000Y-12866000D01*
X31539000Y-12866000D01*
X31539000Y-13562000D01*
X32110000Y-13562000D01*
X32185000Y-13487000D01*
X32185000Y-13061452D01*
X32173471Y-13003493D01*
X32150856Y-12948896D01*
X32118025Y-12899761D01*
X32076239Y-12857975D01*
X32027103Y-12825143D01*
X31972506Y-12802529D01*
X31914547Y-12791000D01*
X31614000Y-12791000D01*
X31539000Y-12866000D01*
X31231000Y-12866000D01*
X31156000Y-12791000D01*
X30855453Y-12791000D01*
X30797494Y-12802529D01*
X30742897Y-12825143D01*
X30693761Y-12857975D01*
X30651975Y-12899761D01*
X30619144Y-12948896D01*
X30596529Y-13003493D01*
X30585000Y-13061452D01*
X29992541Y-13061452D01*
X29989659Y-13032190D01*
X29972504Y-12975640D01*
X29944647Y-12923523D01*
X29907158Y-12877842D01*
X29861477Y-12840353D01*
X29809360Y-12812496D01*
X29752810Y-12795341D01*
X29694000Y-12789549D01*
X28694000Y-12789549D01*
X28635190Y-12795341D01*
X28578640Y-12812496D01*
X28526523Y-12840353D01*
X28480842Y-12877842D01*
X28443353Y-12923523D01*
X28415496Y-12975640D01*
X28398341Y-13032190D01*
X28392549Y-13091000D01*
X27994000Y-13091000D01*
X27994000Y-13061452D01*
X27982471Y-13003493D01*
X27959856Y-12948896D01*
X27927025Y-12899761D01*
X27885239Y-12857975D01*
X27836103Y-12825143D01*
X27781506Y-12802529D01*
X27723547Y-12791000D01*
X27423000Y-12791000D01*
X27348000Y-12866000D01*
X27040000Y-12866000D01*
X26965000Y-12791000D01*
X26664453Y-12791000D01*
X26606494Y-12802529D01*
X26551897Y-12825143D01*
X26502761Y-12857975D01*
X26460975Y-12899761D01*
X26428144Y-12948896D01*
X26405529Y-13003493D01*
X26394000Y-13061452D01*
X18712000Y-13061452D01*
X18712000Y-12483451D01*
X19312000Y-12483451D01*
X19370810Y-12477659D01*
X19427360Y-12460504D01*
X19479477Y-12432647D01*
X19525158Y-12395158D01*
X19562647Y-12349477D01*
X19590504Y-12297360D01*
X19607659Y-12240810D01*
X19613451Y-12182000D01*
X19613451Y-10932000D01*
X20010549Y-10932000D01*
X20010549Y-12182000D01*
X20016341Y-12240810D01*
X20033496Y-12297360D01*
X20061353Y-12349477D01*
X20098842Y-12395158D01*
X20144523Y-12432647D01*
X20196640Y-12460504D01*
X20253190Y-12477659D01*
X20312000Y-12483451D01*
X21312000Y-12483451D01*
X21370810Y-12477659D01*
X21427360Y-12460504D01*
X21479477Y-12432647D01*
X21525158Y-12395158D01*
X21562647Y-12349477D01*
X21590504Y-12297360D01*
X21607659Y-12240810D01*
X21613451Y-12182000D01*
X21613451Y-12107000D01*
X22363982Y-12107000D01*
X22390990Y-12109660D01*
X22417998Y-12107000D01*
X22418008Y-12107000D01*
X22498809Y-12099042D01*
X22602484Y-12067592D01*
X22698032Y-12016521D01*
X22725298Y-11994144D01*
X22737104Y-11984455D01*
X22745445Y-11981000D01*
X23246836Y-11981000D01*
X23251496Y-11996360D01*
X23279353Y-12048477D01*
X23316842Y-12094158D01*
X23362523Y-12131647D01*
X23414640Y-12159504D01*
X23471190Y-12176659D01*
X23530000Y-12182451D01*
X24730000Y-12182451D01*
X24788810Y-12176659D01*
X24845360Y-12159504D01*
X24897477Y-12131647D01*
X24943158Y-12094158D01*
X24980647Y-12048477D01*
X25008504Y-11996360D01*
X25025659Y-11939810D01*
X25031451Y-11881000D01*
X25031451Y-11659000D01*
X26394000Y-11659000D01*
X26394000Y-12084548D01*
X26405529Y-12142507D01*
X26428144Y-12197104D01*
X26460975Y-12246239D01*
X26502761Y-12288025D01*
X26551897Y-12320857D01*
X26606494Y-12343471D01*
X26664453Y-12355000D01*
X26965000Y-12355000D01*
X27040000Y-12280000D01*
X27040000Y-11584000D01*
X27348000Y-11584000D01*
X27348000Y-12280000D01*
X27423000Y-12355000D01*
X27723547Y-12355000D01*
X27781506Y-12343471D01*
X27836103Y-12320857D01*
X27885239Y-12288025D01*
X27927025Y-12246239D01*
X27959856Y-12197104D01*
X27982471Y-12142507D01*
X27994000Y-12084548D01*
X27994000Y-11659000D01*
X27919000Y-11584000D01*
X27348000Y-11584000D01*
X27040000Y-11584000D01*
X26469000Y-11584000D01*
X26394000Y-11659000D01*
X25031451Y-11659000D01*
X25031451Y-10981000D01*
X25025659Y-10922190D01*
X25008504Y-10865640D01*
X24980647Y-10813523D01*
X24949404Y-10775452D01*
X26394000Y-10775452D01*
X26394000Y-11201000D01*
X26469000Y-11276000D01*
X27040000Y-11276000D01*
X27040000Y-10580000D01*
X27348000Y-10580000D01*
X27348000Y-11276000D01*
X27919000Y-11276000D01*
X27994000Y-11201000D01*
X27994000Y-10805000D01*
X28392549Y-10805000D01*
X28392549Y-12055000D01*
X28398341Y-12113810D01*
X28415496Y-12170360D01*
X28443353Y-12222477D01*
X28480842Y-12268158D01*
X28526523Y-12305647D01*
X28578640Y-12333504D01*
X28635190Y-12350659D01*
X28694000Y-12356451D01*
X29694000Y-12356451D01*
X29752810Y-12350659D01*
X29809360Y-12333504D01*
X29861477Y-12305647D01*
X29907158Y-12268158D01*
X29944647Y-12222477D01*
X29972504Y-12170360D01*
X29989659Y-12113810D01*
X29995451Y-12055000D01*
X29995451Y-12035011D01*
X30123260Y-12035011D01*
X30130268Y-12037914D01*
X30241356Y-12060011D01*
X30354622Y-12060011D01*
X30465710Y-12037914D01*
X30570354Y-11994569D01*
X30585000Y-11984783D01*
X30585000Y-12084548D01*
X30596529Y-12142507D01*
X30619144Y-12197104D01*
X30651975Y-12246239D01*
X30693761Y-12288025D01*
X30742897Y-12320857D01*
X30797494Y-12343471D01*
X30855453Y-12355000D01*
X31156000Y-12355000D01*
X31231000Y-12280000D01*
X31231000Y-11584000D01*
X31539000Y-11584000D01*
X31539000Y-12280000D01*
X31614000Y-12355000D01*
X31914547Y-12355000D01*
X31972506Y-12343471D01*
X32027103Y-12320857D01*
X32076239Y-12288025D01*
X32118025Y-12246239D01*
X32150856Y-12197104D01*
X32173471Y-12142507D01*
X32185000Y-12084548D01*
X32185000Y-11659000D01*
X32110000Y-11584000D01*
X31539000Y-11584000D01*
X31231000Y-11584000D01*
X31211000Y-11584000D01*
X31211000Y-11276000D01*
X31231000Y-11276000D01*
X31231000Y-10580000D01*
X31539000Y-10580000D01*
X31539000Y-11276000D01*
X32110000Y-11276000D01*
X32185000Y-11201000D01*
X32185000Y-10775452D01*
X32173471Y-10717493D01*
X32150856Y-10662896D01*
X32118025Y-10613761D01*
X32076239Y-10571975D01*
X32027103Y-10539143D01*
X31972506Y-10516529D01*
X31914547Y-10505000D01*
X31614000Y-10505000D01*
X31539000Y-10580000D01*
X31231000Y-10580000D01*
X31156000Y-10505000D01*
X30855453Y-10505000D01*
X30797494Y-10516529D01*
X30742897Y-10539143D01*
X30693761Y-10571975D01*
X30651975Y-10613761D01*
X30619144Y-10662896D01*
X30596529Y-10717493D01*
X30585000Y-10775452D01*
X30585000Y-10985239D01*
X30570354Y-10975453D01*
X30465710Y-10932108D01*
X30354622Y-10910011D01*
X30241356Y-10910011D01*
X30130268Y-10932108D01*
X30123260Y-10935011D01*
X29995451Y-10935011D01*
X29995451Y-10805000D01*
X29989659Y-10746190D01*
X29972504Y-10689640D01*
X29944647Y-10637523D01*
X29907158Y-10591842D01*
X29861477Y-10554353D01*
X29809360Y-10526496D01*
X29752810Y-10509341D01*
X29694000Y-10503549D01*
X28694000Y-10503549D01*
X28635190Y-10509341D01*
X28578640Y-10526496D01*
X28526523Y-10554353D01*
X28480842Y-10591842D01*
X28443353Y-10637523D01*
X28415496Y-10689640D01*
X28398341Y-10746190D01*
X28392549Y-10805000D01*
X27994000Y-10805000D01*
X27994000Y-10775452D01*
X27982471Y-10717493D01*
X27959856Y-10662896D01*
X27927025Y-10613761D01*
X27885239Y-10571975D01*
X27836103Y-10539143D01*
X27781506Y-10516529D01*
X27723547Y-10505000D01*
X27423000Y-10505000D01*
X27348000Y-10580000D01*
X27040000Y-10580000D01*
X26965000Y-10505000D01*
X26664453Y-10505000D01*
X26606494Y-10516529D01*
X26551897Y-10539143D01*
X26502761Y-10571975D01*
X26460975Y-10613761D01*
X26428144Y-10662896D01*
X26405529Y-10717493D01*
X26394000Y-10775452D01*
X24949404Y-10775452D01*
X24943158Y-10767842D01*
X24897477Y-10730353D01*
X24845360Y-10702496D01*
X24788810Y-10685341D01*
X24730000Y-10679549D01*
X23530000Y-10679549D01*
X23471190Y-10685341D01*
X23414640Y-10702496D01*
X23362523Y-10730353D01*
X23316842Y-10767842D01*
X23279353Y-10813523D01*
X23251496Y-10865640D01*
X23246836Y-10881000D01*
X22543998Y-10881000D01*
X22516990Y-10878340D01*
X22489982Y-10881000D01*
X22489972Y-10881000D01*
X22409171Y-10888958D01*
X22335856Y-10911198D01*
X22311279Y-10916087D01*
X22206635Y-10959432D01*
X22135444Y-11007000D01*
X21613451Y-11007000D01*
X21613451Y-10932000D01*
X21607659Y-10873190D01*
X21590504Y-10816640D01*
X21562647Y-10764523D01*
X21525158Y-10718842D01*
X21479477Y-10681353D01*
X21427360Y-10653496D01*
X21370810Y-10636341D01*
X21312000Y-10630549D01*
X20312000Y-10630549D01*
X20253190Y-10636341D01*
X20196640Y-10653496D01*
X20144523Y-10681353D01*
X20098842Y-10718842D01*
X20061353Y-10764523D01*
X20033496Y-10816640D01*
X20016341Y-10873190D01*
X20010549Y-10932000D01*
X19613451Y-10932000D01*
X19607659Y-10873190D01*
X19590504Y-10816640D01*
X19562647Y-10764523D01*
X19525158Y-10718842D01*
X19479477Y-10681353D01*
X19427360Y-10653496D01*
X19370810Y-10636341D01*
X19312000Y-10630549D01*
X18312000Y-10630549D01*
X18253190Y-10636341D01*
X18196640Y-10653496D01*
X18144523Y-10681353D01*
X18098842Y-10718842D01*
X18061353Y-10764523D01*
X18033496Y-10816640D01*
X18016341Y-10873190D01*
X18010549Y-10932000D01*
X18010549Y-11580634D01*
X17792191Y-11798992D01*
X17771211Y-11816210D01*
X17753993Y-11837190D01*
X17753987Y-11837196D01*
X17702479Y-11899958D01*
X17655270Y-11988283D01*
X17651409Y-11995506D01*
X17619959Y-12099181D01*
X17615692Y-12142507D01*
X17609340Y-12207000D01*
X17612001Y-12234018D01*
X17612001Y-13086836D01*
X17596640Y-13091496D01*
X17544523Y-13119353D01*
X17498842Y-13156842D01*
X17461353Y-13202523D01*
X17433496Y-13254640D01*
X17416341Y-13311190D01*
X17410549Y-13370000D01*
X6732211Y-13370000D01*
X6934151Y-13168060D01*
X6846094Y-13025184D01*
X6652238Y-12946556D01*
X6446766Y-12907257D01*
X6237576Y-12908799D01*
X6032706Y-12951122D01*
X5853906Y-13025184D01*
X5765849Y-13168060D01*
X4394151Y-13168060D01*
X4306094Y-13025184D01*
X4112238Y-12946556D01*
X3906766Y-12907257D01*
X3697576Y-12908799D01*
X3492706Y-12951122D01*
X3313906Y-13025184D01*
X3225849Y-13168060D01*
X325000Y-13168060D01*
X325000Y-8785402D01*
X2748000Y-8785402D01*
X2748000Y-8994598D01*
X2788812Y-9199774D01*
X2868867Y-9393046D01*
X2985090Y-9566986D01*
X3133014Y-9714910D01*
X3306954Y-9831133D01*
X3500226Y-9911188D01*
X3705402Y-9952000D01*
X3914598Y-9952000D01*
X4119774Y-9911188D01*
X4313046Y-9831133D01*
X4486986Y-9714910D01*
X4634910Y-9566986D01*
X4751133Y-9393046D01*
X4831188Y-9199774D01*
X4872000Y-8994598D01*
X4872000Y-8785402D01*
X4831188Y-8580226D01*
X4798861Y-8502180D01*
X4887279Y-8413762D01*
X4887283Y-8413757D01*
X5129041Y-8172000D01*
X5566104Y-8172000D01*
X5525090Y-8213014D01*
X5408867Y-8386954D01*
X5328812Y-8580226D01*
X5288000Y-8785402D01*
X5288000Y-8994598D01*
X5328812Y-9199774D01*
X5408867Y-9393046D01*
X5525090Y-9566986D01*
X5673014Y-9714910D01*
X5703081Y-9735000D01*
X5100867Y-9735000D01*
X5080000Y-9732945D01*
X5059133Y-9735000D01*
X5059126Y-9735000D01*
X5004327Y-9740397D01*
X4996685Y-9741150D01*
X4972383Y-9748522D01*
X4916573Y-9765452D01*
X4842740Y-9804916D01*
X4778026Y-9858026D01*
X4764721Y-9874238D01*
X4286243Y-10352717D01*
X4286238Y-10352721D01*
X4197820Y-10441139D01*
X4119774Y-10408812D01*
X3914598Y-10368000D01*
X3705402Y-10368000D01*
X3500226Y-10408812D01*
X3306954Y-10488867D01*
X3133014Y-10605090D01*
X2985090Y-10753014D01*
X2868867Y-10926954D01*
X2788812Y-11120226D01*
X2748000Y-11325402D01*
X2748000Y-11534598D01*
X2788812Y-11739774D01*
X2868867Y-11933046D01*
X2985090Y-12106986D01*
X3133014Y-12254910D01*
X3306954Y-12371133D01*
X3500226Y-12451188D01*
X3705402Y-12492000D01*
X3914598Y-12492000D01*
X4119774Y-12451188D01*
X4313046Y-12371133D01*
X4486986Y-12254910D01*
X4634910Y-12106986D01*
X4751133Y-11933046D01*
X4831188Y-11739774D01*
X4872000Y-11534598D01*
X4872000Y-11325402D01*
X4831188Y-11120226D01*
X4798861Y-11042180D01*
X4887279Y-10953762D01*
X4887283Y-10953757D01*
X5256041Y-10585000D01*
X5703081Y-10585000D01*
X5673014Y-10605090D01*
X5525090Y-10753014D01*
X5408867Y-10926954D01*
X5328812Y-11120226D01*
X5288000Y-11325402D01*
X5288000Y-11534598D01*
X5328812Y-11739774D01*
X5408867Y-11933046D01*
X5525090Y-12106986D01*
X5673014Y-12254910D01*
X5846954Y-12371133D01*
X6040226Y-12451188D01*
X6245402Y-12492000D01*
X6454598Y-12492000D01*
X6659774Y-12451188D01*
X6853046Y-12371133D01*
X7026986Y-12254910D01*
X7174910Y-12106986D01*
X7291133Y-11933046D01*
X7323460Y-11855000D01*
X7625943Y-11855000D01*
X7646810Y-11857055D01*
X7667677Y-11855000D01*
X7667684Y-11855000D01*
X7730124Y-11848850D01*
X7810237Y-11824548D01*
X7884070Y-11785084D01*
X7948784Y-11731974D01*
X7962093Y-11715757D01*
X8952611Y-10725240D01*
X8950000Y-10738367D01*
X8950000Y-10851633D01*
X8972097Y-10962721D01*
X9015442Y-11067365D01*
X9078368Y-11161541D01*
X9158459Y-11241632D01*
X9252635Y-11304558D01*
X9357279Y-11347903D01*
X9468367Y-11370000D01*
X9581633Y-11370000D01*
X9692721Y-11347903D01*
X9797365Y-11304558D01*
X9891541Y-11241632D01*
X9913173Y-11220000D01*
X11335755Y-11220000D01*
X11356622Y-11222055D01*
X11377489Y-11220000D01*
X11377496Y-11220000D01*
X11439936Y-11213850D01*
X11520049Y-11189548D01*
X11593882Y-11150084D01*
X11658596Y-11096974D01*
X11671905Y-11080757D01*
X12294663Y-10458000D01*
X34310106Y-10458000D01*
X35047867Y-11195762D01*
X35061172Y-11211974D01*
X35125886Y-11265084D01*
X35199719Y-11304548D01*
X35241724Y-11317290D01*
X35279831Y-11328850D01*
X35288244Y-11329679D01*
X35342272Y-11335000D01*
X35342278Y-11335000D01*
X35363145Y-11337055D01*
X35384012Y-11335000D01*
X36667904Y-11335000D01*
X36650642Y-11360835D01*
X36607297Y-11465479D01*
X36585200Y-11576567D01*
X36585200Y-11689833D01*
X36607297Y-11800921D01*
X36650642Y-11905565D01*
X36713568Y-11999741D01*
X36793659Y-12079832D01*
X36887835Y-12142758D01*
X36992479Y-12186103D01*
X37103567Y-12208200D01*
X37131929Y-12208200D01*
X37135026Y-12211974D01*
X37199740Y-12265084D01*
X37273573Y-12304548D01*
X37327337Y-12320857D01*
X37353685Y-12328850D01*
X37362098Y-12329679D01*
X37416126Y-12335000D01*
X37416132Y-12335000D01*
X37436999Y-12337055D01*
X37457866Y-12335000D01*
X37578084Y-12335000D01*
X37584640Y-12338504D01*
X37641190Y-12355659D01*
X37700000Y-12361451D01*
X38500000Y-12361451D01*
X38558810Y-12355659D01*
X38615360Y-12338504D01*
X38621916Y-12335000D01*
X38725000Y-12335000D01*
X38800000Y-12260000D01*
X38800000Y-12230453D01*
X38788471Y-12172494D01*
X38783220Y-12159815D01*
X38795659Y-12118810D01*
X38801451Y-12060000D01*
X38801451Y-11760000D01*
X38795659Y-11701190D01*
X38783164Y-11660000D01*
X38795659Y-11618810D01*
X38801451Y-11560000D01*
X38801451Y-11260000D01*
X38795659Y-11201190D01*
X38783164Y-11160000D01*
X38795659Y-11118810D01*
X38801451Y-11060000D01*
X38801451Y-10760000D01*
X38795659Y-10701190D01*
X38783164Y-10660000D01*
X38795659Y-10618810D01*
X38801451Y-10560000D01*
X38801451Y-10260000D01*
X38795659Y-10201190D01*
X38783164Y-10160000D01*
X38795659Y-10118810D01*
X38801451Y-10060000D01*
X38801451Y-9760000D01*
X38795659Y-9701190D01*
X38783164Y-9660000D01*
X38795659Y-9618810D01*
X38801451Y-9560000D01*
X38801451Y-9260000D01*
X38795659Y-9201190D01*
X38783164Y-9160000D01*
X38795659Y-9118810D01*
X38801451Y-9060000D01*
X38801451Y-8760000D01*
X38795659Y-8701190D01*
X38783164Y-8660000D01*
X38795659Y-8618810D01*
X38801451Y-8560000D01*
X38801451Y-8260000D01*
X38795659Y-8201190D01*
X38783220Y-8160185D01*
X38788471Y-8147506D01*
X38800000Y-8089547D01*
X38800000Y-8060000D01*
X38725000Y-7985000D01*
X38621916Y-7985000D01*
X38615360Y-7981496D01*
X38558810Y-7964341D01*
X38500000Y-7958549D01*
X37700000Y-7958549D01*
X37641190Y-7964341D01*
X37584640Y-7981496D01*
X37578084Y-7985000D01*
X36221240Y-7985000D01*
X35697484Y-7461244D01*
X35684174Y-7445026D01*
X35619460Y-7391916D01*
X35545627Y-7352452D01*
X35465514Y-7328150D01*
X35403074Y-7322000D01*
X35403067Y-7322000D01*
X35382200Y-7319945D01*
X35361333Y-7322000D01*
X6778526Y-7322000D01*
X6853046Y-7291133D01*
X7026986Y-7174910D01*
X7174910Y-7026986D01*
X7291133Y-6853046D01*
X7371188Y-6659774D01*
X7387254Y-6579000D01*
X30585000Y-6579000D01*
X30585000Y-7004548D01*
X30596529Y-7062507D01*
X30619144Y-7117104D01*
X30651975Y-7166239D01*
X30693761Y-7208025D01*
X30742897Y-7240857D01*
X30797494Y-7263471D01*
X30855453Y-7275000D01*
X31156000Y-7275000D01*
X31231000Y-7200000D01*
X31231000Y-6504000D01*
X31539000Y-6504000D01*
X31539000Y-7200000D01*
X31614000Y-7275000D01*
X31914547Y-7275000D01*
X31972506Y-7263471D01*
X32027103Y-7240857D01*
X32076239Y-7208025D01*
X32118025Y-7166239D01*
X32150856Y-7117104D01*
X32173471Y-7062507D01*
X32185000Y-7004548D01*
X32185000Y-6579000D01*
X32110000Y-6504000D01*
X31539000Y-6504000D01*
X31231000Y-6504000D01*
X30660000Y-6504000D01*
X30585000Y-6579000D01*
X7387254Y-6579000D01*
X7412000Y-6454598D01*
X7412000Y-6245402D01*
X7371188Y-6040226D01*
X7291133Y-5846954D01*
X7174910Y-5673014D01*
X7026986Y-5525090D01*
X6853046Y-5408867D01*
X6659774Y-5328812D01*
X6454598Y-5288000D01*
X6245402Y-5288000D01*
X6040226Y-5328812D01*
X5846954Y-5408867D01*
X5673014Y-5525090D01*
X5525090Y-5673014D01*
X5408867Y-5846954D01*
X5328812Y-6040226D01*
X5288000Y-6245402D01*
X5288000Y-6454598D01*
X5328812Y-6659774D01*
X5408867Y-6853046D01*
X5525090Y-7026986D01*
X5673014Y-7174910D01*
X5846954Y-7291133D01*
X5921474Y-7322000D01*
X4973867Y-7322000D01*
X4953000Y-7319945D01*
X4932133Y-7322000D01*
X4932126Y-7322000D01*
X4869686Y-7328150D01*
X4789572Y-7352452D01*
X4763855Y-7366199D01*
X4715740Y-7391916D01*
X4651026Y-7445026D01*
X4637721Y-7461238D01*
X4286243Y-7812717D01*
X4286238Y-7812721D01*
X4197820Y-7901139D01*
X4119774Y-7868812D01*
X3914598Y-7828000D01*
X3705402Y-7828000D01*
X3500226Y-7868812D01*
X3306954Y-7948867D01*
X3133014Y-8065090D01*
X2985090Y-8213014D01*
X2868867Y-8386954D01*
X2788812Y-8580226D01*
X2748000Y-8785402D01*
X325000Y-8785402D01*
X325000Y-6245402D01*
X2748000Y-6245402D01*
X2748000Y-6454598D01*
X2788812Y-6659774D01*
X2868867Y-6853046D01*
X2985090Y-7026986D01*
X3133014Y-7174910D01*
X3306954Y-7291133D01*
X3500226Y-7371188D01*
X3705402Y-7412000D01*
X3914598Y-7412000D01*
X4119774Y-7371188D01*
X4313046Y-7291133D01*
X4486986Y-7174910D01*
X4634910Y-7026986D01*
X4751133Y-6853046D01*
X4831188Y-6659774D01*
X4872000Y-6454598D01*
X4872000Y-6245402D01*
X4831188Y-6040226D01*
X4751133Y-5846954D01*
X4634910Y-5673014D01*
X4486986Y-5525090D01*
X4313046Y-5408867D01*
X4119774Y-5328812D01*
X3914598Y-5288000D01*
X3705402Y-5288000D01*
X3500226Y-5328812D01*
X3306954Y-5408867D01*
X3133014Y-5525090D01*
X2985090Y-5673014D01*
X2868867Y-5846954D01*
X2788812Y-6040226D01*
X2748000Y-6245402D01*
X325000Y-6245402D01*
X325000Y-5023367D01*
X12252000Y-5023367D01*
X12252000Y-5136633D01*
X12274097Y-5247721D01*
X12317442Y-5352365D01*
X12380368Y-5446541D01*
X12460459Y-5526632D01*
X12554635Y-5589558D01*
X12659279Y-5632903D01*
X12770367Y-5655000D01*
X12883633Y-5655000D01*
X12994721Y-5632903D01*
X13099365Y-5589558D01*
X13193541Y-5526632D01*
X13273632Y-5446541D01*
X13336558Y-5352365D01*
X13379903Y-5247721D01*
X13402000Y-5136633D01*
X13402000Y-5023367D01*
X13379903Y-4912279D01*
X13377000Y-4905271D01*
X13377000Y-4482317D01*
X13626318Y-4233000D01*
X14238549Y-4233000D01*
X14238549Y-5433000D01*
X14244341Y-5491810D01*
X14261496Y-5548360D01*
X14289353Y-5600477D01*
X14326842Y-5646158D01*
X14372523Y-5683647D01*
X14424640Y-5711504D01*
X14481190Y-5728659D01*
X14540000Y-5734451D01*
X16140000Y-5734451D01*
X16198810Y-5728659D01*
X16255360Y-5711504D01*
X16307477Y-5683647D01*
X16353158Y-5646158D01*
X16390647Y-5600477D01*
X16418504Y-5548360D01*
X16435659Y-5491810D01*
X16441451Y-5433000D01*
X16441451Y-1933000D01*
X19118549Y-1933000D01*
X19118549Y-5433000D01*
X19124341Y-5491810D01*
X19141496Y-5548360D01*
X19169353Y-5600477D01*
X19206842Y-5646158D01*
X19252523Y-5683647D01*
X19304640Y-5711504D01*
X19361190Y-5728659D01*
X19420000Y-5734451D01*
X21020000Y-5734451D01*
X21078810Y-5728659D01*
X21135360Y-5711504D01*
X21187477Y-5683647D01*
X21233158Y-5646158D01*
X21270647Y-5600477D01*
X21298504Y-5548360D01*
X21315659Y-5491810D01*
X21321155Y-5436000D01*
X26394000Y-5436000D01*
X26394000Y-5861548D01*
X26405529Y-5919507D01*
X26428144Y-5974104D01*
X26460975Y-6023239D01*
X26502761Y-6065025D01*
X26551897Y-6097857D01*
X26606494Y-6120471D01*
X26664453Y-6132000D01*
X26965000Y-6132000D01*
X27040000Y-6057000D01*
X27040000Y-5361000D01*
X27348000Y-5361000D01*
X27348000Y-6057000D01*
X27423000Y-6132000D01*
X27723547Y-6132000D01*
X27781506Y-6120471D01*
X27836103Y-6097857D01*
X27885239Y-6065025D01*
X27927025Y-6023239D01*
X27959856Y-5974104D01*
X27982471Y-5919507D01*
X27994000Y-5861548D01*
X27994000Y-5436000D01*
X27919000Y-5361000D01*
X27348000Y-5361000D01*
X27040000Y-5361000D01*
X26469000Y-5361000D01*
X26394000Y-5436000D01*
X21321155Y-5436000D01*
X21321451Y-5433000D01*
X21321451Y-4233000D01*
X21669271Y-4233000D01*
X21676279Y-4235903D01*
X21787367Y-4258000D01*
X21900633Y-4258000D01*
X22011721Y-4235903D01*
X22018729Y-4233000D01*
X22293011Y-4233000D01*
X22302353Y-4250477D01*
X22339842Y-4296158D01*
X22385523Y-4333647D01*
X22437640Y-4361504D01*
X22494190Y-4378659D01*
X22553000Y-4384451D01*
X23453000Y-4384451D01*
X23511810Y-4378659D01*
X23568360Y-4361504D01*
X23620477Y-4333647D01*
X23666158Y-4296158D01*
X23703647Y-4250477D01*
X23731504Y-4198360D01*
X23748659Y-4141810D01*
X23754451Y-4083000D01*
X23754451Y-3283000D01*
X23748659Y-3224190D01*
X23731504Y-3167640D01*
X23703647Y-3115523D01*
X23666158Y-3069842D01*
X23620477Y-3032353D01*
X23568360Y-3004496D01*
X23511810Y-2987341D01*
X23453000Y-2981549D01*
X22553000Y-2981549D01*
X22494190Y-2987341D01*
X22437640Y-3004496D01*
X22385523Y-3032353D01*
X22339842Y-3069842D01*
X22302353Y-3115523D01*
X22293011Y-3133000D01*
X22018729Y-3133000D01*
X22011721Y-3130097D01*
X21900633Y-3108000D01*
X21787367Y-3108000D01*
X21676279Y-3130097D01*
X21669271Y-3133000D01*
X21321451Y-3133000D01*
X21321451Y-2333000D01*
X24251549Y-2333000D01*
X24251549Y-3133000D01*
X24257341Y-3191810D01*
X24274496Y-3248360D01*
X24302353Y-3300477D01*
X24339842Y-3346158D01*
X24385523Y-3383647D01*
X24437640Y-3411504D01*
X24494190Y-3428659D01*
X24553000Y-3434451D01*
X25453000Y-3434451D01*
X25511810Y-3428659D01*
X25568360Y-3411504D01*
X25620477Y-3383647D01*
X25666158Y-3346158D01*
X25703647Y-3300477D01*
X25731504Y-3248360D01*
X25740411Y-3219000D01*
X25773827Y-3219000D01*
X25795459Y-3240632D01*
X25889635Y-3303558D01*
X25994279Y-3346903D01*
X26105367Y-3369000D01*
X26218633Y-3369000D01*
X26329721Y-3346903D01*
X26434365Y-3303558D01*
X26528541Y-3240632D01*
X26594000Y-3175173D01*
X26594000Y-3471001D01*
X26460866Y-3471001D01*
X26439999Y-3468946D01*
X26419132Y-3471001D01*
X26419125Y-3471001D01*
X26364326Y-3476398D01*
X26356684Y-3477151D01*
X26332382Y-3484523D01*
X26276572Y-3501453D01*
X26202739Y-3540917D01*
X26138025Y-3594027D01*
X26124720Y-3610239D01*
X25688227Y-4046733D01*
X25666158Y-4019842D01*
X25620477Y-3982353D01*
X25568360Y-3954496D01*
X25511810Y-3937341D01*
X25453000Y-3931549D01*
X24553000Y-3931549D01*
X24494190Y-3937341D01*
X24437640Y-3954496D01*
X24385523Y-3982353D01*
X24339842Y-4019842D01*
X24302353Y-4065523D01*
X24274496Y-4117640D01*
X24257341Y-4174190D01*
X24251549Y-4233000D01*
X24251549Y-5033000D01*
X24257341Y-5091810D01*
X24274496Y-5148360D01*
X24302353Y-5200477D01*
X24339842Y-5246158D01*
X24385523Y-5283647D01*
X24437640Y-5311504D01*
X24494190Y-5328659D01*
X24553000Y-5334451D01*
X25453000Y-5334451D01*
X25511810Y-5328659D01*
X25568360Y-5311504D01*
X25620477Y-5283647D01*
X25666158Y-5246158D01*
X25703647Y-5200477D01*
X25731504Y-5148360D01*
X25748659Y-5091810D01*
X25752264Y-5055204D01*
X25786314Y-5051850D01*
X25866427Y-5027548D01*
X25940260Y-4988084D01*
X26004974Y-4934974D01*
X26018283Y-4918757D01*
X26396337Y-4540704D01*
X26394000Y-4552452D01*
X26394000Y-4978000D01*
X26469000Y-5053000D01*
X27040000Y-5053000D01*
X27040000Y-5033000D01*
X27348000Y-5033000D01*
X27348000Y-5053000D01*
X27919000Y-5053000D01*
X27994000Y-4978000D01*
X27994000Y-4552452D01*
X27982471Y-4494493D01*
X27959856Y-4439896D01*
X27927025Y-4390761D01*
X27885239Y-4348975D01*
X27843373Y-4321001D01*
X28448132Y-4321001D01*
X28468999Y-4323056D01*
X28489866Y-4321001D01*
X28489873Y-4321001D01*
X28552313Y-4314851D01*
X28564067Y-4311286D01*
X28526523Y-4331353D01*
X28480842Y-4368842D01*
X28443353Y-4414523D01*
X28415496Y-4466640D01*
X28398341Y-4523190D01*
X28392549Y-4582000D01*
X28392549Y-5832000D01*
X28398341Y-5890810D01*
X28415496Y-5947360D01*
X28443353Y-5999477D01*
X28480842Y-6045158D01*
X28526523Y-6082647D01*
X28578640Y-6110504D01*
X28635190Y-6127659D01*
X28694000Y-6133451D01*
X29694000Y-6133451D01*
X29752810Y-6127659D01*
X29809360Y-6110504D01*
X29861477Y-6082647D01*
X29907158Y-6045158D01*
X29944647Y-5999477D01*
X29972504Y-5947360D01*
X29989659Y-5890810D01*
X29995451Y-5832000D01*
X29995451Y-5632000D01*
X30598804Y-5632000D01*
X30596529Y-5637493D01*
X30585000Y-5695452D01*
X30585000Y-6121000D01*
X30660000Y-6196000D01*
X31231000Y-6196000D01*
X31231000Y-6176000D01*
X31539000Y-6176000D01*
X31539000Y-6196000D01*
X32110000Y-6196000D01*
X32185000Y-6121000D01*
X32185000Y-5695452D01*
X32173471Y-5637493D01*
X32171196Y-5632000D01*
X32599713Y-5632000D01*
X32589341Y-5666190D01*
X32583549Y-5725000D01*
X32583549Y-6975000D01*
X32589341Y-7033810D01*
X32606496Y-7090360D01*
X32634353Y-7142477D01*
X32671842Y-7188158D01*
X32717523Y-7225647D01*
X32769640Y-7253504D01*
X32826190Y-7270659D01*
X32885000Y-7276451D01*
X33885000Y-7276451D01*
X33943810Y-7270659D01*
X34000360Y-7253504D01*
X34052477Y-7225647D01*
X34098158Y-7188158D01*
X34135647Y-7142477D01*
X34163504Y-7090360D01*
X34180659Y-7033810D01*
X34186451Y-6975000D01*
X34186451Y-6835000D01*
X37398549Y-6835000D01*
X37398549Y-7060000D01*
X37404341Y-7118810D01*
X37416836Y-7160000D01*
X37404341Y-7201190D01*
X37398549Y-7260000D01*
X37398549Y-7560000D01*
X37404341Y-7618810D01*
X37416780Y-7659815D01*
X37411529Y-7672494D01*
X37400000Y-7730453D01*
X37400000Y-7760000D01*
X37475000Y-7835000D01*
X37578084Y-7835000D01*
X37584640Y-7838504D01*
X37641190Y-7855659D01*
X37700000Y-7861451D01*
X38500000Y-7861451D01*
X38558810Y-7855659D01*
X38615360Y-7838504D01*
X38621916Y-7835000D01*
X38725000Y-7835000D01*
X38800000Y-7760000D01*
X38800000Y-7730453D01*
X38788471Y-7672494D01*
X38783220Y-7659815D01*
X38795659Y-7618810D01*
X38801451Y-7560000D01*
X38801451Y-7260000D01*
X38795659Y-7201190D01*
X38783164Y-7160000D01*
X38795659Y-7118810D01*
X38801451Y-7060000D01*
X38801451Y-6760000D01*
X38795659Y-6701190D01*
X38783164Y-6660000D01*
X38795659Y-6618810D01*
X38801451Y-6560000D01*
X38801451Y-6260000D01*
X38795659Y-6201190D01*
X38783164Y-6160000D01*
X38795659Y-6118810D01*
X38801451Y-6060000D01*
X38801451Y-5760000D01*
X38795659Y-5701190D01*
X38783164Y-5660000D01*
X38795659Y-5618810D01*
X38801451Y-5560000D01*
X38801451Y-5260000D01*
X38795659Y-5201190D01*
X38783164Y-5160000D01*
X38795659Y-5118810D01*
X38801451Y-5060000D01*
X38801451Y-4760000D01*
X38795659Y-4701190D01*
X38783164Y-4660000D01*
X38795659Y-4618810D01*
X38801451Y-4560000D01*
X38801451Y-4260000D01*
X38795659Y-4201190D01*
X38778504Y-4144640D01*
X38750647Y-4092523D01*
X38713158Y-4046842D01*
X38667477Y-4009353D01*
X38615360Y-3981496D01*
X38558810Y-3964341D01*
X38500000Y-3958549D01*
X37700000Y-3958549D01*
X37641190Y-3964341D01*
X37584640Y-3981496D01*
X37532523Y-4009353D01*
X37486842Y-4046842D01*
X37449353Y-4092523D01*
X37421496Y-4144640D01*
X37404341Y-4201190D01*
X37398549Y-4260000D01*
X37398549Y-4485000D01*
X36338201Y-4485000D01*
X34488443Y-2635243D01*
X34475134Y-2619026D01*
X34410420Y-2565916D01*
X34336587Y-2526452D01*
X34256474Y-2502150D01*
X34194034Y-2496000D01*
X34194027Y-2496000D01*
X34173160Y-2493945D01*
X34152293Y-2496000D01*
X29795451Y-2496000D01*
X29795451Y-2271000D01*
X29789659Y-2212190D01*
X29772504Y-2155640D01*
X29744647Y-2103523D01*
X29707158Y-2057842D01*
X29661477Y-2020353D01*
X29609360Y-1992496D01*
X29552810Y-1975341D01*
X29494000Y-1969549D01*
X28794000Y-1969549D01*
X28735190Y-1975341D01*
X28678640Y-1992496D01*
X28626523Y-2020353D01*
X28580842Y-2057842D01*
X28543353Y-2103523D01*
X28515496Y-2155640D01*
X28498341Y-2212190D01*
X28492549Y-2271000D01*
X28492549Y-3271411D01*
X28292959Y-3471001D01*
X27894000Y-3471001D01*
X27894000Y-3150000D01*
X27819000Y-3075000D01*
X27398000Y-3075000D01*
X27398000Y-3095000D01*
X27090000Y-3095000D01*
X27090000Y-3075000D01*
X27070000Y-3075000D01*
X27070000Y-2767000D01*
X27090000Y-2767000D01*
X27090000Y-2046000D01*
X27398000Y-2046000D01*
X27398000Y-2767000D01*
X27819000Y-2767000D01*
X27894000Y-2692000D01*
X27894000Y-2241452D01*
X27882471Y-2183493D01*
X27859856Y-2128896D01*
X27827025Y-2079761D01*
X27785239Y-2037975D01*
X27736103Y-2005143D01*
X27681506Y-1982529D01*
X27623547Y-1971000D01*
X27473000Y-1971000D01*
X27398000Y-2046000D01*
X27090000Y-2046000D01*
X27015000Y-1971000D01*
X26864453Y-1971000D01*
X26806494Y-1982529D01*
X26751897Y-2005143D01*
X26702761Y-2037975D01*
X26660975Y-2079761D01*
X26628144Y-2128896D01*
X26605529Y-2183493D01*
X26594000Y-2241452D01*
X26594000Y-2412827D01*
X26528541Y-2347368D01*
X26434365Y-2284442D01*
X26329721Y-2241097D01*
X26218633Y-2219000D01*
X26105367Y-2219000D01*
X25994279Y-2241097D01*
X25889635Y-2284442D01*
X25795459Y-2347368D01*
X25773827Y-2369000D01*
X25754451Y-2369000D01*
X25754451Y-2333000D01*
X25748659Y-2274190D01*
X25731504Y-2217640D01*
X25703647Y-2165523D01*
X25666158Y-2119842D01*
X25620477Y-2082353D01*
X25568360Y-2054496D01*
X25511810Y-2037341D01*
X25453000Y-2031549D01*
X24553000Y-2031549D01*
X24494190Y-2037341D01*
X24437640Y-2054496D01*
X24385523Y-2082353D01*
X24339842Y-2119842D01*
X24302353Y-2165523D01*
X24274496Y-2217640D01*
X24257341Y-2274190D01*
X24251549Y-2333000D01*
X21321451Y-2333000D01*
X21321451Y-1933000D01*
X21315659Y-1874190D01*
X21298504Y-1817640D01*
X21270647Y-1765523D01*
X21233158Y-1719842D01*
X21187477Y-1682353D01*
X21135360Y-1654496D01*
X21078810Y-1637341D01*
X21020000Y-1631549D01*
X19420000Y-1631549D01*
X19361190Y-1637341D01*
X19304640Y-1654496D01*
X19252523Y-1682353D01*
X19206842Y-1719842D01*
X19169353Y-1765523D01*
X19141496Y-1817640D01*
X19124341Y-1874190D01*
X19118549Y-1933000D01*
X16441451Y-1933000D01*
X16435659Y-1874190D01*
X16418504Y-1817640D01*
X16390647Y-1765523D01*
X16353158Y-1719842D01*
X16307477Y-1682353D01*
X16255360Y-1654496D01*
X16198810Y-1637341D01*
X16140000Y-1631549D01*
X14540000Y-1631549D01*
X14481190Y-1637341D01*
X14424640Y-1654496D01*
X14372523Y-1682353D01*
X14326842Y-1719842D01*
X14289353Y-1765523D01*
X14261496Y-1817640D01*
X14244341Y-1874190D01*
X14238549Y-1933000D01*
X14238549Y-3133000D01*
X13425507Y-3133000D01*
X13398499Y-3130340D01*
X13371491Y-3133000D01*
X13371482Y-3133000D01*
X13290681Y-3140958D01*
X13187006Y-3172408D01*
X13150707Y-3191810D01*
X13091457Y-3223479D01*
X13028695Y-3274987D01*
X13028690Y-3274992D01*
X13007710Y-3292210D01*
X12990491Y-3313191D01*
X12457191Y-3846492D01*
X12436211Y-3863710D01*
X12418993Y-3884690D01*
X12418987Y-3884696D01*
X12367479Y-3947458D01*
X12328790Y-4019842D01*
X12316409Y-4043006D01*
X12284958Y-4146681D01*
X12277000Y-4227482D01*
X12277000Y-4227492D01*
X12274340Y-4254500D01*
X12277000Y-4281508D01*
X12277000Y-4905271D01*
X12274097Y-4912279D01*
X12252000Y-5023367D01*
X325000Y-5023367D01*
X325000Y-3705402D01*
X2748000Y-3705402D01*
X2748000Y-3914598D01*
X2788812Y-4119774D01*
X2868867Y-4313046D01*
X2985090Y-4486986D01*
X3133014Y-4634910D01*
X3306954Y-4751133D01*
X3500226Y-4831188D01*
X3705402Y-4872000D01*
X3914598Y-4872000D01*
X4119774Y-4831188D01*
X4313046Y-4751133D01*
X4486986Y-4634910D01*
X4634910Y-4486986D01*
X4751133Y-4313046D01*
X4831188Y-4119774D01*
X4872000Y-3914598D01*
X4872000Y-3705402D01*
X4831188Y-3500226D01*
X4751133Y-3306954D01*
X4634910Y-3133014D01*
X4549896Y-3048000D01*
X5286549Y-3048000D01*
X5286549Y-4572000D01*
X5292341Y-4630810D01*
X5309496Y-4687360D01*
X5337353Y-4739477D01*
X5374842Y-4785158D01*
X5420523Y-4822647D01*
X5472640Y-4850504D01*
X5529190Y-4867659D01*
X5588000Y-4873451D01*
X7112000Y-4873451D01*
X7170810Y-4867659D01*
X7227360Y-4850504D01*
X7279477Y-4822647D01*
X7325158Y-4785158D01*
X7362647Y-4739477D01*
X7390504Y-4687360D01*
X7407659Y-4630810D01*
X7413451Y-4572000D01*
X7413451Y-3048000D01*
X7407659Y-2989190D01*
X7390504Y-2932640D01*
X7362647Y-2880523D01*
X7325158Y-2834842D01*
X7279477Y-2797353D01*
X7227360Y-2769496D01*
X7170810Y-2752341D01*
X7112000Y-2746549D01*
X5588000Y-2746549D01*
X5529190Y-2752341D01*
X5472640Y-2769496D01*
X5420523Y-2797353D01*
X5374842Y-2834842D01*
X5337353Y-2880523D01*
X5309496Y-2932640D01*
X5292341Y-2989190D01*
X5286549Y-3048000D01*
X4549896Y-3048000D01*
X4486986Y-2985090D01*
X4313046Y-2868867D01*
X4119774Y-2788812D01*
X3914598Y-2748000D01*
X3705402Y-2748000D01*
X3500226Y-2788812D01*
X3306954Y-2868867D01*
X3133014Y-2985090D01*
X2985090Y-3133014D01*
X2868867Y-3306954D01*
X2788812Y-3500226D01*
X2748000Y-3705402D01*
X325000Y-3705402D01*
X325000Y-1285896D01*
X344526Y-1086753D01*
X397746Y-910481D01*
X477758Y-760000D01*
X38200000Y-760000D01*
X38200000Y-3160000D01*
X38202757Y-3188119D01*
X38205314Y-3216214D01*
X38205610Y-3217220D01*
X38205713Y-3218270D01*
X38213892Y-3245361D01*
X38221845Y-3272382D01*
X38222332Y-3273313D01*
X38222636Y-3274321D01*
X38235890Y-3299247D01*
X38248971Y-3324269D01*
X38249631Y-3325090D01*
X38250124Y-3326017D01*
X38267928Y-3347847D01*
X38285658Y-3369899D01*
X38286466Y-3370577D01*
X38287129Y-3371390D01*
X38308855Y-3389364D01*
X38330510Y-3407534D01*
X38331432Y-3408041D01*
X38332242Y-3408711D01*
X38357047Y-3422123D01*
X38381817Y-3435741D01*
X38382821Y-3436060D01*
X38383745Y-3436559D01*
X38410720Y-3444909D01*
X38437626Y-3453444D01*
X38438669Y-3453561D01*
X38439677Y-3453873D01*
X38467796Y-3456828D01*
X38495811Y-3459971D01*
X38497830Y-3459985D01*
X38497906Y-3459993D01*
X38497983Y-3459986D01*
X38500000Y-3460000D01*
X41550000Y-3460000D01*
X41578119Y-3457243D01*
X41606214Y-3454686D01*
X41607220Y-3454390D01*
X41608270Y-3454287D01*
X41635361Y-3446108D01*
X41662382Y-3438155D01*
X41663313Y-3437668D01*
X41664321Y-3437364D01*
X41689247Y-3424110D01*
X41714269Y-3411029D01*
X41715090Y-3410369D01*
X41716017Y-3409876D01*
X41737847Y-3392072D01*
X41759899Y-3374342D01*
X41760577Y-3373534D01*
X41761390Y-3372871D01*
X41779364Y-3351145D01*
X41797534Y-3329490D01*
X41798041Y-3328568D01*
X41798711Y-3327758D01*
X41812123Y-3302953D01*
X41825741Y-3278183D01*
X41826060Y-3277179D01*
X41826559Y-3276255D01*
X41834909Y-3249280D01*
X41843444Y-3222374D01*
X41843561Y-3221331D01*
X41843873Y-3220323D01*
X41846828Y-3192204D01*
X41849971Y-3164189D01*
X41849985Y-3162170D01*
X41849993Y-3162094D01*
X41849986Y-3162017D01*
X41850000Y-3160000D01*
X41850000Y-1860000D01*
X41847243Y-1831881D01*
X41844686Y-1803786D01*
X41844390Y-1802780D01*
X41844287Y-1801730D01*
X41836108Y-1774639D01*
X41828155Y-1747618D01*
X41827668Y-1746687D01*
X41827364Y-1745679D01*
X41814110Y-1720753D01*
X41801029Y-1695731D01*
X41800369Y-1694910D01*
X41799876Y-1693983D01*
X41782072Y-1672153D01*
X41764342Y-1650101D01*
X41763534Y-1649423D01*
X41762871Y-1648610D01*
X41741145Y-1630636D01*
X41719490Y-1612466D01*
X41718568Y-1611959D01*
X41717758Y-1611289D01*
X41692953Y-1597877D01*
X41668183Y-1584259D01*
X41667179Y-1583940D01*
X41666255Y-1583441D01*
X41639280Y-1575091D01*
X41612374Y-1566556D01*
X41611331Y-1566439D01*
X41610323Y-1566127D01*
X41582204Y-1563172D01*
X41554189Y-1560029D01*
X41552170Y-1560015D01*
X41552094Y-1560007D01*
X41552017Y-1560014D01*
X41550000Y-1560000D01*
X41000000Y-1560000D01*
X41000000Y-760000D01*
X40997243Y-731881D01*
X40994686Y-703786D01*
X40994390Y-702780D01*
X40994287Y-701730D01*
X40986108Y-674639D01*
X40978155Y-647618D01*
X40977668Y-646687D01*
X40977364Y-645679D01*
X40964110Y-620753D01*
X40951029Y-595731D01*
X40950369Y-594910D01*
X40949876Y-593983D01*
X40932072Y-572153D01*
X40914342Y-550101D01*
X40913534Y-549423D01*
X40912871Y-548610D01*
X40891145Y-530636D01*
X40869490Y-512466D01*
X40868568Y-511959D01*
X40867758Y-511289D01*
X40842953Y-497877D01*
X40818183Y-484259D01*
X40817179Y-483940D01*
X40816255Y-483441D01*
X40789280Y-475091D01*
X40762374Y-466556D01*
X40761331Y-466439D01*
X40760323Y-466127D01*
X40732204Y-463172D01*
X40704189Y-460029D01*
X40702170Y-460015D01*
X40702094Y-460007D01*
X40702017Y-460014D01*
X40700000Y-460000D01*
X38500000Y-460000D01*
X38471881Y-462757D01*
X38443786Y-465314D01*
X38442780Y-465610D01*
X38441730Y-465713D01*
X38414639Y-473892D01*
X38387618Y-481845D01*
X38386687Y-482332D01*
X38385679Y-482636D01*
X38360753Y-495890D01*
X38335731Y-508971D01*
X38334910Y-509631D01*
X38333983Y-510124D01*
X38312153Y-527928D01*
X38290101Y-545658D01*
X38289423Y-546466D01*
X38288610Y-547129D01*
X38270636Y-568855D01*
X38252466Y-590510D01*
X38251959Y-591432D01*
X38251289Y-592242D01*
X38237877Y-617047D01*
X38224259Y-641817D01*
X38223940Y-642821D01*
X38223441Y-643745D01*
X38215091Y-670720D01*
X38206556Y-697626D01*
X38206439Y-698669D01*
X38206127Y-699677D01*
X38203172Y-727796D01*
X38200029Y-755811D01*
X38200015Y-757830D01*
X38200007Y-757906D01*
X38200014Y-757983D01*
X38200000Y-760000D01*
X477758Y-760000D01*
X484187Y-747909D01*
X600564Y-605216D01*
X742436Y-487850D01*
X904401Y-400276D01*
X1080292Y-345828D01*
X1278464Y-325000D01*
X44434104Y-325000D01*
X44633247Y-344526D01*
X44633247Y-344526D01*
G37*
X44633247Y-344526D02*
X44809519Y-397746D01*
X44972091Y-484187D01*
X45114784Y-600564D01*
X45232150Y-742436D01*
X45319724Y-904401D01*
X45374172Y-1080292D01*
X45395000Y-1278464D01*
X45395001Y-19034093D01*
X45375474Y-19233247D01*
X45322253Y-19409521D01*
X45235812Y-19572093D01*
X45119436Y-19714784D01*
X44977569Y-19832147D01*
X44815598Y-19919724D01*
X44639708Y-19974172D01*
X44441536Y-19995000D01*
X1285897Y-19995000D01*
X1086753Y-19975474D01*
X910479Y-19922253D01*
X747907Y-19835812D01*
X605216Y-19719436D01*
X487853Y-19577569D01*
X400276Y-19415598D01*
X345828Y-19239708D01*
X325000Y-19041536D01*
X325000Y-18517000D01*
X26394000Y-18517000D01*
X26394000Y-18942548D01*
X26405529Y-19000507D01*
X26428144Y-19055104D01*
X26460975Y-19104239D01*
X26502761Y-19146025D01*
X26551897Y-19178857D01*
X26606494Y-19201471D01*
X26664453Y-19213000D01*
X26965000Y-19213000D01*
X27040000Y-19138000D01*
X27040000Y-18442000D01*
X27348000Y-18442000D01*
X27348000Y-19138000D01*
X27423000Y-19213000D01*
X27723547Y-19213000D01*
X27781506Y-19201471D01*
X27836103Y-19178857D01*
X27885239Y-19146025D01*
X27927025Y-19104239D01*
X27959856Y-19055104D01*
X27982471Y-19000507D01*
X27994000Y-18942548D01*
X27994000Y-18517000D01*
X27919000Y-18442000D01*
X27348000Y-18442000D01*
X27040000Y-18442000D01*
X26469000Y-18442000D01*
X26394000Y-18517000D01*
X325000Y-18517000D01*
X325000Y-16405402D01*
X2748000Y-16405402D01*
X2748000Y-16614598D01*
X2788812Y-16819774D01*
X2868867Y-17013046D01*
X2985090Y-17186986D01*
X3133014Y-17334910D01*
X3306954Y-17451133D01*
X3500226Y-17531188D01*
X3705402Y-17572000D01*
X3914598Y-17572000D01*
X4119774Y-17531188D01*
X4313046Y-17451133D01*
X4486986Y-17334910D01*
X4634910Y-17186986D01*
X4751133Y-17013046D01*
X4831188Y-16819774D01*
X4872000Y-16614598D01*
X4872000Y-16405402D01*
X5288000Y-16405402D01*
X5288000Y-16614598D01*
X5328812Y-16819774D01*
X5408867Y-17013046D01*
X5525090Y-17186986D01*
X5673014Y-17334910D01*
X5846954Y-17451133D01*
X6040226Y-17531188D01*
X6245402Y-17572000D01*
X6454598Y-17572000D01*
X6659774Y-17531188D01*
X6853046Y-17451133D01*
X7026986Y-17334910D01*
X7174910Y-17186986D01*
X7291133Y-17013046D01*
X7371188Y-16819774D01*
X7412000Y-16614598D01*
X7412000Y-16405402D01*
X7371188Y-16200226D01*
X7291133Y-16006954D01*
X7174910Y-15833014D01*
X7026986Y-15685090D01*
X6853046Y-15568867D01*
X6659774Y-15488812D01*
X6454598Y-15448000D01*
X6245402Y-15448000D01*
X6040226Y-15488812D01*
X5846954Y-15568867D01*
X5673014Y-15685090D01*
X5525090Y-15833014D01*
X5408867Y-16006954D01*
X5328812Y-16200226D01*
X5288000Y-16405402D01*
X4872000Y-16405402D01*
X4831188Y-16200226D01*
X4751133Y-16006954D01*
X4634910Y-15833014D01*
X4486986Y-15685090D01*
X4313046Y-15568867D01*
X4119774Y-15488812D01*
X3914598Y-15448000D01*
X3705402Y-15448000D01*
X3500226Y-15488812D01*
X3306954Y-15568867D01*
X3133014Y-15685090D01*
X2985090Y-15833014D01*
X2868867Y-16006954D01*
X2788812Y-16200226D01*
X2748000Y-16405402D01*
X325000Y-16405402D01*
X325000Y-14771940D01*
X3225849Y-14771940D01*
X3313906Y-14914816D01*
X3507762Y-14993444D01*
X3713234Y-15032743D01*
X3922424Y-15031201D01*
X4127294Y-14988878D01*
X4306094Y-14914816D01*
X4394151Y-14771940D01*
X5765849Y-14771940D01*
X5853906Y-14914816D01*
X6047762Y-14993444D01*
X6253234Y-15032743D01*
X6462424Y-15031201D01*
X6667294Y-14988878D01*
X6846094Y-14914816D01*
X6934151Y-14771940D01*
X6350000Y-14187789D01*
X5765849Y-14771940D01*
X4394151Y-14771940D01*
X3810000Y-14187789D01*
X3225849Y-14771940D01*
X325000Y-14771940D01*
X325000Y-13873234D01*
X2747257Y-13873234D01*
X2748799Y-14082424D01*
X2791122Y-14287294D01*
X2865184Y-14466094D01*
X3008060Y-14554151D01*
X3592211Y-13970000D01*
X4027789Y-13970000D01*
X4611940Y-14554151D01*
X4754816Y-14466094D01*
X4833444Y-14272238D01*
X4872743Y-14066766D01*
X4871317Y-13873234D01*
X5287257Y-13873234D01*
X5288799Y-14082424D01*
X5331122Y-14287294D01*
X5405184Y-14466094D01*
X5548060Y-14554151D01*
X6132211Y-13970000D01*
X6567789Y-13970000D01*
X7151940Y-14554151D01*
X7294816Y-14466094D01*
X7373444Y-14272238D01*
X7412743Y-14066766D01*
X7411201Y-13857576D01*
X7368878Y-13652706D01*
X7294816Y-13473906D01*
X7151940Y-13385849D01*
X6567789Y-13970000D01*
X6132211Y-13970000D01*
X5548060Y-13385849D01*
X5405184Y-13473906D01*
X5326556Y-13667762D01*
X5287257Y-13873234D01*
X4871317Y-13873234D01*
X4871201Y-13857576D01*
X4828878Y-13652706D01*
X4754816Y-13473906D01*
X4611940Y-13385849D01*
X4027789Y-13970000D01*
X3592211Y-13970000D01*
X3008060Y-13385849D01*
X2865184Y-13473906D01*
X2786556Y-13667762D01*
X2747257Y-13873234D01*
X325000Y-13873234D01*
X325000Y-13168060D01*
X3225849Y-13168060D01*
X3810000Y-13752211D01*
X4394151Y-13168060D01*
X5765849Y-13168060D01*
X6350000Y-13752211D01*
X6732211Y-13370000D01*
X17410549Y-13370000D01*
X17410549Y-14570000D01*
X17416341Y-14628810D01*
X17433496Y-14685360D01*
X17461353Y-14737477D01*
X17498842Y-14783158D01*
X17544523Y-14820647D01*
X17596640Y-14848504D01*
X17612001Y-14853164D01*
X17612000Y-15753836D01*
X17596640Y-15758496D01*
X17544523Y-15786353D01*
X17498842Y-15823842D01*
X17461353Y-15869523D01*
X17433496Y-15921640D01*
X17416341Y-15978190D01*
X17410549Y-16037000D01*
X17410549Y-17237000D01*
X17416341Y-17295810D01*
X17433496Y-17352360D01*
X17461353Y-17404477D01*
X17498842Y-17450158D01*
X17544523Y-17487647D01*
X17596640Y-17515504D01*
X17653190Y-17532659D01*
X17712000Y-17538451D01*
X18612000Y-17538451D01*
X18670810Y-17532659D01*
X18727360Y-17515504D01*
X18779477Y-17487647D01*
X18825158Y-17450158D01*
X18862647Y-17404477D01*
X18890504Y-17352360D01*
X18907659Y-17295810D01*
X18913451Y-17237000D01*
X18913451Y-16037000D01*
X20710549Y-16037000D01*
X20710549Y-17237000D01*
X20716341Y-17295810D01*
X20733496Y-17352360D01*
X20761353Y-17404477D01*
X20798842Y-17450158D01*
X20844523Y-17487647D01*
X20896640Y-17515504D01*
X20953190Y-17532659D01*
X21012000Y-17538451D01*
X21912000Y-17538451D01*
X21970810Y-17532659D01*
X22027360Y-17515504D01*
X22079477Y-17487647D01*
X22125158Y-17450158D01*
X22162647Y-17404477D01*
X22190504Y-17352360D01*
X22207659Y-17295810D01*
X22213451Y-17237000D01*
X22213451Y-17187000D01*
X22505183Y-17187000D01*
X22728539Y-17410356D01*
X22731442Y-17417365D01*
X22794368Y-17511541D01*
X22874459Y-17591632D01*
X22968635Y-17654558D01*
X23073279Y-17697903D01*
X23184367Y-17720000D01*
X23297633Y-17720000D01*
X23408721Y-17697903D01*
X23513365Y-17654558D01*
X23544952Y-17633452D01*
X26394000Y-17633452D01*
X26394000Y-18059000D01*
X26469000Y-18134000D01*
X27040000Y-18134000D01*
X27040000Y-17438000D01*
X27348000Y-17438000D01*
X27348000Y-18134000D01*
X27919000Y-18134000D01*
X27994000Y-18059000D01*
X27994000Y-17633452D01*
X27982471Y-17575493D01*
X27959856Y-17520896D01*
X27927025Y-17471761D01*
X27885239Y-17429975D01*
X27836103Y-17397143D01*
X27781506Y-17374529D01*
X27723547Y-17363000D01*
X27423000Y-17363000D01*
X27348000Y-17438000D01*
X27040000Y-17438000D01*
X26965000Y-17363000D01*
X26664453Y-17363000D01*
X26606494Y-17374529D01*
X26551897Y-17397143D01*
X26502761Y-17429975D01*
X26460975Y-17471761D01*
X26428144Y-17520896D01*
X26405529Y-17575493D01*
X26394000Y-17633452D01*
X23544952Y-17633452D01*
X23607541Y-17591632D01*
X23687632Y-17511541D01*
X23750558Y-17417365D01*
X23793903Y-17312721D01*
X23816000Y-17201633D01*
X23816000Y-17088367D01*
X23793903Y-16977279D01*
X23750558Y-16872635D01*
X23687632Y-16778459D01*
X23607541Y-16698368D01*
X23513365Y-16635442D01*
X23506356Y-16632539D01*
X23141013Y-16267196D01*
X23123790Y-16246210D01*
X23040042Y-16177479D01*
X22944494Y-16126408D01*
X22840819Y-16094958D01*
X22760018Y-16087000D01*
X22760008Y-16087000D01*
X22733000Y-16084340D01*
X22705992Y-16087000D01*
X22213451Y-16087000D01*
X22213451Y-16037000D01*
X22207659Y-15978190D01*
X22190504Y-15921640D01*
X22162647Y-15869523D01*
X22125158Y-15823842D01*
X22079477Y-15786353D01*
X22027360Y-15758496D01*
X21970810Y-15741341D01*
X21912000Y-15735549D01*
X21012000Y-15735549D01*
X20953190Y-15741341D01*
X20896640Y-15758496D01*
X20844523Y-15786353D01*
X20798842Y-15823842D01*
X20761353Y-15869523D01*
X20733496Y-15921640D01*
X20716341Y-15978190D01*
X20710549Y-16037000D01*
X18913451Y-16037000D01*
X18907659Y-15978190D01*
X18890504Y-15921640D01*
X18862647Y-15869523D01*
X18825158Y-15823842D01*
X18779477Y-15786353D01*
X18727360Y-15758496D01*
X18712000Y-15753836D01*
X18712000Y-14853164D01*
X18727360Y-14848504D01*
X18779477Y-14820647D01*
X18825158Y-14783158D01*
X18862647Y-14737477D01*
X18890504Y-14685360D01*
X18907659Y-14628810D01*
X18913451Y-14570000D01*
X18913451Y-14199000D01*
X20712000Y-14199000D01*
X20712000Y-14599548D01*
X20723529Y-14657507D01*
X20746144Y-14712104D01*
X20778975Y-14761239D01*
X20820761Y-14803025D01*
X20869897Y-14835857D01*
X20924494Y-14858471D01*
X20982453Y-14870000D01*
X21233000Y-14870000D01*
X21308000Y-14795000D01*
X21308000Y-14124000D01*
X21616000Y-14124000D01*
X21616000Y-14795000D01*
X21691000Y-14870000D01*
X21941547Y-14870000D01*
X21999506Y-14858471D01*
X22054103Y-14835857D01*
X22103239Y-14803025D01*
X22145025Y-14761239D01*
X22177856Y-14712104D01*
X22200471Y-14657507D01*
X22212000Y-14599548D01*
X22212000Y-14281000D01*
X23228549Y-14281000D01*
X23228549Y-15181000D01*
X23234341Y-15239810D01*
X23251496Y-15296360D01*
X23279353Y-15348477D01*
X23316842Y-15394158D01*
X23362523Y-15431647D01*
X23414640Y-15459504D01*
X23471190Y-15476659D01*
X23530000Y-15482451D01*
X23580000Y-15482451D01*
X23580000Y-15827270D01*
X23577097Y-15834279D01*
X23555000Y-15945367D01*
X23555000Y-16058633D01*
X23577097Y-16169721D01*
X23620442Y-16274365D01*
X23683368Y-16368541D01*
X23763459Y-16448632D01*
X23857635Y-16511558D01*
X23962279Y-16554903D01*
X24073367Y-16577000D01*
X24186633Y-16577000D01*
X24297721Y-16554903D01*
X24402365Y-16511558D01*
X24496541Y-16448632D01*
X24576632Y-16368541D01*
X24639558Y-16274365D01*
X24657520Y-16231000D01*
X26394000Y-16231000D01*
X26394000Y-16656548D01*
X26405529Y-16714507D01*
X26428144Y-16769104D01*
X26460975Y-16818239D01*
X26502761Y-16860025D01*
X26551897Y-16892857D01*
X26606494Y-16915471D01*
X26664453Y-16927000D01*
X26965000Y-16927000D01*
X27040000Y-16852000D01*
X27040000Y-16156000D01*
X27348000Y-16156000D01*
X27348000Y-16852000D01*
X27423000Y-16927000D01*
X27723547Y-16927000D01*
X27781506Y-16915471D01*
X27836103Y-16892857D01*
X27885239Y-16860025D01*
X27927025Y-16818239D01*
X27959856Y-16769104D01*
X27982471Y-16714507D01*
X27994000Y-16656548D01*
X27994000Y-16231000D01*
X27919000Y-16156000D01*
X27348000Y-16156000D01*
X27040000Y-16156000D01*
X26469000Y-16156000D01*
X26394000Y-16231000D01*
X24657520Y-16231000D01*
X24682903Y-16169721D01*
X24705000Y-16058633D01*
X24705000Y-15945367D01*
X24682903Y-15834279D01*
X24680000Y-15827271D01*
X24680000Y-15482451D01*
X24730000Y-15482451D01*
X24788810Y-15476659D01*
X24845360Y-15459504D01*
X24897477Y-15431647D01*
X24943158Y-15394158D01*
X24980647Y-15348477D01*
X24981194Y-15347452D01*
X26394000Y-15347452D01*
X26394000Y-15773000D01*
X26469000Y-15848000D01*
X27040000Y-15848000D01*
X27040000Y-15152000D01*
X27348000Y-15152000D01*
X27348000Y-15848000D01*
X27919000Y-15848000D01*
X27994000Y-15773000D01*
X27994000Y-15347452D01*
X27982471Y-15289493D01*
X27959856Y-15234896D01*
X27927025Y-15185761D01*
X27885239Y-15143975D01*
X27836103Y-15111143D01*
X27781506Y-15088529D01*
X27723547Y-15077000D01*
X27423000Y-15077000D01*
X27348000Y-15152000D01*
X27040000Y-15152000D01*
X26965000Y-15077000D01*
X26664453Y-15077000D01*
X26606494Y-15088529D01*
X26551897Y-15111143D01*
X26502761Y-15143975D01*
X26460975Y-15185761D01*
X26428144Y-15234896D01*
X26405529Y-15289493D01*
X26394000Y-15347452D01*
X24981194Y-15347452D01*
X25008504Y-15296360D01*
X25025659Y-15239810D01*
X25031451Y-15181000D01*
X25031451Y-14281000D01*
X25025659Y-14222190D01*
X25008504Y-14165640D01*
X24980647Y-14113523D01*
X24943158Y-14067842D01*
X24897477Y-14030353D01*
X24845360Y-14002496D01*
X24788810Y-13985341D01*
X24730000Y-13979549D01*
X23530000Y-13979549D01*
X23471190Y-13985341D01*
X23414640Y-14002496D01*
X23362523Y-14030353D01*
X23316842Y-14067842D01*
X23279353Y-14113523D01*
X23251496Y-14165640D01*
X23234341Y-14222190D01*
X23228549Y-14281000D01*
X22212000Y-14281000D01*
X22212000Y-14199000D01*
X22137000Y-14124000D01*
X21616000Y-14124000D01*
X21308000Y-14124000D01*
X20787000Y-14124000D01*
X20712000Y-14199000D01*
X18913451Y-14199000D01*
X18913451Y-13945000D01*
X26394000Y-13945000D01*
X26394000Y-14370548D01*
X26405529Y-14428507D01*
X26428144Y-14483104D01*
X26460975Y-14532239D01*
X26502761Y-14574025D01*
X26551897Y-14606857D01*
X26606494Y-14629471D01*
X26664453Y-14641000D01*
X26965000Y-14641000D01*
X27040000Y-14566000D01*
X27040000Y-13870000D01*
X27348000Y-13870000D01*
X27348000Y-14566000D01*
X27423000Y-14641000D01*
X27723547Y-14641000D01*
X27781506Y-14629471D01*
X27836103Y-14606857D01*
X27885239Y-14574025D01*
X27927025Y-14532239D01*
X27959856Y-14483104D01*
X27982471Y-14428507D01*
X27994000Y-14370548D01*
X27994000Y-13945000D01*
X27919000Y-13870000D01*
X27348000Y-13870000D01*
X27040000Y-13870000D01*
X26469000Y-13870000D01*
X26394000Y-13945000D01*
X18913451Y-13945000D01*
X18913451Y-13370000D01*
X18910541Y-13340452D01*
X20712000Y-13340452D01*
X20712000Y-13741000D01*
X20787000Y-13816000D01*
X21308000Y-13816000D01*
X21308000Y-13145000D01*
X21616000Y-13145000D01*
X21616000Y-13816000D01*
X22137000Y-13816000D01*
X22212000Y-13741000D01*
X22212000Y-13340452D01*
X22200471Y-13282493D01*
X22177856Y-13227896D01*
X22145025Y-13178761D01*
X22103239Y-13136975D01*
X22054103Y-13104143D01*
X21999506Y-13081529D01*
X21941547Y-13070000D01*
X21691000Y-13070000D01*
X21616000Y-13145000D01*
X21308000Y-13145000D01*
X21233000Y-13070000D01*
X20982453Y-13070000D01*
X20924494Y-13081529D01*
X20869897Y-13104143D01*
X20820761Y-13136975D01*
X20778975Y-13178761D01*
X20746144Y-13227896D01*
X20723529Y-13282493D01*
X20712000Y-13340452D01*
X18910541Y-13340452D01*
X18907659Y-13311190D01*
X18890504Y-13254640D01*
X18862647Y-13202523D01*
X18825158Y-13156842D01*
X18779477Y-13119353D01*
X18727360Y-13091496D01*
X18712000Y-13086836D01*
X18712000Y-13061452D01*
X26394000Y-13061452D01*
X26394000Y-13487000D01*
X26469000Y-13562000D01*
X27040000Y-13562000D01*
X27040000Y-12866000D01*
X27348000Y-12866000D01*
X27348000Y-13562000D01*
X27919000Y-13562000D01*
X27994000Y-13487000D01*
X27994000Y-13091000D01*
X28392549Y-13091000D01*
X28392549Y-14341000D01*
X28398341Y-14399810D01*
X28415496Y-14456360D01*
X28443353Y-14508477D01*
X28480842Y-14554158D01*
X28526523Y-14591647D01*
X28578640Y-14619504D01*
X28635190Y-14636659D01*
X28694000Y-14642451D01*
X29394411Y-14642451D01*
X29896721Y-15144762D01*
X29910026Y-15160974D01*
X29974740Y-15214084D01*
X30048573Y-15253548D01*
X30104383Y-15270478D01*
X30128685Y-15277850D01*
X30137098Y-15278679D01*
X30191126Y-15284000D01*
X30191132Y-15284000D01*
X30211999Y-15286055D01*
X30232866Y-15284000D01*
X30598804Y-15284000D01*
X30596529Y-15289493D01*
X30585000Y-15347452D01*
X30585000Y-15773000D01*
X30660000Y-15848000D01*
X31231000Y-15848000D01*
X31231000Y-15828000D01*
X31539000Y-15828000D01*
X31539000Y-15848000D01*
X32110000Y-15848000D01*
X32185000Y-15773000D01*
X32185000Y-15347452D01*
X32173471Y-15289493D01*
X32171196Y-15284000D01*
X32599713Y-15284000D01*
X32589341Y-15318190D01*
X32583549Y-15377000D01*
X32583549Y-16627000D01*
X32589341Y-16685810D01*
X32601254Y-16725080D01*
X32169091Y-16725080D01*
X32173471Y-16714507D01*
X32185000Y-16656548D01*
X32185000Y-16231000D01*
X32110000Y-16156000D01*
X31539000Y-16156000D01*
X31539000Y-16176000D01*
X31231000Y-16176000D01*
X31231000Y-16156000D01*
X30660000Y-16156000D01*
X30585000Y-16231000D01*
X30585000Y-16656548D01*
X30596529Y-16714507D01*
X30600909Y-16725080D01*
X30393120Y-16725080D01*
X29995451Y-16327411D01*
X29995451Y-15377000D01*
X29989659Y-15318190D01*
X29972504Y-15261640D01*
X29944647Y-15209523D01*
X29907158Y-15163842D01*
X29861477Y-15126353D01*
X29809360Y-15098496D01*
X29752810Y-15081341D01*
X29694000Y-15075549D01*
X28694000Y-15075549D01*
X28635190Y-15081341D01*
X28578640Y-15098496D01*
X28526523Y-15126353D01*
X28480842Y-15163842D01*
X28443353Y-15209523D01*
X28415496Y-15261640D01*
X28398341Y-15318190D01*
X28392549Y-15377000D01*
X28392549Y-16627000D01*
X28398341Y-16685810D01*
X28415496Y-16742360D01*
X28443353Y-16794477D01*
X28480842Y-16840158D01*
X28526523Y-16877647D01*
X28578640Y-16905504D01*
X28635190Y-16922659D01*
X28694000Y-16928451D01*
X29394411Y-16928451D01*
X29901796Y-17435836D01*
X29915106Y-17452054D01*
X29979820Y-17505164D01*
X30044147Y-17539547D01*
X30053653Y-17544628D01*
X30133766Y-17568930D01*
X30217080Y-17577136D01*
X30237954Y-17575080D01*
X30596700Y-17575080D01*
X30596529Y-17575493D01*
X30585000Y-17633452D01*
X30585000Y-18059000D01*
X30660000Y-18134000D01*
X31231000Y-18134000D01*
X31231000Y-18114000D01*
X31539000Y-18114000D01*
X31539000Y-18134000D01*
X32110000Y-18134000D01*
X32185000Y-18059000D01*
X32185000Y-17633452D01*
X32173471Y-17575493D01*
X32173300Y-17575080D01*
X32598172Y-17575080D01*
X32589341Y-17604190D01*
X32583549Y-17663000D01*
X32583549Y-18913000D01*
X32589341Y-18971810D01*
X32606496Y-19028360D01*
X32634353Y-19080477D01*
X32639936Y-19087280D01*
X32129357Y-19087280D01*
X32150856Y-19055104D01*
X32173471Y-19000507D01*
X32185000Y-18942548D01*
X32185000Y-18517000D01*
X32110000Y-18442000D01*
X31539000Y-18442000D01*
X31539000Y-18462000D01*
X31231000Y-18462000D01*
X31231000Y-18442000D01*
X30660000Y-18442000D01*
X30585000Y-18517000D01*
X30585000Y-18942548D01*
X30596529Y-19000507D01*
X30619144Y-19055104D01*
X30640643Y-19087280D01*
X29939064Y-19087280D01*
X29944647Y-19080477D01*
X29972504Y-19028360D01*
X29989659Y-18971810D01*
X29995451Y-18913000D01*
X29995451Y-17663000D01*
X29989659Y-17604190D01*
X29972504Y-17547640D01*
X29944647Y-17495523D01*
X29907158Y-17449842D01*
X29861477Y-17412353D01*
X29809360Y-17384496D01*
X29752810Y-17367341D01*
X29694000Y-17361549D01*
X28694000Y-17361549D01*
X28635190Y-17367341D01*
X28578640Y-17384496D01*
X28526523Y-17412353D01*
X28480842Y-17449842D01*
X28443353Y-17495523D01*
X28415496Y-17547640D01*
X28398341Y-17604190D01*
X28392549Y-17663000D01*
X28392549Y-18913000D01*
X28398341Y-18971810D01*
X28415496Y-19028360D01*
X28443353Y-19080477D01*
X28480842Y-19126158D01*
X28526523Y-19163647D01*
X28578640Y-19191504D01*
X28635190Y-19208659D01*
X28694000Y-19214451D01*
X28778419Y-19214451D01*
X28799452Y-19283786D01*
X28838916Y-19357619D01*
X28892026Y-19422334D01*
X28908244Y-19435644D01*
X29270636Y-19798036D01*
X29283946Y-19814254D01*
X29348660Y-19867364D01*
X29410931Y-19900648D01*
X29422493Y-19906828D01*
X29502606Y-19931130D01*
X29585920Y-19939336D01*
X29606794Y-19937280D01*
X33750973Y-19937280D01*
X33771840Y-19939335D01*
X33792707Y-19937280D01*
X33792714Y-19937280D01*
X33855154Y-19931130D01*
X33935267Y-19906828D01*
X34009100Y-19867364D01*
X34073814Y-19814254D01*
X34087124Y-19798037D01*
X36725161Y-17160000D01*
X38200000Y-17160000D01*
X38200000Y-19560000D01*
X38202757Y-19588119D01*
X38205314Y-19616214D01*
X38205610Y-19617220D01*
X38205713Y-19618270D01*
X38213892Y-19645361D01*
X38221845Y-19672382D01*
X38222332Y-19673313D01*
X38222636Y-19674321D01*
X38235890Y-19699247D01*
X38248971Y-19724269D01*
X38249631Y-19725090D01*
X38250124Y-19726017D01*
X38267928Y-19747847D01*
X38285658Y-19769899D01*
X38286466Y-19770577D01*
X38287129Y-19771390D01*
X38308855Y-19789364D01*
X38330510Y-19807534D01*
X38331432Y-19808041D01*
X38332242Y-19808711D01*
X38357047Y-19822123D01*
X38381817Y-19835741D01*
X38382821Y-19836060D01*
X38383745Y-19836559D01*
X38410720Y-19844909D01*
X38437626Y-19853444D01*
X38438669Y-19853561D01*
X38439677Y-19853873D01*
X38467796Y-19856828D01*
X38495811Y-19859971D01*
X38497830Y-19859985D01*
X38497906Y-19859993D01*
X38497983Y-19859986D01*
X38500000Y-19860000D01*
X40700000Y-19860000D01*
X40728119Y-19857243D01*
X40756214Y-19854686D01*
X40757220Y-19854390D01*
X40758270Y-19854287D01*
X40785361Y-19846108D01*
X40812382Y-19838155D01*
X40813313Y-19837668D01*
X40814321Y-19837364D01*
X40839247Y-19824110D01*
X40864269Y-19811029D01*
X40865090Y-19810369D01*
X40866017Y-19809876D01*
X40887847Y-19792072D01*
X40909899Y-19774342D01*
X40910577Y-19773534D01*
X40911390Y-19772871D01*
X40929364Y-19751145D01*
X40947534Y-19729490D01*
X40948041Y-19728568D01*
X40948711Y-19727758D01*
X40962123Y-19702953D01*
X40975741Y-19678183D01*
X40976060Y-19677179D01*
X40976559Y-19676255D01*
X40984909Y-19649280D01*
X40993444Y-19622374D01*
X40993561Y-19621331D01*
X40993873Y-19620323D01*
X40996828Y-19592204D01*
X40999971Y-19564189D01*
X40999985Y-19562170D01*
X40999993Y-19562094D01*
X40999986Y-19562017D01*
X41000000Y-19560000D01*
X41000000Y-18760000D01*
X41550000Y-18760000D01*
X41578119Y-18757243D01*
X41606214Y-18754686D01*
X41607220Y-18754390D01*
X41608270Y-18754287D01*
X41635361Y-18746108D01*
X41662382Y-18738155D01*
X41663313Y-18737668D01*
X41664321Y-18737364D01*
X41689247Y-18724110D01*
X41714269Y-18711029D01*
X41715090Y-18710369D01*
X41716017Y-18709876D01*
X41737847Y-18692072D01*
X41759899Y-18674342D01*
X41760577Y-18673534D01*
X41761390Y-18672871D01*
X41779364Y-18651145D01*
X41797534Y-18629490D01*
X41798041Y-18628568D01*
X41798711Y-18627758D01*
X41812123Y-18602953D01*
X41825741Y-18578183D01*
X41826060Y-18577179D01*
X41826559Y-18576255D01*
X41834909Y-18549280D01*
X41843444Y-18522374D01*
X41843561Y-18521331D01*
X41843873Y-18520323D01*
X41846828Y-18492204D01*
X41849971Y-18464189D01*
X41849985Y-18462170D01*
X41849993Y-18462094D01*
X41849986Y-18462017D01*
X41850000Y-18460000D01*
X41850000Y-17160000D01*
X41847243Y-17131881D01*
X41844686Y-17103786D01*
X41844390Y-17102780D01*
X41844287Y-17101730D01*
X41836108Y-17074639D01*
X41828155Y-17047618D01*
X41827668Y-17046687D01*
X41827364Y-17045679D01*
X41814110Y-17020753D01*
X41801029Y-16995731D01*
X41800369Y-16994910D01*
X41799876Y-16993983D01*
X41782072Y-16972153D01*
X41764342Y-16950101D01*
X41763534Y-16949423D01*
X41762871Y-16948610D01*
X41741145Y-16930636D01*
X41719490Y-16912466D01*
X41718568Y-16911959D01*
X41717758Y-16911289D01*
X41692953Y-16897877D01*
X41668183Y-16884259D01*
X41667179Y-16883940D01*
X41666255Y-16883441D01*
X41639280Y-16875091D01*
X41612374Y-16866556D01*
X41611331Y-16866439D01*
X41610323Y-16866127D01*
X41582204Y-16863172D01*
X41554189Y-16860029D01*
X41552170Y-16860015D01*
X41552094Y-16860007D01*
X41552017Y-16860014D01*
X41550000Y-16860000D01*
X38500000Y-16860000D01*
X38471881Y-16862757D01*
X38443786Y-16865314D01*
X38442780Y-16865610D01*
X38441730Y-16865713D01*
X38414639Y-16873892D01*
X38387618Y-16881845D01*
X38386687Y-16882332D01*
X38385679Y-16882636D01*
X38360753Y-16895890D01*
X38335731Y-16908971D01*
X38334910Y-16909631D01*
X38333983Y-16910124D01*
X38312153Y-16927928D01*
X38290101Y-16945658D01*
X38289423Y-16946466D01*
X38288610Y-16947129D01*
X38270636Y-16968855D01*
X38252466Y-16990510D01*
X38251959Y-16991432D01*
X38251289Y-16992242D01*
X38237877Y-17017047D01*
X38224259Y-17041817D01*
X38223940Y-17042821D01*
X38223441Y-17043745D01*
X38215091Y-17070720D01*
X38206556Y-17097626D01*
X38206439Y-17098669D01*
X38206127Y-17099677D01*
X38203172Y-17127796D01*
X38200029Y-17155811D01*
X38200015Y-17157830D01*
X38200007Y-17157906D01*
X38200014Y-17157983D01*
X38200000Y-17160000D01*
X36725161Y-17160000D01*
X37550161Y-16335000D01*
X37578084Y-16335000D01*
X37584640Y-16338504D01*
X37641190Y-16355659D01*
X37700000Y-16361451D01*
X38500000Y-16361451D01*
X38558810Y-16355659D01*
X38615360Y-16338504D01*
X38667477Y-16310647D01*
X38713158Y-16273158D01*
X38750647Y-16227477D01*
X38778504Y-16175360D01*
X38795659Y-16118810D01*
X38801451Y-16060000D01*
X38801451Y-15760000D01*
X38795659Y-15701190D01*
X38783164Y-15660000D01*
X38795659Y-15618810D01*
X38801451Y-15560000D01*
X38801451Y-15260000D01*
X38795659Y-15201190D01*
X38783164Y-15160000D01*
X38795659Y-15118810D01*
X38801451Y-15060000D01*
X38801451Y-14760000D01*
X38795659Y-14701190D01*
X38783164Y-14660000D01*
X38795659Y-14618810D01*
X38801451Y-14560000D01*
X38801451Y-14260000D01*
X38795659Y-14201190D01*
X38783164Y-14160000D01*
X38795659Y-14118810D01*
X38801451Y-14060000D01*
X38801451Y-13760000D01*
X38795659Y-13701190D01*
X38783164Y-13660000D01*
X38795659Y-13618810D01*
X38801451Y-13560000D01*
X38801451Y-13260000D01*
X38795659Y-13201190D01*
X38783164Y-13160000D01*
X38795659Y-13118810D01*
X38801451Y-13060000D01*
X38801451Y-12760000D01*
X38795659Y-12701190D01*
X38783220Y-12660185D01*
X38788471Y-12647506D01*
X38800000Y-12589547D01*
X38800000Y-12560000D01*
X38725000Y-12485000D01*
X38621916Y-12485000D01*
X38615360Y-12481496D01*
X38558810Y-12464341D01*
X38500000Y-12458549D01*
X37700000Y-12458549D01*
X37641190Y-12464341D01*
X37584640Y-12481496D01*
X37578084Y-12485000D01*
X36073041Y-12485000D01*
X34732283Y-11144243D01*
X34718974Y-11128026D01*
X34654260Y-11074916D01*
X34580427Y-11035452D01*
X34500314Y-11011150D01*
X34437874Y-11005000D01*
X34437867Y-11005000D01*
X34417000Y-11002945D01*
X34396133Y-11005000D01*
X34186451Y-11005000D01*
X34186451Y-10805000D01*
X34180659Y-10746190D01*
X34163504Y-10689640D01*
X34135647Y-10637523D01*
X34098158Y-10591842D01*
X34052477Y-10554353D01*
X34000360Y-10526496D01*
X33943810Y-10509341D01*
X33885000Y-10503549D01*
X32885000Y-10503549D01*
X32826190Y-10509341D01*
X32769640Y-10526496D01*
X32717523Y-10554353D01*
X32671842Y-10591842D01*
X32634353Y-10637523D01*
X32606496Y-10689640D01*
X32589341Y-10746190D01*
X32583549Y-10805000D01*
X32583549Y-12055000D01*
X32589341Y-12113810D01*
X32606496Y-12170360D01*
X32634353Y-12222477D01*
X32671842Y-12268158D01*
X32717523Y-12305647D01*
X32769640Y-12333504D01*
X32826190Y-12350659D01*
X32885000Y-12356451D01*
X33885000Y-12356451D01*
X33943810Y-12350659D01*
X34000360Y-12333504D01*
X34052477Y-12305647D01*
X34098158Y-12268158D01*
X34135647Y-12222477D01*
X34163504Y-12170360D01*
X34180659Y-12113810D01*
X34186451Y-12055000D01*
X34186451Y-11855000D01*
X34240960Y-11855000D01*
X35370959Y-12985000D01*
X34166343Y-12985000D01*
X34163504Y-12975640D01*
X34135647Y-12923523D01*
X34098158Y-12877842D01*
X34052477Y-12840353D01*
X34000360Y-12812496D01*
X33943810Y-12795341D01*
X33885000Y-12789549D01*
X32885000Y-12789549D01*
X32826190Y-12795341D01*
X32769640Y-12812496D01*
X32717523Y-12840353D01*
X32671842Y-12877842D01*
X32634353Y-12923523D01*
X32606496Y-12975640D01*
X32589341Y-13032190D01*
X32583549Y-13091000D01*
X32583549Y-14341000D01*
X32589341Y-14399810D01*
X32599713Y-14434000D01*
X32171196Y-14434000D01*
X32173471Y-14428507D01*
X32185000Y-14370548D01*
X32185000Y-13945000D01*
X32110000Y-13870000D01*
X31539000Y-13870000D01*
X31539000Y-13890000D01*
X31231000Y-13890000D01*
X31231000Y-13870000D01*
X30660000Y-13870000D01*
X30585000Y-13945000D01*
X30585000Y-14370548D01*
X30596529Y-14428507D01*
X30598804Y-14434000D01*
X30388041Y-14434000D01*
X29995451Y-14041411D01*
X29995451Y-13091000D01*
X29992541Y-13061452D01*
X30585000Y-13061452D01*
X30585000Y-13487000D01*
X30660000Y-13562000D01*
X31231000Y-13562000D01*
X31231000Y-12866000D01*
X31539000Y-12866000D01*
X31539000Y-13562000D01*
X32110000Y-13562000D01*
X32185000Y-13487000D01*
X32185000Y-13061452D01*
X32173471Y-13003493D01*
X32150856Y-12948896D01*
X32118025Y-12899761D01*
X32076239Y-12857975D01*
X32027103Y-12825143D01*
X31972506Y-12802529D01*
X31914547Y-12791000D01*
X31614000Y-12791000D01*
X31539000Y-12866000D01*
X31231000Y-12866000D01*
X31156000Y-12791000D01*
X30855453Y-12791000D01*
X30797494Y-12802529D01*
X30742897Y-12825143D01*
X30693761Y-12857975D01*
X30651975Y-12899761D01*
X30619144Y-12948896D01*
X30596529Y-13003493D01*
X30585000Y-13061452D01*
X29992541Y-13061452D01*
X29989659Y-13032190D01*
X29972504Y-12975640D01*
X29944647Y-12923523D01*
X29907158Y-12877842D01*
X29861477Y-12840353D01*
X29809360Y-12812496D01*
X29752810Y-12795341D01*
X29694000Y-12789549D01*
X28694000Y-12789549D01*
X28635190Y-12795341D01*
X28578640Y-12812496D01*
X28526523Y-12840353D01*
X28480842Y-12877842D01*
X28443353Y-12923523D01*
X28415496Y-12975640D01*
X28398341Y-13032190D01*
X28392549Y-13091000D01*
X27994000Y-13091000D01*
X27994000Y-13061452D01*
X27982471Y-13003493D01*
X27959856Y-12948896D01*
X27927025Y-12899761D01*
X27885239Y-12857975D01*
X27836103Y-12825143D01*
X27781506Y-12802529D01*
X27723547Y-12791000D01*
X27423000Y-12791000D01*
X27348000Y-12866000D01*
X27040000Y-12866000D01*
X26965000Y-12791000D01*
X26664453Y-12791000D01*
X26606494Y-12802529D01*
X26551897Y-12825143D01*
X26502761Y-12857975D01*
X26460975Y-12899761D01*
X26428144Y-12948896D01*
X26405529Y-13003493D01*
X26394000Y-13061452D01*
X18712000Y-13061452D01*
X18712000Y-12483451D01*
X19312000Y-12483451D01*
X19370810Y-12477659D01*
X19427360Y-12460504D01*
X19479477Y-12432647D01*
X19525158Y-12395158D01*
X19562647Y-12349477D01*
X19590504Y-12297360D01*
X19607659Y-12240810D01*
X19613451Y-12182000D01*
X19613451Y-10932000D01*
X20010549Y-10932000D01*
X20010549Y-12182000D01*
X20016341Y-12240810D01*
X20033496Y-12297360D01*
X20061353Y-12349477D01*
X20098842Y-12395158D01*
X20144523Y-12432647D01*
X20196640Y-12460504D01*
X20253190Y-12477659D01*
X20312000Y-12483451D01*
X21312000Y-12483451D01*
X21370810Y-12477659D01*
X21427360Y-12460504D01*
X21479477Y-12432647D01*
X21525158Y-12395158D01*
X21562647Y-12349477D01*
X21590504Y-12297360D01*
X21607659Y-12240810D01*
X21613451Y-12182000D01*
X21613451Y-12107000D01*
X22363982Y-12107000D01*
X22390990Y-12109660D01*
X22417998Y-12107000D01*
X22418008Y-12107000D01*
X22498809Y-12099042D01*
X22602484Y-12067592D01*
X22698032Y-12016521D01*
X22725298Y-11994144D01*
X22737104Y-11984455D01*
X22745445Y-11981000D01*
X23246836Y-11981000D01*
X23251496Y-11996360D01*
X23279353Y-12048477D01*
X23316842Y-12094158D01*
X23362523Y-12131647D01*
X23414640Y-12159504D01*
X23471190Y-12176659D01*
X23530000Y-12182451D01*
X24730000Y-12182451D01*
X24788810Y-12176659D01*
X24845360Y-12159504D01*
X24897477Y-12131647D01*
X24943158Y-12094158D01*
X24980647Y-12048477D01*
X25008504Y-11996360D01*
X25025659Y-11939810D01*
X25031451Y-11881000D01*
X25031451Y-11659000D01*
X26394000Y-11659000D01*
X26394000Y-12084548D01*
X26405529Y-12142507D01*
X26428144Y-12197104D01*
X26460975Y-12246239D01*
X26502761Y-12288025D01*
X26551897Y-12320857D01*
X26606494Y-12343471D01*
X26664453Y-12355000D01*
X26965000Y-12355000D01*
X27040000Y-12280000D01*
X27040000Y-11584000D01*
X27348000Y-11584000D01*
X27348000Y-12280000D01*
X27423000Y-12355000D01*
X27723547Y-12355000D01*
X27781506Y-12343471D01*
X27836103Y-12320857D01*
X27885239Y-12288025D01*
X27927025Y-12246239D01*
X27959856Y-12197104D01*
X27982471Y-12142507D01*
X27994000Y-12084548D01*
X27994000Y-11659000D01*
X27919000Y-11584000D01*
X27348000Y-11584000D01*
X27040000Y-11584000D01*
X26469000Y-11584000D01*
X26394000Y-11659000D01*
X25031451Y-11659000D01*
X25031451Y-10981000D01*
X25025659Y-10922190D01*
X25008504Y-10865640D01*
X24980647Y-10813523D01*
X24949404Y-10775452D01*
X26394000Y-10775452D01*
X26394000Y-11201000D01*
X26469000Y-11276000D01*
X27040000Y-11276000D01*
X27040000Y-10580000D01*
X27348000Y-10580000D01*
X27348000Y-11276000D01*
X27919000Y-11276000D01*
X27994000Y-11201000D01*
X27994000Y-10805000D01*
X28392549Y-10805000D01*
X28392549Y-12055000D01*
X28398341Y-12113810D01*
X28415496Y-12170360D01*
X28443353Y-12222477D01*
X28480842Y-12268158D01*
X28526523Y-12305647D01*
X28578640Y-12333504D01*
X28635190Y-12350659D01*
X28694000Y-12356451D01*
X29694000Y-12356451D01*
X29752810Y-12350659D01*
X29809360Y-12333504D01*
X29861477Y-12305647D01*
X29907158Y-12268158D01*
X29944647Y-12222477D01*
X29972504Y-12170360D01*
X29989659Y-12113810D01*
X29995451Y-12055000D01*
X29995451Y-12035011D01*
X30123260Y-12035011D01*
X30130268Y-12037914D01*
X30241356Y-12060011D01*
X30354622Y-12060011D01*
X30465710Y-12037914D01*
X30570354Y-11994569D01*
X30585000Y-11984783D01*
X30585000Y-12084548D01*
X30596529Y-12142507D01*
X30619144Y-12197104D01*
X30651975Y-12246239D01*
X30693761Y-12288025D01*
X30742897Y-12320857D01*
X30797494Y-12343471D01*
X30855453Y-12355000D01*
X31156000Y-12355000D01*
X31231000Y-12280000D01*
X31231000Y-11584000D01*
X31539000Y-11584000D01*
X31539000Y-12280000D01*
X31614000Y-12355000D01*
X31914547Y-12355000D01*
X31972506Y-12343471D01*
X32027103Y-12320857D01*
X32076239Y-12288025D01*
X32118025Y-12246239D01*
X32150856Y-12197104D01*
X32173471Y-12142507D01*
X32185000Y-12084548D01*
X32185000Y-11659000D01*
X32110000Y-11584000D01*
X31539000Y-11584000D01*
X31231000Y-11584000D01*
X31211000Y-11584000D01*
X31211000Y-11276000D01*
X31231000Y-11276000D01*
X31231000Y-10580000D01*
X31539000Y-10580000D01*
X31539000Y-11276000D01*
X32110000Y-11276000D01*
X32185000Y-11201000D01*
X32185000Y-10775452D01*
X32173471Y-10717493D01*
X32150856Y-10662896D01*
X32118025Y-10613761D01*
X32076239Y-10571975D01*
X32027103Y-10539143D01*
X31972506Y-10516529D01*
X31914547Y-10505000D01*
X31614000Y-10505000D01*
X31539000Y-10580000D01*
X31231000Y-10580000D01*
X31156000Y-10505000D01*
X30855453Y-10505000D01*
X30797494Y-10516529D01*
X30742897Y-10539143D01*
X30693761Y-10571975D01*
X30651975Y-10613761D01*
X30619144Y-10662896D01*
X30596529Y-10717493D01*
X30585000Y-10775452D01*
X30585000Y-10985239D01*
X30570354Y-10975453D01*
X30465710Y-10932108D01*
X30354622Y-10910011D01*
X30241356Y-10910011D01*
X30130268Y-10932108D01*
X30123260Y-10935011D01*
X29995451Y-10935011D01*
X29995451Y-10805000D01*
X29989659Y-10746190D01*
X29972504Y-10689640D01*
X29944647Y-10637523D01*
X29907158Y-10591842D01*
X29861477Y-10554353D01*
X29809360Y-10526496D01*
X29752810Y-10509341D01*
X29694000Y-10503549D01*
X28694000Y-10503549D01*
X28635190Y-10509341D01*
X28578640Y-10526496D01*
X28526523Y-10554353D01*
X28480842Y-10591842D01*
X28443353Y-10637523D01*
X28415496Y-10689640D01*
X28398341Y-10746190D01*
X28392549Y-10805000D01*
X27994000Y-10805000D01*
X27994000Y-10775452D01*
X27982471Y-10717493D01*
X27959856Y-10662896D01*
X27927025Y-10613761D01*
X27885239Y-10571975D01*
X27836103Y-10539143D01*
X27781506Y-10516529D01*
X27723547Y-10505000D01*
X27423000Y-10505000D01*
X27348000Y-10580000D01*
X27040000Y-10580000D01*
X26965000Y-10505000D01*
X26664453Y-10505000D01*
X26606494Y-10516529D01*
X26551897Y-10539143D01*
X26502761Y-10571975D01*
X26460975Y-10613761D01*
X26428144Y-10662896D01*
X26405529Y-10717493D01*
X26394000Y-10775452D01*
X24949404Y-10775452D01*
X24943158Y-10767842D01*
X24897477Y-10730353D01*
X24845360Y-10702496D01*
X24788810Y-10685341D01*
X24730000Y-10679549D01*
X23530000Y-10679549D01*
X23471190Y-10685341D01*
X23414640Y-10702496D01*
X23362523Y-10730353D01*
X23316842Y-10767842D01*
X23279353Y-10813523D01*
X23251496Y-10865640D01*
X23246836Y-10881000D01*
X22543998Y-10881000D01*
X22516990Y-10878340D01*
X22489982Y-10881000D01*
X22489972Y-10881000D01*
X22409171Y-10888958D01*
X22335856Y-10911198D01*
X22311279Y-10916087D01*
X22206635Y-10959432D01*
X22135444Y-11007000D01*
X21613451Y-11007000D01*
X21613451Y-10932000D01*
X21607659Y-10873190D01*
X21590504Y-10816640D01*
X21562647Y-10764523D01*
X21525158Y-10718842D01*
X21479477Y-10681353D01*
X21427360Y-10653496D01*
X21370810Y-10636341D01*
X21312000Y-10630549D01*
X20312000Y-10630549D01*
X20253190Y-10636341D01*
X20196640Y-10653496D01*
X20144523Y-10681353D01*
X20098842Y-10718842D01*
X20061353Y-10764523D01*
X20033496Y-10816640D01*
X20016341Y-10873190D01*
X20010549Y-10932000D01*
X19613451Y-10932000D01*
X19607659Y-10873190D01*
X19590504Y-10816640D01*
X19562647Y-10764523D01*
X19525158Y-10718842D01*
X19479477Y-10681353D01*
X19427360Y-10653496D01*
X19370810Y-10636341D01*
X19312000Y-10630549D01*
X18312000Y-10630549D01*
X18253190Y-10636341D01*
X18196640Y-10653496D01*
X18144523Y-10681353D01*
X18098842Y-10718842D01*
X18061353Y-10764523D01*
X18033496Y-10816640D01*
X18016341Y-10873190D01*
X18010549Y-10932000D01*
X18010549Y-11580634D01*
X17792191Y-11798992D01*
X17771211Y-11816210D01*
X17753993Y-11837190D01*
X17753987Y-11837196D01*
X17702479Y-11899958D01*
X17655270Y-11988283D01*
X17651409Y-11995506D01*
X17619959Y-12099181D01*
X17615692Y-12142507D01*
X17609340Y-12207000D01*
X17612001Y-12234018D01*
X17612001Y-13086836D01*
X17596640Y-13091496D01*
X17544523Y-13119353D01*
X17498842Y-13156842D01*
X17461353Y-13202523D01*
X17433496Y-13254640D01*
X17416341Y-13311190D01*
X17410549Y-13370000D01*
X6732211Y-13370000D01*
X6934151Y-13168060D01*
X6846094Y-13025184D01*
X6652238Y-12946556D01*
X6446766Y-12907257D01*
X6237576Y-12908799D01*
X6032706Y-12951122D01*
X5853906Y-13025184D01*
X5765849Y-13168060D01*
X4394151Y-13168060D01*
X4306094Y-13025184D01*
X4112238Y-12946556D01*
X3906766Y-12907257D01*
X3697576Y-12908799D01*
X3492706Y-12951122D01*
X3313906Y-13025184D01*
X3225849Y-13168060D01*
X325000Y-13168060D01*
X325000Y-8785402D01*
X2748000Y-8785402D01*
X2748000Y-8994598D01*
X2788812Y-9199774D01*
X2868867Y-9393046D01*
X2985090Y-9566986D01*
X3133014Y-9714910D01*
X3306954Y-9831133D01*
X3500226Y-9911188D01*
X3705402Y-9952000D01*
X3914598Y-9952000D01*
X4119774Y-9911188D01*
X4313046Y-9831133D01*
X4486986Y-9714910D01*
X4634910Y-9566986D01*
X4751133Y-9393046D01*
X4831188Y-9199774D01*
X4872000Y-8994598D01*
X4872000Y-8785402D01*
X4831188Y-8580226D01*
X4798861Y-8502180D01*
X4887279Y-8413762D01*
X4887283Y-8413757D01*
X5129041Y-8172000D01*
X5566104Y-8172000D01*
X5525090Y-8213014D01*
X5408867Y-8386954D01*
X5328812Y-8580226D01*
X5288000Y-8785402D01*
X5288000Y-8994598D01*
X5328812Y-9199774D01*
X5408867Y-9393046D01*
X5525090Y-9566986D01*
X5673014Y-9714910D01*
X5703081Y-9735000D01*
X5100867Y-9735000D01*
X5080000Y-9732945D01*
X5059133Y-9735000D01*
X5059126Y-9735000D01*
X5004327Y-9740397D01*
X4996685Y-9741150D01*
X4972383Y-9748522D01*
X4916573Y-9765452D01*
X4842740Y-9804916D01*
X4778026Y-9858026D01*
X4764721Y-9874238D01*
X4286243Y-10352717D01*
X4286238Y-10352721D01*
X4197820Y-10441139D01*
X4119774Y-10408812D01*
X3914598Y-10368000D01*
X3705402Y-10368000D01*
X3500226Y-10408812D01*
X3306954Y-10488867D01*
X3133014Y-10605090D01*
X2985090Y-10753014D01*
X2868867Y-10926954D01*
X2788812Y-11120226D01*
X2748000Y-11325402D01*
X2748000Y-11534598D01*
X2788812Y-11739774D01*
X2868867Y-11933046D01*
X2985090Y-12106986D01*
X3133014Y-12254910D01*
X3306954Y-12371133D01*
X3500226Y-12451188D01*
X3705402Y-12492000D01*
X3914598Y-12492000D01*
X4119774Y-12451188D01*
X4313046Y-12371133D01*
X4486986Y-12254910D01*
X4634910Y-12106986D01*
X4751133Y-11933046D01*
X4831188Y-11739774D01*
X4872000Y-11534598D01*
X4872000Y-11325402D01*
X4831188Y-11120226D01*
X4798861Y-11042180D01*
X4887279Y-10953762D01*
X4887283Y-10953757D01*
X5256041Y-10585000D01*
X5703081Y-10585000D01*
X5673014Y-10605090D01*
X5525090Y-10753014D01*
X5408867Y-10926954D01*
X5328812Y-11120226D01*
X5288000Y-11325402D01*
X5288000Y-11534598D01*
X5328812Y-11739774D01*
X5408867Y-11933046D01*
X5525090Y-12106986D01*
X5673014Y-12254910D01*
X5846954Y-12371133D01*
X6040226Y-12451188D01*
X6245402Y-12492000D01*
X6454598Y-12492000D01*
X6659774Y-12451188D01*
X6853046Y-12371133D01*
X7026986Y-12254910D01*
X7174910Y-12106986D01*
X7291133Y-11933046D01*
X7323460Y-11855000D01*
X7625943Y-11855000D01*
X7646810Y-11857055D01*
X7667677Y-11855000D01*
X7667684Y-11855000D01*
X7730124Y-11848850D01*
X7810237Y-11824548D01*
X7884070Y-11785084D01*
X7948784Y-11731974D01*
X7962093Y-11715757D01*
X8952611Y-10725240D01*
X8950000Y-10738367D01*
X8950000Y-10851633D01*
X8972097Y-10962721D01*
X9015442Y-11067365D01*
X9078368Y-11161541D01*
X9158459Y-11241632D01*
X9252635Y-11304558D01*
X9357279Y-11347903D01*
X9468367Y-11370000D01*
X9581633Y-11370000D01*
X9692721Y-11347903D01*
X9797365Y-11304558D01*
X9891541Y-11241632D01*
X9913173Y-11220000D01*
X11335755Y-11220000D01*
X11356622Y-11222055D01*
X11377489Y-11220000D01*
X11377496Y-11220000D01*
X11439936Y-11213850D01*
X11520049Y-11189548D01*
X11593882Y-11150084D01*
X11658596Y-11096974D01*
X11671905Y-11080757D01*
X12294663Y-10458000D01*
X34310106Y-10458000D01*
X35047867Y-11195762D01*
X35061172Y-11211974D01*
X35125886Y-11265084D01*
X35199719Y-11304548D01*
X35241724Y-11317290D01*
X35279831Y-11328850D01*
X35288244Y-11329679D01*
X35342272Y-11335000D01*
X35342278Y-11335000D01*
X35363145Y-11337055D01*
X35384012Y-11335000D01*
X36667904Y-11335000D01*
X36650642Y-11360835D01*
X36607297Y-11465479D01*
X36585200Y-11576567D01*
X36585200Y-11689833D01*
X36607297Y-11800921D01*
X36650642Y-11905565D01*
X36713568Y-11999741D01*
X36793659Y-12079832D01*
X36887835Y-12142758D01*
X36992479Y-12186103D01*
X37103567Y-12208200D01*
X37131929Y-12208200D01*
X37135026Y-12211974D01*
X37199740Y-12265084D01*
X37273573Y-12304548D01*
X37327337Y-12320857D01*
X37353685Y-12328850D01*
X37362098Y-12329679D01*
X37416126Y-12335000D01*
X37416132Y-12335000D01*
X37436999Y-12337055D01*
X37457866Y-12335000D01*
X37578084Y-12335000D01*
X37584640Y-12338504D01*
X37641190Y-12355659D01*
X37700000Y-12361451D01*
X38500000Y-12361451D01*
X38558810Y-12355659D01*
X38615360Y-12338504D01*
X38621916Y-12335000D01*
X38725000Y-12335000D01*
X38800000Y-12260000D01*
X38800000Y-12230453D01*
X38788471Y-12172494D01*
X38783220Y-12159815D01*
X38795659Y-12118810D01*
X38801451Y-12060000D01*
X38801451Y-11760000D01*
X38795659Y-11701190D01*
X38783164Y-11660000D01*
X38795659Y-11618810D01*
X38801451Y-11560000D01*
X38801451Y-11260000D01*
X38795659Y-11201190D01*
X38783164Y-11160000D01*
X38795659Y-11118810D01*
X38801451Y-11060000D01*
X38801451Y-10760000D01*
X38795659Y-10701190D01*
X38783164Y-10660000D01*
X38795659Y-10618810D01*
X38801451Y-10560000D01*
X38801451Y-10260000D01*
X38795659Y-10201190D01*
X38783164Y-10160000D01*
X38795659Y-10118810D01*
X38801451Y-10060000D01*
X38801451Y-9760000D01*
X38795659Y-9701190D01*
X38783164Y-9660000D01*
X38795659Y-9618810D01*
X38801451Y-9560000D01*
X38801451Y-9260000D01*
X38795659Y-9201190D01*
X38783164Y-9160000D01*
X38795659Y-9118810D01*
X38801451Y-9060000D01*
X38801451Y-8760000D01*
X38795659Y-8701190D01*
X38783164Y-8660000D01*
X38795659Y-8618810D01*
X38801451Y-8560000D01*
X38801451Y-8260000D01*
X38795659Y-8201190D01*
X38783220Y-8160185D01*
X38788471Y-8147506D01*
X38800000Y-8089547D01*
X38800000Y-8060000D01*
X38725000Y-7985000D01*
X38621916Y-7985000D01*
X38615360Y-7981496D01*
X38558810Y-7964341D01*
X38500000Y-7958549D01*
X37700000Y-7958549D01*
X37641190Y-7964341D01*
X37584640Y-7981496D01*
X37578084Y-7985000D01*
X36221240Y-7985000D01*
X35697484Y-7461244D01*
X35684174Y-7445026D01*
X35619460Y-7391916D01*
X35545627Y-7352452D01*
X35465514Y-7328150D01*
X35403074Y-7322000D01*
X35403067Y-7322000D01*
X35382200Y-7319945D01*
X35361333Y-7322000D01*
X6778526Y-7322000D01*
X6853046Y-7291133D01*
X7026986Y-7174910D01*
X7174910Y-7026986D01*
X7291133Y-6853046D01*
X7371188Y-6659774D01*
X7387254Y-6579000D01*
X30585000Y-6579000D01*
X30585000Y-7004548D01*
X30596529Y-7062507D01*
X30619144Y-7117104D01*
X30651975Y-7166239D01*
X30693761Y-7208025D01*
X30742897Y-7240857D01*
X30797494Y-7263471D01*
X30855453Y-7275000D01*
X31156000Y-7275000D01*
X31231000Y-7200000D01*
X31231000Y-6504000D01*
X31539000Y-6504000D01*
X31539000Y-7200000D01*
X31614000Y-7275000D01*
X31914547Y-7275000D01*
X31972506Y-7263471D01*
X32027103Y-7240857D01*
X32076239Y-7208025D01*
X32118025Y-7166239D01*
X32150856Y-7117104D01*
X32173471Y-7062507D01*
X32185000Y-7004548D01*
X32185000Y-6579000D01*
X32110000Y-6504000D01*
X31539000Y-6504000D01*
X31231000Y-6504000D01*
X30660000Y-6504000D01*
X30585000Y-6579000D01*
X7387254Y-6579000D01*
X7412000Y-6454598D01*
X7412000Y-6245402D01*
X7371188Y-6040226D01*
X7291133Y-5846954D01*
X7174910Y-5673014D01*
X7026986Y-5525090D01*
X6853046Y-5408867D01*
X6659774Y-5328812D01*
X6454598Y-5288000D01*
X6245402Y-5288000D01*
X6040226Y-5328812D01*
X5846954Y-5408867D01*
X5673014Y-5525090D01*
X5525090Y-5673014D01*
X5408867Y-5846954D01*
X5328812Y-6040226D01*
X5288000Y-6245402D01*
X5288000Y-6454598D01*
X5328812Y-6659774D01*
X5408867Y-6853046D01*
X5525090Y-7026986D01*
X5673014Y-7174910D01*
X5846954Y-7291133D01*
X5921474Y-7322000D01*
X4973867Y-7322000D01*
X4953000Y-7319945D01*
X4932133Y-7322000D01*
X4932126Y-7322000D01*
X4869686Y-7328150D01*
X4789572Y-7352452D01*
X4763855Y-7366199D01*
X4715740Y-7391916D01*
X4651026Y-7445026D01*
X4637721Y-7461238D01*
X4286243Y-7812717D01*
X4286238Y-7812721D01*
X4197820Y-7901139D01*
X4119774Y-7868812D01*
X3914598Y-7828000D01*
X3705402Y-7828000D01*
X3500226Y-7868812D01*
X3306954Y-7948867D01*
X3133014Y-8065090D01*
X2985090Y-8213014D01*
X2868867Y-8386954D01*
X2788812Y-8580226D01*
X2748000Y-8785402D01*
X325000Y-8785402D01*
X325000Y-6245402D01*
X2748000Y-6245402D01*
X2748000Y-6454598D01*
X2788812Y-6659774D01*
X2868867Y-6853046D01*
X2985090Y-7026986D01*
X3133014Y-7174910D01*
X3306954Y-7291133D01*
X3500226Y-7371188D01*
X3705402Y-7412000D01*
X3914598Y-7412000D01*
X4119774Y-7371188D01*
X4313046Y-7291133D01*
X4486986Y-7174910D01*
X4634910Y-7026986D01*
X4751133Y-6853046D01*
X4831188Y-6659774D01*
X4872000Y-6454598D01*
X4872000Y-6245402D01*
X4831188Y-6040226D01*
X4751133Y-5846954D01*
X4634910Y-5673014D01*
X4486986Y-5525090D01*
X4313046Y-5408867D01*
X4119774Y-5328812D01*
X3914598Y-5288000D01*
X3705402Y-5288000D01*
X3500226Y-5328812D01*
X3306954Y-5408867D01*
X3133014Y-5525090D01*
X2985090Y-5673014D01*
X2868867Y-5846954D01*
X2788812Y-6040226D01*
X2748000Y-6245402D01*
X325000Y-6245402D01*
X325000Y-5023367D01*
X12252000Y-5023367D01*
X12252000Y-5136633D01*
X12274097Y-5247721D01*
X12317442Y-5352365D01*
X12380368Y-5446541D01*
X12460459Y-5526632D01*
X12554635Y-5589558D01*
X12659279Y-5632903D01*
X12770367Y-5655000D01*
X12883633Y-5655000D01*
X12994721Y-5632903D01*
X13099365Y-5589558D01*
X13193541Y-5526632D01*
X13273632Y-5446541D01*
X13336558Y-5352365D01*
X13379903Y-5247721D01*
X13402000Y-5136633D01*
X13402000Y-5023367D01*
X13379903Y-4912279D01*
X13377000Y-4905271D01*
X13377000Y-4482317D01*
X13626318Y-4233000D01*
X14238549Y-4233000D01*
X14238549Y-5433000D01*
X14244341Y-5491810D01*
X14261496Y-5548360D01*
X14289353Y-5600477D01*
X14326842Y-5646158D01*
X14372523Y-5683647D01*
X14424640Y-5711504D01*
X14481190Y-5728659D01*
X14540000Y-5734451D01*
X16140000Y-5734451D01*
X16198810Y-5728659D01*
X16255360Y-5711504D01*
X16307477Y-5683647D01*
X16353158Y-5646158D01*
X16390647Y-5600477D01*
X16418504Y-5548360D01*
X16435659Y-5491810D01*
X16441451Y-5433000D01*
X16441451Y-1933000D01*
X19118549Y-1933000D01*
X19118549Y-5433000D01*
X19124341Y-5491810D01*
X19141496Y-5548360D01*
X19169353Y-5600477D01*
X19206842Y-5646158D01*
X19252523Y-5683647D01*
X19304640Y-5711504D01*
X19361190Y-5728659D01*
X19420000Y-5734451D01*
X21020000Y-5734451D01*
X21078810Y-5728659D01*
X21135360Y-5711504D01*
X21187477Y-5683647D01*
X21233158Y-5646158D01*
X21270647Y-5600477D01*
X21298504Y-5548360D01*
X21315659Y-5491810D01*
X21321155Y-5436000D01*
X26394000Y-5436000D01*
X26394000Y-5861548D01*
X26405529Y-5919507D01*
X26428144Y-5974104D01*
X26460975Y-6023239D01*
X26502761Y-6065025D01*
X26551897Y-6097857D01*
X26606494Y-6120471D01*
X26664453Y-6132000D01*
X26965000Y-6132000D01*
X27040000Y-6057000D01*
X27040000Y-5361000D01*
X27348000Y-5361000D01*
X27348000Y-6057000D01*
X27423000Y-6132000D01*
X27723547Y-6132000D01*
X27781506Y-6120471D01*
X27836103Y-6097857D01*
X27885239Y-6065025D01*
X27927025Y-6023239D01*
X27959856Y-5974104D01*
X27982471Y-5919507D01*
X27994000Y-5861548D01*
X27994000Y-5436000D01*
X27919000Y-5361000D01*
X27348000Y-5361000D01*
X27040000Y-5361000D01*
X26469000Y-5361000D01*
X26394000Y-5436000D01*
X21321155Y-5436000D01*
X21321451Y-5433000D01*
X21321451Y-4233000D01*
X21669271Y-4233000D01*
X21676279Y-4235903D01*
X21787367Y-4258000D01*
X21900633Y-4258000D01*
X22011721Y-4235903D01*
X22018729Y-4233000D01*
X22293011Y-4233000D01*
X22302353Y-4250477D01*
X22339842Y-4296158D01*
X22385523Y-4333647D01*
X22437640Y-4361504D01*
X22494190Y-4378659D01*
X22553000Y-4384451D01*
X23453000Y-4384451D01*
X23511810Y-4378659D01*
X23568360Y-4361504D01*
X23620477Y-4333647D01*
X23666158Y-4296158D01*
X23703647Y-4250477D01*
X23731504Y-4198360D01*
X23748659Y-4141810D01*
X23754451Y-4083000D01*
X23754451Y-3283000D01*
X23748659Y-3224190D01*
X23731504Y-3167640D01*
X23703647Y-3115523D01*
X23666158Y-3069842D01*
X23620477Y-3032353D01*
X23568360Y-3004496D01*
X23511810Y-2987341D01*
X23453000Y-2981549D01*
X22553000Y-2981549D01*
X22494190Y-2987341D01*
X22437640Y-3004496D01*
X22385523Y-3032353D01*
X22339842Y-3069842D01*
X22302353Y-3115523D01*
X22293011Y-3133000D01*
X22018729Y-3133000D01*
X22011721Y-3130097D01*
X21900633Y-3108000D01*
X21787367Y-3108000D01*
X21676279Y-3130097D01*
X21669271Y-3133000D01*
X21321451Y-3133000D01*
X21321451Y-2333000D01*
X24251549Y-2333000D01*
X24251549Y-3133000D01*
X24257341Y-3191810D01*
X24274496Y-3248360D01*
X24302353Y-3300477D01*
X24339842Y-3346158D01*
X24385523Y-3383647D01*
X24437640Y-3411504D01*
X24494190Y-3428659D01*
X24553000Y-3434451D01*
X25453000Y-3434451D01*
X25511810Y-3428659D01*
X25568360Y-3411504D01*
X25620477Y-3383647D01*
X25666158Y-3346158D01*
X25703647Y-3300477D01*
X25731504Y-3248360D01*
X25740411Y-3219000D01*
X25773827Y-3219000D01*
X25795459Y-3240632D01*
X25889635Y-3303558D01*
X25994279Y-3346903D01*
X26105367Y-3369000D01*
X26218633Y-3369000D01*
X26329721Y-3346903D01*
X26434365Y-3303558D01*
X26528541Y-3240632D01*
X26594000Y-3175173D01*
X26594000Y-3471001D01*
X26460866Y-3471001D01*
X26439999Y-3468946D01*
X26419132Y-3471001D01*
X26419125Y-3471001D01*
X26364326Y-3476398D01*
X26356684Y-3477151D01*
X26332382Y-3484523D01*
X26276572Y-3501453D01*
X26202739Y-3540917D01*
X26138025Y-3594027D01*
X26124720Y-3610239D01*
X25688227Y-4046733D01*
X25666158Y-4019842D01*
X25620477Y-3982353D01*
X25568360Y-3954496D01*
X25511810Y-3937341D01*
X25453000Y-3931549D01*
X24553000Y-3931549D01*
X24494190Y-3937341D01*
X24437640Y-3954496D01*
X24385523Y-3982353D01*
X24339842Y-4019842D01*
X24302353Y-4065523D01*
X24274496Y-4117640D01*
X24257341Y-4174190D01*
X24251549Y-4233000D01*
X24251549Y-5033000D01*
X24257341Y-5091810D01*
X24274496Y-5148360D01*
X24302353Y-5200477D01*
X24339842Y-5246158D01*
X24385523Y-5283647D01*
X24437640Y-5311504D01*
X24494190Y-5328659D01*
X24553000Y-5334451D01*
X25453000Y-5334451D01*
X25511810Y-5328659D01*
X25568360Y-5311504D01*
X25620477Y-5283647D01*
X25666158Y-5246158D01*
X25703647Y-5200477D01*
X25731504Y-5148360D01*
X25748659Y-5091810D01*
X25752264Y-5055204D01*
X25786314Y-5051850D01*
X25866427Y-5027548D01*
X25940260Y-4988084D01*
X26004974Y-4934974D01*
X26018283Y-4918757D01*
X26396337Y-4540704D01*
X26394000Y-4552452D01*
X26394000Y-4978000D01*
X26469000Y-5053000D01*
X27040000Y-5053000D01*
X27040000Y-5033000D01*
X27348000Y-5033000D01*
X27348000Y-5053000D01*
X27919000Y-5053000D01*
X27994000Y-4978000D01*
X27994000Y-4552452D01*
X27982471Y-4494493D01*
X27959856Y-4439896D01*
X27927025Y-4390761D01*
X27885239Y-4348975D01*
X27843373Y-4321001D01*
X28448132Y-4321001D01*
X28468999Y-4323056D01*
X28489866Y-4321001D01*
X28489873Y-4321001D01*
X28552313Y-4314851D01*
X28564067Y-4311286D01*
X28526523Y-4331353D01*
X28480842Y-4368842D01*
X28443353Y-4414523D01*
X28415496Y-4466640D01*
X28398341Y-4523190D01*
X28392549Y-4582000D01*
X28392549Y-5832000D01*
X28398341Y-5890810D01*
X28415496Y-5947360D01*
X28443353Y-5999477D01*
X28480842Y-6045158D01*
X28526523Y-6082647D01*
X28578640Y-6110504D01*
X28635190Y-6127659D01*
X28694000Y-6133451D01*
X29694000Y-6133451D01*
X29752810Y-6127659D01*
X29809360Y-6110504D01*
X29861477Y-6082647D01*
X29907158Y-6045158D01*
X29944647Y-5999477D01*
X29972504Y-5947360D01*
X29989659Y-5890810D01*
X29995451Y-5832000D01*
X29995451Y-5632000D01*
X30598804Y-5632000D01*
X30596529Y-5637493D01*
X30585000Y-5695452D01*
X30585000Y-6121000D01*
X30660000Y-6196000D01*
X31231000Y-6196000D01*
X31231000Y-6176000D01*
X31539000Y-6176000D01*
X31539000Y-6196000D01*
X32110000Y-6196000D01*
X32185000Y-6121000D01*
X32185000Y-5695452D01*
X32173471Y-5637493D01*
X32171196Y-5632000D01*
X32599713Y-5632000D01*
X32589341Y-5666190D01*
X32583549Y-5725000D01*
X32583549Y-6975000D01*
X32589341Y-7033810D01*
X32606496Y-7090360D01*
X32634353Y-7142477D01*
X32671842Y-7188158D01*
X32717523Y-7225647D01*
X32769640Y-7253504D01*
X32826190Y-7270659D01*
X32885000Y-7276451D01*
X33885000Y-7276451D01*
X33943810Y-7270659D01*
X34000360Y-7253504D01*
X34052477Y-7225647D01*
X34098158Y-7188158D01*
X34135647Y-7142477D01*
X34163504Y-7090360D01*
X34180659Y-7033810D01*
X34186451Y-6975000D01*
X34186451Y-6835000D01*
X37398549Y-6835000D01*
X37398549Y-7060000D01*
X37404341Y-7118810D01*
X37416836Y-7160000D01*
X37404341Y-7201190D01*
X37398549Y-7260000D01*
X37398549Y-7560000D01*
X37404341Y-7618810D01*
X37416780Y-7659815D01*
X37411529Y-7672494D01*
X37400000Y-7730453D01*
X37400000Y-7760000D01*
X37475000Y-7835000D01*
X37578084Y-7835000D01*
X37584640Y-7838504D01*
X37641190Y-7855659D01*
X37700000Y-7861451D01*
X38500000Y-7861451D01*
X38558810Y-7855659D01*
X38615360Y-7838504D01*
X38621916Y-7835000D01*
X38725000Y-7835000D01*
X38800000Y-7760000D01*
X38800000Y-7730453D01*
X38788471Y-7672494D01*
X38783220Y-7659815D01*
X38795659Y-7618810D01*
X38801451Y-7560000D01*
X38801451Y-7260000D01*
X38795659Y-7201190D01*
X38783164Y-7160000D01*
X38795659Y-7118810D01*
X38801451Y-7060000D01*
X38801451Y-6760000D01*
X38795659Y-6701190D01*
X38783164Y-6660000D01*
X38795659Y-6618810D01*
X38801451Y-6560000D01*
X38801451Y-6260000D01*
X38795659Y-6201190D01*
X38783164Y-6160000D01*
X38795659Y-6118810D01*
X38801451Y-6060000D01*
X38801451Y-5760000D01*
X38795659Y-5701190D01*
X38783164Y-5660000D01*
X38795659Y-5618810D01*
X38801451Y-5560000D01*
X38801451Y-5260000D01*
X38795659Y-5201190D01*
X38783164Y-5160000D01*
X38795659Y-5118810D01*
X38801451Y-5060000D01*
X38801451Y-4760000D01*
X38795659Y-4701190D01*
X38783164Y-4660000D01*
X38795659Y-4618810D01*
X38801451Y-4560000D01*
X38801451Y-4260000D01*
X38795659Y-4201190D01*
X38778504Y-4144640D01*
X38750647Y-4092523D01*
X38713158Y-4046842D01*
X38667477Y-4009353D01*
X38615360Y-3981496D01*
X38558810Y-3964341D01*
X38500000Y-3958549D01*
X37700000Y-3958549D01*
X37641190Y-3964341D01*
X37584640Y-3981496D01*
X37532523Y-4009353D01*
X37486842Y-4046842D01*
X37449353Y-4092523D01*
X37421496Y-4144640D01*
X37404341Y-4201190D01*
X37398549Y-4260000D01*
X37398549Y-4485000D01*
X36338201Y-4485000D01*
X34488443Y-2635243D01*
X34475134Y-2619026D01*
X34410420Y-2565916D01*
X34336587Y-2526452D01*
X34256474Y-2502150D01*
X34194034Y-2496000D01*
X34194027Y-2496000D01*
X34173160Y-2493945D01*
X34152293Y-2496000D01*
X29795451Y-2496000D01*
X29795451Y-2271000D01*
X29789659Y-2212190D01*
X29772504Y-2155640D01*
X29744647Y-2103523D01*
X29707158Y-2057842D01*
X29661477Y-2020353D01*
X29609360Y-1992496D01*
X29552810Y-1975341D01*
X29494000Y-1969549D01*
X28794000Y-1969549D01*
X28735190Y-1975341D01*
X28678640Y-1992496D01*
X28626523Y-2020353D01*
X28580842Y-2057842D01*
X28543353Y-2103523D01*
X28515496Y-2155640D01*
X28498341Y-2212190D01*
X28492549Y-2271000D01*
X28492549Y-3271411D01*
X28292959Y-3471001D01*
X27894000Y-3471001D01*
X27894000Y-3150000D01*
X27819000Y-3075000D01*
X27398000Y-3075000D01*
X27398000Y-3095000D01*
X27090000Y-3095000D01*
X27090000Y-3075000D01*
X27070000Y-3075000D01*
X27070000Y-2767000D01*
X27090000Y-2767000D01*
X27090000Y-2046000D01*
X27398000Y-2046000D01*
X27398000Y-2767000D01*
X27819000Y-2767000D01*
X27894000Y-2692000D01*
X27894000Y-2241452D01*
X27882471Y-2183493D01*
X27859856Y-2128896D01*
X27827025Y-2079761D01*
X27785239Y-2037975D01*
X27736103Y-2005143D01*
X27681506Y-1982529D01*
X27623547Y-1971000D01*
X27473000Y-1971000D01*
X27398000Y-2046000D01*
X27090000Y-2046000D01*
X27015000Y-1971000D01*
X26864453Y-1971000D01*
X26806494Y-1982529D01*
X26751897Y-2005143D01*
X26702761Y-2037975D01*
X26660975Y-2079761D01*
X26628144Y-2128896D01*
X26605529Y-2183493D01*
X26594000Y-2241452D01*
X26594000Y-2412827D01*
X26528541Y-2347368D01*
X26434365Y-2284442D01*
X26329721Y-2241097D01*
X26218633Y-2219000D01*
X26105367Y-2219000D01*
X25994279Y-2241097D01*
X25889635Y-2284442D01*
X25795459Y-2347368D01*
X25773827Y-2369000D01*
X25754451Y-2369000D01*
X25754451Y-2333000D01*
X25748659Y-2274190D01*
X25731504Y-2217640D01*
X25703647Y-2165523D01*
X25666158Y-2119842D01*
X25620477Y-2082353D01*
X25568360Y-2054496D01*
X25511810Y-2037341D01*
X25453000Y-2031549D01*
X24553000Y-2031549D01*
X24494190Y-2037341D01*
X24437640Y-2054496D01*
X24385523Y-2082353D01*
X24339842Y-2119842D01*
X24302353Y-2165523D01*
X24274496Y-2217640D01*
X24257341Y-2274190D01*
X24251549Y-2333000D01*
X21321451Y-2333000D01*
X21321451Y-1933000D01*
X21315659Y-1874190D01*
X21298504Y-1817640D01*
X21270647Y-1765523D01*
X21233158Y-1719842D01*
X21187477Y-1682353D01*
X21135360Y-1654496D01*
X21078810Y-1637341D01*
X21020000Y-1631549D01*
X19420000Y-1631549D01*
X19361190Y-1637341D01*
X19304640Y-1654496D01*
X19252523Y-1682353D01*
X19206842Y-1719842D01*
X19169353Y-1765523D01*
X19141496Y-1817640D01*
X19124341Y-1874190D01*
X19118549Y-1933000D01*
X16441451Y-1933000D01*
X16435659Y-1874190D01*
X16418504Y-1817640D01*
X16390647Y-1765523D01*
X16353158Y-1719842D01*
X16307477Y-1682353D01*
X16255360Y-1654496D01*
X16198810Y-1637341D01*
X16140000Y-1631549D01*
X14540000Y-1631549D01*
X14481190Y-1637341D01*
X14424640Y-1654496D01*
X14372523Y-1682353D01*
X14326842Y-1719842D01*
X14289353Y-1765523D01*
X14261496Y-1817640D01*
X14244341Y-1874190D01*
X14238549Y-1933000D01*
X14238549Y-3133000D01*
X13425507Y-3133000D01*
X13398499Y-3130340D01*
X13371491Y-3133000D01*
X13371482Y-3133000D01*
X13290681Y-3140958D01*
X13187006Y-3172408D01*
X13150707Y-3191810D01*
X13091457Y-3223479D01*
X13028695Y-3274987D01*
X13028690Y-3274992D01*
X13007710Y-3292210D01*
X12990491Y-3313191D01*
X12457191Y-3846492D01*
X12436211Y-3863710D01*
X12418993Y-3884690D01*
X12418987Y-3884696D01*
X12367479Y-3947458D01*
X12328790Y-4019842D01*
X12316409Y-4043006D01*
X12284958Y-4146681D01*
X12277000Y-4227482D01*
X12277000Y-4227492D01*
X12274340Y-4254500D01*
X12277000Y-4281508D01*
X12277000Y-4905271D01*
X12274097Y-4912279D01*
X12252000Y-5023367D01*
X325000Y-5023367D01*
X325000Y-3705402D01*
X2748000Y-3705402D01*
X2748000Y-3914598D01*
X2788812Y-4119774D01*
X2868867Y-4313046D01*
X2985090Y-4486986D01*
X3133014Y-4634910D01*
X3306954Y-4751133D01*
X3500226Y-4831188D01*
X3705402Y-4872000D01*
X3914598Y-4872000D01*
X4119774Y-4831188D01*
X4313046Y-4751133D01*
X4486986Y-4634910D01*
X4634910Y-4486986D01*
X4751133Y-4313046D01*
X4831188Y-4119774D01*
X4872000Y-3914598D01*
X4872000Y-3705402D01*
X4831188Y-3500226D01*
X4751133Y-3306954D01*
X4634910Y-3133014D01*
X4549896Y-3048000D01*
X5286549Y-3048000D01*
X5286549Y-4572000D01*
X5292341Y-4630810D01*
X5309496Y-4687360D01*
X5337353Y-4739477D01*
X5374842Y-4785158D01*
X5420523Y-4822647D01*
X5472640Y-4850504D01*
X5529190Y-4867659D01*
X5588000Y-4873451D01*
X7112000Y-4873451D01*
X7170810Y-4867659D01*
X7227360Y-4850504D01*
X7279477Y-4822647D01*
X7325158Y-4785158D01*
X7362647Y-4739477D01*
X7390504Y-4687360D01*
X7407659Y-4630810D01*
X7413451Y-4572000D01*
X7413451Y-3048000D01*
X7407659Y-2989190D01*
X7390504Y-2932640D01*
X7362647Y-2880523D01*
X7325158Y-2834842D01*
X7279477Y-2797353D01*
X7227360Y-2769496D01*
X7170810Y-2752341D01*
X7112000Y-2746549D01*
X5588000Y-2746549D01*
X5529190Y-2752341D01*
X5472640Y-2769496D01*
X5420523Y-2797353D01*
X5374842Y-2834842D01*
X5337353Y-2880523D01*
X5309496Y-2932640D01*
X5292341Y-2989190D01*
X5286549Y-3048000D01*
X4549896Y-3048000D01*
X4486986Y-2985090D01*
X4313046Y-2868867D01*
X4119774Y-2788812D01*
X3914598Y-2748000D01*
X3705402Y-2748000D01*
X3500226Y-2788812D01*
X3306954Y-2868867D01*
X3133014Y-2985090D01*
X2985090Y-3133014D01*
X2868867Y-3306954D01*
X2788812Y-3500226D01*
X2748000Y-3705402D01*
X325000Y-3705402D01*
X325000Y-1285896D01*
X344526Y-1086753D01*
X397746Y-910481D01*
X477758Y-760000D01*
X38200000Y-760000D01*
X38200000Y-3160000D01*
X38202757Y-3188119D01*
X38205314Y-3216214D01*
X38205610Y-3217220D01*
X38205713Y-3218270D01*
X38213892Y-3245361D01*
X38221845Y-3272382D01*
X38222332Y-3273313D01*
X38222636Y-3274321D01*
X38235890Y-3299247D01*
X38248971Y-3324269D01*
X38249631Y-3325090D01*
X38250124Y-3326017D01*
X38267928Y-3347847D01*
X38285658Y-3369899D01*
X38286466Y-3370577D01*
X38287129Y-3371390D01*
X38308855Y-3389364D01*
X38330510Y-3407534D01*
X38331432Y-3408041D01*
X38332242Y-3408711D01*
X38357047Y-3422123D01*
X38381817Y-3435741D01*
X38382821Y-3436060D01*
X38383745Y-3436559D01*
X38410720Y-3444909D01*
X38437626Y-3453444D01*
X38438669Y-3453561D01*
X38439677Y-3453873D01*
X38467796Y-3456828D01*
X38495811Y-3459971D01*
X38497830Y-3459985D01*
X38497906Y-3459993D01*
X38497983Y-3459986D01*
X38500000Y-3460000D01*
X41550000Y-3460000D01*
X41578119Y-3457243D01*
X41606214Y-3454686D01*
X41607220Y-3454390D01*
X41608270Y-3454287D01*
X41635361Y-3446108D01*
X41662382Y-3438155D01*
X41663313Y-3437668D01*
X41664321Y-3437364D01*
X41689247Y-3424110D01*
X41714269Y-3411029D01*
X41715090Y-3410369D01*
X41716017Y-3409876D01*
X41737847Y-3392072D01*
X41759899Y-3374342D01*
X41760577Y-3373534D01*
X41761390Y-3372871D01*
X41779364Y-3351145D01*
X41797534Y-3329490D01*
X41798041Y-3328568D01*
X41798711Y-3327758D01*
X41812123Y-3302953D01*
X41825741Y-3278183D01*
X41826060Y-3277179D01*
X41826559Y-3276255D01*
X41834909Y-3249280D01*
X41843444Y-3222374D01*
X41843561Y-3221331D01*
X41843873Y-3220323D01*
X41846828Y-3192204D01*
X41849971Y-3164189D01*
X41849985Y-3162170D01*
X41849993Y-3162094D01*
X41849986Y-3162017D01*
X41850000Y-3160000D01*
X41850000Y-1860000D01*
X41847243Y-1831881D01*
X41844686Y-1803786D01*
X41844390Y-1802780D01*
X41844287Y-1801730D01*
X41836108Y-1774639D01*
X41828155Y-1747618D01*
X41827668Y-1746687D01*
X41827364Y-1745679D01*
X41814110Y-1720753D01*
X41801029Y-1695731D01*
X41800369Y-1694910D01*
X41799876Y-1693983D01*
X41782072Y-1672153D01*
X41764342Y-1650101D01*
X41763534Y-1649423D01*
X41762871Y-1648610D01*
X41741145Y-1630636D01*
X41719490Y-1612466D01*
X41718568Y-1611959D01*
X41717758Y-1611289D01*
X41692953Y-1597877D01*
X41668183Y-1584259D01*
X41667179Y-1583940D01*
X41666255Y-1583441D01*
X41639280Y-1575091D01*
X41612374Y-1566556D01*
X41611331Y-1566439D01*
X41610323Y-1566127D01*
X41582204Y-1563172D01*
X41554189Y-1560029D01*
X41552170Y-1560015D01*
X41552094Y-1560007D01*
X41552017Y-1560014D01*
X41550000Y-1560000D01*
X41000000Y-1560000D01*
X41000000Y-760000D01*
X40997243Y-731881D01*
X40994686Y-703786D01*
X40994390Y-702780D01*
X40994287Y-701730D01*
X40986108Y-674639D01*
X40978155Y-647618D01*
X40977668Y-646687D01*
X40977364Y-645679D01*
X40964110Y-620753D01*
X40951029Y-595731D01*
X40950369Y-594910D01*
X40949876Y-593983D01*
X40932072Y-572153D01*
X40914342Y-550101D01*
X40913534Y-549423D01*
X40912871Y-548610D01*
X40891145Y-530636D01*
X40869490Y-512466D01*
X40868568Y-511959D01*
X40867758Y-511289D01*
X40842953Y-497877D01*
X40818183Y-484259D01*
X40817179Y-483940D01*
X40816255Y-483441D01*
X40789280Y-475091D01*
X40762374Y-466556D01*
X40761331Y-466439D01*
X40760323Y-466127D01*
X40732204Y-463172D01*
X40704189Y-460029D01*
X40702170Y-460015D01*
X40702094Y-460007D01*
X40702017Y-460014D01*
X40700000Y-460000D01*
X38500000Y-460000D01*
X38471881Y-462757D01*
X38443786Y-465314D01*
X38442780Y-465610D01*
X38441730Y-465713D01*
X38414639Y-473892D01*
X38387618Y-481845D01*
X38386687Y-482332D01*
X38385679Y-482636D01*
X38360753Y-495890D01*
X38335731Y-508971D01*
X38334910Y-509631D01*
X38333983Y-510124D01*
X38312153Y-527928D01*
X38290101Y-545658D01*
X38289423Y-546466D01*
X38288610Y-547129D01*
X38270636Y-568855D01*
X38252466Y-590510D01*
X38251959Y-591432D01*
X38251289Y-592242D01*
X38237877Y-617047D01*
X38224259Y-641817D01*
X38223940Y-642821D01*
X38223441Y-643745D01*
X38215091Y-670720D01*
X38206556Y-697626D01*
X38206439Y-698669D01*
X38206127Y-699677D01*
X38203172Y-727796D01*
X38200029Y-755811D01*
X38200015Y-757830D01*
X38200007Y-757906D01*
X38200014Y-757983D01*
X38200000Y-760000D01*
X477758Y-760000D01*
X484187Y-747909D01*
X600564Y-605216D01*
X742436Y-487850D01*
X904401Y-400276D01*
X1080292Y-345828D01*
X1278464Y-325000D01*
X44434104Y-325000D01*
X44633247Y-344526D01*
G36*
X7676697Y-8214279D02*
G01*
X7654600Y-8325367D01*
X7654600Y-8438633D01*
X7676697Y-8549721D01*
X7720042Y-8654365D01*
X7782968Y-8748541D01*
X7863059Y-8828632D01*
X7957235Y-8891558D01*
X8061879Y-8934903D01*
X8172967Y-8957000D01*
X8286233Y-8957000D01*
X8397321Y-8934903D01*
X8501965Y-8891558D01*
X8596141Y-8828632D01*
X8617773Y-8807000D01*
X8746403Y-8807000D01*
X8767270Y-8809055D01*
X8788137Y-8807000D01*
X8788144Y-8807000D01*
X8850584Y-8800850D01*
X8930697Y-8776548D01*
X9004530Y-8737084D01*
X9069244Y-8683974D01*
X9082554Y-8667756D01*
X9128299Y-8622011D01*
X10068664Y-8622011D01*
X9412875Y-9277800D01*
X8758466Y-9277800D01*
X8737599Y-9275745D01*
X8716732Y-9277800D01*
X8716726Y-9277800D01*
X8662698Y-9283121D01*
X8654285Y-9283950D01*
X8629983Y-9291322D01*
X8574173Y-9308252D01*
X8500340Y-9347716D01*
X8435626Y-9400826D01*
X8422321Y-9417038D01*
X8104360Y-9735000D01*
X6996919Y-9735000D01*
X7026986Y-9714910D01*
X7174910Y-9566986D01*
X7291133Y-9393046D01*
X7371188Y-9199774D01*
X7412000Y-8994598D01*
X7412000Y-8785402D01*
X7371188Y-8580226D01*
X7291133Y-8386954D01*
X7174910Y-8213014D01*
X7133896Y-8172000D01*
X7694210Y-8172000D01*
X7676697Y-8214279D01*
X7676697Y-8214279D01*
G37*
X7676697Y-8214279D02*
X7654600Y-8325367D01*
X7654600Y-8438633D01*
X7676697Y-8549721D01*
X7720042Y-8654365D01*
X7782968Y-8748541D01*
X7863059Y-8828632D01*
X7957235Y-8891558D01*
X8061879Y-8934903D01*
X8172967Y-8957000D01*
X8286233Y-8957000D01*
X8397321Y-8934903D01*
X8501965Y-8891558D01*
X8596141Y-8828632D01*
X8617773Y-8807000D01*
X8746403Y-8807000D01*
X8767270Y-8809055D01*
X8788137Y-8807000D01*
X8788144Y-8807000D01*
X8850584Y-8800850D01*
X8930697Y-8776548D01*
X9004530Y-8737084D01*
X9069244Y-8683974D01*
X9082554Y-8667756D01*
X9128299Y-8622011D01*
X10068664Y-8622011D01*
X9412875Y-9277800D01*
X8758466Y-9277800D01*
X8737599Y-9275745D01*
X8716732Y-9277800D01*
X8716726Y-9277800D01*
X8662698Y-9283121D01*
X8654285Y-9283950D01*
X8629983Y-9291322D01*
X8574173Y-9308252D01*
X8500340Y-9347716D01*
X8435626Y-9400826D01*
X8422321Y-9417038D01*
X8104360Y-9735000D01*
X6996919Y-9735000D01*
X7026986Y-9714910D01*
X7174910Y-9566986D01*
X7291133Y-9393046D01*
X7371188Y-9199774D01*
X7412000Y-8994598D01*
X7412000Y-8785402D01*
X7371188Y-8580226D01*
X7291133Y-8386954D01*
X7174910Y-8213014D01*
X7133896Y-8172000D01*
X7694210Y-8172000D01*
X7676697Y-8214279D01*
G36*
X30785000Y-3384452D02*
G01*
X30785000Y-3835000D01*
X30860000Y-3910000D01*
X31281000Y-3910000D01*
X31281000Y-3890000D01*
X31589000Y-3890000D01*
X31589000Y-3910000D01*
X32010000Y-3910000D01*
X32085000Y-3835000D01*
X32085000Y-3384452D01*
X32077351Y-3346000D01*
X32692129Y-3346000D01*
X32689341Y-3355190D01*
X32683549Y-3414000D01*
X32683549Y-4714000D01*
X32689341Y-4772810D01*
X32692129Y-4782000D01*
X32077351Y-4782000D01*
X32085000Y-4743548D01*
X32085000Y-4293000D01*
X32010000Y-4218000D01*
X31589000Y-4218000D01*
X31589000Y-4238000D01*
X31281000Y-4238000D01*
X31281000Y-4218000D01*
X30860000Y-4218000D01*
X30785000Y-4293000D01*
X30785000Y-4743548D01*
X30792649Y-4782000D01*
X29995451Y-4782000D01*
X29995451Y-4582000D01*
X29989659Y-4523190D01*
X29972504Y-4466640D01*
X29944647Y-4414523D01*
X29907158Y-4368842D01*
X29861477Y-4331353D01*
X29809360Y-4303496D01*
X29752810Y-4286341D01*
X29694000Y-4280549D01*
X28694000Y-4280549D01*
X28641453Y-4285724D01*
X28706259Y-4251085D01*
X28770973Y-4197975D01*
X28784283Y-4181757D01*
X29093589Y-3872451D01*
X29494000Y-3872451D01*
X29552810Y-3866659D01*
X29609360Y-3849504D01*
X29661477Y-3821647D01*
X29707158Y-3784158D01*
X29744647Y-3738477D01*
X29772504Y-3686360D01*
X29789659Y-3629810D01*
X29795451Y-3571000D01*
X29795451Y-3346000D01*
X30792649Y-3346000D01*
X30785000Y-3384452D01*
X30785000Y-3384452D01*
G37*
X30785000Y-3384452D02*
X30785000Y-3835000D01*
X30860000Y-3910000D01*
X31281000Y-3910000D01*
X31281000Y-3890000D01*
X31589000Y-3890000D01*
X31589000Y-3910000D01*
X32010000Y-3910000D01*
X32085000Y-3835000D01*
X32085000Y-3384452D01*
X32077351Y-3346000D01*
X32692129Y-3346000D01*
X32689341Y-3355190D01*
X32683549Y-3414000D01*
X32683549Y-4714000D01*
X32689341Y-4772810D01*
X32692129Y-4782000D01*
X32077351Y-4782000D01*
X32085000Y-4743548D01*
X32085000Y-4293000D01*
X32010000Y-4218000D01*
X31589000Y-4218000D01*
X31589000Y-4238000D01*
X31281000Y-4238000D01*
X31281000Y-4218000D01*
X30860000Y-4218000D01*
X30785000Y-4293000D01*
X30785000Y-4743548D01*
X30792649Y-4782000D01*
X29995451Y-4782000D01*
X29995451Y-4582000D01*
X29989659Y-4523190D01*
X29972504Y-4466640D01*
X29944647Y-4414523D01*
X29907158Y-4368842D01*
X29861477Y-4331353D01*
X29809360Y-4303496D01*
X29752810Y-4286341D01*
X29694000Y-4280549D01*
X28694000Y-4280549D01*
X28641453Y-4285724D01*
X28706259Y-4251085D01*
X28770973Y-4197975D01*
X28784283Y-4181757D01*
X29093589Y-3872451D01*
X29494000Y-3872451D01*
X29552810Y-3866659D01*
X29609360Y-3849504D01*
X29661477Y-3821647D01*
X29707158Y-3784158D01*
X29744647Y-3738477D01*
X29772504Y-3686360D01*
X29789659Y-3629810D01*
X29795451Y-3571000D01*
X29795451Y-3346000D01*
X30792649Y-3346000D01*
X30785000Y-3384452D01*
M02*
