G04 #@! TF.GenerationSoftware,KiCad,Pcbnew,(5.99.0-8084-g866e5df16a)*
G04 #@! TF.CreationDate,2021-01-03T17:36:52+01:00*
G04 #@! TF.ProjectId,e-ink_pmod,652d696e-6b5f-4706-9d6f-642e6b696361,1.1*
G04 #@! TF.SameCoordinates,PX525bfc0PY429d390*
G04 #@! TF.FileFunction,Copper,L1,Top*
G04 #@! TF.FilePolarity,Positive*
%FSLAX46Y46*%
G04 Gerber Fmt 4.6, Leading zero omitted, Abs format (unit mm)*
G04 Created by KiCad (PCBNEW (5.99.0-8084-g866e5df16a)) date 2021-01-03 17:36:52*
%MOMM*%
%LPD*%
G01*
G04 APERTURE LIST*
G04 Aperture macros list*
%AMRoundRect*
0 Rectangle with rounded corners*
0 $1 Rounding radius*
0 $2 $3 $4 $5 $6 $7 $8 $9 X,Y pos of 4 corners*
0 Add a 4 corners polygon primitive as box body*
4,1,4,$2,$3,$4,$5,$6,$7,$8,$9,$2,$3,0*
0 Add four circle primitives for the rounded corners*
1,1,$1+$1,$2,$3,0*
1,1,$1+$1,$4,$5,0*
1,1,$1+$1,$6,$7,0*
1,1,$1+$1,$8,$9,0*
0 Add four rect primitives between the rounded corners*
20,1,$1+$1,$2,$3,$4,$5,0*
20,1,$1+$1,$4,$5,$6,$7,0*
20,1,$1+$1,$6,$7,$8,$9,0*
20,1,$1+$1,$8,$9,$2,$3,0*%
G04 Aperture macros list end*
G04 #@! TA.AperFunction,SMDPad,CuDef*
%ADD10RoundRect,0.250000X0.250000X0.475000X-0.250000X0.475000X-0.250000X-0.475000X0.250000X-0.475000X0*%
G04 #@! TD*
G04 #@! TA.AperFunction,SMDPad,CuDef*
%ADD11RoundRect,0.250000X-0.250000X-0.475000X0.250000X-0.475000X0.250000X0.475000X-0.250000X0.475000X0*%
G04 #@! TD*
G04 #@! TA.AperFunction,SMDPad,CuDef*
%ADD12R,0.900000X1.200000*%
G04 #@! TD*
G04 #@! TA.AperFunction,SMDPad,CuDef*
%ADD13R,1.200000X0.900000*%
G04 #@! TD*
G04 #@! TA.AperFunction,SMDPad,CuDef*
%ADD14RoundRect,0.250000X0.312500X1.450000X-0.312500X1.450000X-0.312500X-1.450000X0.312500X-1.450000X0*%
G04 #@! TD*
G04 #@! TA.AperFunction,SMDPad,CuDef*
%ADD15RoundRect,0.250000X0.262500X0.450000X-0.262500X0.450000X-0.262500X-0.450000X0.262500X-0.450000X0*%
G04 #@! TD*
G04 #@! TA.AperFunction,SMDPad,CuDef*
%ADD16R,0.800000X0.300000*%
G04 #@! TD*
G04 #@! TA.AperFunction,ComponentPad*
%ADD17C,1.524000*%
G04 #@! TD*
G04 #@! TA.AperFunction,ComponentPad*
%ADD18R,1.524000X1.524000*%
G04 #@! TD*
G04 #@! TA.AperFunction,SMDPad,CuDef*
%ADD19RoundRect,0.150000X0.587500X0.150000X-0.587500X0.150000X-0.587500X-0.150000X0.587500X-0.150000X0*%
G04 #@! TD*
G04 #@! TA.AperFunction,SMDPad,CuDef*
%ADD20RoundRect,0.150000X-0.825000X-0.150000X0.825000X-0.150000X0.825000X0.150000X-0.825000X0.150000X0*%
G04 #@! TD*
G04 #@! TA.AperFunction,ViaPad*
%ADD21C,0.550000*%
G04 #@! TD*
G04 #@! TA.AperFunction,Conductor*
%ADD22C,0.500000*%
G04 #@! TD*
G04 #@! TA.AperFunction,Conductor*
%ADD23C,0.250000*%
G04 #@! TD*
G04 APERTURE END LIST*
G36*
X41550000Y-18460000D02*
G01*
X40700000Y-18460000D01*
X40700000Y-19560000D01*
X38500000Y-19560000D01*
X38500000Y-17160000D01*
X41550000Y-17160000D01*
X41550000Y-18460000D01*
G37*
G36*
X40700000Y-1860000D02*
G01*
X41550000Y-1860000D01*
X41550000Y-3160000D01*
X38500000Y-3160000D01*
X38500000Y-760000D01*
X40700000Y-760000D01*
X40700000Y-1860000D01*
G37*
G36*
X40700000Y-1860000D02*
G01*
X41550000Y-1860000D01*
X41550000Y-3160000D01*
X38500000Y-3160000D01*
X38500000Y-760000D01*
X40700000Y-760000D01*
X40700000Y-1860000D01*
G37*
G36*
X41550000Y-18460000D02*
G01*
X40700000Y-18460000D01*
X40700000Y-19560000D01*
X38500000Y-19560000D01*
X38500000Y-17160000D01*
X41550000Y-17160000D01*
X41550000Y-18460000D01*
G37*
D10*
X29144000Y-5207000D03*
X27244000Y-5207000D03*
X33335000Y-6350000D03*
X31435000Y-6350000D03*
X29144000Y-13716000D03*
X27244000Y-13716000D03*
X29144000Y-16002000D03*
X27244000Y-16002000D03*
X29144000Y-18288000D03*
X27244000Y-18288000D03*
D11*
X31435000Y-16002000D03*
X33335000Y-16002000D03*
X31435000Y-18288000D03*
X33335000Y-18288000D03*
X18862000Y-11300000D03*
X20762000Y-11300000D03*
D10*
X29144000Y-11430000D03*
X27244000Y-11430000D03*
D12*
X18162000Y-16637000D03*
X21462000Y-16637000D03*
X21462000Y-13970000D03*
X18162000Y-13970000D03*
D13*
X24130000Y-14731000D03*
X24130000Y-11431000D03*
D14*
X19917500Y-3683000D03*
X15642500Y-3683000D03*
D15*
X29106500Y-2921000D03*
X27281500Y-2921000D03*
X33297500Y-4064000D03*
X31472500Y-4064000D03*
D16*
X38100000Y-4410000D03*
X38100000Y-4910000D03*
X38100000Y-5410000D03*
X38100000Y-5910000D03*
X38100000Y-6410000D03*
X38100000Y-6910000D03*
X38100000Y-7410000D03*
X38100000Y-7910000D03*
X38100000Y-8410000D03*
X38100000Y-8910000D03*
X38100000Y-9410000D03*
X38100000Y-9910000D03*
X38100000Y-10410000D03*
X38100000Y-10910000D03*
X38100000Y-11410000D03*
X38100000Y-11910000D03*
X38100000Y-12410000D03*
X38100000Y-12910000D03*
X38100000Y-13410000D03*
X38100000Y-13910000D03*
X38100000Y-14410000D03*
X38100000Y-14910000D03*
X38100000Y-15410000D03*
X38100000Y-15910000D03*
D17*
X3810000Y-3810000D03*
D18*
X6350000Y-3810000D03*
D17*
X3810000Y-6350000D03*
X6350000Y-6350000D03*
X3810000Y-8890000D03*
X6350000Y-8890000D03*
X3810000Y-11430000D03*
X6350000Y-11430000D03*
X3810000Y-13970000D03*
X6350000Y-13970000D03*
X3810000Y-16510000D03*
X6350000Y-16510000D03*
D19*
X24940500Y-4633000D03*
X24940500Y-2733000D03*
X23065500Y-3683000D03*
D10*
X33335000Y-13716000D03*
X31435000Y-13716000D03*
X33335000Y-11430000D03*
X31435000Y-11430000D03*
D11*
X14830000Y-11310000D03*
X16730000Y-11310000D03*
D20*
X10115000Y-13205000D03*
X10115000Y-14475000D03*
X10115000Y-15745000D03*
X10115000Y-17015000D03*
X15065000Y-17015000D03*
X15065000Y-15745000D03*
X15065000Y-14475000D03*
X15065000Y-13205000D03*
D21*
X25429184Y-18395009D03*
X36830000Y-1905000D03*
X30292040Y-18496280D03*
X13398500Y-13589000D03*
X30292040Y-12573000D03*
X26860500Y-6921500D03*
X29972000Y-6604000D03*
X22590000Y-14790000D03*
X30353000Y-4064000D03*
X25740000Y-10820000D03*
X26416000Y-1651000D03*
X7975600Y-9296400D03*
X20828000Y-6921500D03*
X36195000Y-12268200D03*
X36830000Y-18923000D03*
X36830000Y-4000500D03*
X10160000Y-4826000D03*
X36647120Y-7396480D03*
X17160000Y-14820000D03*
X30276800Y-15570200D03*
X34645600Y-12613640D03*
X24130000Y-16002000D03*
X35051988Y-14859000D03*
X23241000Y-17145000D03*
X34925000Y-17145000D03*
X21844000Y-3683000D03*
X22479000Y-11468990D03*
X13704000Y-12446000D03*
X30297989Y-11485011D03*
X12827000Y-5080000D03*
X37160200Y-11633200D03*
X26162000Y-2794000D03*
X34290000Y-4064000D03*
X11300000Y-12060000D03*
X9670000Y-11220000D03*
X10795000Y-9525000D03*
X8229600Y-8382000D03*
X8450000Y-14440000D03*
D22*
X34036000Y-15874988D02*
X33512012Y-15874988D01*
D23*
X35500988Y-14410000D02*
X35451987Y-14459001D01*
X38100000Y-14410000D02*
X35500988Y-14410000D01*
D22*
X35051988Y-14859000D02*
X34036000Y-15874988D01*
D23*
X35451987Y-14459001D02*
X35051988Y-14859000D01*
D22*
X24130000Y-16002000D02*
X24130000Y-14731000D01*
X33512012Y-15874988D02*
X33385000Y-16002000D01*
X33782000Y-18288000D02*
X34925000Y-17145000D01*
X22733000Y-16637000D02*
X23241000Y-17145000D01*
D23*
X38100000Y-15410000D02*
X36660000Y-15410000D01*
X36660000Y-15410000D02*
X34925000Y-17145000D01*
D22*
X21462000Y-16637000D02*
X22733000Y-16637000D01*
X33385000Y-18288000D02*
X33782000Y-18288000D01*
X18162000Y-13970000D02*
X18162000Y-12207000D01*
X18162000Y-16637000D02*
X18162000Y-13970000D01*
X18162000Y-12207000D02*
X18812000Y-11557000D01*
X24130000Y-11431000D02*
X22516990Y-11431000D01*
X20889000Y-11480000D02*
X22467990Y-11480000D01*
X22516990Y-11431000D02*
X22479000Y-11468990D01*
X20812000Y-11557000D02*
X20889000Y-11480000D01*
X23003000Y-3683000D02*
X21844000Y-3683000D01*
X22467990Y-11480000D02*
X22479000Y-11468990D01*
X20220000Y-3683000D02*
X21844000Y-3683000D01*
D23*
X14764000Y-12446000D02*
X13704000Y-12446000D01*
X14820000Y-12390000D02*
X14764000Y-12446000D01*
X16515000Y-14475000D02*
X15065000Y-14475000D01*
X14820000Y-12390000D02*
X14820000Y-11490000D01*
X15065000Y-13205000D02*
X15065000Y-12635000D01*
X16680000Y-13450000D02*
X16680000Y-14310000D01*
D22*
X29249011Y-11485011D02*
X29194000Y-11430000D01*
D23*
X15065000Y-12635000D02*
X14820000Y-12390000D01*
X29214000Y-11410000D02*
X29194000Y-11430000D01*
D22*
X29194000Y-11430000D02*
X29194000Y-11555000D01*
D23*
X16680000Y-14310000D02*
X16515000Y-14475000D01*
D22*
X13398500Y-3683000D02*
X15340000Y-3683000D01*
D23*
X16435000Y-13205000D02*
X16680000Y-13450000D01*
D22*
X12827000Y-5080000D02*
X12827000Y-4254500D01*
X12827000Y-4254500D02*
X13398500Y-3683000D01*
D23*
X37160200Y-11633200D02*
X37437000Y-11910000D01*
X15065000Y-13205000D02*
X16435000Y-13205000D01*
X37383400Y-11410000D02*
X37160200Y-11633200D01*
X37437000Y-11910000D02*
X38100000Y-11910000D01*
X38100000Y-11410000D02*
X37383400Y-11410000D01*
D22*
X30297989Y-11485011D02*
X29249011Y-11485011D01*
D23*
X25064000Y-2794000D02*
X25003000Y-2733000D01*
X26162000Y-2794000D02*
X25064000Y-2794000D01*
X38100000Y-5410000D02*
X35641080Y-5410000D01*
X35641080Y-5410000D02*
X34295080Y-4064000D01*
X34290000Y-4064000D02*
X33335000Y-4064000D01*
X34295080Y-4064000D02*
X34290000Y-4064000D01*
X28315000Y-4050000D02*
X29144000Y-3221000D01*
X29144000Y-2921000D02*
X34173160Y-2921000D01*
X34173160Y-2921000D02*
X36162160Y-4910000D01*
X25003000Y-4633000D02*
X25703000Y-4633000D01*
X26286000Y-4050000D02*
X28315000Y-4050000D01*
X29144000Y-3221000D02*
X29144000Y-2921000D01*
X25703000Y-4633000D02*
X26286000Y-4050000D01*
X36162160Y-4910000D02*
X38100000Y-4910000D01*
X34937120Y-5910000D02*
X34234120Y-5207000D01*
X34234120Y-5207000D02*
X29194000Y-5207000D01*
X38100000Y-5910000D02*
X34937120Y-5910000D01*
X38100000Y-6410000D02*
X33445000Y-6410000D01*
X33445000Y-6410000D02*
X33385000Y-6350000D01*
X38100000Y-12910000D02*
X35897000Y-12910000D01*
X35897000Y-12910000D02*
X34417000Y-11430000D01*
X34417000Y-11430000D02*
X33385000Y-11430000D01*
X38100000Y-13910000D02*
X34901002Y-13910000D01*
X34901002Y-13910000D02*
X33952002Y-14859000D01*
X29194000Y-13841000D02*
X29194000Y-13716000D01*
X30212000Y-14859000D02*
X29194000Y-13841000D01*
X33952002Y-14859000D02*
X30212000Y-14859000D01*
X34579560Y-16220440D02*
X34210001Y-16589999D01*
X34960560Y-16220440D02*
X34579560Y-16220440D01*
X34210001Y-16589999D02*
X34210001Y-16887001D01*
X34210001Y-16887001D02*
X33946922Y-17150080D01*
X36271000Y-14910000D02*
X34960560Y-16220440D01*
X30217080Y-17150080D02*
X29194000Y-16127000D01*
X33946922Y-17150080D02*
X30217080Y-17150080D01*
X38100000Y-14910000D02*
X36271000Y-14910000D01*
X29194000Y-16127000D02*
X29194000Y-16002000D01*
X29585920Y-19512280D02*
X29194000Y-19120360D01*
X38100000Y-15910000D02*
X37374120Y-15910000D01*
X29194000Y-19120360D02*
X29194000Y-18288000D01*
X37374120Y-15910000D02*
X33771840Y-19512280D01*
X33771840Y-19512280D02*
X29585920Y-19512280D01*
X3150000Y-12700000D02*
X2550000Y-12100000D01*
X10115000Y-13205000D02*
X8545000Y-13205000D01*
X2550000Y-5070000D02*
X3810000Y-3810000D01*
X2550000Y-12100000D02*
X2550000Y-5070000D01*
X8545000Y-13205000D02*
X8040000Y-12700000D01*
X8040000Y-12700000D02*
X3150000Y-12700000D01*
X35363146Y-10910000D02*
X34486146Y-10033000D01*
X9910011Y-10979989D02*
X9670000Y-11220000D01*
X38100000Y-10910000D02*
X35363146Y-10910000D01*
X15065000Y-17015000D02*
X13335000Y-17015000D01*
X11880000Y-15560000D02*
X11880000Y-12640000D01*
X34486146Y-10033000D02*
X12118622Y-10033000D01*
X13335000Y-17015000D02*
X11880000Y-15560000D01*
X11171633Y-10979989D02*
X9910011Y-10979989D01*
X12118622Y-10033000D02*
X11171633Y-10979989D01*
X11880000Y-12640000D02*
X11300000Y-12060000D01*
X11753799Y-9125001D02*
X11353800Y-9525000D01*
X35635968Y-9910000D02*
X34850969Y-9125001D01*
X34850969Y-9125001D02*
X11753799Y-9125001D01*
X38100000Y-9910000D02*
X35635968Y-9910000D01*
X11353800Y-9525000D02*
X10795000Y-9525000D01*
X10644693Y-8647022D02*
X9588915Y-9702800D01*
X35009401Y-8647022D02*
X10644693Y-8647022D01*
X8280400Y-10160000D02*
X5080000Y-10160000D01*
X8737600Y-9702800D02*
X8280400Y-10160000D01*
X9588915Y-9702800D02*
X8737600Y-9702800D01*
X38100000Y-9410000D02*
X35772379Y-9410000D01*
X5080000Y-10160000D02*
X4571999Y-10668001D01*
X35772379Y-9410000D02*
X35009401Y-8647022D01*
X4571999Y-10668001D02*
X3810000Y-11430000D01*
X35195801Y-8197011D02*
X8952259Y-8197011D01*
X35908790Y-8910000D02*
X35195801Y-8197011D01*
X8767270Y-8382000D02*
X8229600Y-8382000D01*
X38100000Y-8910000D02*
X35908790Y-8910000D01*
X8952259Y-8197011D02*
X8767270Y-8382000D01*
X38100000Y-8410000D02*
X36045200Y-8410000D01*
X36045200Y-8410000D02*
X35382200Y-7747000D01*
X4571999Y-8128001D02*
X3810000Y-8890000D01*
X35382200Y-7747000D02*
X4953000Y-7747000D01*
X4953000Y-7747000D02*
X4571999Y-8128001D01*
X38100000Y-13410000D02*
X33691000Y-13410000D01*
X33691000Y-13410000D02*
X33385000Y-13716000D01*
X8485000Y-14475000D02*
X8450000Y-14440000D01*
X10115000Y-14475000D02*
X8485000Y-14475000D01*
X38100000Y-10410000D02*
X35499557Y-10410000D01*
X7646810Y-11430000D02*
X7427630Y-11430000D01*
X10320001Y-11458001D02*
X9958001Y-11820001D01*
X9958001Y-11820001D02*
X8036811Y-11820001D01*
X12330011Y-13985011D02*
X12330011Y-12202009D01*
X15065000Y-15745000D02*
X14090000Y-15745000D01*
X12330011Y-12202009D02*
X11586003Y-11458001D01*
X11362399Y-10152811D02*
X8923999Y-10152811D01*
X11932221Y-9582989D02*
X11362399Y-10152811D01*
X8923999Y-10152811D02*
X7646810Y-11430000D01*
X8036811Y-11820001D02*
X7646810Y-11430000D01*
X14090000Y-15745000D02*
X12330011Y-13985011D01*
X7427630Y-11430000D02*
X6350000Y-11430000D01*
X11586003Y-11458001D02*
X10320001Y-11458001D01*
X34672546Y-9582989D02*
X11932221Y-9582989D01*
X35499557Y-10410000D02*
X34672546Y-9582989D01*
G04 #@! TA.AperFunction,Conductor*
G36*
X44412587Y-202372D02*
G01*
X44412588Y-202368D01*
X44413004Y-202424D01*
X44417702Y-203008D01*
X44423566Y-204487D01*
X44511247Y-206339D01*
X44517780Y-206694D01*
X44527000Y-207501D01*
X44556173Y-210053D01*
X44564735Y-211180D01*
X44704319Y-235792D01*
X44712751Y-237661D01*
X44738618Y-244592D01*
X44746855Y-247189D01*
X44880044Y-295666D01*
X44888021Y-298970D01*
X44896872Y-303097D01*
X44912314Y-310298D01*
X44919956Y-314276D01*
X45042705Y-385147D01*
X45049974Y-389777D01*
X45071943Y-405160D01*
X45078778Y-410406D01*
X45088396Y-418476D01*
X45187338Y-501498D01*
X45193706Y-507332D01*
X45212666Y-526292D01*
X45218501Y-532660D01*
X45299762Y-629503D01*
X45309589Y-641215D01*
X45314846Y-648067D01*
X45330221Y-670025D01*
X45334861Y-677309D01*
X45405723Y-800045D01*
X45409708Y-807697D01*
X45421034Y-831986D01*
X45424333Y-839952D01*
X45472811Y-973147D01*
X45475408Y-981384D01*
X45482339Y-1007252D01*
X45484208Y-1015682D01*
X45508819Y-1155255D01*
X45509946Y-1163818D01*
X45513307Y-1202230D01*
X45513662Y-1208767D01*
X45515509Y-1296242D01*
X45517035Y-1302334D01*
X45520000Y-1326381D01*
X45520000Y-18993486D01*
X45517628Y-19012586D01*
X45517632Y-19012587D01*
X45517577Y-19012991D01*
X45516992Y-19017702D01*
X45515513Y-19023566D01*
X45514902Y-19052508D01*
X45513662Y-19111230D01*
X45513307Y-19117769D01*
X45509946Y-19156184D01*
X45508819Y-19164745D01*
X45500536Y-19211725D01*
X45486408Y-19291852D01*
X45484211Y-19304310D01*
X45482341Y-19312745D01*
X45475404Y-19338632D01*
X45472807Y-19346868D01*
X45424335Y-19480041D01*
X45421032Y-19488017D01*
X45409702Y-19512314D01*
X45405719Y-19519964D01*
X45334864Y-19642688D01*
X45330224Y-19649972D01*
X45314851Y-19671927D01*
X45309594Y-19678779D01*
X45218502Y-19787339D01*
X45212667Y-19793707D01*
X45193706Y-19812668D01*
X45187338Y-19818502D01*
X45078793Y-19909582D01*
X45071943Y-19914838D01*
X45049978Y-19930219D01*
X45042692Y-19934861D01*
X44919959Y-20005721D01*
X44912296Y-20009710D01*
X44888023Y-20021028D01*
X44880046Y-20024332D01*
X44746852Y-20072811D01*
X44738614Y-20075409D01*
X44712753Y-20082338D01*
X44704323Y-20084207D01*
X44564745Y-20108819D01*
X44556182Y-20109946D01*
X44517770Y-20113307D01*
X44511233Y-20113662D01*
X44423758Y-20115509D01*
X44417666Y-20117035D01*
X44393619Y-20120000D01*
X1326514Y-20120000D01*
X1307414Y-20117628D01*
X1307413Y-20117632D01*
X1307009Y-20117577D01*
X1302298Y-20116992D01*
X1296434Y-20115513D01*
X1208768Y-20113662D01*
X1202231Y-20113307D01*
X1163816Y-20109946D01*
X1155255Y-20108819D01*
X1063388Y-20092621D01*
X1015685Y-20084210D01*
X1007260Y-20082342D01*
X998214Y-20079918D01*
X981368Y-20075404D01*
X973132Y-20072807D01*
X839959Y-20024335D01*
X831983Y-20021032D01*
X826080Y-20018280D01*
X807686Y-20009702D01*
X800036Y-20005719D01*
X677312Y-19934864D01*
X670028Y-19930224D01*
X648073Y-19914851D01*
X641221Y-19909594D01*
X532661Y-19818502D01*
X526293Y-19812667D01*
X507332Y-19793706D01*
X501498Y-19787338D01*
X410418Y-19678793D01*
X405162Y-19671943D01*
X389781Y-19649978D01*
X385139Y-19642692D01*
X314279Y-19519959D01*
X310290Y-19512296D01*
X298972Y-19488023D01*
X295668Y-19480046D01*
X247189Y-19346852D01*
X244591Y-19338613D01*
X237662Y-19312751D01*
X235793Y-19304322D01*
X211181Y-19164745D01*
X210054Y-19156182D01*
X206693Y-19117770D01*
X206338Y-19111231D01*
X205098Y-19052508D01*
X204491Y-19023758D01*
X202965Y-19017666D01*
X200000Y-18993619D01*
X200000Y-18550242D01*
X26544000Y-18550242D01*
X26544000Y-18792557D01*
X26544550Y-18799913D01*
X26558014Y-18889470D01*
X26562317Y-18903458D01*
X26614476Y-19012078D01*
X26622698Y-19024178D01*
X26704494Y-19112664D01*
X26715913Y-19121811D01*
X26820102Y-19182330D01*
X26833714Y-19187719D01*
X26937280Y-19211725D01*
X26948429Y-19213000D01*
X26974320Y-19213000D01*
X26987005Y-19208878D01*
X26990000Y-19204757D01*
X26990000Y-19197320D01*
X27497999Y-19197320D01*
X27502121Y-19210005D01*
X27506242Y-19213000D01*
X27523557Y-19213000D01*
X27530913Y-19212450D01*
X27620470Y-19198986D01*
X27634458Y-19194683D01*
X27743078Y-19142524D01*
X27755178Y-19134302D01*
X27843661Y-19052508D01*
X27852813Y-19041085D01*
X27913329Y-18936899D01*
X27918719Y-18923283D01*
X27942724Y-18819720D01*
X27943999Y-18808571D01*
X27943999Y-18557680D01*
X27939877Y-18544995D01*
X27935756Y-18542000D01*
X27513680Y-18542000D01*
X27500995Y-18546122D01*
X27498000Y-18550243D01*
X27497999Y-19197320D01*
X26990000Y-19197320D01*
X26990001Y-18557679D01*
X26985879Y-18544994D01*
X26981758Y-18541999D01*
X26559680Y-18541999D01*
X26546995Y-18546121D01*
X26544000Y-18550242D01*
X200000Y-18550242D01*
X200000Y-17767429D01*
X26544001Y-17767429D01*
X26544001Y-18018320D01*
X26548123Y-18031005D01*
X26552244Y-18034000D01*
X26974320Y-18034000D01*
X26987005Y-18029878D01*
X26990000Y-18025757D01*
X26990000Y-18018321D01*
X27497999Y-18018321D01*
X27502121Y-18031006D01*
X27506242Y-18034001D01*
X27928320Y-18034001D01*
X27941005Y-18029879D01*
X27944000Y-18025758D01*
X27944000Y-17783444D01*
X27943450Y-17776087D01*
X27929986Y-17686530D01*
X27925683Y-17672542D01*
X27873524Y-17563922D01*
X27865302Y-17551822D01*
X27783506Y-17463336D01*
X27772087Y-17454189D01*
X27667898Y-17393670D01*
X27654286Y-17388281D01*
X27550720Y-17364275D01*
X27539571Y-17363000D01*
X27513680Y-17363000D01*
X27500995Y-17367122D01*
X27498000Y-17371243D01*
X27497999Y-18018321D01*
X26990000Y-18018321D01*
X26990001Y-17378680D01*
X26985879Y-17365995D01*
X26981758Y-17363000D01*
X26964444Y-17363000D01*
X26957087Y-17363550D01*
X26867530Y-17377014D01*
X26853542Y-17381317D01*
X26744922Y-17433476D01*
X26732822Y-17441698D01*
X26644339Y-17523492D01*
X26635187Y-17534915D01*
X26574671Y-17639101D01*
X26569281Y-17652717D01*
X26545276Y-17756280D01*
X26544001Y-17767429D01*
X200000Y-17767429D01*
X200000Y-16604411D01*
X2847117Y-16604411D01*
X2864274Y-16689500D01*
X2882337Y-16779081D01*
X2885768Y-16796098D01*
X2934677Y-16911320D01*
X2955406Y-16960154D01*
X2962173Y-16976097D01*
X2965019Y-16980223D01*
X2965021Y-16980226D01*
X3070360Y-17132923D01*
X3070364Y-17132928D01*
X3073212Y-17137056D01*
X3097669Y-17160509D01*
X3179103Y-17238601D01*
X3214348Y-17272400D01*
X3379815Y-17376601D01*
X3562856Y-17445402D01*
X3639337Y-17457515D01*
X3751034Y-17475206D01*
X3751038Y-17475206D01*
X3755993Y-17475991D01*
X3835597Y-17472376D01*
X3946323Y-17467349D01*
X3946327Y-17467348D01*
X3951335Y-17467121D01*
X3970973Y-17462152D01*
X4136039Y-17420384D01*
X4140904Y-17419153D01*
X4152201Y-17413692D01*
X4312447Y-17336226D01*
X4312449Y-17336225D01*
X4316956Y-17334046D01*
X4443887Y-17237000D01*
X4468314Y-17218324D01*
X4468315Y-17218323D01*
X4472299Y-17215277D01*
X4475586Y-17211496D01*
X4475590Y-17211492D01*
X4597296Y-17071485D01*
X4600588Y-17067698D01*
X4696581Y-16897338D01*
X4756358Y-16711155D01*
X4767953Y-16604411D01*
X5387117Y-16604411D01*
X5404274Y-16689500D01*
X5422337Y-16779081D01*
X5425768Y-16796098D01*
X5474677Y-16911320D01*
X5495406Y-16960154D01*
X5502173Y-16976097D01*
X5505019Y-16980223D01*
X5505021Y-16980226D01*
X5610360Y-17132923D01*
X5610364Y-17132928D01*
X5613212Y-17137056D01*
X5637669Y-17160509D01*
X5719103Y-17238601D01*
X5754348Y-17272400D01*
X5919815Y-17376601D01*
X6102856Y-17445402D01*
X6179337Y-17457515D01*
X6291034Y-17475206D01*
X6291038Y-17475206D01*
X6295993Y-17475991D01*
X6375597Y-17472376D01*
X6486323Y-17467349D01*
X6486327Y-17467348D01*
X6491335Y-17467121D01*
X6510973Y-17462152D01*
X6676039Y-17420384D01*
X6680904Y-17419153D01*
X6692201Y-17413692D01*
X6852447Y-17336226D01*
X6852449Y-17336225D01*
X6856956Y-17334046D01*
X6931533Y-17277027D01*
X8954546Y-17277027D01*
X8958026Y-17287194D01*
X9005610Y-17375381D01*
X9015504Y-17388137D01*
X9089088Y-17456158D01*
X9102581Y-17465021D01*
X9195125Y-17505934D01*
X9208864Y-17509750D01*
X9247338Y-17514610D01*
X9253526Y-17515000D01*
X9845320Y-17515000D01*
X9858005Y-17510878D01*
X9861000Y-17506757D01*
X9861000Y-17284680D01*
X9858584Y-17277243D01*
X10369000Y-17277243D01*
X10369000Y-17499320D01*
X10373122Y-17512005D01*
X10377243Y-17515000D01*
X10965957Y-17515000D01*
X10974068Y-17514329D01*
X11046916Y-17502204D01*
X11062195Y-17496973D01*
X11150381Y-17449390D01*
X11163137Y-17439496D01*
X11231158Y-17365912D01*
X11240021Y-17352419D01*
X11270560Y-17283340D01*
X11271721Y-17272009D01*
X11264916Y-17269000D01*
X10384680Y-17269000D01*
X10371995Y-17273122D01*
X10369000Y-17277243D01*
X9858584Y-17277243D01*
X9856878Y-17271995D01*
X9852757Y-17269000D01*
X8967991Y-17269000D01*
X8955306Y-17273122D01*
X8954784Y-17273840D01*
X8954546Y-17277027D01*
X6931533Y-17277027D01*
X6983887Y-17237000D01*
X7008314Y-17218324D01*
X7008315Y-17218323D01*
X7012299Y-17215277D01*
X7015586Y-17211496D01*
X7015590Y-17211492D01*
X7137296Y-17071485D01*
X7140588Y-17067698D01*
X7236581Y-16897338D01*
X7281320Y-16757991D01*
X8958279Y-16757991D01*
X8965084Y-16761000D01*
X9845320Y-16761000D01*
X9858005Y-16756878D01*
X9861000Y-16752757D01*
X9861000Y-16530680D01*
X9858584Y-16523243D01*
X10369000Y-16523243D01*
X10369000Y-16745320D01*
X10373122Y-16758005D01*
X10377243Y-16761000D01*
X11262009Y-16761000D01*
X11274694Y-16756878D01*
X11275216Y-16756160D01*
X11275454Y-16752973D01*
X11271974Y-16742806D01*
X11224390Y-16654619D01*
X11214496Y-16641863D01*
X11140912Y-16573842D01*
X11127419Y-16564979D01*
X11034875Y-16524066D01*
X11021136Y-16520250D01*
X10982662Y-16515390D01*
X10976474Y-16515000D01*
X10384680Y-16515000D01*
X10371995Y-16519122D01*
X10369000Y-16523243D01*
X9858584Y-16523243D01*
X9856878Y-16517995D01*
X9852757Y-16515000D01*
X9264043Y-16515000D01*
X9255932Y-16515671D01*
X9183084Y-16527796D01*
X9167805Y-16533027D01*
X9079619Y-16580610D01*
X9066863Y-16590504D01*
X8998842Y-16664088D01*
X8989979Y-16677581D01*
X8959440Y-16746660D01*
X8958279Y-16757991D01*
X7281320Y-16757991D01*
X7296358Y-16711155D01*
X7317476Y-16516754D01*
X7317500Y-16510000D01*
X7317151Y-16506559D01*
X7298246Y-16320444D01*
X7298245Y-16320440D01*
X7297739Y-16315457D01*
X7296242Y-16310681D01*
X7296241Y-16310675D01*
X7240762Y-16133644D01*
X7240762Y-16133643D01*
X7239263Y-16128861D01*
X7150054Y-15967924D01*
X7146896Y-15962226D01*
X7144462Y-15957835D01*
X7083124Y-15886271D01*
X7020473Y-15813174D01*
X7020471Y-15813172D01*
X7017207Y-15809364D01*
X6953568Y-15760000D01*
X6866657Y-15692584D01*
X6866652Y-15692581D01*
X6862697Y-15689513D01*
X6687243Y-15603180D01*
X6597254Y-15579739D01*
X6503901Y-15555422D01*
X8939500Y-15555422D01*
X8939500Y-15925039D01*
X8953667Y-16010153D01*
X9009100Y-16112888D01*
X9015108Y-16118441D01*
X9015108Y-16118442D01*
X9021633Y-16124474D01*
X9094822Y-16192130D01*
X9102305Y-16195438D01*
X9102308Y-16195440D01*
X9152112Y-16217457D01*
X9201591Y-16239331D01*
X9250422Y-16245500D01*
X10970039Y-16245500D01*
X11055153Y-16231333D01*
X11157888Y-16175900D01*
X11237130Y-16090178D01*
X11240438Y-16082695D01*
X11240440Y-16082692D01*
X11272777Y-16009545D01*
X11284331Y-15983409D01*
X11290500Y-15934578D01*
X11290500Y-15564961D01*
X11276333Y-15479847D01*
X11220900Y-15377112D01*
X11214134Y-15370857D01*
X11165944Y-15326310D01*
X11135178Y-15297870D01*
X11127695Y-15294562D01*
X11127692Y-15294560D01*
X11062047Y-15265540D01*
X11028409Y-15250669D01*
X10979578Y-15244500D01*
X9259961Y-15244500D01*
X9174847Y-15258667D01*
X9167643Y-15262554D01*
X9158011Y-15267751D01*
X9072112Y-15314100D01*
X8992870Y-15399822D01*
X8989562Y-15407305D01*
X8989560Y-15407308D01*
X8980718Y-15427309D01*
X8945669Y-15506591D01*
X8939500Y-15555422D01*
X6503901Y-15555422D01*
X6502872Y-15555154D01*
X6502868Y-15555153D01*
X6498014Y-15553889D01*
X6493002Y-15553626D01*
X6493000Y-15553626D01*
X6424207Y-15550021D01*
X6302738Y-15543655D01*
X6109393Y-15572896D01*
X6104682Y-15574629D01*
X6104683Y-15574629D01*
X5930579Y-15638686D01*
X5930574Y-15638689D01*
X5925876Y-15640417D01*
X5921618Y-15643057D01*
X5921616Y-15643058D01*
X5763949Y-15740816D01*
X5759685Y-15743460D01*
X5617607Y-15877816D01*
X5614733Y-15881921D01*
X5614730Y-15881924D01*
X5519793Y-16017509D01*
X5505448Y-16037996D01*
X5503459Y-16042592D01*
X5503458Y-16042594D01*
X5482867Y-16090178D01*
X5427788Y-16217457D01*
X5387800Y-16408869D01*
X5387782Y-16413882D01*
X5387782Y-16413887D01*
X5387681Y-16442981D01*
X5387117Y-16604411D01*
X4767953Y-16604411D01*
X4777476Y-16516754D01*
X4777500Y-16510000D01*
X4777151Y-16506559D01*
X4758246Y-16320444D01*
X4758245Y-16320440D01*
X4757739Y-16315457D01*
X4756242Y-16310681D01*
X4756241Y-16310675D01*
X4700762Y-16133644D01*
X4700762Y-16133643D01*
X4699263Y-16128861D01*
X4610054Y-15967924D01*
X4606896Y-15962226D01*
X4604462Y-15957835D01*
X4543124Y-15886271D01*
X4480473Y-15813174D01*
X4480471Y-15813172D01*
X4477207Y-15809364D01*
X4413568Y-15760000D01*
X4326657Y-15692584D01*
X4326652Y-15692581D01*
X4322697Y-15689513D01*
X4147243Y-15603180D01*
X4057254Y-15579739D01*
X3962872Y-15555154D01*
X3962868Y-15555153D01*
X3958014Y-15553889D01*
X3953002Y-15553626D01*
X3953000Y-15553626D01*
X3884207Y-15550021D01*
X3762738Y-15543655D01*
X3569393Y-15572896D01*
X3564682Y-15574629D01*
X3564683Y-15574629D01*
X3390579Y-15638686D01*
X3390574Y-15638689D01*
X3385876Y-15640417D01*
X3381618Y-15643057D01*
X3381616Y-15643058D01*
X3223949Y-15740816D01*
X3219685Y-15743460D01*
X3077607Y-15877816D01*
X3074733Y-15881921D01*
X3074730Y-15881924D01*
X2979793Y-16017509D01*
X2965448Y-16037996D01*
X2963459Y-16042592D01*
X2963458Y-16042594D01*
X2942867Y-16090178D01*
X2887788Y-16217457D01*
X2847800Y-16408869D01*
X2847782Y-16413882D01*
X2847782Y-16413887D01*
X2847681Y-16442981D01*
X2847117Y-16604411D01*
X200000Y-16604411D01*
X200000Y-14806847D01*
X3338018Y-14806847D01*
X3344130Y-14813541D01*
X3375787Y-14833476D01*
X3384739Y-14837920D01*
X3558288Y-14903153D01*
X3567940Y-14905703D01*
X3751062Y-14934707D01*
X3761036Y-14935264D01*
X3946250Y-14926854D01*
X3956127Y-14925395D01*
X4135868Y-14879914D01*
X4145249Y-14876500D01*
X4274074Y-14814223D01*
X4281765Y-14806847D01*
X5878018Y-14806847D01*
X5884130Y-14813541D01*
X5915787Y-14833476D01*
X5924739Y-14837920D01*
X6098288Y-14903153D01*
X6107940Y-14905703D01*
X6291062Y-14934707D01*
X6301036Y-14935264D01*
X6486250Y-14926854D01*
X6496127Y-14925395D01*
X6675868Y-14879914D01*
X6685249Y-14876500D01*
X6814074Y-14814223D01*
X6822020Y-14806603D01*
X6816725Y-14795935D01*
X6361089Y-14340299D01*
X6349202Y-14334242D01*
X6344172Y-14335038D01*
X5883891Y-14795320D01*
X5878018Y-14806847D01*
X4281765Y-14806847D01*
X4282020Y-14806603D01*
X4276725Y-14795935D01*
X3821089Y-14340299D01*
X3809202Y-14334242D01*
X3804172Y-14335038D01*
X3343891Y-14795320D01*
X3338018Y-14806847D01*
X200000Y-14806847D01*
X200000Y-14059344D01*
X2847633Y-14059344D01*
X2848607Y-14069281D01*
X2885255Y-14251037D01*
X2888205Y-14260565D01*
X2960649Y-14431234D01*
X2963745Y-14436865D01*
X2973416Y-14444259D01*
X2973862Y-14444270D01*
X2980442Y-14440347D01*
X3439701Y-13981089D01*
X3444944Y-13970798D01*
X4174242Y-13970798D01*
X4175038Y-13975828D01*
X4634661Y-14435450D01*
X4645466Y-14440955D01*
X4652925Y-14433802D01*
X4693659Y-14361510D01*
X4697656Y-14352362D01*
X4754335Y-14175827D01*
X4756411Y-14166063D01*
X4768003Y-14059344D01*
X5387633Y-14059344D01*
X5388607Y-14069281D01*
X5425255Y-14251037D01*
X5428205Y-14260565D01*
X5500649Y-14431234D01*
X5503745Y-14436865D01*
X5513416Y-14444259D01*
X5513862Y-14444270D01*
X5520442Y-14440347D01*
X5979701Y-13981089D01*
X5984944Y-13970798D01*
X6714242Y-13970798D01*
X6715038Y-13975828D01*
X7174661Y-14435450D01*
X7185466Y-14440955D01*
X7192582Y-14434130D01*
X7969536Y-14434130D01*
X7970451Y-14441128D01*
X7983517Y-14541052D01*
X7987200Y-14569216D01*
X7990041Y-14575672D01*
X7990041Y-14575673D01*
X8036244Y-14680676D01*
X8042069Y-14693915D01*
X8046606Y-14699312D01*
X8046607Y-14699314D01*
X8074510Y-14732508D01*
X8129731Y-14798201D01*
X8135602Y-14802109D01*
X8135603Y-14802110D01*
X8161588Y-14819407D01*
X8243139Y-14873692D01*
X8373177Y-14914319D01*
X8441284Y-14915567D01*
X8502338Y-14916686D01*
X8502340Y-14916686D01*
X8509391Y-14916815D01*
X8516194Y-14914960D01*
X8516196Y-14914960D01*
X8589088Y-14895087D01*
X8640830Y-14880981D01*
X8748072Y-14815134D01*
X8799872Y-14800500D01*
X8929421Y-14800500D01*
X8987612Y-14819407D01*
X9006095Y-14837319D01*
X9009100Y-14842888D01*
X9015108Y-14848441D01*
X9015108Y-14848442D01*
X9033121Y-14865093D01*
X9094822Y-14922130D01*
X9102305Y-14925438D01*
X9102308Y-14925440D01*
X9151345Y-14947118D01*
X9201591Y-14969331D01*
X9250422Y-14975500D01*
X10970039Y-14975500D01*
X11055153Y-14961333D01*
X11157888Y-14905900D01*
X11237130Y-14820178D01*
X11240438Y-14812695D01*
X11240440Y-14812692D01*
X11274565Y-14735500D01*
X11284331Y-14713409D01*
X11290500Y-14664578D01*
X11290500Y-14294961D01*
X11276333Y-14209847D01*
X11220900Y-14107112D01*
X11135178Y-14027870D01*
X11127695Y-14024562D01*
X11127692Y-14024560D01*
X11049891Y-13990166D01*
X11028409Y-13980669D01*
X10979578Y-13974500D01*
X9259961Y-13974500D01*
X9174847Y-13988667D01*
X9072112Y-14044100D01*
X9066559Y-14050108D01*
X9066558Y-14050108D01*
X9047876Y-14070318D01*
X9018998Y-14101558D01*
X9004074Y-14117702D01*
X8950690Y-14147598D01*
X8931377Y-14149500D01*
X8872930Y-14149500D01*
X8814739Y-14130593D01*
X8797931Y-14115123D01*
X8770474Y-14083257D01*
X8770473Y-14083256D01*
X8765869Y-14077913D01*
X8651547Y-14003813D01*
X8521022Y-13964778D01*
X8438931Y-13964277D01*
X8391840Y-13963989D01*
X8384789Y-13963946D01*
X8378013Y-13965883D01*
X8378010Y-13965883D01*
X8260577Y-13999445D01*
X8260575Y-13999446D01*
X8253797Y-14001383D01*
X8138578Y-14074081D01*
X8133911Y-14079365D01*
X8133909Y-14079367D01*
X8057343Y-14166063D01*
X8048395Y-14176195D01*
X7990496Y-14299515D01*
X7969536Y-14434130D01*
X7192582Y-14434130D01*
X7192925Y-14433802D01*
X7233659Y-14361510D01*
X7237656Y-14352362D01*
X7294335Y-14175827D01*
X7296411Y-14166063D01*
X7316695Y-13979333D01*
X7316985Y-13974150D01*
X7316991Y-13972599D01*
X7316738Y-13967416D01*
X7297756Y-13780545D01*
X7295750Y-13770776D01*
X7240303Y-13593841D01*
X7236372Y-13584671D01*
X7193394Y-13507135D01*
X7184612Y-13498946D01*
X7175329Y-13503882D01*
X6720299Y-13958911D01*
X6714242Y-13970798D01*
X5984944Y-13970798D01*
X5985758Y-13969202D01*
X5984962Y-13964172D01*
X5522386Y-13501597D01*
X5510500Y-13495541D01*
X5509877Y-13495639D01*
X5506068Y-13498950D01*
X5503891Y-13502845D01*
X5430257Y-13673004D01*
X5427239Y-13682519D01*
X5389323Y-13864011D01*
X5388279Y-13873940D01*
X5387633Y-14059344D01*
X4768003Y-14059344D01*
X4776695Y-13979333D01*
X4776985Y-13974150D01*
X4776991Y-13972599D01*
X4776738Y-13967416D01*
X4757756Y-13780545D01*
X4755750Y-13770776D01*
X4700303Y-13593841D01*
X4696372Y-13584671D01*
X4653394Y-13507135D01*
X4644612Y-13498946D01*
X4635329Y-13503882D01*
X4180299Y-13958911D01*
X4174242Y-13970798D01*
X3444944Y-13970798D01*
X3445758Y-13969202D01*
X3444962Y-13964172D01*
X2982386Y-13501597D01*
X2970500Y-13495541D01*
X2969877Y-13495639D01*
X2966068Y-13498950D01*
X2963891Y-13502845D01*
X2890257Y-13673004D01*
X2887239Y-13682519D01*
X2849323Y-13864011D01*
X2848279Y-13873940D01*
X2847633Y-14059344D01*
X200000Y-14059344D01*
X200000Y-5041195D01*
X2220758Y-5041195D01*
X2221513Y-5049824D01*
X2224124Y-5079668D01*
X2224501Y-5088297D01*
X2224500Y-12081715D01*
X2224123Y-12090344D01*
X2220758Y-12128805D01*
X2230772Y-12166178D01*
X2230815Y-12166338D01*
X2232683Y-12174766D01*
X2234447Y-12184770D01*
X2237897Y-12204330D01*
X2239432Y-12213037D01*
X2243761Y-12220536D01*
X2245752Y-12226005D01*
X2248223Y-12231305D01*
X2250466Y-12239674D01*
X2255436Y-12246772D01*
X2272745Y-12271492D01*
X2277385Y-12278776D01*
X2292490Y-12304938D01*
X2292492Y-12304941D01*
X2296822Y-12312440D01*
X2325714Y-12336683D01*
X2326400Y-12337259D01*
X2332768Y-12343093D01*
X2906907Y-12917233D01*
X2912741Y-12923601D01*
X2937559Y-12953178D01*
X2945058Y-12957508D01*
X2945061Y-12957510D01*
X2971223Y-12972615D01*
X2978507Y-12977255D01*
X2989528Y-12984972D01*
X3010325Y-12999534D01*
X3018694Y-13001777D01*
X3023994Y-13004248D01*
X3029463Y-13006239D01*
X3036962Y-13010568D01*
X3045489Y-13012072D01*
X3045490Y-13012072D01*
X3061800Y-13014948D01*
X3075233Y-13017317D01*
X3083658Y-13019184D01*
X3121194Y-13029242D01*
X3159656Y-13025877D01*
X3168284Y-13025500D01*
X3239272Y-13025500D01*
X3297463Y-13044407D01*
X3333427Y-13093907D01*
X3338006Y-13131750D01*
X3337779Y-13134842D01*
X3342588Y-13143377D01*
X3798911Y-13599701D01*
X3810798Y-13605758D01*
X3815828Y-13604962D01*
X4276774Y-13144015D01*
X4286441Y-13125042D01*
X4293647Y-13079553D01*
X4336913Y-13036289D01*
X4381856Y-13025500D01*
X5779272Y-13025500D01*
X5837463Y-13044407D01*
X5873427Y-13093907D01*
X5878006Y-13131750D01*
X5877779Y-13134842D01*
X5882588Y-13143377D01*
X6338911Y-13599701D01*
X6350798Y-13605758D01*
X6355828Y-13604962D01*
X6816774Y-13144015D01*
X6826441Y-13125042D01*
X6833647Y-13079553D01*
X6876913Y-13036289D01*
X6921856Y-13025500D01*
X7864168Y-13025500D01*
X7922359Y-13044407D01*
X7934171Y-13054496D01*
X8039674Y-13160000D01*
X8301907Y-13422234D01*
X8307740Y-13428600D01*
X8332559Y-13458178D01*
X8342576Y-13463961D01*
X8366214Y-13477608D01*
X8373497Y-13482248D01*
X8398228Y-13499565D01*
X8398230Y-13499566D01*
X8405325Y-13504534D01*
X8413694Y-13506776D01*
X8418994Y-13509248D01*
X8424463Y-13511239D01*
X8431962Y-13515568D01*
X8440489Y-13517072D01*
X8440490Y-13517072D01*
X8456800Y-13519948D01*
X8470233Y-13522317D01*
X8478658Y-13524184D01*
X8516194Y-13534242D01*
X8554656Y-13530877D01*
X8563284Y-13530500D01*
X8929421Y-13530500D01*
X8987612Y-13549407D01*
X9006095Y-13567319D01*
X9009100Y-13572888D01*
X9015108Y-13578441D01*
X9015108Y-13578442D01*
X9022014Y-13584826D01*
X9094822Y-13652130D01*
X9102305Y-13655438D01*
X9102308Y-13655440D01*
X9142039Y-13673004D01*
X9201591Y-13699331D01*
X9250422Y-13705500D01*
X10970039Y-13705500D01*
X11055153Y-13691333D01*
X11157888Y-13635900D01*
X11237130Y-13550178D01*
X11240438Y-13542695D01*
X11240440Y-13542692D01*
X11275888Y-13462507D01*
X11284331Y-13443409D01*
X11290500Y-13394578D01*
X11290500Y-13024961D01*
X11276333Y-12939847D01*
X11220900Y-12837112D01*
X11135178Y-12757870D01*
X11127695Y-12754562D01*
X11127692Y-12754560D01*
X11055293Y-12722554D01*
X11028409Y-12710669D01*
X10979578Y-12704500D01*
X9259961Y-12704500D01*
X9174847Y-12718667D01*
X9072112Y-12774100D01*
X9066559Y-12780108D01*
X9066558Y-12780108D01*
X9056443Y-12791050D01*
X9018998Y-12831558D01*
X9004074Y-12847702D01*
X8950690Y-12877598D01*
X8931377Y-12879500D01*
X8720834Y-12879500D01*
X8662643Y-12860593D01*
X8650831Y-12850504D01*
X8283110Y-12482785D01*
X8277274Y-12476417D01*
X8263463Y-12459958D01*
X8252441Y-12446822D01*
X8218759Y-12427376D01*
X8211496Y-12422748D01*
X8179674Y-12400466D01*
X8171307Y-12398224D01*
X8166001Y-12395750D01*
X8160535Y-12393760D01*
X8153038Y-12389432D01*
X8144513Y-12387929D01*
X8144511Y-12387928D01*
X8114762Y-12382683D01*
X8106329Y-12380813D01*
X8077172Y-12373000D01*
X8068805Y-12370758D01*
X8060176Y-12371513D01*
X8030344Y-12374123D01*
X8021715Y-12374500D01*
X6991891Y-12374500D01*
X6933700Y-12355593D01*
X6897736Y-12306093D01*
X6897736Y-12244907D01*
X6931761Y-12196853D01*
X6933305Y-12195673D01*
X6970144Y-12167507D01*
X7008314Y-12138324D01*
X7008315Y-12138323D01*
X7012299Y-12135277D01*
X7015586Y-12131496D01*
X7015590Y-12131492D01*
X7137296Y-11991485D01*
X7140588Y-11987698D01*
X7236581Y-11817338D01*
X7237527Y-11814393D01*
X7277733Y-11769110D01*
X7327828Y-11755500D01*
X7470977Y-11755500D01*
X7529168Y-11774407D01*
X7540980Y-11784496D01*
X7667926Y-11911443D01*
X7793718Y-12037235D01*
X7799551Y-12043601D01*
X7824370Y-12073179D01*
X7854102Y-12090344D01*
X7858025Y-12092609D01*
X7865308Y-12097249D01*
X7890039Y-12114566D01*
X7890041Y-12114567D01*
X7897136Y-12119535D01*
X7905505Y-12121777D01*
X7910805Y-12124249D01*
X7916274Y-12126240D01*
X7923773Y-12130569D01*
X7932300Y-12132073D01*
X7932301Y-12132073D01*
X7940723Y-12133558D01*
X7962044Y-12137318D01*
X7970469Y-12139185D01*
X8008005Y-12149243D01*
X8046467Y-12145878D01*
X8055095Y-12145501D01*
X9939716Y-12145501D01*
X9948345Y-12145878D01*
X9986806Y-12149243D01*
X10024332Y-12139188D01*
X10032763Y-12137318D01*
X10062512Y-12132073D01*
X10062514Y-12132072D01*
X10071039Y-12130569D01*
X10078536Y-12126241D01*
X10084002Y-12124251D01*
X10089308Y-12121777D01*
X10097675Y-12119535D01*
X10129503Y-12097249D01*
X10136760Y-12092625D01*
X10170442Y-12073179D01*
X10195275Y-12043584D01*
X10201111Y-12037216D01*
X10425831Y-11812497D01*
X10480347Y-11784720D01*
X10495834Y-11783501D01*
X10749334Y-11783501D01*
X10807525Y-11802408D01*
X10843489Y-11851908D01*
X10844009Y-11911443D01*
X10843492Y-11913133D01*
X10840496Y-11919515D01*
X10819536Y-12054130D01*
X10820451Y-12061128D01*
X10834208Y-12166338D01*
X10837200Y-12189216D01*
X10840041Y-12195672D01*
X10840041Y-12195673D01*
X10884451Y-12296601D01*
X10892069Y-12313915D01*
X10896606Y-12319312D01*
X10896607Y-12319314D01*
X10939851Y-12370758D01*
X10979731Y-12418201D01*
X10985602Y-12422109D01*
X10985603Y-12422110D01*
X11023187Y-12447128D01*
X11093139Y-12493692D01*
X11223177Y-12534319D01*
X11275745Y-12535282D01*
X11333580Y-12555252D01*
X11343936Y-12564262D01*
X11525505Y-12745832D01*
X11553282Y-12800348D01*
X11554501Y-12815835D01*
X11554500Y-14180676D01*
X11554500Y-15541715D01*
X11554123Y-15550343D01*
X11550758Y-15588805D01*
X11552999Y-15597168D01*
X11560815Y-15626338D01*
X11562683Y-15634766D01*
X11569432Y-15673037D01*
X11573761Y-15680536D01*
X11575752Y-15686005D01*
X11578223Y-15691305D01*
X11580466Y-15699674D01*
X11585436Y-15706772D01*
X11602745Y-15731492D01*
X11607385Y-15738776D01*
X11622490Y-15764938D01*
X11622492Y-15764941D01*
X11626822Y-15772440D01*
X11656400Y-15797259D01*
X11662768Y-15803093D01*
X13091906Y-17232233D01*
X13097740Y-17238601D01*
X13116989Y-17261541D01*
X13116992Y-17261544D01*
X13122559Y-17268178D01*
X13150190Y-17284130D01*
X13156214Y-17287608D01*
X13163497Y-17292248D01*
X13188228Y-17309565D01*
X13188230Y-17309566D01*
X13195325Y-17314534D01*
X13203694Y-17316776D01*
X13208994Y-17319248D01*
X13214463Y-17321239D01*
X13221962Y-17325568D01*
X13230489Y-17327072D01*
X13230490Y-17327072D01*
X13246800Y-17329948D01*
X13260233Y-17332317D01*
X13268658Y-17334184D01*
X13306194Y-17344242D01*
X13344656Y-17340877D01*
X13353284Y-17340500D01*
X13879421Y-17340500D01*
X13937612Y-17359407D01*
X13956095Y-17377319D01*
X13959100Y-17382888D01*
X13965108Y-17388441D01*
X13965108Y-17388442D01*
X13969454Y-17392459D01*
X14044822Y-17462130D01*
X14052305Y-17465438D01*
X14052308Y-17465440D01*
X14083710Y-17479322D01*
X14151591Y-17509331D01*
X14200422Y-17515500D01*
X15920039Y-17515500D01*
X16005153Y-17501333D01*
X16013234Y-17496973D01*
X16045946Y-17479322D01*
X16107888Y-17445900D01*
X16125492Y-17426857D01*
X16146330Y-17404314D01*
X16187130Y-17360178D01*
X16190438Y-17352695D01*
X16190440Y-17352692D01*
X16219395Y-17287194D01*
X16234331Y-17253409D01*
X16240500Y-17204578D01*
X16240500Y-16834961D01*
X16226333Y-16749847D01*
X16170900Y-16647112D01*
X16085178Y-16567870D01*
X16077695Y-16564562D01*
X16077692Y-16564560D01*
X16001054Y-16530680D01*
X15978409Y-16520669D01*
X15929578Y-16514500D01*
X14209961Y-16514500D01*
X14124847Y-16528667D01*
X14117643Y-16532554D01*
X14115482Y-16533720D01*
X14022112Y-16584100D01*
X14016559Y-16590108D01*
X14016558Y-16590108D01*
X13991276Y-16617458D01*
X13968716Y-16641863D01*
X13954074Y-16657702D01*
X13900690Y-16687598D01*
X13881377Y-16689500D01*
X13510835Y-16689500D01*
X13452644Y-16670593D01*
X13440831Y-16660504D01*
X12540326Y-15760000D01*
X12234496Y-15454171D01*
X12206719Y-15399654D01*
X12205500Y-15384167D01*
X12205500Y-14559833D01*
X12224407Y-14501642D01*
X12273907Y-14465678D01*
X12335093Y-14465678D01*
X12374504Y-14489829D01*
X13113370Y-15228696D01*
X13846901Y-15962227D01*
X13852736Y-15968595D01*
X13877559Y-15998178D01*
X13885061Y-16002509D01*
X13891694Y-16008075D01*
X13890460Y-16009545D01*
X13919419Y-16039347D01*
X13959100Y-16112888D01*
X13965108Y-16118441D01*
X13965108Y-16118442D01*
X13971633Y-16124474D01*
X14044822Y-16192130D01*
X14052305Y-16195438D01*
X14052308Y-16195440D01*
X14102112Y-16217457D01*
X14151591Y-16239331D01*
X14200422Y-16245500D01*
X15920039Y-16245500D01*
X16005153Y-16231333D01*
X16107888Y-16175900D01*
X16187130Y-16090178D01*
X16190438Y-16082695D01*
X16190440Y-16082692D01*
X16222777Y-16009545D01*
X16234331Y-15983409D01*
X16240500Y-15934578D01*
X16240500Y-15564961D01*
X16226333Y-15479847D01*
X16170900Y-15377112D01*
X16164134Y-15370857D01*
X16115944Y-15326310D01*
X16085178Y-15297870D01*
X16077695Y-15294562D01*
X16077692Y-15294560D01*
X16012047Y-15265540D01*
X15978409Y-15250669D01*
X15929578Y-15244500D01*
X14209961Y-15244500D01*
X14124847Y-15258667D01*
X14124316Y-15255478D01*
X14077801Y-15256205D01*
X14036914Y-15231588D01*
X12684507Y-13879182D01*
X12656730Y-13824665D01*
X12655511Y-13809178D01*
X12655511Y-12220293D01*
X12655888Y-12211665D01*
X12657287Y-12195673D01*
X12659253Y-12173203D01*
X12649195Y-12135667D01*
X12647327Y-12127239D01*
X12647129Y-12126113D01*
X12644014Y-12108452D01*
X12642083Y-12097499D01*
X12642083Y-12097498D01*
X12640579Y-12088971D01*
X12636250Y-12081472D01*
X12634259Y-12076003D01*
X12631788Y-12070703D01*
X12629545Y-12062334D01*
X12607266Y-12030516D01*
X12602626Y-12023232D01*
X12587521Y-11997070D01*
X12587519Y-11997067D01*
X12583189Y-11989568D01*
X12553612Y-11964750D01*
X12547244Y-11958916D01*
X11829107Y-11240780D01*
X11823272Y-11234412D01*
X11816324Y-11226132D01*
X11798444Y-11204823D01*
X11764762Y-11185377D01*
X11757499Y-11180749D01*
X11750717Y-11176000D01*
X11725677Y-11158467D01*
X11717310Y-11156225D01*
X11712004Y-11153751D01*
X11706538Y-11151762D01*
X11699041Y-11147433D01*
X11686955Y-11145302D01*
X11682974Y-11143185D01*
X11682372Y-11142966D01*
X11682403Y-11142881D01*
X11632932Y-11116576D01*
X11606111Y-11061582D01*
X11616737Y-11001326D01*
X11634145Y-10977802D01*
X11676437Y-10935511D01*
X12224453Y-10387496D01*
X12278969Y-10359719D01*
X12294456Y-10358500D01*
X14178953Y-10358500D01*
X14237144Y-10377407D01*
X14273108Y-10426907D01*
X14273108Y-10488093D01*
X14246156Y-10530196D01*
X14224514Y-10550202D01*
X14210795Y-10573821D01*
X14160205Y-10660917D01*
X14160204Y-10660920D01*
X14156487Y-10667319D01*
X14150983Y-10691065D01*
X14133879Y-10764858D01*
X14129500Y-10783748D01*
X14129500Y-11818258D01*
X14134559Y-11851908D01*
X14143510Y-11911443D01*
X14144636Y-11918935D01*
X14147840Y-11925606D01*
X14147841Y-11925611D01*
X14163694Y-11958625D01*
X14171839Y-12019266D01*
X14142784Y-12073113D01*
X14087628Y-12099598D01*
X14027439Y-12088605D01*
X14020118Y-12083528D01*
X14019869Y-12083913D01*
X14005359Y-12074508D01*
X13905547Y-12009813D01*
X13775022Y-11970778D01*
X13692931Y-11970277D01*
X13645840Y-11969989D01*
X13638789Y-11969946D01*
X13632013Y-11971883D01*
X13632010Y-11971883D01*
X13514577Y-12005445D01*
X13514575Y-12005446D01*
X13507797Y-12007383D01*
X13392578Y-12080081D01*
X13387911Y-12085365D01*
X13387909Y-12085367D01*
X13315367Y-12167507D01*
X13302395Y-12182195D01*
X13244496Y-12305515D01*
X13223536Y-12440130D01*
X13224451Y-12447128D01*
X13232590Y-12509369D01*
X13241200Y-12575216D01*
X13244041Y-12581672D01*
X13244041Y-12581673D01*
X13287623Y-12680719D01*
X13296069Y-12699915D01*
X13300606Y-12705312D01*
X13300607Y-12705314D01*
X13346576Y-12760000D01*
X13383731Y-12804201D01*
X13389602Y-12808109D01*
X13389603Y-12808110D01*
X13440435Y-12841946D01*
X13497139Y-12879692D01*
X13627177Y-12920319D01*
X13695284Y-12921567D01*
X13756338Y-12922686D01*
X13756340Y-12922686D01*
X13763391Y-12922815D01*
X13770195Y-12920960D01*
X13777196Y-12920088D01*
X13777577Y-12923147D01*
X13825611Y-12925473D01*
X13873313Y-12963789D01*
X13889500Y-13018038D01*
X13889500Y-13385039D01*
X13903667Y-13470153D01*
X13907554Y-13477357D01*
X13910193Y-13482248D01*
X13959100Y-13572888D01*
X13965108Y-13578441D01*
X13965108Y-13578442D01*
X13972014Y-13584826D01*
X14044822Y-13652130D01*
X14052305Y-13655438D01*
X14052308Y-13655440D01*
X14092039Y-13673004D01*
X14151591Y-13699331D01*
X14200422Y-13705500D01*
X15920039Y-13705500D01*
X16005153Y-13691333D01*
X16107888Y-13635900D01*
X16135752Y-13605758D01*
X16155244Y-13584671D01*
X16175926Y-13562298D01*
X16229310Y-13532402D01*
X16248623Y-13530500D01*
X16255500Y-13530500D01*
X16313691Y-13549407D01*
X16349655Y-13598907D01*
X16354500Y-13629500D01*
X16354501Y-13865093D01*
X16354501Y-14050500D01*
X16335594Y-14108691D01*
X16286094Y-14144655D01*
X16255501Y-14149500D01*
X16250579Y-14149500D01*
X16192388Y-14130593D01*
X16173905Y-14112681D01*
X16170900Y-14107112D01*
X16085178Y-14027870D01*
X16077695Y-14024562D01*
X16077692Y-14024560D01*
X15999891Y-13990166D01*
X15978409Y-13980669D01*
X15929578Y-13974500D01*
X14209961Y-13974500D01*
X14124847Y-13988667D01*
X14022112Y-14044100D01*
X14016559Y-14050108D01*
X14016558Y-14050108D01*
X13997876Y-14070318D01*
X13942870Y-14129822D01*
X13939562Y-14137305D01*
X13939560Y-14137308D01*
X13927592Y-14164380D01*
X13895669Y-14236591D01*
X13889500Y-14285422D01*
X13889500Y-14655039D01*
X13903667Y-14740153D01*
X13959100Y-14842888D01*
X13965108Y-14848441D01*
X13965108Y-14848442D01*
X13983121Y-14865093D01*
X14044822Y-14922130D01*
X14052305Y-14925438D01*
X14052308Y-14925440D01*
X14101345Y-14947118D01*
X14151591Y-14969331D01*
X14200422Y-14975500D01*
X15920039Y-14975500D01*
X16005153Y-14961333D01*
X16107888Y-14905900D01*
X16129210Y-14882835D01*
X16153725Y-14856315D01*
X16175926Y-14832298D01*
X16229310Y-14802402D01*
X16248623Y-14800500D01*
X16496715Y-14800500D01*
X16505344Y-14800877D01*
X16543805Y-14804242D01*
X16581331Y-14794187D01*
X16589762Y-14792317D01*
X16619511Y-14787072D01*
X16619513Y-14787071D01*
X16628038Y-14785568D01*
X16635535Y-14781240D01*
X16641001Y-14779250D01*
X16646307Y-14776776D01*
X16654674Y-14774534D01*
X16686501Y-14752249D01*
X16693759Y-14747624D01*
X16727441Y-14728178D01*
X16752275Y-14698582D01*
X16758098Y-14692227D01*
X16897227Y-14553098D01*
X16903582Y-14547275D01*
X16933178Y-14522441D01*
X16937506Y-14514944D01*
X16937509Y-14514941D01*
X16952616Y-14488775D01*
X16957255Y-14481493D01*
X16974565Y-14456772D01*
X16974566Y-14456770D01*
X16979534Y-14449675D01*
X16981776Y-14441306D01*
X16984248Y-14436006D01*
X16986239Y-14430537D01*
X16990568Y-14423038D01*
X16997317Y-14384767D01*
X16999185Y-14376339D01*
X17002250Y-14364899D01*
X17009242Y-14338806D01*
X17005877Y-14300344D01*
X17005500Y-14291716D01*
X17005500Y-13468281D01*
X17005877Y-13459652D01*
X17008487Y-13429823D01*
X17009242Y-13421194D01*
X16999184Y-13383658D01*
X16997316Y-13375233D01*
X16992072Y-13345492D01*
X16990568Y-13336962D01*
X16986237Y-13329461D01*
X16984244Y-13323985D01*
X16981776Y-13318693D01*
X16979534Y-13310324D01*
X16957246Y-13278494D01*
X16952611Y-13271218D01*
X16933178Y-13237559D01*
X16903590Y-13212732D01*
X16897223Y-13206897D01*
X16678110Y-12987785D01*
X16672274Y-12981417D01*
X16662705Y-12970013D01*
X16647441Y-12951822D01*
X16613759Y-12932376D01*
X16606496Y-12927748D01*
X16603247Y-12925473D01*
X16574674Y-12905466D01*
X16566307Y-12903224D01*
X16561001Y-12900750D01*
X16555535Y-12898760D01*
X16548038Y-12894432D01*
X16539513Y-12892929D01*
X16539511Y-12892928D01*
X16509762Y-12887683D01*
X16501329Y-12885813D01*
X16472172Y-12878000D01*
X16463805Y-12875758D01*
X16438180Y-12878000D01*
X16425344Y-12879123D01*
X16416715Y-12879500D01*
X16250579Y-12879500D01*
X16192388Y-12860593D01*
X16173905Y-12842681D01*
X16170900Y-12837112D01*
X16085178Y-12757870D01*
X16077695Y-12754562D01*
X16077692Y-12754560D01*
X16005293Y-12722554D01*
X15978409Y-12710669D01*
X15929578Y-12704500D01*
X15492049Y-12704500D01*
X15433858Y-12685593D01*
X15397894Y-12636093D01*
X15393511Y-12614547D01*
X15394242Y-12606194D01*
X15384184Y-12568658D01*
X15382316Y-12560233D01*
X15377072Y-12530492D01*
X15375568Y-12521962D01*
X15371237Y-12514461D01*
X15369244Y-12508985D01*
X15366776Y-12503693D01*
X15364534Y-12495324D01*
X15342246Y-12463494D01*
X15337611Y-12456218D01*
X15318178Y-12422559D01*
X15288594Y-12397735D01*
X15282227Y-12391901D01*
X15263326Y-12373000D01*
X15242961Y-12352636D01*
X15215184Y-12298121D01*
X15224755Y-12237689D01*
X15270110Y-12193389D01*
X15329361Y-12164937D01*
X15336029Y-12161735D01*
X15435486Y-12069798D01*
X15465457Y-12018200D01*
X15499795Y-11959083D01*
X15499796Y-11959080D01*
X15503513Y-11952681D01*
X15517901Y-11890609D01*
X15529225Y-11841754D01*
X15529225Y-11841751D01*
X15530500Y-11836252D01*
X15530500Y-11572243D01*
X16030000Y-11572243D01*
X16030000Y-11814558D01*
X16030550Y-11821914D01*
X16044014Y-11911471D01*
X16048317Y-11925459D01*
X16100476Y-12034079D01*
X16108698Y-12046179D01*
X16190492Y-12134662D01*
X16201915Y-12143814D01*
X16306101Y-12204330D01*
X16319717Y-12209720D01*
X16423280Y-12233725D01*
X16434429Y-12235000D01*
X16460320Y-12235000D01*
X16473005Y-12230878D01*
X16476000Y-12226757D01*
X16476000Y-11579680D01*
X16473584Y-11572243D01*
X16984000Y-11572243D01*
X16984000Y-12219320D01*
X16988122Y-12232005D01*
X16992243Y-12235000D01*
X17009558Y-12235000D01*
X17016914Y-12234450D01*
X17106471Y-12220986D01*
X17120459Y-12216683D01*
X17229079Y-12164524D01*
X17241179Y-12156302D01*
X17329662Y-12074508D01*
X17338814Y-12063085D01*
X17399330Y-11958899D01*
X17404720Y-11945283D01*
X17428725Y-11841720D01*
X17430000Y-11830571D01*
X17430000Y-11579680D01*
X17425878Y-11566995D01*
X17421757Y-11564000D01*
X16999680Y-11564000D01*
X16986995Y-11568122D01*
X16984000Y-11572243D01*
X16473584Y-11572243D01*
X16471878Y-11566995D01*
X16467757Y-11564000D01*
X16045680Y-11564000D01*
X16032995Y-11568122D01*
X16030000Y-11572243D01*
X15530500Y-11572243D01*
X15530500Y-10801742D01*
X15522102Y-10745883D01*
X15516465Y-10708386D01*
X15516464Y-10708384D01*
X15515364Y-10701065D01*
X15507854Y-10685424D01*
X15459937Y-10585639D01*
X15456735Y-10578971D01*
X15406567Y-10524699D01*
X15380952Y-10469137D01*
X15392889Y-10409127D01*
X15437818Y-10367594D01*
X15479266Y-10358500D01*
X16079681Y-10358500D01*
X16137872Y-10377407D01*
X16173836Y-10426907D01*
X16173836Y-10488093D01*
X16146882Y-10530198D01*
X16130341Y-10545488D01*
X16121186Y-10556915D01*
X16060670Y-10661101D01*
X16055280Y-10674717D01*
X16031275Y-10778280D01*
X16030000Y-10789429D01*
X16030000Y-11040320D01*
X16034122Y-11053005D01*
X16038243Y-11056000D01*
X17414320Y-11056000D01*
X17427005Y-11051878D01*
X17430000Y-11047757D01*
X17430000Y-10805443D01*
X17429450Y-10798086D01*
X17415986Y-10708529D01*
X17411683Y-10694541D01*
X17359524Y-10585921D01*
X17351302Y-10573821D01*
X17305896Y-10524702D01*
X17280280Y-10469137D01*
X17292217Y-10409127D01*
X17337146Y-10367594D01*
X17378594Y-10358500D01*
X18200135Y-10358500D01*
X18258326Y-10377407D01*
X18294290Y-10426907D01*
X18294290Y-10488093D01*
X18267337Y-10530197D01*
X18256514Y-10540202D01*
X18244772Y-10560417D01*
X18192205Y-10650917D01*
X18192204Y-10650920D01*
X18188487Y-10657319D01*
X18186815Y-10664533D01*
X18163561Y-10764858D01*
X18161500Y-10773748D01*
X18161500Y-11529390D01*
X18142593Y-11587581D01*
X18132504Y-11599394D01*
X17865983Y-11865915D01*
X17857277Y-11873651D01*
X17829956Y-11895189D01*
X17800172Y-11938282D01*
X17796366Y-11943789D01*
X17794558Y-11946319D01*
X17784647Y-11959738D01*
X17759445Y-11993858D01*
X17757053Y-12000671D01*
X17752949Y-12006608D01*
X17745388Y-12030516D01*
X17735131Y-12062946D01*
X17734147Y-12065894D01*
X17719485Y-12107648D01*
X17714569Y-12121648D01*
X17714332Y-12127688D01*
X17713810Y-12130367D01*
X17712109Y-12135744D01*
X17711501Y-12143469D01*
X17711501Y-12197772D01*
X17711425Y-12201659D01*
X17709251Y-12256983D01*
X17710993Y-12263553D01*
X17711501Y-12272783D01*
X17711500Y-13083685D01*
X17692593Y-13141876D01*
X17650387Y-13175149D01*
X17642925Y-13178240D01*
X17633359Y-13180143D01*
X17566690Y-13224690D01*
X17522143Y-13291359D01*
X17520241Y-13300922D01*
X17520240Y-13300924D01*
X17515653Y-13323985D01*
X17506500Y-13370000D01*
X17506500Y-14570000D01*
X17514522Y-14610330D01*
X17520159Y-14638666D01*
X17522143Y-14648641D01*
X17566690Y-14715310D01*
X17574800Y-14720729D01*
X17596906Y-14735500D01*
X17633359Y-14759857D01*
X17642920Y-14761759D01*
X17650389Y-14764853D01*
X17696914Y-14804591D01*
X17711501Y-14856316D01*
X17711500Y-15750685D01*
X17692593Y-15808876D01*
X17650387Y-15842149D01*
X17642925Y-15845240D01*
X17633359Y-15847143D01*
X17566690Y-15891690D01*
X17522143Y-15958359D01*
X17520241Y-15967922D01*
X17520240Y-15967924D01*
X17517160Y-15983409D01*
X17506500Y-16037000D01*
X17506500Y-17237000D01*
X17522143Y-17315641D01*
X17566690Y-17382310D01*
X17633359Y-17426857D01*
X17642922Y-17428759D01*
X17642924Y-17428760D01*
X17664558Y-17433063D01*
X17712000Y-17442500D01*
X18612000Y-17442500D01*
X18659442Y-17433063D01*
X18681076Y-17428760D01*
X18681078Y-17428759D01*
X18690641Y-17426857D01*
X18757310Y-17382310D01*
X18801857Y-17315641D01*
X18817500Y-17237000D01*
X18817500Y-16037000D01*
X20806500Y-16037000D01*
X20806500Y-17237000D01*
X20822143Y-17315641D01*
X20866690Y-17382310D01*
X20933359Y-17426857D01*
X20942922Y-17428759D01*
X20942924Y-17428760D01*
X20964558Y-17433063D01*
X21012000Y-17442500D01*
X21912000Y-17442500D01*
X21959442Y-17433063D01*
X21981076Y-17428760D01*
X21981078Y-17428759D01*
X21990641Y-17426857D01*
X22057310Y-17382310D01*
X22101857Y-17315641D01*
X22117500Y-17237000D01*
X22117500Y-17186500D01*
X22136407Y-17128309D01*
X22185907Y-17092345D01*
X22216500Y-17087500D01*
X22505391Y-17087500D01*
X22563582Y-17106407D01*
X22575394Y-17116496D01*
X22691039Y-17232142D01*
X22800495Y-17341598D01*
X22821106Y-17371728D01*
X22833069Y-17398915D01*
X22837606Y-17404312D01*
X22837607Y-17404314D01*
X22872564Y-17445900D01*
X22920731Y-17503201D01*
X22926602Y-17507109D01*
X22926603Y-17507110D01*
X22958289Y-17528202D01*
X23034139Y-17578692D01*
X23164177Y-17619319D01*
X23232284Y-17620567D01*
X23293338Y-17621686D01*
X23293340Y-17621686D01*
X23300391Y-17621815D01*
X23307194Y-17619960D01*
X23307196Y-17619960D01*
X23380088Y-17600087D01*
X23431830Y-17585981D01*
X23468216Y-17563640D01*
X23541919Y-17518386D01*
X23541921Y-17518384D01*
X23547928Y-17514696D01*
X23552657Y-17509471D01*
X23552660Y-17509469D01*
X23634620Y-17418921D01*
X23639353Y-17413692D01*
X23698754Y-17291088D01*
X23701084Y-17277243D01*
X23720723Y-17160509D01*
X23720723Y-17160508D01*
X23721357Y-17156740D01*
X23721500Y-17145000D01*
X23702186Y-17010140D01*
X23664362Y-16926950D01*
X23648719Y-16892545D01*
X23648718Y-16892544D01*
X23645798Y-16886121D01*
X23576480Y-16805673D01*
X23561474Y-16788257D01*
X23561473Y-16788256D01*
X23556869Y-16782913D01*
X23449522Y-16713334D01*
X23433365Y-16700263D01*
X23074088Y-16340986D01*
X23066346Y-16332272D01*
X23049394Y-16310768D01*
X23049392Y-16310767D01*
X23044811Y-16304955D01*
X22996165Y-16271334D01*
X22993674Y-16269553D01*
X22952100Y-16238845D01*
X22952097Y-16238843D01*
X22946142Y-16234445D01*
X22939332Y-16232054D01*
X22933392Y-16227948D01*
X22926335Y-16225716D01*
X22877016Y-16210118D01*
X22874068Y-16209134D01*
X22825338Y-16192022D01*
X22825337Y-16192022D01*
X22818352Y-16189569D01*
X22812317Y-16189332D01*
X22809636Y-16188810D01*
X22804256Y-16187108D01*
X22798635Y-16186666D01*
X22798632Y-16186665D01*
X22798546Y-16186659D01*
X22796531Y-16186500D01*
X22742204Y-16186500D01*
X22738317Y-16186424D01*
X22737918Y-16186408D01*
X22683017Y-16184251D01*
X22676450Y-16185992D01*
X22667225Y-16186500D01*
X22216500Y-16186500D01*
X22158309Y-16167593D01*
X22122345Y-16118093D01*
X22117500Y-16087500D01*
X22117500Y-16037000D01*
X22106840Y-15983409D01*
X22103760Y-15967924D01*
X22103759Y-15967922D01*
X22101857Y-15958359D01*
X22057310Y-15891690D01*
X21990641Y-15847143D01*
X21981078Y-15845241D01*
X21981076Y-15845240D01*
X21955800Y-15840213D01*
X21912000Y-15831500D01*
X21012000Y-15831500D01*
X20968200Y-15840213D01*
X20942924Y-15845240D01*
X20942922Y-15845241D01*
X20933359Y-15847143D01*
X20866690Y-15891690D01*
X20822143Y-15958359D01*
X20820241Y-15967922D01*
X20820240Y-15967924D01*
X20817160Y-15983409D01*
X20806500Y-16037000D01*
X18817500Y-16037000D01*
X18806840Y-15983409D01*
X18803760Y-15967924D01*
X18803759Y-15967922D01*
X18801857Y-15958359D01*
X18757310Y-15891690D01*
X18690641Y-15847143D01*
X18681075Y-15845240D01*
X18673613Y-15842149D01*
X18627088Y-15802411D01*
X18612500Y-15750685D01*
X18612500Y-14856315D01*
X18631407Y-14798124D01*
X18673613Y-14764851D01*
X18681075Y-14761760D01*
X18690641Y-14759857D01*
X18727094Y-14735500D01*
X18749200Y-14720729D01*
X18757310Y-14715310D01*
X18801857Y-14648641D01*
X18803842Y-14638666D01*
X18809478Y-14610330D01*
X18817500Y-14570000D01*
X18817500Y-14232242D01*
X20807000Y-14232242D01*
X20807000Y-14565142D01*
X20807948Y-14574763D01*
X20820703Y-14638888D01*
X20828022Y-14656557D01*
X20861624Y-14706847D01*
X20875153Y-14720376D01*
X20925443Y-14753978D01*
X20943112Y-14761297D01*
X21007237Y-14774052D01*
X21016858Y-14775000D01*
X21192320Y-14775000D01*
X21205005Y-14770878D01*
X21208000Y-14766757D01*
X21208000Y-14759320D01*
X21715999Y-14759320D01*
X21720121Y-14772005D01*
X21724242Y-14775000D01*
X21907142Y-14775000D01*
X21916763Y-14774052D01*
X21980888Y-14761297D01*
X21998557Y-14753978D01*
X22048847Y-14720376D01*
X22062376Y-14706847D01*
X22095978Y-14656557D01*
X22103297Y-14638888D01*
X22116052Y-14574763D01*
X22117000Y-14565142D01*
X22117000Y-14281000D01*
X23324500Y-14281000D01*
X23324500Y-15181000D01*
X23325941Y-15188242D01*
X23338179Y-15249766D01*
X23340143Y-15259641D01*
X23347714Y-15270972D01*
X23376532Y-15314100D01*
X23384690Y-15326310D01*
X23451359Y-15370857D01*
X23460922Y-15372759D01*
X23460924Y-15372760D01*
X23482804Y-15377112D01*
X23530000Y-15386500D01*
X23580500Y-15386500D01*
X23638691Y-15405407D01*
X23674655Y-15454907D01*
X23679500Y-15485500D01*
X23679500Y-15820687D01*
X23675175Y-15849629D01*
X23673493Y-15855132D01*
X23670496Y-15861515D01*
X23649536Y-15996130D01*
X23650451Y-16003128D01*
X23660855Y-16082692D01*
X23667200Y-16131216D01*
X23670041Y-16137672D01*
X23670041Y-16137673D01*
X23717315Y-16245110D01*
X23722069Y-16255915D01*
X23726606Y-16261312D01*
X23726607Y-16261314D01*
X23729069Y-16264243D01*
X23809731Y-16360201D01*
X23815602Y-16364109D01*
X23815603Y-16364110D01*
X23832543Y-16375386D01*
X23923139Y-16435692D01*
X24053177Y-16476319D01*
X24121284Y-16477567D01*
X24182338Y-16478686D01*
X24182340Y-16478686D01*
X24189391Y-16478815D01*
X24196194Y-16476960D01*
X24196196Y-16476960D01*
X24269088Y-16457087D01*
X24320830Y-16442981D01*
X24368214Y-16413887D01*
X24430919Y-16375386D01*
X24430921Y-16375384D01*
X24436928Y-16371696D01*
X24441657Y-16366471D01*
X24441660Y-16366469D01*
X24523620Y-16275921D01*
X24528353Y-16270692D01*
X24531477Y-16264242D01*
X26544000Y-16264242D01*
X26544000Y-16506557D01*
X26544550Y-16513913D01*
X26558014Y-16603470D01*
X26562317Y-16617458D01*
X26614476Y-16726078D01*
X26622698Y-16738178D01*
X26704494Y-16826664D01*
X26715913Y-16835811D01*
X26820102Y-16896330D01*
X26833714Y-16901719D01*
X26937280Y-16925725D01*
X26948429Y-16927000D01*
X26974320Y-16927000D01*
X26987005Y-16922878D01*
X26990000Y-16918757D01*
X26990000Y-16911320D01*
X27497999Y-16911320D01*
X27502121Y-16924005D01*
X27506242Y-16927000D01*
X27523557Y-16927000D01*
X27530913Y-16926450D01*
X27620470Y-16912986D01*
X27634458Y-16908683D01*
X27743078Y-16856524D01*
X27755178Y-16848302D01*
X27843661Y-16766508D01*
X27852813Y-16755085D01*
X27913329Y-16650899D01*
X27918719Y-16637283D01*
X27942724Y-16533720D01*
X27943999Y-16522571D01*
X27943999Y-16271680D01*
X27939877Y-16258995D01*
X27935756Y-16256000D01*
X27513680Y-16256000D01*
X27500995Y-16260122D01*
X27498000Y-16264243D01*
X27497999Y-16911320D01*
X26990000Y-16911320D01*
X26990001Y-16271679D01*
X26985879Y-16258994D01*
X26981758Y-16255999D01*
X26559680Y-16255999D01*
X26546995Y-16260121D01*
X26544000Y-16264242D01*
X24531477Y-16264242D01*
X24587754Y-16148088D01*
X24589344Y-16138641D01*
X24609723Y-16017509D01*
X24609723Y-16017508D01*
X24610357Y-16013740D01*
X24610500Y-16002000D01*
X24604175Y-15957835D01*
X24592187Y-15874126D01*
X24592186Y-15874123D01*
X24591186Y-15867140D01*
X24588265Y-15860716D01*
X24586287Y-15853952D01*
X24587316Y-15853651D01*
X24580500Y-15822188D01*
X24580500Y-15485500D01*
X24581822Y-15481429D01*
X26544001Y-15481429D01*
X26544001Y-15732320D01*
X26548123Y-15745005D01*
X26552244Y-15748000D01*
X26974320Y-15748000D01*
X26987005Y-15743878D01*
X26990000Y-15739757D01*
X26990000Y-15732321D01*
X27497999Y-15732321D01*
X27502121Y-15745006D01*
X27506242Y-15748001D01*
X27928320Y-15748001D01*
X27941005Y-15743879D01*
X27944000Y-15739758D01*
X27944000Y-15497444D01*
X27943450Y-15490087D01*
X27929986Y-15400530D01*
X27925683Y-15386542D01*
X27873524Y-15277922D01*
X27865302Y-15265822D01*
X27783506Y-15177336D01*
X27772087Y-15168189D01*
X27667898Y-15107670D01*
X27654286Y-15102281D01*
X27550720Y-15078275D01*
X27539571Y-15077000D01*
X27513680Y-15077000D01*
X27500995Y-15081122D01*
X27498000Y-15085243D01*
X27497999Y-15732321D01*
X26990000Y-15732321D01*
X26990001Y-15092680D01*
X26985879Y-15079995D01*
X26981758Y-15077000D01*
X26964444Y-15077000D01*
X26957087Y-15077550D01*
X26867530Y-15091014D01*
X26853542Y-15095317D01*
X26744922Y-15147476D01*
X26732822Y-15155698D01*
X26644339Y-15237492D01*
X26635187Y-15248915D01*
X26574671Y-15353101D01*
X26569281Y-15366717D01*
X26545276Y-15470280D01*
X26544001Y-15481429D01*
X24581822Y-15481429D01*
X24599407Y-15427309D01*
X24648907Y-15391345D01*
X24679500Y-15386500D01*
X24730000Y-15386500D01*
X24777196Y-15377112D01*
X24799076Y-15372760D01*
X24799078Y-15372759D01*
X24808641Y-15370857D01*
X24875310Y-15326310D01*
X24883469Y-15314100D01*
X24912286Y-15270972D01*
X24919857Y-15259641D01*
X24921822Y-15249766D01*
X24934059Y-15188242D01*
X24935500Y-15181000D01*
X24935500Y-14281000D01*
X24924982Y-14228122D01*
X24921760Y-14211924D01*
X24921759Y-14211922D01*
X24919857Y-14202359D01*
X24894480Y-14164380D01*
X24880729Y-14143800D01*
X24875310Y-14135690D01*
X24808641Y-14091143D01*
X24799078Y-14089241D01*
X24799076Y-14089240D01*
X24768996Y-14083257D01*
X24730000Y-14075500D01*
X23530000Y-14075500D01*
X23491004Y-14083257D01*
X23460924Y-14089240D01*
X23460922Y-14089241D01*
X23451359Y-14091143D01*
X23384690Y-14135690D01*
X23379271Y-14143800D01*
X23365520Y-14164380D01*
X23340143Y-14202359D01*
X23338241Y-14211922D01*
X23338240Y-14211924D01*
X23335018Y-14228122D01*
X23324500Y-14281000D01*
X22117000Y-14281000D01*
X22117000Y-14239680D01*
X22112878Y-14226995D01*
X22108757Y-14224000D01*
X21731680Y-14224000D01*
X21718995Y-14228122D01*
X21716000Y-14232243D01*
X21715999Y-14759320D01*
X21208000Y-14759320D01*
X21208001Y-14239679D01*
X21203879Y-14226994D01*
X21199758Y-14223999D01*
X20822680Y-14223999D01*
X20809995Y-14228121D01*
X20807000Y-14232242D01*
X18817500Y-14232242D01*
X18817500Y-13978242D01*
X26544000Y-13978242D01*
X26544000Y-14220557D01*
X26544550Y-14227913D01*
X26558014Y-14317470D01*
X26562317Y-14331458D01*
X26614476Y-14440078D01*
X26622698Y-14452178D01*
X26704494Y-14540664D01*
X26715913Y-14549811D01*
X26820102Y-14610330D01*
X26833714Y-14615719D01*
X26937280Y-14639725D01*
X26948429Y-14641000D01*
X26974320Y-14641000D01*
X26987005Y-14636878D01*
X26990000Y-14632757D01*
X26990000Y-14625320D01*
X27497999Y-14625320D01*
X27502121Y-14638005D01*
X27506242Y-14641000D01*
X27523557Y-14641000D01*
X27530913Y-14640450D01*
X27620470Y-14626986D01*
X27634458Y-14622683D01*
X27743078Y-14570524D01*
X27755178Y-14562302D01*
X27843661Y-14480508D01*
X27852813Y-14469085D01*
X27913329Y-14364899D01*
X27918719Y-14351283D01*
X27942724Y-14247720D01*
X27943999Y-14236571D01*
X27943999Y-13985680D01*
X27939877Y-13972995D01*
X27935756Y-13970000D01*
X27513680Y-13970000D01*
X27500995Y-13974122D01*
X27498000Y-13978243D01*
X27497999Y-14625320D01*
X26990000Y-14625320D01*
X26990001Y-13985679D01*
X26985879Y-13972994D01*
X26981758Y-13969999D01*
X26559680Y-13969999D01*
X26546995Y-13974121D01*
X26544000Y-13978242D01*
X18817500Y-13978242D01*
X18817500Y-13374858D01*
X20807000Y-13374858D01*
X20807000Y-13700320D01*
X20811122Y-13713005D01*
X20815243Y-13716000D01*
X21192320Y-13716000D01*
X21205005Y-13711878D01*
X21208000Y-13707757D01*
X21208000Y-13700321D01*
X21715999Y-13700321D01*
X21720121Y-13713006D01*
X21724242Y-13716001D01*
X22101320Y-13716001D01*
X22114005Y-13711879D01*
X22117000Y-13707758D01*
X22117000Y-13374858D01*
X22116052Y-13365237D01*
X22103297Y-13301112D01*
X22095978Y-13283443D01*
X22062376Y-13233153D01*
X22048847Y-13219624D01*
X22012636Y-13195429D01*
X26544001Y-13195429D01*
X26544001Y-13446320D01*
X26548123Y-13459005D01*
X26552244Y-13462000D01*
X26974320Y-13462000D01*
X26987005Y-13457878D01*
X26990000Y-13453757D01*
X26990000Y-13446321D01*
X27497999Y-13446321D01*
X27502121Y-13459006D01*
X27506242Y-13462001D01*
X27928320Y-13462001D01*
X27941005Y-13457879D01*
X27944000Y-13453758D01*
X27944000Y-13211444D01*
X27943450Y-13204087D01*
X27929986Y-13114530D01*
X27925683Y-13100542D01*
X27873524Y-12991922D01*
X27865302Y-12979822D01*
X27783506Y-12891336D01*
X27772087Y-12882189D01*
X27667898Y-12821670D01*
X27654286Y-12816281D01*
X27550720Y-12792275D01*
X27539571Y-12791000D01*
X27513680Y-12791000D01*
X27500995Y-12795122D01*
X27498000Y-12799243D01*
X27497999Y-13446321D01*
X26990000Y-13446321D01*
X26990001Y-12806680D01*
X26985879Y-12793995D01*
X26981758Y-12791000D01*
X26964444Y-12791000D01*
X26957087Y-12791550D01*
X26867530Y-12805014D01*
X26853542Y-12809317D01*
X26744922Y-12861476D01*
X26732822Y-12869698D01*
X26644339Y-12951492D01*
X26635187Y-12962915D01*
X26574671Y-13067101D01*
X26569281Y-13080717D01*
X26545276Y-13184280D01*
X26544001Y-13195429D01*
X22012636Y-13195429D01*
X21998557Y-13186022D01*
X21980888Y-13178703D01*
X21916763Y-13165948D01*
X21907142Y-13165000D01*
X21731680Y-13165000D01*
X21718995Y-13169122D01*
X21716000Y-13173243D01*
X21715999Y-13700321D01*
X21208000Y-13700321D01*
X21208001Y-13180680D01*
X21203879Y-13167995D01*
X21199758Y-13165000D01*
X21016858Y-13165000D01*
X21007237Y-13165948D01*
X20943112Y-13178703D01*
X20925443Y-13186022D01*
X20875153Y-13219624D01*
X20861624Y-13233153D01*
X20828022Y-13283443D01*
X20820703Y-13301112D01*
X20807948Y-13365237D01*
X20807000Y-13374858D01*
X18817500Y-13374858D01*
X18817500Y-13370000D01*
X18808347Y-13323985D01*
X18803760Y-13300924D01*
X18803759Y-13300922D01*
X18801857Y-13291359D01*
X18757310Y-13224690D01*
X18690641Y-13180143D01*
X18681075Y-13178240D01*
X18673613Y-13175149D01*
X18627088Y-13135411D01*
X18612500Y-13083685D01*
X18612500Y-12434610D01*
X18631407Y-12376419D01*
X18641496Y-12364606D01*
X18751606Y-12254496D01*
X18806123Y-12226719D01*
X18821610Y-12225500D01*
X19145258Y-12225500D01*
X19186364Y-12219320D01*
X19238614Y-12211465D01*
X19238616Y-12211464D01*
X19245935Y-12210364D01*
X19252606Y-12207161D01*
X19252608Y-12207160D01*
X19361361Y-12154937D01*
X19368029Y-12151735D01*
X19467486Y-12059798D01*
X19498381Y-12006608D01*
X19531795Y-11949083D01*
X19531796Y-11949080D01*
X19535513Y-11942681D01*
X19553307Y-11865915D01*
X19561225Y-11831754D01*
X19561225Y-11831751D01*
X19562500Y-11826252D01*
X19562500Y-10791742D01*
X19557012Y-10755237D01*
X19548465Y-10698386D01*
X19548464Y-10698384D01*
X19547364Y-10691065D01*
X19542704Y-10681359D01*
X19491937Y-10575639D01*
X19488735Y-10568971D01*
X19447812Y-10524700D01*
X19422196Y-10469136D01*
X19434133Y-10409127D01*
X19479062Y-10367594D01*
X19520510Y-10358500D01*
X20100135Y-10358500D01*
X20158326Y-10377407D01*
X20194290Y-10426907D01*
X20194290Y-10488093D01*
X20167337Y-10530197D01*
X20156514Y-10540202D01*
X20144772Y-10560417D01*
X20092205Y-10650917D01*
X20092204Y-10650920D01*
X20088487Y-10657319D01*
X20086815Y-10664533D01*
X20063561Y-10764858D01*
X20061500Y-10773748D01*
X20061500Y-11808258D01*
X20065709Y-11836252D01*
X20075485Y-11901278D01*
X20076636Y-11908935D01*
X20079839Y-11915606D01*
X20079840Y-11915608D01*
X20129616Y-12019266D01*
X20135265Y-12031029D01*
X20227202Y-12130486D01*
X20272062Y-12156543D01*
X20337917Y-12194795D01*
X20337920Y-12194796D01*
X20344319Y-12198513D01*
X20370429Y-12204565D01*
X20455246Y-12224225D01*
X20455249Y-12224225D01*
X20460748Y-12225500D01*
X21045258Y-12225500D01*
X21086364Y-12219320D01*
X21138614Y-12211465D01*
X21138616Y-12211464D01*
X21145935Y-12210364D01*
X21152606Y-12207161D01*
X21152608Y-12207160D01*
X21261361Y-12154937D01*
X21268029Y-12151735D01*
X21367486Y-12059798D01*
X21413967Y-11979775D01*
X21459543Y-11938954D01*
X21499573Y-11930500D01*
X22346071Y-11930500D01*
X22375593Y-11935004D01*
X22395444Y-11941206D01*
X22395448Y-11941207D01*
X22402177Y-11943309D01*
X22470284Y-11944557D01*
X22531338Y-11945676D01*
X22531340Y-11945676D01*
X22538391Y-11945805D01*
X22545194Y-11943950D01*
X22545196Y-11943950D01*
X22624596Y-11922303D01*
X22669830Y-11909971D01*
X22685407Y-11900407D01*
X22692364Y-11896135D01*
X22744166Y-11881500D01*
X23243685Y-11881500D01*
X23301876Y-11900407D01*
X23335149Y-11942613D01*
X23338240Y-11950075D01*
X23340143Y-11959641D01*
X23384690Y-12026310D01*
X23451359Y-12070857D01*
X23460922Y-12072759D01*
X23460924Y-12072760D01*
X23479109Y-12076377D01*
X23530000Y-12086500D01*
X24730000Y-12086500D01*
X24780891Y-12076377D01*
X24799076Y-12072760D01*
X24799078Y-12072759D01*
X24808641Y-12070857D01*
X24875310Y-12026310D01*
X24919857Y-11959641D01*
X24921958Y-11949083D01*
X24930471Y-11906281D01*
X24935500Y-11881000D01*
X24935500Y-11692242D01*
X26544000Y-11692242D01*
X26544000Y-11934557D01*
X26544550Y-11941913D01*
X26558014Y-12031470D01*
X26562317Y-12045458D01*
X26614476Y-12154078D01*
X26622698Y-12166178D01*
X26704494Y-12254664D01*
X26715913Y-12263811D01*
X26820102Y-12324330D01*
X26833714Y-12329719D01*
X26937280Y-12353725D01*
X26948429Y-12355000D01*
X26974320Y-12355000D01*
X26987005Y-12350878D01*
X26990000Y-12346757D01*
X26990000Y-12339320D01*
X27497999Y-12339320D01*
X27502121Y-12352005D01*
X27506242Y-12355000D01*
X27523557Y-12355000D01*
X27530913Y-12354450D01*
X27620470Y-12340986D01*
X27634458Y-12336683D01*
X27743078Y-12284524D01*
X27755178Y-12276302D01*
X27843661Y-12194508D01*
X27852813Y-12183085D01*
X27913329Y-12078899D01*
X27918719Y-12065283D01*
X27942724Y-11961720D01*
X27943999Y-11950571D01*
X27943999Y-11699680D01*
X27939877Y-11686995D01*
X27935756Y-11684000D01*
X27513680Y-11684000D01*
X27500995Y-11688122D01*
X27498000Y-11692243D01*
X27497999Y-12339320D01*
X26990000Y-12339320D01*
X26990001Y-11699679D01*
X26985879Y-11686994D01*
X26981758Y-11683999D01*
X26559680Y-11683999D01*
X26546995Y-11688121D01*
X26544000Y-11692242D01*
X24935500Y-11692242D01*
X24935500Y-10981000D01*
X24926787Y-10937200D01*
X24921760Y-10911924D01*
X24921759Y-10911922D01*
X24919857Y-10902359D01*
X24875310Y-10835690D01*
X24808641Y-10791143D01*
X24799078Y-10789241D01*
X24799076Y-10789240D01*
X24773800Y-10784213D01*
X24730000Y-10775500D01*
X23530000Y-10775500D01*
X23486200Y-10784213D01*
X23460924Y-10789240D01*
X23460922Y-10789241D01*
X23451359Y-10791143D01*
X23384690Y-10835690D01*
X23340143Y-10902359D01*
X23338240Y-10911924D01*
X23335149Y-10919387D01*
X23295411Y-10965912D01*
X23243685Y-10980500D01*
X22548858Y-10980500D01*
X22537222Y-10979814D01*
X22536424Y-10979720D01*
X22502682Y-10975726D01*
X22447200Y-10985858D01*
X22444599Y-10986333D01*
X22441537Y-10986843D01*
X22383055Y-10995636D01*
X22376547Y-10998761D01*
X22369446Y-11000058D01*
X22362881Y-11003468D01*
X22362879Y-11003469D01*
X22354536Y-11007803D01*
X22336102Y-11015139D01*
X22299187Y-11025689D01*
X22271983Y-11029500D01*
X21561500Y-11029500D01*
X21503309Y-11010593D01*
X21467345Y-10961093D01*
X21462500Y-10930500D01*
X21462500Y-10791742D01*
X21457012Y-10755237D01*
X21448465Y-10698386D01*
X21448464Y-10698384D01*
X21447364Y-10691065D01*
X21442704Y-10681359D01*
X21391937Y-10575639D01*
X21388735Y-10568971D01*
X21347812Y-10524700D01*
X21322196Y-10469136D01*
X21334133Y-10409127D01*
X21379062Y-10367594D01*
X21420510Y-10358500D01*
X26761902Y-10358500D01*
X26820093Y-10377407D01*
X26856057Y-10426907D01*
X26856057Y-10488093D01*
X26820093Y-10537593D01*
X26804756Y-10546744D01*
X26744922Y-10575476D01*
X26732822Y-10583698D01*
X26644339Y-10665492D01*
X26635187Y-10676915D01*
X26574671Y-10781101D01*
X26569281Y-10794717D01*
X26545276Y-10898280D01*
X26544001Y-10909429D01*
X26544001Y-11160320D01*
X26548123Y-11173005D01*
X26552244Y-11176000D01*
X26990001Y-11176000D01*
X27928320Y-11176001D01*
X27941005Y-11171879D01*
X27944000Y-11167758D01*
X27944000Y-10925444D01*
X27943450Y-10918087D01*
X27929986Y-10828530D01*
X27925683Y-10814542D01*
X27873524Y-10705922D01*
X27865302Y-10693822D01*
X27783506Y-10605336D01*
X27772087Y-10596189D01*
X27680700Y-10543106D01*
X27639879Y-10497529D01*
X27633643Y-10436663D01*
X27664374Y-10383755D01*
X27720335Y-10359016D01*
X27730425Y-10358500D01*
X28660759Y-10358500D01*
X28718950Y-10377407D01*
X28754914Y-10426907D01*
X28754914Y-10488093D01*
X28718950Y-10537593D01*
X28703614Y-10546744D01*
X28647227Y-10573821D01*
X28637972Y-10578265D01*
X28538515Y-10670202D01*
X28519615Y-10702741D01*
X28474206Y-10780917D01*
X28474205Y-10780920D01*
X28470488Y-10787319D01*
X28468816Y-10794533D01*
X28445703Y-10894249D01*
X28443501Y-10903748D01*
X28443500Y-11938257D01*
X28447033Y-11961754D01*
X28457448Y-12031029D01*
X28458636Y-12038934D01*
X28461839Y-12045605D01*
X28461840Y-12045607D01*
X28513928Y-12154078D01*
X28517265Y-12161028D01*
X28609202Y-12260485D01*
X28615598Y-12264200D01*
X28615599Y-12264201D01*
X28719918Y-12324795D01*
X28726319Y-12328513D01*
X28789221Y-12343093D01*
X28837246Y-12354225D01*
X28837249Y-12354225D01*
X28842748Y-12355500D01*
X29427257Y-12355500D01*
X29463696Y-12350022D01*
X29520613Y-12341465D01*
X29520615Y-12341464D01*
X29527934Y-12340364D01*
X29534605Y-12337161D01*
X29534607Y-12337160D01*
X29643360Y-12284937D01*
X29650028Y-12281735D01*
X29749485Y-12189798D01*
X29779199Y-12138641D01*
X29813794Y-12079083D01*
X29813795Y-12079080D01*
X29817512Y-12072681D01*
X29819769Y-12062946D01*
X29831191Y-12013667D01*
X29831541Y-12012156D01*
X29863100Y-11959738D01*
X29919442Y-11935880D01*
X29927984Y-11935511D01*
X30129820Y-11935511D01*
X30159343Y-11940015D01*
X30221166Y-11959330D01*
X30289273Y-11960578D01*
X30350327Y-11961697D01*
X30350329Y-11961697D01*
X30357380Y-11961826D01*
X30364183Y-11959971D01*
X30364185Y-11959971D01*
X30457399Y-11934558D01*
X30488819Y-11925992D01*
X30585167Y-11866834D01*
X30644648Y-11852498D01*
X30701196Y-11875863D01*
X30733211Y-11928004D01*
X30734824Y-11938282D01*
X30735000Y-11938256D01*
X30749014Y-12031470D01*
X30753317Y-12045458D01*
X30805476Y-12154078D01*
X30813698Y-12166178D01*
X30895494Y-12254664D01*
X30906913Y-12263811D01*
X31011102Y-12324330D01*
X31024714Y-12329719D01*
X31128280Y-12353725D01*
X31139429Y-12355000D01*
X31165320Y-12355000D01*
X31178005Y-12350878D01*
X31181000Y-12346757D01*
X31181000Y-12339320D01*
X31688999Y-12339320D01*
X31693121Y-12352005D01*
X31697242Y-12355000D01*
X31714557Y-12355000D01*
X31721913Y-12354450D01*
X31811470Y-12340986D01*
X31825458Y-12336683D01*
X31934078Y-12284524D01*
X31946178Y-12276302D01*
X32034661Y-12194508D01*
X32043813Y-12183085D01*
X32104329Y-12078899D01*
X32109719Y-12065283D01*
X32133724Y-11961720D01*
X32134999Y-11950571D01*
X32134999Y-11699680D01*
X32130877Y-11686995D01*
X32126756Y-11684000D01*
X31704680Y-11684000D01*
X31691995Y-11688122D01*
X31689000Y-11692243D01*
X31688999Y-12339320D01*
X31181000Y-12339320D01*
X31181001Y-11684000D01*
X31181000Y-11683996D01*
X31181001Y-11275000D01*
X31199908Y-11216809D01*
X31249409Y-11180845D01*
X31280001Y-11176000D01*
X32119320Y-11176001D01*
X32132005Y-11171879D01*
X32135000Y-11167758D01*
X32135000Y-10925444D01*
X32134450Y-10918087D01*
X32120986Y-10828530D01*
X32116683Y-10814542D01*
X32064524Y-10705922D01*
X32056302Y-10693822D01*
X31974506Y-10605336D01*
X31963087Y-10596189D01*
X31871700Y-10543106D01*
X31830879Y-10497529D01*
X31824643Y-10436663D01*
X31855374Y-10383755D01*
X31911335Y-10359016D01*
X31921425Y-10358500D01*
X32851759Y-10358500D01*
X32909950Y-10377407D01*
X32945914Y-10426907D01*
X32945914Y-10488093D01*
X32909950Y-10537593D01*
X32894614Y-10546744D01*
X32838227Y-10573821D01*
X32828972Y-10578265D01*
X32729515Y-10670202D01*
X32710615Y-10702741D01*
X32665206Y-10780917D01*
X32665205Y-10780920D01*
X32661488Y-10787319D01*
X32659816Y-10794533D01*
X32636703Y-10894249D01*
X32634501Y-10903748D01*
X32634500Y-11938257D01*
X32638033Y-11961754D01*
X32648448Y-12031029D01*
X32649636Y-12038934D01*
X32652839Y-12045605D01*
X32652840Y-12045607D01*
X32704928Y-12154078D01*
X32708265Y-12161028D01*
X32800202Y-12260485D01*
X32806598Y-12264200D01*
X32806599Y-12264201D01*
X32910918Y-12324795D01*
X32917319Y-12328513D01*
X32980221Y-12343093D01*
X33028246Y-12354225D01*
X33028249Y-12354225D01*
X33033748Y-12355500D01*
X33618257Y-12355500D01*
X33654696Y-12350022D01*
X33711613Y-12341465D01*
X33711615Y-12341464D01*
X33718934Y-12340364D01*
X33725605Y-12337161D01*
X33725607Y-12337160D01*
X33834360Y-12284937D01*
X33841028Y-12281735D01*
X33940485Y-12189798D01*
X33970199Y-12138641D01*
X34004794Y-12079083D01*
X34004795Y-12079080D01*
X34008512Y-12072681D01*
X34018064Y-12031470D01*
X34034224Y-11961754D01*
X34034224Y-11961751D01*
X34035499Y-11956252D01*
X34035499Y-11854500D01*
X34054406Y-11796309D01*
X34103906Y-11760345D01*
X34134499Y-11755500D01*
X34241167Y-11755500D01*
X34299358Y-11774407D01*
X34311171Y-11784496D01*
X35442170Y-12915496D01*
X35469947Y-12970013D01*
X35460376Y-13030445D01*
X35417111Y-13073710D01*
X35372166Y-13084500D01*
X34071811Y-13084500D01*
X34013620Y-13065593D01*
X33982567Y-13028354D01*
X33964938Y-12991642D01*
X33964937Y-12991640D01*
X33961735Y-12984972D01*
X33869798Y-12885515D01*
X33859774Y-12879692D01*
X33759082Y-12821205D01*
X33752681Y-12817487D01*
X33656193Y-12795122D01*
X33641754Y-12791775D01*
X33641751Y-12791775D01*
X33636252Y-12790500D01*
X33051743Y-12790500D01*
X33021000Y-12795122D01*
X32958387Y-12804535D01*
X32958385Y-12804536D01*
X32951066Y-12805636D01*
X32944395Y-12808839D01*
X32944393Y-12808840D01*
X32863464Y-12847702D01*
X32828972Y-12864265D01*
X32729515Y-12956202D01*
X32714869Y-12981417D01*
X32665206Y-13066917D01*
X32665205Y-13066920D01*
X32661488Y-13073319D01*
X32659816Y-13080533D01*
X32638327Y-13173243D01*
X32634501Y-13189748D01*
X32634500Y-14224257D01*
X32649636Y-14324934D01*
X32652840Y-14331605D01*
X32652841Y-14331610D01*
X32681670Y-14391646D01*
X32689815Y-14452287D01*
X32660761Y-14506134D01*
X32605605Y-14532619D01*
X32592426Y-14533500D01*
X32178390Y-14533500D01*
X32120199Y-14514593D01*
X32084235Y-14465093D01*
X32084235Y-14403907D01*
X32092783Y-14384776D01*
X32104328Y-14364899D01*
X32109719Y-14351283D01*
X32133724Y-14247720D01*
X32134999Y-14236571D01*
X32134999Y-13985680D01*
X32130877Y-13972995D01*
X32126756Y-13970000D01*
X31688999Y-13970000D01*
X30750680Y-13969999D01*
X30737995Y-13974121D01*
X30735000Y-13978242D01*
X30735000Y-14220557D01*
X30735550Y-14227913D01*
X30749014Y-14317470D01*
X30753317Y-14331458D01*
X30782219Y-14391646D01*
X30790364Y-14452287D01*
X30761310Y-14506134D01*
X30706154Y-14532619D01*
X30692975Y-14533500D01*
X30387834Y-14533500D01*
X30329643Y-14514593D01*
X30317831Y-14504504D01*
X29873496Y-14060170D01*
X29845718Y-14005653D01*
X29844499Y-13990166D01*
X29844500Y-13605758D01*
X29844500Y-13207743D01*
X29842649Y-13195429D01*
X30735001Y-13195429D01*
X30735001Y-13446320D01*
X30739123Y-13459005D01*
X30743244Y-13462000D01*
X31165320Y-13462000D01*
X31178005Y-13457878D01*
X31181000Y-13453757D01*
X31181000Y-13446321D01*
X31688999Y-13446321D01*
X31693121Y-13459006D01*
X31697242Y-13462001D01*
X32119320Y-13462001D01*
X32132005Y-13457879D01*
X32135000Y-13453758D01*
X32135000Y-13211444D01*
X32134450Y-13204087D01*
X32120986Y-13114530D01*
X32116683Y-13100542D01*
X32064524Y-12991922D01*
X32056302Y-12979822D01*
X31974506Y-12891336D01*
X31963087Y-12882189D01*
X31858898Y-12821670D01*
X31845286Y-12816281D01*
X31741720Y-12792275D01*
X31730571Y-12791000D01*
X31704680Y-12791000D01*
X31691995Y-12795122D01*
X31689000Y-12799243D01*
X31688999Y-13446321D01*
X31181000Y-13446321D01*
X31181001Y-12806680D01*
X31176879Y-12793995D01*
X31172758Y-12791000D01*
X31155444Y-12791000D01*
X31148087Y-12791550D01*
X31058530Y-12805014D01*
X31044542Y-12809317D01*
X30935922Y-12861476D01*
X30923822Y-12869698D01*
X30835339Y-12951492D01*
X30826187Y-12962915D01*
X30765671Y-13067101D01*
X30760281Y-13080717D01*
X30736276Y-13184280D01*
X30735001Y-13195429D01*
X29842649Y-13195429D01*
X29834823Y-13143377D01*
X29830465Y-13114387D01*
X29830464Y-13114385D01*
X29829364Y-13107066D01*
X29816712Y-13080717D01*
X29773937Y-12991640D01*
X29770735Y-12984972D01*
X29678798Y-12885515D01*
X29668774Y-12879692D01*
X29568082Y-12821205D01*
X29561681Y-12817487D01*
X29465193Y-12795122D01*
X29450754Y-12791775D01*
X29450751Y-12791775D01*
X29445252Y-12790500D01*
X28860743Y-12790500D01*
X28830000Y-12795122D01*
X28767387Y-12804535D01*
X28767385Y-12804536D01*
X28760066Y-12805636D01*
X28753395Y-12808839D01*
X28753393Y-12808840D01*
X28672464Y-12847702D01*
X28637972Y-12864265D01*
X28538515Y-12956202D01*
X28523869Y-12981417D01*
X28474206Y-13066917D01*
X28474205Y-13066920D01*
X28470488Y-13073319D01*
X28468816Y-13080533D01*
X28447327Y-13173243D01*
X28443501Y-13189748D01*
X28443500Y-14224257D01*
X28458636Y-14324934D01*
X28461839Y-14331605D01*
X28461840Y-14331607D01*
X28508443Y-14428657D01*
X28517265Y-14447028D01*
X28609202Y-14546485D01*
X28615598Y-14550200D01*
X28615599Y-14550201D01*
X28719918Y-14610795D01*
X28726319Y-14614513D01*
X28780131Y-14626986D01*
X28837246Y-14640225D01*
X28837249Y-14640225D01*
X28842748Y-14641500D01*
X29427257Y-14641500D01*
X29430914Y-14640950D01*
X29430917Y-14640950D01*
X29470803Y-14634954D01*
X29531158Y-14645001D01*
X29555524Y-14662850D01*
X29968901Y-15076227D01*
X29974736Y-15082595D01*
X29999559Y-15112178D01*
X30033218Y-15131611D01*
X30040494Y-15136246D01*
X30072324Y-15158534D01*
X30080693Y-15160776D01*
X30085985Y-15163244D01*
X30091461Y-15165237D01*
X30098962Y-15169568D01*
X30107492Y-15171072D01*
X30137233Y-15176316D01*
X30145658Y-15178184D01*
X30183194Y-15188242D01*
X30191823Y-15187487D01*
X30221652Y-15184877D01*
X30230281Y-15184500D01*
X30691609Y-15184500D01*
X30749800Y-15203407D01*
X30785764Y-15252907D01*
X30785764Y-15314093D01*
X30777216Y-15333224D01*
X30765671Y-15353101D01*
X30760280Y-15366717D01*
X30736275Y-15470280D01*
X30735000Y-15481429D01*
X30735000Y-15732320D01*
X30739122Y-15745005D01*
X30743243Y-15748000D01*
X32119320Y-15748000D01*
X32132005Y-15743878D01*
X32135000Y-15739757D01*
X32135000Y-15497443D01*
X32134450Y-15490086D01*
X32120986Y-15400529D01*
X32116684Y-15386544D01*
X32087781Y-15326355D01*
X32079636Y-15265714D01*
X32108690Y-15211867D01*
X32163846Y-15185381D01*
X32177025Y-15184500D01*
X32591037Y-15184500D01*
X32649228Y-15203407D01*
X32685192Y-15252907D01*
X32685192Y-15314093D01*
X32676644Y-15333224D01*
X32661487Y-15359319D01*
X32655212Y-15386393D01*
X32639331Y-15454907D01*
X32634500Y-15475748D01*
X32634500Y-16510258D01*
X32636576Y-16524066D01*
X32648514Y-16603470D01*
X32649636Y-16610935D01*
X32652840Y-16617606D01*
X32652841Y-16617611D01*
X32684109Y-16682726D01*
X32692254Y-16743366D01*
X32663200Y-16797213D01*
X32608044Y-16823699D01*
X32594865Y-16824580D01*
X32175440Y-16824580D01*
X32117249Y-16805673D01*
X32081285Y-16756173D01*
X32081285Y-16694987D01*
X32089834Y-16675855D01*
X32104329Y-16650901D01*
X32109720Y-16637283D01*
X32133725Y-16533720D01*
X32135000Y-16522571D01*
X32135000Y-16271680D01*
X32130878Y-16258995D01*
X32126757Y-16256000D01*
X30750680Y-16256000D01*
X30737995Y-16260122D01*
X30735000Y-16264243D01*
X30735000Y-16506558D01*
X30735550Y-16513914D01*
X30749014Y-16603471D01*
X30753317Y-16617459D01*
X30784658Y-16682726D01*
X30792803Y-16743367D01*
X30763749Y-16797214D01*
X30708593Y-16823699D01*
X30695414Y-16824580D01*
X30392915Y-16824580D01*
X30334724Y-16805673D01*
X30322912Y-16795584D01*
X29873496Y-16346169D01*
X29845718Y-16291652D01*
X29844499Y-16276165D01*
X29844500Y-15904504D01*
X29844500Y-15493743D01*
X29834512Y-15427309D01*
X29830465Y-15400387D01*
X29830464Y-15400385D01*
X29829364Y-15393066D01*
X29818700Y-15370857D01*
X29773937Y-15277640D01*
X29770735Y-15270972D01*
X29678798Y-15171515D01*
X29662929Y-15162297D01*
X29568082Y-15107205D01*
X29561681Y-15103487D01*
X29482972Y-15085243D01*
X29450754Y-15077775D01*
X29450751Y-15077775D01*
X29445252Y-15076500D01*
X28860743Y-15076500D01*
X28830000Y-15081122D01*
X28767387Y-15090535D01*
X28767385Y-15090536D01*
X28760066Y-15091636D01*
X28753395Y-15094839D01*
X28753393Y-15094840D01*
X28663118Y-15138190D01*
X28637972Y-15150265D01*
X28538515Y-15242202D01*
X28523675Y-15267751D01*
X28474206Y-15352917D01*
X28474205Y-15352920D01*
X28470488Y-15359319D01*
X28464213Y-15386393D01*
X28448332Y-15454907D01*
X28443501Y-15475748D01*
X28443500Y-16510257D01*
X28447747Y-16538507D01*
X28456901Y-16599391D01*
X28458636Y-16610934D01*
X28461839Y-16617605D01*
X28461840Y-16617607D01*
X28493110Y-16682726D01*
X28517265Y-16733028D01*
X28609202Y-16832485D01*
X28615598Y-16836200D01*
X28615599Y-16836201D01*
X28719918Y-16896795D01*
X28726319Y-16900513D01*
X28780131Y-16912986D01*
X28837246Y-16926225D01*
X28837249Y-16926225D01*
X28842748Y-16927500D01*
X29427257Y-16927500D01*
X29470803Y-16920953D01*
X29531156Y-16930999D01*
X29555524Y-16948850D01*
X29767182Y-17160509D01*
X29973981Y-17367308D01*
X29979816Y-17373675D01*
X30004639Y-17403258D01*
X30022712Y-17413692D01*
X30038294Y-17422688D01*
X30045577Y-17427328D01*
X30070308Y-17444645D01*
X30070310Y-17444646D01*
X30077405Y-17449614D01*
X30085774Y-17451856D01*
X30091074Y-17454328D01*
X30096543Y-17456319D01*
X30104042Y-17460648D01*
X30112569Y-17462152D01*
X30112570Y-17462152D01*
X30119285Y-17463336D01*
X30142313Y-17467397D01*
X30150738Y-17469264D01*
X30188274Y-17479322D01*
X30226736Y-17475957D01*
X30235364Y-17475580D01*
X30688658Y-17475580D01*
X30746849Y-17494487D01*
X30782813Y-17543987D01*
X30782813Y-17605173D01*
X30774265Y-17624303D01*
X30765672Y-17639097D01*
X30760280Y-17652717D01*
X30736275Y-17756280D01*
X30735000Y-17767429D01*
X30735000Y-18018320D01*
X30739122Y-18031005D01*
X30743243Y-18034000D01*
X32119320Y-18034000D01*
X32132005Y-18029878D01*
X32135000Y-18025757D01*
X32135000Y-17783443D01*
X32134450Y-17776086D01*
X32120986Y-17686529D01*
X32116683Y-17672541D01*
X32090221Y-17617434D01*
X32082076Y-17556793D01*
X32111130Y-17502946D01*
X32166286Y-17476461D01*
X32179465Y-17475580D01*
X32588086Y-17475580D01*
X32646277Y-17494487D01*
X32682241Y-17543987D01*
X32682241Y-17605173D01*
X32673693Y-17624303D01*
X32665207Y-17638913D01*
X32665205Y-17638918D01*
X32661487Y-17645319D01*
X32634500Y-17761748D01*
X32634500Y-18796258D01*
X32639978Y-18832697D01*
X32648514Y-18889470D01*
X32649636Y-18896935D01*
X32652839Y-18903606D01*
X32652840Y-18903608D01*
X32668915Y-18937083D01*
X32708265Y-19019029D01*
X32713287Y-19024461D01*
X32717447Y-19030583D01*
X32715057Y-19032207D01*
X32735313Y-19076137D01*
X32723380Y-19136148D01*
X32678453Y-19177683D01*
X32637000Y-19186780D01*
X32131180Y-19186780D01*
X32072989Y-19167873D01*
X32037025Y-19118373D01*
X32037025Y-19057187D01*
X32045573Y-19038056D01*
X32104329Y-18936899D01*
X32109720Y-18923283D01*
X32133725Y-18819720D01*
X32135000Y-18808571D01*
X32135000Y-18557680D01*
X32130878Y-18544995D01*
X32126757Y-18542000D01*
X30750680Y-18542000D01*
X30737995Y-18546122D01*
X30735000Y-18550243D01*
X30735000Y-18792558D01*
X30735550Y-18799914D01*
X30749014Y-18889471D01*
X30753317Y-18903459D01*
X30805476Y-19012079D01*
X30817862Y-19030306D01*
X30815570Y-19031863D01*
X30835985Y-19076133D01*
X30824054Y-19136144D01*
X30779129Y-19177682D01*
X30737672Y-19186780D01*
X29840751Y-19186780D01*
X29782560Y-19167873D01*
X29746596Y-19118373D01*
X29746596Y-19057187D01*
X29755144Y-19038056D01*
X29813793Y-18937083D01*
X29817512Y-18930681D01*
X29844499Y-18814252D01*
X29844500Y-17779743D01*
X29829364Y-17679066D01*
X29816712Y-17652717D01*
X29773937Y-17563640D01*
X29770735Y-17556972D01*
X29678798Y-17457515D01*
X29657945Y-17445402D01*
X29568082Y-17393205D01*
X29561681Y-17389487D01*
X29493464Y-17373675D01*
X29450754Y-17363775D01*
X29450751Y-17363775D01*
X29445252Y-17362500D01*
X28860743Y-17362500D01*
X28830000Y-17367122D01*
X28767387Y-17376535D01*
X28767385Y-17376536D01*
X28760066Y-17377636D01*
X28753395Y-17380839D01*
X28753393Y-17380840D01*
X28657564Y-17426857D01*
X28637972Y-17436265D01*
X28538515Y-17528202D01*
X28521908Y-17556793D01*
X28474206Y-17638917D01*
X28474205Y-17638920D01*
X28470488Y-17645319D01*
X28443501Y-17761748D01*
X28443500Y-18796257D01*
X28458636Y-18896934D01*
X28461839Y-18903605D01*
X28461840Y-18903607D01*
X28471377Y-18923467D01*
X28517265Y-19019028D01*
X28609202Y-19118485D01*
X28615598Y-19122200D01*
X28615599Y-19122201D01*
X28719918Y-19182795D01*
X28726319Y-19186513D01*
X28831279Y-19210842D01*
X28883697Y-19242399D01*
X28893993Y-19258268D01*
X28894466Y-19260034D01*
X28899435Y-19267130D01*
X28916745Y-19291852D01*
X28921385Y-19299136D01*
X28936490Y-19325298D01*
X28936492Y-19325301D01*
X28940822Y-19332800D01*
X28957588Y-19346868D01*
X28970406Y-19357624D01*
X28976774Y-19363459D01*
X29342827Y-19729514D01*
X29348660Y-19735880D01*
X29373479Y-19765458D01*
X29407134Y-19784888D01*
X29414417Y-19789528D01*
X29439148Y-19806845D01*
X29439150Y-19806846D01*
X29446245Y-19811814D01*
X29454614Y-19814056D01*
X29459914Y-19816528D01*
X29465383Y-19818519D01*
X29472882Y-19822848D01*
X29481409Y-19824352D01*
X29481410Y-19824352D01*
X29497720Y-19827228D01*
X29511153Y-19829597D01*
X29519578Y-19831464D01*
X29557114Y-19841522D01*
X29595576Y-19838157D01*
X29604204Y-19837780D01*
X33753555Y-19837780D01*
X33762184Y-19838157D01*
X33800645Y-19841522D01*
X33838171Y-19831467D01*
X33846602Y-19829597D01*
X33876351Y-19824352D01*
X33876353Y-19824351D01*
X33884878Y-19822848D01*
X33892375Y-19818520D01*
X33897841Y-19816530D01*
X33903147Y-19814056D01*
X33911514Y-19811814D01*
X33943342Y-19789528D01*
X33950599Y-19784904D01*
X33984281Y-19765458D01*
X34009109Y-19735869D01*
X34014944Y-19729501D01*
X36606545Y-17137900D01*
X38300000Y-17137900D01*
X38300001Y-19581919D01*
X38300070Y-19582220D01*
X38300113Y-19583003D01*
X38300103Y-19594268D01*
X38300104Y-19594271D01*
X38300094Y-19605417D01*
X38305323Y-19616307D01*
X38312595Y-19637133D01*
X38312799Y-19638027D01*
X38312800Y-19638029D01*
X38315280Y-19648900D01*
X38322227Y-19657619D01*
X38322229Y-19657622D01*
X38322634Y-19658130D01*
X38334451Y-19676967D01*
X38334591Y-19677257D01*
X38339565Y-19687616D01*
X38348271Y-19694578D01*
X38348996Y-19695158D01*
X38364586Y-19710775D01*
X38372106Y-19720212D01*
X38382147Y-19725055D01*
X38382149Y-19725057D01*
X38382740Y-19725342D01*
X38401557Y-19737192D01*
X38401774Y-19737365D01*
X38410778Y-19744565D01*
X38422548Y-19747272D01*
X38443361Y-19754581D01*
X38454235Y-19759826D01*
X38476631Y-19759845D01*
X38477425Y-19759891D01*
X38477899Y-19760000D01*
X40721919Y-19760000D01*
X40722224Y-19759931D01*
X40723013Y-19759887D01*
X40734265Y-19759897D01*
X40734268Y-19759896D01*
X40745416Y-19759906D01*
X40756293Y-19754683D01*
X40777130Y-19747406D01*
X40778033Y-19747200D01*
X40788900Y-19744721D01*
X40797619Y-19737773D01*
X40797621Y-19737772D01*
X40798132Y-19737365D01*
X40816971Y-19725547D01*
X40817565Y-19725262D01*
X40817569Y-19725259D01*
X40827615Y-19720435D01*
X40835155Y-19711007D01*
X40850768Y-19695421D01*
X40860212Y-19687895D01*
X40865053Y-19677859D01*
X40865056Y-19677855D01*
X40865344Y-19677257D01*
X40877195Y-19658439D01*
X40877600Y-19657933D01*
X40877602Y-19657929D01*
X40884565Y-19649222D01*
X40887064Y-19638356D01*
X40887065Y-19638353D01*
X40887271Y-19637457D01*
X40894581Y-19616641D01*
X40894983Y-19615808D01*
X40894984Y-19615805D01*
X40899826Y-19605766D01*
X40899845Y-19583369D01*
X40899891Y-19582575D01*
X40900000Y-19582101D01*
X40900000Y-18759000D01*
X40918907Y-18700809D01*
X40968407Y-18664845D01*
X40999000Y-18660000D01*
X41571919Y-18660000D01*
X41572224Y-18659931D01*
X41573013Y-18659887D01*
X41584265Y-18659897D01*
X41584268Y-18659896D01*
X41595416Y-18659906D01*
X41606293Y-18654683D01*
X41627130Y-18647406D01*
X41628033Y-18647200D01*
X41638900Y-18644721D01*
X41647619Y-18637773D01*
X41647621Y-18637772D01*
X41648132Y-18637365D01*
X41666971Y-18625547D01*
X41667565Y-18625262D01*
X41667569Y-18625259D01*
X41677615Y-18620435D01*
X41685155Y-18611007D01*
X41700768Y-18595421D01*
X41710212Y-18587895D01*
X41715053Y-18577859D01*
X41715056Y-18577855D01*
X41715344Y-18577257D01*
X41727195Y-18558439D01*
X41727600Y-18557933D01*
X41727602Y-18557929D01*
X41734565Y-18549222D01*
X41737064Y-18538356D01*
X41737065Y-18538353D01*
X41737271Y-18537457D01*
X41744581Y-18516641D01*
X41744983Y-18515808D01*
X41744984Y-18515805D01*
X41749826Y-18505766D01*
X41749845Y-18483369D01*
X41749891Y-18482575D01*
X41750000Y-18482101D01*
X41750000Y-17138081D01*
X41749931Y-17137776D01*
X41749887Y-17136987D01*
X41749897Y-17125732D01*
X41749896Y-17125729D01*
X41749906Y-17114583D01*
X41744679Y-17103697D01*
X41737406Y-17082869D01*
X41737201Y-17081970D01*
X41737201Y-17081969D01*
X41734721Y-17071100D01*
X41727369Y-17061874D01*
X41715544Y-17043024D01*
X41715260Y-17042433D01*
X41710435Y-17032384D01*
X41701731Y-17025423D01*
X41701729Y-17025421D01*
X41701009Y-17024846D01*
X41685420Y-17009231D01*
X41677895Y-16999788D01*
X41667855Y-16994945D01*
X41667852Y-16994943D01*
X41667262Y-16994659D01*
X41648443Y-16982809D01*
X41639222Y-16975435D01*
X41628356Y-16972936D01*
X41628353Y-16972935D01*
X41627457Y-16972729D01*
X41606641Y-16965419D01*
X41605808Y-16965017D01*
X41605805Y-16965016D01*
X41595766Y-16960174D01*
X41573369Y-16960155D01*
X41572575Y-16960109D01*
X41572101Y-16960000D01*
X38478081Y-16960000D01*
X38477776Y-16960069D01*
X38476987Y-16960113D01*
X38465732Y-16960103D01*
X38465729Y-16960104D01*
X38454583Y-16960094D01*
X38443697Y-16965321D01*
X38422869Y-16972594D01*
X38421970Y-16972799D01*
X38421969Y-16972799D01*
X38411100Y-16975279D01*
X38402381Y-16982227D01*
X38401874Y-16982631D01*
X38383024Y-16994456D01*
X38382436Y-16994738D01*
X38382435Y-16994739D01*
X38372384Y-16999565D01*
X38365421Y-17008272D01*
X38365419Y-17008274D01*
X38364847Y-17008990D01*
X38349229Y-17024582D01*
X38339788Y-17032105D01*
X38334658Y-17042741D01*
X38322809Y-17061557D01*
X38322398Y-17062070D01*
X38322396Y-17062075D01*
X38315435Y-17070779D01*
X38312937Y-17081641D01*
X38312935Y-17081645D01*
X38312729Y-17082542D01*
X38305419Y-17103359D01*
X38305255Y-17103700D01*
X38300174Y-17114234D01*
X38300163Y-17127353D01*
X38300155Y-17136624D01*
X38300109Y-17137426D01*
X38300000Y-17137900D01*
X36606545Y-17137900D01*
X37479950Y-16264496D01*
X37534467Y-16236719D01*
X37549954Y-16235500D01*
X37571976Y-16235500D01*
X37609862Y-16243036D01*
X37613252Y-16244440D01*
X37621359Y-16249857D01*
X37700000Y-16265500D01*
X38500000Y-16265500D01*
X38548186Y-16255915D01*
X38569076Y-16251760D01*
X38569078Y-16251759D01*
X38578641Y-16249857D01*
X38614770Y-16225716D01*
X38637200Y-16210729D01*
X38645310Y-16205310D01*
X38657879Y-16186500D01*
X38684438Y-16146751D01*
X38689857Y-16138641D01*
X38691803Y-16128861D01*
X38696787Y-16103800D01*
X38705500Y-16060000D01*
X38705500Y-15760000D01*
X38689857Y-15681359D01*
X38693289Y-15680676D01*
X38689984Y-15638666D01*
X38689857Y-15638641D01*
X38689947Y-15638190D01*
X38689947Y-15638189D01*
X38691475Y-15630511D01*
X38702590Y-15574629D01*
X38705500Y-15560000D01*
X38705500Y-15260000D01*
X38689857Y-15181359D01*
X38693289Y-15180676D01*
X38689984Y-15138666D01*
X38689857Y-15138641D01*
X38689947Y-15138190D01*
X38689947Y-15138189D01*
X38705500Y-15060000D01*
X38705500Y-14760000D01*
X38689857Y-14681359D01*
X38693289Y-14680676D01*
X38689984Y-14638666D01*
X38689857Y-14638641D01*
X38689947Y-14638190D01*
X38689947Y-14638189D01*
X38691028Y-14632757D01*
X38702563Y-14574763D01*
X38705500Y-14560000D01*
X38705500Y-14260000D01*
X38689857Y-14181359D01*
X38693289Y-14180676D01*
X38689984Y-14138666D01*
X38689857Y-14138641D01*
X38689947Y-14138190D01*
X38689947Y-14138189D01*
X38691612Y-14129822D01*
X38699305Y-14091143D01*
X38705500Y-14060000D01*
X38705500Y-13760000D01*
X38689857Y-13681359D01*
X38693289Y-13680676D01*
X38689984Y-13638666D01*
X38689857Y-13638641D01*
X38689947Y-13638190D01*
X38689947Y-13638189D01*
X38691598Y-13629892D01*
X38698768Y-13593841D01*
X38705500Y-13560000D01*
X38705500Y-13260000D01*
X38689857Y-13181359D01*
X38693289Y-13180676D01*
X38689984Y-13138666D01*
X38689857Y-13138641D01*
X38689947Y-13138190D01*
X38689947Y-13138189D01*
X38705500Y-13060000D01*
X38705500Y-12760000D01*
X38689857Y-12681359D01*
X38693075Y-12680719D01*
X38689748Y-12638520D01*
X38689395Y-12638450D01*
X38689644Y-12637199D01*
X38689569Y-12636250D01*
X38690249Y-12634158D01*
X38701941Y-12575379D01*
X38700373Y-12562134D01*
X38700341Y-12562099D01*
X38692297Y-12560000D01*
X38537402Y-12560000D01*
X38518088Y-12558098D01*
X38518008Y-12558082D01*
X38500000Y-12554500D01*
X37700000Y-12554500D01*
X37695234Y-12555448D01*
X37681916Y-12558097D01*
X37662603Y-12559999D01*
X37510680Y-12559999D01*
X37473981Y-12571923D01*
X37463341Y-12579654D01*
X37432745Y-12584500D01*
X36072834Y-12584500D01*
X36014643Y-12565593D01*
X36002830Y-12555504D01*
X34660104Y-11212779D01*
X34654269Y-11206411D01*
X34645765Y-11196276D01*
X34629441Y-11176822D01*
X34595759Y-11157376D01*
X34588496Y-11152748D01*
X34556674Y-11130466D01*
X34548307Y-11128224D01*
X34543001Y-11125750D01*
X34537535Y-11123760D01*
X34530038Y-11119432D01*
X34521513Y-11117929D01*
X34521511Y-11117928D01*
X34491762Y-11112683D01*
X34483329Y-11110813D01*
X34454172Y-11103000D01*
X34445805Y-11100758D01*
X34437176Y-11101513D01*
X34407344Y-11104123D01*
X34398715Y-11104500D01*
X34134500Y-11104500D01*
X34076309Y-11085593D01*
X34040345Y-11036093D01*
X34035500Y-11005500D01*
X34035500Y-10921743D01*
X34027291Y-10867141D01*
X34021465Y-10828387D01*
X34021464Y-10828385D01*
X34020364Y-10821066D01*
X34012862Y-10805442D01*
X33964937Y-10705640D01*
X33961735Y-10698972D01*
X33869798Y-10599515D01*
X33842568Y-10583698D01*
X33778947Y-10546744D01*
X33772684Y-10543106D01*
X33731863Y-10497530D01*
X33725627Y-10436663D01*
X33756358Y-10383755D01*
X33812319Y-10359016D01*
X33822409Y-10358500D01*
X34310313Y-10358500D01*
X34368504Y-10377407D01*
X34380317Y-10387496D01*
X35120046Y-11127225D01*
X35125882Y-11133594D01*
X35144032Y-11155225D01*
X35150705Y-11163178D01*
X35184364Y-11182611D01*
X35191640Y-11187246D01*
X35223470Y-11209534D01*
X35231839Y-11211776D01*
X35237131Y-11214244D01*
X35242607Y-11216237D01*
X35250108Y-11220568D01*
X35258638Y-11222072D01*
X35288379Y-11227316D01*
X35296804Y-11229184D01*
X35334340Y-11239242D01*
X35342969Y-11238487D01*
X35372798Y-11235877D01*
X35381427Y-11235500D01*
X36665609Y-11235500D01*
X36723800Y-11254407D01*
X36759764Y-11303907D01*
X36759764Y-11365093D01*
X36755224Y-11376574D01*
X36717833Y-11456215D01*
X36700696Y-11492715D01*
X36679736Y-11627330D01*
X36680651Y-11634328D01*
X36681156Y-11638190D01*
X36697400Y-11762416D01*
X36700241Y-11768872D01*
X36700241Y-11768873D01*
X36747441Y-11876142D01*
X36752269Y-11887115D01*
X36756806Y-11892512D01*
X36756807Y-11892514D01*
X36795844Y-11938954D01*
X36839931Y-11991401D01*
X36845802Y-11995309D01*
X36845803Y-11995310D01*
X36880190Y-12018200D01*
X36953339Y-12066892D01*
X37083377Y-12107519D01*
X37104925Y-12107914D01*
X37134274Y-12108452D01*
X37192109Y-12128422D01*
X37208298Y-12143799D01*
X37224559Y-12163178D01*
X37258218Y-12182611D01*
X37265494Y-12187246D01*
X37297324Y-12209534D01*
X37305693Y-12211776D01*
X37310985Y-12214244D01*
X37316461Y-12216237D01*
X37323962Y-12220568D01*
X37332492Y-12222072D01*
X37362233Y-12227316D01*
X37370658Y-12229184D01*
X37408194Y-12239242D01*
X37428488Y-12237466D01*
X37488104Y-12251228D01*
X37494724Y-12256613D01*
X37507706Y-12260000D01*
X37662598Y-12260000D01*
X37681912Y-12261902D01*
X37700000Y-12265500D01*
X38500000Y-12265500D01*
X38504766Y-12264552D01*
X38518084Y-12261903D01*
X38537397Y-12260001D01*
X38689320Y-12260001D01*
X38702005Y-12255879D01*
X38703713Y-12253529D01*
X38689395Y-12181550D01*
X38692982Y-12180837D01*
X38689676Y-12138912D01*
X38689857Y-12138641D01*
X38705500Y-12060000D01*
X38705500Y-11760000D01*
X38689857Y-11681359D01*
X38693289Y-11680676D01*
X38689984Y-11638666D01*
X38689857Y-11638641D01*
X38689947Y-11638190D01*
X38689947Y-11638189D01*
X38691358Y-11631099D01*
X38697664Y-11599394D01*
X38705500Y-11560000D01*
X38705500Y-11260000D01*
X38689857Y-11181359D01*
X38693289Y-11180676D01*
X38689984Y-11138666D01*
X38689857Y-11138641D01*
X38689947Y-11138190D01*
X38689947Y-11138189D01*
X38691079Y-11132501D01*
X38697393Y-11100758D01*
X38705500Y-11060000D01*
X38705500Y-10760000D01*
X38689857Y-10681359D01*
X38693289Y-10680676D01*
X38689984Y-10638666D01*
X38689857Y-10638641D01*
X38689947Y-10638190D01*
X38689947Y-10638189D01*
X38695133Y-10612120D01*
X38701726Y-10578971D01*
X38705500Y-10560000D01*
X38705500Y-10260000D01*
X38689857Y-10181359D01*
X38693289Y-10180676D01*
X38689984Y-10138666D01*
X38689857Y-10138641D01*
X38689947Y-10138190D01*
X38689947Y-10138189D01*
X38705500Y-10060000D01*
X38705500Y-9760000D01*
X38689857Y-9681359D01*
X38693289Y-9680676D01*
X38689984Y-9638666D01*
X38689857Y-9638641D01*
X38689947Y-9638190D01*
X38689947Y-9638189D01*
X38705500Y-9560000D01*
X38705500Y-9260000D01*
X38689857Y-9181359D01*
X38693289Y-9180676D01*
X38689984Y-9138666D01*
X38689857Y-9138641D01*
X38689947Y-9138190D01*
X38689947Y-9138189D01*
X38705500Y-9060000D01*
X38705500Y-8760000D01*
X38689857Y-8681359D01*
X38693289Y-8680676D01*
X38689984Y-8638666D01*
X38689857Y-8638641D01*
X38689947Y-8638190D01*
X38689947Y-8638189D01*
X38691684Y-8629459D01*
X38699350Y-8590918D01*
X38705500Y-8560000D01*
X38705500Y-8260000D01*
X38689857Y-8181359D01*
X38693075Y-8180719D01*
X38689748Y-8138520D01*
X38689395Y-8138450D01*
X38689644Y-8137199D01*
X38689569Y-8136250D01*
X38690249Y-8134158D01*
X38701941Y-8075379D01*
X38700373Y-8062134D01*
X38700341Y-8062099D01*
X38692297Y-8060000D01*
X38537402Y-8060000D01*
X38518088Y-8058098D01*
X38518008Y-8058082D01*
X38500000Y-8054500D01*
X37700000Y-8054500D01*
X37695234Y-8055448D01*
X37681916Y-8058097D01*
X37662603Y-8059999D01*
X37510680Y-8059999D01*
X37473981Y-8071923D01*
X37463341Y-8079654D01*
X37432745Y-8084500D01*
X36221034Y-8084500D01*
X36162843Y-8065593D01*
X36151031Y-8055504D01*
X35625310Y-7529785D01*
X35619474Y-7523417D01*
X35600208Y-7500457D01*
X35594641Y-7493822D01*
X35560959Y-7474376D01*
X35553696Y-7469748D01*
X35521874Y-7447466D01*
X35513507Y-7445224D01*
X35508201Y-7442750D01*
X35502735Y-7440760D01*
X35495238Y-7436432D01*
X35486713Y-7434929D01*
X35486711Y-7434928D01*
X35456962Y-7429683D01*
X35448529Y-7427813D01*
X35419372Y-7420000D01*
X35411005Y-7417758D01*
X35402376Y-7418513D01*
X35372544Y-7421123D01*
X35363915Y-7421500D01*
X33818241Y-7421500D01*
X33760050Y-7402593D01*
X33724086Y-7353093D01*
X33724086Y-7291907D01*
X33760050Y-7242407D01*
X33775386Y-7233256D01*
X33834360Y-7204937D01*
X33841028Y-7201735D01*
X33940485Y-7109798D01*
X33969584Y-7059700D01*
X34004794Y-6999083D01*
X34004795Y-6999080D01*
X34008512Y-6992681D01*
X34026714Y-6914153D01*
X34034224Y-6881754D01*
X34034224Y-6881751D01*
X34035499Y-6876252D01*
X34035499Y-6834500D01*
X34054406Y-6776309D01*
X34103906Y-6740345D01*
X34134499Y-6735500D01*
X37395500Y-6735500D01*
X37453691Y-6754407D01*
X37489655Y-6803907D01*
X37494500Y-6834500D01*
X37494500Y-7060000D01*
X37504406Y-7109798D01*
X37510143Y-7138641D01*
X37506711Y-7139324D01*
X37510016Y-7181334D01*
X37510143Y-7181359D01*
X37509223Y-7185984D01*
X37509222Y-7185987D01*
X37507089Y-7196713D01*
X37494500Y-7260000D01*
X37494500Y-7560000D01*
X37509132Y-7633558D01*
X37510143Y-7638641D01*
X37506925Y-7639281D01*
X37510252Y-7681480D01*
X37510605Y-7681550D01*
X37510356Y-7682801D01*
X37510431Y-7683750D01*
X37509751Y-7685842D01*
X37498059Y-7744621D01*
X37499627Y-7757866D01*
X37499659Y-7757901D01*
X37507703Y-7760000D01*
X37662598Y-7760000D01*
X37681912Y-7761902D01*
X37700000Y-7765500D01*
X38500000Y-7765500D01*
X38504766Y-7764552D01*
X38518084Y-7761903D01*
X38537397Y-7760001D01*
X38689320Y-7760001D01*
X38702005Y-7755879D01*
X38703713Y-7753529D01*
X38689395Y-7681550D01*
X38692982Y-7680837D01*
X38689676Y-7638912D01*
X38689857Y-7638641D01*
X38705500Y-7560000D01*
X38705500Y-7260000D01*
X38689857Y-7181359D01*
X38693289Y-7180676D01*
X38689984Y-7138666D01*
X38689857Y-7138641D01*
X38689947Y-7138190D01*
X38689947Y-7138189D01*
X38694658Y-7114508D01*
X38696930Y-7103085D01*
X38705500Y-7060000D01*
X38705500Y-6760000D01*
X38689857Y-6681359D01*
X38693289Y-6680676D01*
X38689984Y-6638666D01*
X38689857Y-6638641D01*
X38689947Y-6638190D01*
X38689947Y-6638189D01*
X38705500Y-6560000D01*
X38705500Y-6260000D01*
X38689857Y-6181359D01*
X38693289Y-6180676D01*
X38689984Y-6138666D01*
X38689857Y-6138641D01*
X38689947Y-6138190D01*
X38689947Y-6138189D01*
X38691288Y-6131450D01*
X38699978Y-6087758D01*
X38705500Y-6060000D01*
X38705500Y-5760000D01*
X38689857Y-5681359D01*
X38693289Y-5680676D01*
X38689984Y-5638666D01*
X38689857Y-5638641D01*
X38689947Y-5638190D01*
X38689947Y-5638189D01*
X38691278Y-5631500D01*
X38700148Y-5586906D01*
X38705500Y-5560000D01*
X38705500Y-5260000D01*
X38689857Y-5181359D01*
X38693289Y-5180676D01*
X38689984Y-5138666D01*
X38689857Y-5138641D01*
X38689947Y-5138190D01*
X38689947Y-5138189D01*
X38690958Y-5133109D01*
X38699946Y-5087920D01*
X38705500Y-5060000D01*
X38705500Y-4760000D01*
X38689857Y-4681359D01*
X38693289Y-4680676D01*
X38689984Y-4638666D01*
X38689857Y-4638641D01*
X38689947Y-4638190D01*
X38689947Y-4638189D01*
X38705500Y-4560000D01*
X38705500Y-4260000D01*
X38693983Y-4202100D01*
X38691760Y-4190924D01*
X38691759Y-4190922D01*
X38689857Y-4181359D01*
X38658693Y-4134719D01*
X38650729Y-4122800D01*
X38645310Y-4114690D01*
X38578641Y-4070143D01*
X38569078Y-4068241D01*
X38569076Y-4068240D01*
X38543800Y-4063213D01*
X38500000Y-4054500D01*
X37700000Y-4054500D01*
X37656200Y-4063213D01*
X37630924Y-4068240D01*
X37630922Y-4068241D01*
X37621359Y-4070143D01*
X37554690Y-4114690D01*
X37549271Y-4122800D01*
X37541307Y-4134719D01*
X37510143Y-4181359D01*
X37508241Y-4190922D01*
X37508240Y-4190924D01*
X37506017Y-4202100D01*
X37494500Y-4260000D01*
X37494500Y-4485500D01*
X37475593Y-4543691D01*
X37426093Y-4579655D01*
X37395500Y-4584500D01*
X36337995Y-4584500D01*
X36279804Y-4565593D01*
X36267991Y-4555504D01*
X34894404Y-3181918D01*
X38300000Y-3181918D01*
X38300069Y-3182223D01*
X38300113Y-3183012D01*
X38300103Y-3194266D01*
X38300104Y-3194269D01*
X38300094Y-3205417D01*
X38305084Y-3215808D01*
X38305320Y-3216300D01*
X38312594Y-3237131D01*
X38312799Y-3238029D01*
X38315279Y-3248899D01*
X38322226Y-3257617D01*
X38322631Y-3258125D01*
X38334455Y-3276974D01*
X38339565Y-3287616D01*
X38348275Y-3294581D01*
X38348991Y-3295154D01*
X38364587Y-3310777D01*
X38372105Y-3320212D01*
X38382144Y-3325054D01*
X38382145Y-3325055D01*
X38382738Y-3325341D01*
X38401557Y-3337191D01*
X38410778Y-3344565D01*
X38421644Y-3347064D01*
X38421647Y-3347065D01*
X38422543Y-3347271D01*
X38443359Y-3354581D01*
X38444192Y-3354983D01*
X38444195Y-3354984D01*
X38454234Y-3359826D01*
X38476631Y-3359845D01*
X38477425Y-3359891D01*
X38477899Y-3360000D01*
X41571919Y-3360000D01*
X41572224Y-3359931D01*
X41573013Y-3359887D01*
X41584268Y-3359897D01*
X41584271Y-3359896D01*
X41595417Y-3359906D01*
X41606303Y-3354679D01*
X41627131Y-3347406D01*
X41628030Y-3347201D01*
X41628031Y-3347201D01*
X41638900Y-3344721D01*
X41648126Y-3337369D01*
X41666976Y-3325544D01*
X41677616Y-3320435D01*
X41684577Y-3311731D01*
X41684579Y-3311729D01*
X41685154Y-3311009D01*
X41700769Y-3295420D01*
X41710212Y-3287895D01*
X41715055Y-3277855D01*
X41715057Y-3277852D01*
X41715341Y-3277262D01*
X41727191Y-3258443D01*
X41734565Y-3249222D01*
X41737064Y-3238356D01*
X41737065Y-3238353D01*
X41737271Y-3237457D01*
X41744581Y-3216641D01*
X41744983Y-3215808D01*
X41744984Y-3215805D01*
X41749826Y-3205766D01*
X41749845Y-3183369D01*
X41749891Y-3182575D01*
X41750000Y-3182101D01*
X41750000Y-1838081D01*
X41749931Y-1837776D01*
X41749887Y-1836987D01*
X41749897Y-1825732D01*
X41749896Y-1825729D01*
X41749906Y-1814583D01*
X41744679Y-1803697D01*
X41737406Y-1782869D01*
X41737201Y-1781970D01*
X41737201Y-1781969D01*
X41734721Y-1771100D01*
X41727774Y-1762382D01*
X41727772Y-1762378D01*
X41727366Y-1761869D01*
X41715548Y-1743031D01*
X41715261Y-1742433D01*
X41715260Y-1742432D01*
X41710435Y-1732384D01*
X41701004Y-1724842D01*
X41685415Y-1709226D01*
X41684842Y-1708507D01*
X41677894Y-1699788D01*
X41667853Y-1694945D01*
X41667851Y-1694943D01*
X41667260Y-1694658D01*
X41648443Y-1682808D01*
X41647931Y-1682399D01*
X41647930Y-1682398D01*
X41639222Y-1675435D01*
X41627452Y-1672728D01*
X41606637Y-1665418D01*
X41595765Y-1660174D01*
X41573369Y-1660155D01*
X41572575Y-1660109D01*
X41572101Y-1660000D01*
X40999000Y-1660000D01*
X40940809Y-1641093D01*
X40904845Y-1591593D01*
X40900000Y-1561000D01*
X40900000Y-738081D01*
X40899931Y-737776D01*
X40899887Y-736987D01*
X40899897Y-725732D01*
X40899896Y-725729D01*
X40899906Y-714583D01*
X40894679Y-703697D01*
X40887406Y-682869D01*
X40887201Y-681970D01*
X40887201Y-681969D01*
X40884721Y-671100D01*
X40877774Y-662382D01*
X40877772Y-662378D01*
X40877366Y-661869D01*
X40865548Y-643031D01*
X40865261Y-642433D01*
X40865260Y-642432D01*
X40860435Y-632384D01*
X40851004Y-624842D01*
X40835415Y-609226D01*
X40834842Y-608507D01*
X40827894Y-599788D01*
X40817853Y-594945D01*
X40817851Y-594943D01*
X40817260Y-594658D01*
X40798443Y-582808D01*
X40797931Y-582399D01*
X40797930Y-582398D01*
X40789222Y-575435D01*
X40777452Y-572728D01*
X40756637Y-565418D01*
X40745765Y-560174D01*
X40723369Y-560155D01*
X40722575Y-560109D01*
X40722101Y-560000D01*
X38478081Y-560000D01*
X38477776Y-560069D01*
X38476987Y-560113D01*
X38465735Y-560103D01*
X38465732Y-560104D01*
X38454584Y-560094D01*
X38444531Y-564921D01*
X38444532Y-564921D01*
X38443707Y-565317D01*
X38422870Y-572594D01*
X38421967Y-572800D01*
X38411100Y-575279D01*
X38402381Y-582227D01*
X38402379Y-582228D01*
X38401868Y-582635D01*
X38383029Y-594453D01*
X38382438Y-594737D01*
X38382435Y-594739D01*
X38372385Y-599565D01*
X38365422Y-608272D01*
X38364847Y-608991D01*
X38349230Y-624581D01*
X38348903Y-624842D01*
X38339788Y-632105D01*
X38334944Y-642148D01*
X38334942Y-642150D01*
X38334653Y-642748D01*
X38322809Y-661557D01*
X38322399Y-662069D01*
X38322397Y-662073D01*
X38315436Y-670778D01*
X38312733Y-682533D01*
X38305420Y-703357D01*
X38305255Y-703700D01*
X38300174Y-714234D01*
X38300155Y-736631D01*
X38300109Y-737428D01*
X38300001Y-737899D01*
X38300000Y-3181918D01*
X34894404Y-3181918D01*
X34416264Y-2703779D01*
X34410429Y-2697411D01*
X34408061Y-2694589D01*
X34385601Y-2667822D01*
X34351919Y-2648376D01*
X34344656Y-2643748D01*
X34312834Y-2621466D01*
X34304467Y-2619224D01*
X34299161Y-2616750D01*
X34293695Y-2614760D01*
X34286198Y-2610432D01*
X34277673Y-2608929D01*
X34277671Y-2608928D01*
X34247922Y-2603683D01*
X34239489Y-2601813D01*
X34210332Y-2594000D01*
X34201965Y-2591758D01*
X34193336Y-2592513D01*
X34163504Y-2595123D01*
X34154875Y-2595500D01*
X29918500Y-2595500D01*
X29860309Y-2576593D01*
X29824345Y-2527093D01*
X29819500Y-2496500D01*
X29819500Y-2437743D01*
X29807483Y-2357813D01*
X29805465Y-2344387D01*
X29805464Y-2344385D01*
X29804364Y-2337066D01*
X29795204Y-2317989D01*
X29748937Y-2221640D01*
X29745735Y-2214972D01*
X29653798Y-2115515D01*
X29626568Y-2099698D01*
X29543082Y-2051205D01*
X29536681Y-2047487D01*
X29440193Y-2025122D01*
X29425754Y-2021775D01*
X29425751Y-2021775D01*
X29420252Y-2020500D01*
X28810743Y-2020500D01*
X28780000Y-2025122D01*
X28717387Y-2034535D01*
X28717385Y-2034536D01*
X28710066Y-2035636D01*
X28703395Y-2038839D01*
X28703393Y-2038840D01*
X28594640Y-2091063D01*
X28587972Y-2094265D01*
X28488515Y-2186202D01*
X28471804Y-2214972D01*
X28424206Y-2296917D01*
X28424205Y-2296920D01*
X28420488Y-2303319D01*
X28393501Y-2419748D01*
X28393500Y-3404257D01*
X28400047Y-3447804D01*
X28390001Y-3508157D01*
X28372156Y-3532518D01*
X28209170Y-3695505D01*
X28154655Y-3723281D01*
X28139168Y-3724500D01*
X28031001Y-3724500D01*
X27972810Y-3705593D01*
X27936846Y-3656093D01*
X27936846Y-3594907D01*
X27945394Y-3575776D01*
X27963328Y-3544899D01*
X27968719Y-3531283D01*
X27992724Y-3427720D01*
X27993999Y-3416571D01*
X27993999Y-3190680D01*
X27989877Y-3177995D01*
X27985756Y-3175000D01*
X27535499Y-3175000D01*
X27126500Y-3174999D01*
X27068309Y-3156092D01*
X27032345Y-3106592D01*
X27027500Y-3075999D01*
X27027500Y-2651321D01*
X27535499Y-2651321D01*
X27539621Y-2664006D01*
X27543742Y-2667001D01*
X27978320Y-2667001D01*
X27991005Y-2662879D01*
X27994000Y-2658758D01*
X27994000Y-2441444D01*
X27993450Y-2434087D01*
X27979986Y-2344530D01*
X27975683Y-2330542D01*
X27923524Y-2221922D01*
X27915302Y-2209822D01*
X27833506Y-2121336D01*
X27822087Y-2112189D01*
X27717898Y-2051670D01*
X27704286Y-2046281D01*
X27600720Y-2022275D01*
X27589571Y-2021000D01*
X27551180Y-2021000D01*
X27538495Y-2025122D01*
X27535500Y-2029243D01*
X27535499Y-2651321D01*
X27027500Y-2651321D01*
X27027501Y-2036680D01*
X27023379Y-2023995D01*
X27019258Y-2021000D01*
X26989444Y-2021000D01*
X26982087Y-2021550D01*
X26892530Y-2035014D01*
X26878542Y-2039317D01*
X26769922Y-2091476D01*
X26757822Y-2099698D01*
X26669339Y-2181492D01*
X26660187Y-2192915D01*
X26599671Y-2297101D01*
X26594281Y-2310716D01*
X26586519Y-2344203D01*
X26554960Y-2396622D01*
X26498617Y-2420479D01*
X26436229Y-2404923D01*
X26369468Y-2361651D01*
X26369469Y-2361651D01*
X26363547Y-2357813D01*
X26233022Y-2318778D01*
X26150931Y-2318277D01*
X26103840Y-2317989D01*
X26096789Y-2317946D01*
X26090013Y-2319883D01*
X26090010Y-2319883D01*
X25972577Y-2353445D01*
X25972575Y-2353446D01*
X25965797Y-2355383D01*
X25959832Y-2359147D01*
X25959829Y-2359148D01*
X25930232Y-2377822D01*
X25870930Y-2392883D01*
X25814100Y-2370210D01*
X25809033Y-2364969D01*
X25808900Y-2365113D01*
X25757876Y-2317946D01*
X25723178Y-2285871D01*
X25715695Y-2282563D01*
X25715692Y-2282561D01*
X25657896Y-2257011D01*
X25616409Y-2238670D01*
X25567578Y-2232501D01*
X25029866Y-2232501D01*
X24327044Y-2232500D01*
X24322962Y-2232500D01*
X24237848Y-2246667D01*
X24135112Y-2302100D01*
X24055870Y-2387822D01*
X24052562Y-2395305D01*
X24052560Y-2395308D01*
X24027010Y-2453104D01*
X24008669Y-2494591D01*
X24002500Y-2543422D01*
X24002500Y-2913038D01*
X24016667Y-2998152D01*
X24072100Y-3100887D01*
X24078108Y-3106440D01*
X24078108Y-3106441D01*
X24081270Y-3109364D01*
X24157822Y-3180129D01*
X24165305Y-3183437D01*
X24165308Y-3183439D01*
X24220267Y-3207735D01*
X24264591Y-3227330D01*
X24313422Y-3233499D01*
X24851134Y-3233499D01*
X25553956Y-3233500D01*
X25558038Y-3233500D01*
X25643152Y-3219333D01*
X25745888Y-3163900D01*
X25746071Y-3164238D01*
X25798392Y-3145400D01*
X25856361Y-3161940D01*
X25955139Y-3227692D01*
X25961870Y-3229795D01*
X25971581Y-3232829D01*
X26085177Y-3268319D01*
X26153284Y-3269567D01*
X26214338Y-3270686D01*
X26214340Y-3270686D01*
X26221391Y-3270815D01*
X26228194Y-3268960D01*
X26228196Y-3268960D01*
X26329186Y-3241427D01*
X26352830Y-3234981D01*
X26418199Y-3194844D01*
X26477681Y-3180508D01*
X26534229Y-3203874D01*
X26566244Y-3256015D01*
X26569000Y-3279210D01*
X26569000Y-3400557D01*
X26569550Y-3407913D01*
X26583014Y-3497470D01*
X26587317Y-3511458D01*
X26621501Y-3582646D01*
X26629646Y-3643287D01*
X26600592Y-3697134D01*
X26545436Y-3723619D01*
X26532257Y-3724500D01*
X26304284Y-3724500D01*
X26295656Y-3724123D01*
X26289895Y-3723619D01*
X26257194Y-3720758D01*
X26219654Y-3730817D01*
X26211225Y-3732685D01*
X26172962Y-3739432D01*
X26165463Y-3743761D01*
X26159974Y-3745759D01*
X26154689Y-3748224D01*
X26146325Y-3750465D01*
X26126790Y-3764144D01*
X26114486Y-3772758D01*
X26107205Y-3777396D01*
X26073559Y-3796822D01*
X26067989Y-3803460D01*
X26048741Y-3826399D01*
X26042907Y-3832766D01*
X25797186Y-4078489D01*
X25748012Y-4127663D01*
X25693495Y-4155441D01*
X25637980Y-4148206D01*
X25616409Y-4138670D01*
X25567578Y-4132501D01*
X25029866Y-4132501D01*
X24327044Y-4132500D01*
X24322962Y-4132500D01*
X24237848Y-4146667D01*
X24135112Y-4202100D01*
X24055870Y-4287822D01*
X24052562Y-4295305D01*
X24052560Y-4295308D01*
X24038885Y-4326242D01*
X24008669Y-4394591D01*
X24002500Y-4443422D01*
X24002500Y-4813038D01*
X24016667Y-4898152D01*
X24072100Y-5000887D01*
X24157822Y-5080129D01*
X24165305Y-5083437D01*
X24165308Y-5083439D01*
X24223104Y-5108989D01*
X24264591Y-5127330D01*
X24313422Y-5133499D01*
X24851134Y-5133499D01*
X25553956Y-5133500D01*
X25558038Y-5133500D01*
X25643152Y-5119333D01*
X25745888Y-5063900D01*
X25825130Y-4978178D01*
X25835333Y-4955099D01*
X25869088Y-4914039D01*
X25869392Y-4913826D01*
X25874495Y-4910253D01*
X25881756Y-4905626D01*
X25915441Y-4886178D01*
X25940274Y-4856583D01*
X25946110Y-4850215D01*
X26391831Y-4404496D01*
X26446347Y-4376719D01*
X26461834Y-4375500D01*
X26508742Y-4375500D01*
X26566933Y-4394407D01*
X26602897Y-4443907D01*
X26602897Y-4505093D01*
X26594349Y-4524224D01*
X26574671Y-4558101D01*
X26569281Y-4571717D01*
X26545276Y-4675280D01*
X26544001Y-4686429D01*
X26544001Y-4937320D01*
X26548123Y-4950005D01*
X26552244Y-4953000D01*
X26990001Y-4953000D01*
X27928320Y-4953001D01*
X27941005Y-4948879D01*
X27944000Y-4944758D01*
X27944000Y-4702444D01*
X27943450Y-4695087D01*
X27929986Y-4605530D01*
X27925683Y-4591542D01*
X27890058Y-4517354D01*
X27881913Y-4456714D01*
X27910967Y-4402867D01*
X27966123Y-4376381D01*
X27979302Y-4375500D01*
X28296715Y-4375500D01*
X28305344Y-4375877D01*
X28343805Y-4379242D01*
X28381331Y-4369187D01*
X28389768Y-4367316D01*
X28397393Y-4365972D01*
X28457982Y-4374491D01*
X28501993Y-4416997D01*
X28512614Y-4477253D01*
X28500184Y-4513193D01*
X28497204Y-4518324D01*
X28474207Y-4557915D01*
X28474205Y-4557919D01*
X28470488Y-4564319D01*
X28468816Y-4571533D01*
X28444957Y-4674468D01*
X28443501Y-4680748D01*
X28443500Y-5715257D01*
X28447033Y-5738754D01*
X28454147Y-5786073D01*
X28458636Y-5815934D01*
X28461839Y-5822605D01*
X28461840Y-5822607D01*
X28474841Y-5849681D01*
X28517265Y-5938028D01*
X28609202Y-6037485D01*
X28615598Y-6041200D01*
X28615599Y-6041201D01*
X28719918Y-6101795D01*
X28726319Y-6105513D01*
X28794383Y-6121289D01*
X28837246Y-6131225D01*
X28837249Y-6131225D01*
X28842748Y-6132500D01*
X29427257Y-6132500D01*
X29463696Y-6127022D01*
X29520613Y-6118465D01*
X29520615Y-6118464D01*
X29527934Y-6117364D01*
X29534605Y-6114161D01*
X29534607Y-6114160D01*
X29643360Y-6061937D01*
X29650028Y-6058735D01*
X29749485Y-5966798D01*
X29798395Y-5882594D01*
X29813794Y-5856083D01*
X29813795Y-5856080D01*
X29817512Y-5849681D01*
X29844499Y-5733252D01*
X29844499Y-5631500D01*
X29863406Y-5573309D01*
X29912906Y-5537345D01*
X29943499Y-5532500D01*
X30691610Y-5532500D01*
X30749801Y-5551407D01*
X30785765Y-5600907D01*
X30785765Y-5662093D01*
X30777217Y-5681224D01*
X30765672Y-5701101D01*
X30760281Y-5714717D01*
X30736276Y-5818280D01*
X30735001Y-5829429D01*
X30735001Y-6080320D01*
X30739123Y-6093005D01*
X30743244Y-6096000D01*
X31181001Y-6096000D01*
X32119320Y-6096001D01*
X32132005Y-6091879D01*
X32135000Y-6087758D01*
X32135000Y-5845444D01*
X32134450Y-5838087D01*
X32120986Y-5748530D01*
X32116683Y-5734542D01*
X32087781Y-5674354D01*
X32079636Y-5613713D01*
X32108690Y-5559866D01*
X32163846Y-5533381D01*
X32177025Y-5532500D01*
X32591038Y-5532500D01*
X32649229Y-5551407D01*
X32685193Y-5600907D01*
X32685193Y-5662093D01*
X32676645Y-5681224D01*
X32661488Y-5707319D01*
X32658103Y-5721924D01*
X32639490Y-5802226D01*
X32634501Y-5823748D01*
X32634500Y-6858257D01*
X32638033Y-6881754D01*
X32642904Y-6914153D01*
X32649636Y-6958934D01*
X32652839Y-6965605D01*
X32652840Y-6965607D01*
X32662377Y-6985467D01*
X32708265Y-7081028D01*
X32800202Y-7180485D01*
X32806598Y-7184200D01*
X32806599Y-7184201D01*
X32857774Y-7213926D01*
X32885155Y-7229830D01*
X32897316Y-7236894D01*
X32938137Y-7282470D01*
X32944373Y-7343337D01*
X32913642Y-7396245D01*
X32857681Y-7420984D01*
X32847591Y-7421500D01*
X31917098Y-7421500D01*
X31858907Y-7402593D01*
X31822943Y-7353093D01*
X31822943Y-7291907D01*
X31858907Y-7242407D01*
X31874244Y-7233256D01*
X31934078Y-7204524D01*
X31946178Y-7196302D01*
X32034661Y-7114508D01*
X32043813Y-7103085D01*
X32104329Y-6998899D01*
X32109719Y-6985283D01*
X32133724Y-6881720D01*
X32134999Y-6870571D01*
X32134999Y-6619680D01*
X32130877Y-6606995D01*
X32126756Y-6604000D01*
X31688999Y-6604000D01*
X30750680Y-6603999D01*
X30737995Y-6608121D01*
X30735000Y-6612242D01*
X30735000Y-6854557D01*
X30735550Y-6861913D01*
X30749014Y-6951470D01*
X30753317Y-6965458D01*
X30805476Y-7074078D01*
X30813698Y-7086178D01*
X30895494Y-7174664D01*
X30906913Y-7183811D01*
X30998300Y-7236894D01*
X31039121Y-7282471D01*
X31045357Y-7343337D01*
X31014626Y-7396245D01*
X30958665Y-7420984D01*
X30948575Y-7421500D01*
X6777331Y-7421500D01*
X6719140Y-7402593D01*
X6683176Y-7353093D01*
X6683176Y-7291907D01*
X6719140Y-7242407D01*
X6734243Y-7233369D01*
X6852439Y-7176230D01*
X6852446Y-7176226D01*
X6856956Y-7174046D01*
X6949769Y-7103085D01*
X7008314Y-7058324D01*
X7008315Y-7058323D01*
X7012299Y-7055277D01*
X7015586Y-7051496D01*
X7015590Y-7051492D01*
X7137296Y-6911485D01*
X7140588Y-6907698D01*
X7236581Y-6737338D01*
X7296358Y-6551155D01*
X7317476Y-6356754D01*
X7317500Y-6350000D01*
X7308359Y-6260000D01*
X7298246Y-6160444D01*
X7298245Y-6160440D01*
X7297739Y-6155457D01*
X7296242Y-6150681D01*
X7296241Y-6150675D01*
X7240762Y-5973644D01*
X7240762Y-5973643D01*
X7239263Y-5968861D01*
X7144462Y-5797835D01*
X7084268Y-5727605D01*
X7020473Y-5653174D01*
X7020471Y-5653172D01*
X7017207Y-5649364D01*
X6951764Y-5598601D01*
X6866657Y-5532584D01*
X6866652Y-5532581D01*
X6862697Y-5529513D01*
X6687243Y-5443180D01*
X6580964Y-5415496D01*
X6502872Y-5395154D01*
X6502868Y-5395153D01*
X6498014Y-5393889D01*
X6493002Y-5393626D01*
X6493000Y-5393626D01*
X6424207Y-5390021D01*
X6302738Y-5383655D01*
X6109393Y-5412896D01*
X6096070Y-5417798D01*
X5930579Y-5478686D01*
X5930574Y-5478689D01*
X5925876Y-5480417D01*
X5921618Y-5483057D01*
X5921616Y-5483058D01*
X5780611Y-5570485D01*
X5759685Y-5583460D01*
X5617607Y-5717816D01*
X5614733Y-5721921D01*
X5614730Y-5721924D01*
X5528242Y-5845443D01*
X5505448Y-5877996D01*
X5503459Y-5882592D01*
X5503458Y-5882594D01*
X5464982Y-5971508D01*
X5427788Y-6057457D01*
X5387800Y-6248869D01*
X5387782Y-6253882D01*
X5387782Y-6253887D01*
X5387761Y-6260000D01*
X5387117Y-6444411D01*
X5388109Y-6449329D01*
X5422458Y-6619680D01*
X5425768Y-6636098D01*
X5444980Y-6681359D01*
X5496999Y-6803907D01*
X5502173Y-6816097D01*
X5505019Y-6820223D01*
X5505021Y-6820226D01*
X5610360Y-6972923D01*
X5610362Y-6972925D01*
X5613212Y-6977056D01*
X5669918Y-7031435D01*
X5744961Y-7103398D01*
X5754348Y-7112400D01*
X5919815Y-7216601D01*
X5924512Y-7218366D01*
X5924515Y-7218368D01*
X5955009Y-7229830D01*
X6002827Y-7268003D01*
X6019075Y-7326991D01*
X5997547Y-7384264D01*
X5946467Y-7417945D01*
X5920177Y-7421500D01*
X4971284Y-7421500D01*
X4962656Y-7421123D01*
X4961067Y-7420984D01*
X4924194Y-7417758D01*
X4886658Y-7427816D01*
X4878233Y-7429683D01*
X4864800Y-7432052D01*
X4848490Y-7434928D01*
X4848489Y-7434928D01*
X4839962Y-7436432D01*
X4832463Y-7440761D01*
X4826994Y-7442752D01*
X4821694Y-7445224D01*
X4813325Y-7447466D01*
X4806230Y-7452434D01*
X4806228Y-7452435D01*
X4781497Y-7469752D01*
X4774219Y-7474389D01*
X4740559Y-7493822D01*
X4734992Y-7500457D01*
X4715741Y-7523399D01*
X4709907Y-7529766D01*
X4361897Y-7877778D01*
X4361886Y-7877788D01*
X4270582Y-7969092D01*
X4216065Y-7996869D01*
X4156871Y-7987917D01*
X4147243Y-7983180D01*
X4093159Y-7969092D01*
X3962872Y-7935154D01*
X3962868Y-7935153D01*
X3958014Y-7933889D01*
X3953002Y-7933626D01*
X3953000Y-7933626D01*
X3884207Y-7930021D01*
X3762738Y-7923655D01*
X3569393Y-7952896D01*
X3564682Y-7954629D01*
X3564683Y-7954629D01*
X3390579Y-8018686D01*
X3390574Y-8018689D01*
X3385876Y-8020417D01*
X3381618Y-8023057D01*
X3381616Y-8023058D01*
X3225394Y-8119920D01*
X3219685Y-8123460D01*
X3077607Y-8257816D01*
X3074733Y-8261921D01*
X3074730Y-8261924D01*
X3055596Y-8289251D01*
X3006731Y-8326073D01*
X2945555Y-8327141D01*
X2895435Y-8292047D01*
X2875500Y-8232467D01*
X2875500Y-7008308D01*
X2894407Y-6950117D01*
X2943907Y-6914153D01*
X3005093Y-6914153D01*
X3055990Y-6952091D01*
X3073212Y-6977056D01*
X3129918Y-7031435D01*
X3204961Y-7103398D01*
X3214348Y-7112400D01*
X3379815Y-7216601D01*
X3562856Y-7285402D01*
X3664714Y-7301534D01*
X3751034Y-7315206D01*
X3751038Y-7315206D01*
X3755993Y-7315991D01*
X3835597Y-7312376D01*
X3946323Y-7307349D01*
X3946327Y-7307348D01*
X3951335Y-7307121D01*
X4140904Y-7259153D01*
X4194241Y-7233369D01*
X4312447Y-7176226D01*
X4312449Y-7176225D01*
X4316956Y-7174046D01*
X4409769Y-7103085D01*
X4468314Y-7058324D01*
X4468315Y-7058323D01*
X4472299Y-7055277D01*
X4475586Y-7051496D01*
X4475590Y-7051492D01*
X4597296Y-6911485D01*
X4600588Y-6907698D01*
X4696581Y-6737338D01*
X4756358Y-6551155D01*
X4777476Y-6356754D01*
X4777500Y-6350000D01*
X4768359Y-6260000D01*
X4758246Y-6160444D01*
X4758245Y-6160440D01*
X4757739Y-6155457D01*
X4756242Y-6150681D01*
X4756241Y-6150675D01*
X4700762Y-5973644D01*
X4700762Y-5973643D01*
X4699263Y-5968861D01*
X4604462Y-5797835D01*
X4544268Y-5727605D01*
X4480473Y-5653174D01*
X4480471Y-5653172D01*
X4477207Y-5649364D01*
X4411764Y-5598601D01*
X4326657Y-5532584D01*
X4326652Y-5532581D01*
X4322697Y-5529513D01*
X4147243Y-5443180D01*
X4040964Y-5415496D01*
X3962872Y-5395154D01*
X3962868Y-5395153D01*
X3958014Y-5393889D01*
X3953002Y-5393626D01*
X3953000Y-5393626D01*
X3884207Y-5390021D01*
X3762738Y-5383655D01*
X3569393Y-5412896D01*
X3556070Y-5417798D01*
X3390579Y-5478686D01*
X3390574Y-5478689D01*
X3385876Y-5480417D01*
X3381618Y-5483057D01*
X3381616Y-5483058D01*
X3240611Y-5570485D01*
X3219685Y-5583460D01*
X3077607Y-5717816D01*
X3074733Y-5721921D01*
X3074730Y-5721924D01*
X3055596Y-5749251D01*
X3006731Y-5786073D01*
X2945555Y-5787141D01*
X2895435Y-5752047D01*
X2875500Y-5692467D01*
X2875500Y-5245833D01*
X2894407Y-5187642D01*
X2904497Y-5175829D01*
X3006196Y-5074130D01*
X12346536Y-5074130D01*
X12347451Y-5081128D01*
X12354975Y-5138666D01*
X12364200Y-5209216D01*
X12367041Y-5215672D01*
X12367041Y-5215673D01*
X12407263Y-5307083D01*
X12419069Y-5333915D01*
X12423606Y-5339312D01*
X12423607Y-5339314D01*
X12465397Y-5389029D01*
X12506731Y-5438201D01*
X12512602Y-5442109D01*
X12512603Y-5442110D01*
X12554521Y-5470013D01*
X12620139Y-5513692D01*
X12750177Y-5554319D01*
X12818284Y-5555567D01*
X12879338Y-5556686D01*
X12879340Y-5556686D01*
X12886391Y-5556815D01*
X12893194Y-5554960D01*
X12893196Y-5554960D01*
X12983116Y-5530445D01*
X13017830Y-5520981D01*
X13079605Y-5483051D01*
X13127919Y-5453386D01*
X13127921Y-5453384D01*
X13133928Y-5449696D01*
X13138657Y-5444471D01*
X13138660Y-5444469D01*
X13220620Y-5353921D01*
X13225353Y-5348692D01*
X13284754Y-5226088D01*
X13286507Y-5215673D01*
X13306723Y-5095509D01*
X13306723Y-5095508D01*
X13307357Y-5091740D01*
X13307500Y-5080000D01*
X13296170Y-5000887D01*
X13289187Y-4952126D01*
X13289186Y-4952123D01*
X13288186Y-4945140D01*
X13285265Y-4938716D01*
X13283287Y-4931952D01*
X13284316Y-4931651D01*
X13277500Y-4900188D01*
X13277500Y-4482109D01*
X13296407Y-4423918D01*
X13306497Y-4412105D01*
X13556107Y-4162496D01*
X13610623Y-4134719D01*
X13626110Y-4133500D01*
X14780500Y-4133500D01*
X14838691Y-4152407D01*
X14874655Y-4201907D01*
X14879500Y-4232500D01*
X14879500Y-5166258D01*
X14894636Y-5266935D01*
X14897839Y-5273606D01*
X14897840Y-5273608D01*
X14929392Y-5339314D01*
X14953265Y-5389029D01*
X15045202Y-5488486D01*
X15088597Y-5513692D01*
X15155917Y-5552795D01*
X15155920Y-5552796D01*
X15162319Y-5556513D01*
X15176785Y-5559866D01*
X15273246Y-5582225D01*
X15273249Y-5582225D01*
X15278748Y-5583500D01*
X15988257Y-5583500D01*
X16024696Y-5578022D01*
X16081613Y-5569465D01*
X16081615Y-5569464D01*
X16088934Y-5568364D01*
X16095605Y-5565161D01*
X16095607Y-5565160D01*
X16204360Y-5512937D01*
X16211028Y-5509735D01*
X16310485Y-5417798D01*
X16362958Y-5327459D01*
X16374794Y-5307083D01*
X16374795Y-5307080D01*
X16378512Y-5300681D01*
X16399713Y-5209216D01*
X16404224Y-5189754D01*
X16404224Y-5189751D01*
X16405499Y-5184252D01*
X16405499Y-5166258D01*
X19154500Y-5166258D01*
X19169636Y-5266935D01*
X19172839Y-5273606D01*
X19172840Y-5273608D01*
X19204392Y-5339314D01*
X19228265Y-5389029D01*
X19320202Y-5488486D01*
X19363597Y-5513692D01*
X19430917Y-5552795D01*
X19430920Y-5552796D01*
X19437319Y-5556513D01*
X19451785Y-5559866D01*
X19548246Y-5582225D01*
X19548249Y-5582225D01*
X19553748Y-5583500D01*
X20263257Y-5583500D01*
X20299696Y-5578022D01*
X20356613Y-5569465D01*
X20356615Y-5569464D01*
X20363934Y-5568364D01*
X20370605Y-5565161D01*
X20370607Y-5565160D01*
X20479360Y-5512937D01*
X20486028Y-5509735D01*
X20529833Y-5469242D01*
X26544000Y-5469242D01*
X26544000Y-5711557D01*
X26544550Y-5718913D01*
X26558014Y-5808470D01*
X26562317Y-5822458D01*
X26614476Y-5931078D01*
X26622698Y-5943178D01*
X26704494Y-6031664D01*
X26715913Y-6040811D01*
X26820102Y-6101330D01*
X26833714Y-6106719D01*
X26937280Y-6130725D01*
X26948429Y-6132000D01*
X26974320Y-6132000D01*
X26987005Y-6127878D01*
X26990000Y-6123757D01*
X26990000Y-6116320D01*
X27497999Y-6116320D01*
X27502121Y-6129005D01*
X27506242Y-6132000D01*
X27523557Y-6132000D01*
X27530913Y-6131450D01*
X27620470Y-6117986D01*
X27634458Y-6113683D01*
X27743078Y-6061524D01*
X27755178Y-6053302D01*
X27843661Y-5971508D01*
X27852813Y-5960085D01*
X27913329Y-5855899D01*
X27918719Y-5842283D01*
X27942724Y-5738720D01*
X27943999Y-5727571D01*
X27943999Y-5476680D01*
X27939877Y-5463995D01*
X27935756Y-5461000D01*
X27513680Y-5461000D01*
X27500995Y-5465122D01*
X27498000Y-5469243D01*
X27497999Y-6116320D01*
X26990000Y-6116320D01*
X26990001Y-5476679D01*
X26985879Y-5463994D01*
X26981758Y-5460999D01*
X26559680Y-5460999D01*
X26546995Y-5465121D01*
X26544000Y-5469242D01*
X20529833Y-5469242D01*
X20585485Y-5417798D01*
X20637958Y-5327459D01*
X20649794Y-5307083D01*
X20649795Y-5307080D01*
X20653512Y-5300681D01*
X20674713Y-5209216D01*
X20679224Y-5189754D01*
X20679224Y-5189751D01*
X20680499Y-5184252D01*
X20680499Y-4232500D01*
X20699406Y-4174309D01*
X20748906Y-4138345D01*
X20779499Y-4133500D01*
X21675831Y-4133500D01*
X21705354Y-4138004D01*
X21707486Y-4138670D01*
X21767177Y-4157319D01*
X21835284Y-4158567D01*
X21896338Y-4159686D01*
X21896340Y-4159686D01*
X21903391Y-4159815D01*
X21910194Y-4157960D01*
X21910196Y-4157960D01*
X21970262Y-4141584D01*
X21987128Y-4136986D01*
X22013167Y-4133500D01*
X22269541Y-4133500D01*
X22309570Y-4141954D01*
X22389591Y-4177330D01*
X22438422Y-4183499D01*
X22976134Y-4183499D01*
X23678956Y-4183500D01*
X23683038Y-4183500D01*
X23768152Y-4169333D01*
X23870888Y-4113900D01*
X23891892Y-4091179D01*
X23934936Y-4044614D01*
X23950130Y-4028178D01*
X23953438Y-4020695D01*
X23953440Y-4020692D01*
X23978990Y-3962896D01*
X23997331Y-3921409D01*
X24003500Y-3872578D01*
X24003500Y-3502962D01*
X23989333Y-3417848D01*
X23933900Y-3315113D01*
X23924329Y-3306265D01*
X23889281Y-3273867D01*
X23848178Y-3235871D01*
X23840695Y-3232563D01*
X23840692Y-3232561D01*
X23779291Y-3205417D01*
X23741409Y-3188670D01*
X23692578Y-3182501D01*
X23154866Y-3182501D01*
X22452044Y-3182500D01*
X22447962Y-3182500D01*
X22410893Y-3188670D01*
X22370920Y-3195323D01*
X22370918Y-3195324D01*
X22362848Y-3196667D01*
X22355646Y-3200553D01*
X22318443Y-3220626D01*
X22271432Y-3232500D01*
X22012173Y-3232500D01*
X21983807Y-3228349D01*
X21921783Y-3209800D01*
X21915022Y-3207778D01*
X21832931Y-3207277D01*
X21785840Y-3206989D01*
X21778789Y-3206946D01*
X21772012Y-3208883D01*
X21772011Y-3208883D01*
X21744866Y-3216641D01*
X21703901Y-3228349D01*
X21702711Y-3228689D01*
X21675506Y-3232500D01*
X20779500Y-3232500D01*
X20721309Y-3213593D01*
X20685345Y-3164093D01*
X20680500Y-3133500D01*
X20680500Y-2199742D01*
X20675022Y-2163303D01*
X20666465Y-2106386D01*
X20666464Y-2106384D01*
X20665364Y-2099065D01*
X20661522Y-2091063D01*
X20609937Y-1983639D01*
X20606735Y-1976971D01*
X20514798Y-1877514D01*
X20425649Y-1825732D01*
X20404083Y-1813205D01*
X20404080Y-1813204D01*
X20397681Y-1809487D01*
X20341803Y-1796535D01*
X20286754Y-1783775D01*
X20286751Y-1783775D01*
X20281252Y-1782500D01*
X19571743Y-1782500D01*
X19535304Y-1787978D01*
X19478387Y-1796535D01*
X19478385Y-1796536D01*
X19471066Y-1797636D01*
X19464395Y-1800839D01*
X19464393Y-1800840D01*
X19389118Y-1836987D01*
X19348972Y-1856265D01*
X19249515Y-1948202D01*
X19245798Y-1954602D01*
X19185206Y-2058917D01*
X19185205Y-2058920D01*
X19181488Y-2065319D01*
X19154501Y-2181748D01*
X19154500Y-5166258D01*
X16405499Y-5166258D01*
X16405500Y-2199742D01*
X16400022Y-2163303D01*
X16391465Y-2106386D01*
X16391464Y-2106384D01*
X16390364Y-2099065D01*
X16386522Y-2091063D01*
X16334937Y-1983639D01*
X16331735Y-1976971D01*
X16239798Y-1877514D01*
X16150649Y-1825732D01*
X16129083Y-1813205D01*
X16129080Y-1813204D01*
X16122681Y-1809487D01*
X16066803Y-1796535D01*
X16011754Y-1783775D01*
X16011751Y-1783775D01*
X16006252Y-1782500D01*
X15296743Y-1782500D01*
X15260304Y-1787978D01*
X15203387Y-1796535D01*
X15203385Y-1796536D01*
X15196066Y-1797636D01*
X15189395Y-1800839D01*
X15189393Y-1800840D01*
X15114118Y-1836987D01*
X15073972Y-1856265D01*
X14974515Y-1948202D01*
X14970798Y-1954602D01*
X14910206Y-2058917D01*
X14910205Y-2058920D01*
X14906488Y-2065319D01*
X14879501Y-2181748D01*
X14879501Y-3133500D01*
X14860594Y-3191691D01*
X14811094Y-3227655D01*
X14780501Y-3232500D01*
X13430368Y-3232500D01*
X13418732Y-3231814D01*
X13414321Y-3231292D01*
X13384192Y-3227726D01*
X13364667Y-3231292D01*
X13326105Y-3238334D01*
X13323038Y-3238845D01*
X13305865Y-3241427D01*
X13264565Y-3247636D01*
X13258054Y-3250762D01*
X13250955Y-3252059D01*
X13221844Y-3267181D01*
X13198521Y-3279296D01*
X13195739Y-3280686D01*
X13149147Y-3303059D01*
X13149146Y-3303060D01*
X13142471Y-3306265D01*
X13138034Y-3310366D01*
X13135772Y-3311891D01*
X13130763Y-3314493D01*
X13124871Y-3319526D01*
X13086447Y-3357950D01*
X13083644Y-3360644D01*
X13048449Y-3393177D01*
X13048446Y-3393181D01*
X13043014Y-3398202D01*
X13039601Y-3404077D01*
X13033439Y-3410958D01*
X12530983Y-3913415D01*
X12522277Y-3921151D01*
X12494956Y-3942689D01*
X12490748Y-3948778D01*
X12461366Y-3991289D01*
X12459558Y-3993819D01*
X12424445Y-4041358D01*
X12422053Y-4048171D01*
X12417949Y-4054108D01*
X12415717Y-4061167D01*
X12400131Y-4110446D01*
X12399147Y-4113394D01*
X12382846Y-4159815D01*
X12379569Y-4169148D01*
X12379332Y-4175188D01*
X12378810Y-4177867D01*
X12377109Y-4183244D01*
X12376501Y-4190969D01*
X12376501Y-4245272D01*
X12376425Y-4249159D01*
X12374251Y-4304483D01*
X12375993Y-4311052D01*
X12376501Y-4320285D01*
X12376500Y-4898687D01*
X12372175Y-4927629D01*
X12370493Y-4933132D01*
X12367496Y-4939515D01*
X12346536Y-5074130D01*
X3006196Y-5074130D01*
X3352080Y-4728247D01*
X3406596Y-4700470D01*
X3456914Y-4705581D01*
X3562856Y-4745402D01*
X3655027Y-4760000D01*
X3751034Y-4775206D01*
X3751038Y-4775206D01*
X3755993Y-4775991D01*
X3835597Y-4772376D01*
X3946323Y-4767349D01*
X3946327Y-4767348D01*
X3951335Y-4767121D01*
X4140904Y-4719153D01*
X4175468Y-4702444D01*
X4312447Y-4636226D01*
X4312449Y-4636225D01*
X4316956Y-4634046D01*
X4435309Y-4543558D01*
X4468314Y-4518324D01*
X4468315Y-4518323D01*
X4472299Y-4515277D01*
X4475586Y-4511496D01*
X4475590Y-4511492D01*
X4597296Y-4371485D01*
X4600588Y-4367698D01*
X4696581Y-4197338D01*
X4756358Y-4011155D01*
X4777476Y-3816754D01*
X4777500Y-3810000D01*
X4777082Y-3805879D01*
X4758246Y-3620444D01*
X4758245Y-3620440D01*
X4757739Y-3615457D01*
X4756242Y-3610681D01*
X4756241Y-3610675D01*
X4700762Y-3433644D01*
X4700762Y-3433643D01*
X4699263Y-3428861D01*
X4604462Y-3257835D01*
X4545180Y-3188670D01*
X4480473Y-3113174D01*
X4480471Y-3113172D01*
X4477207Y-3109364D01*
X4417038Y-3062692D01*
X4398098Y-3048000D01*
X5382500Y-3048000D01*
X5382500Y-4572000D01*
X5387685Y-4598066D01*
X5396120Y-4640470D01*
X5398143Y-4650641D01*
X5442690Y-4717310D01*
X5509359Y-4761857D01*
X5518922Y-4763759D01*
X5518924Y-4763760D01*
X5544200Y-4768787D01*
X5588000Y-4777500D01*
X7112000Y-4777500D01*
X7155800Y-4768787D01*
X7181076Y-4763760D01*
X7181078Y-4763759D01*
X7190641Y-4761857D01*
X7257310Y-4717310D01*
X7301857Y-4650641D01*
X7303881Y-4640470D01*
X7312315Y-4598066D01*
X7317500Y-4572000D01*
X7317500Y-3048000D01*
X7301857Y-2969359D01*
X7257310Y-2902690D01*
X7190641Y-2858143D01*
X7181078Y-2856241D01*
X7181076Y-2856240D01*
X7155800Y-2851213D01*
X7112000Y-2842500D01*
X5588000Y-2842500D01*
X5544200Y-2851213D01*
X5518924Y-2856240D01*
X5518922Y-2856241D01*
X5509359Y-2858143D01*
X5442690Y-2902690D01*
X5398143Y-2969359D01*
X5382500Y-3048000D01*
X4398098Y-3048000D01*
X4326657Y-2992584D01*
X4326652Y-2992581D01*
X4322697Y-2989513D01*
X4147243Y-2903180D01*
X4057254Y-2879739D01*
X3962872Y-2855154D01*
X3962868Y-2855153D01*
X3958014Y-2853889D01*
X3953002Y-2853626D01*
X3953000Y-2853626D01*
X3884207Y-2850021D01*
X3762738Y-2843655D01*
X3569393Y-2872896D01*
X3564682Y-2874629D01*
X3564683Y-2874629D01*
X3390579Y-2938686D01*
X3390574Y-2938689D01*
X3385876Y-2940417D01*
X3381618Y-2943057D01*
X3381616Y-2943058D01*
X3301739Y-2992584D01*
X3219685Y-3043460D01*
X3077607Y-3177816D01*
X3074735Y-3181918D01*
X3074730Y-3181924D01*
X2971606Y-3329202D01*
X2965448Y-3337996D01*
X2963459Y-3342592D01*
X2963458Y-3342594D01*
X2935192Y-3407913D01*
X2887788Y-3517457D01*
X2847800Y-3708869D01*
X2847782Y-3713882D01*
X2847782Y-3713887D01*
X2847493Y-3796822D01*
X2847117Y-3904411D01*
X2870563Y-4020692D01*
X2880535Y-4070143D01*
X2885768Y-4096098D01*
X2887727Y-4100714D01*
X2887728Y-4100716D01*
X2893660Y-4114690D01*
X2908884Y-4150554D01*
X2912661Y-4159453D01*
X2917994Y-4220406D01*
X2891535Y-4268140D01*
X2332774Y-4826901D01*
X2326406Y-4832736D01*
X2296823Y-4857559D01*
X2277393Y-4891214D01*
X2272752Y-4898498D01*
X2250466Y-4930326D01*
X2248225Y-4938689D01*
X2245761Y-4943973D01*
X2243763Y-4949462D01*
X2239433Y-4956962D01*
X2237929Y-4965490D01*
X2237929Y-4965491D01*
X2232686Y-4995227D01*
X2230816Y-5003658D01*
X2220758Y-5041195D01*
X200000Y-5041195D01*
X200000Y-1326514D01*
X202372Y-1307413D01*
X202368Y-1307412D01*
X202424Y-1306996D01*
X203008Y-1302295D01*
X203117Y-1301864D01*
X204487Y-1296434D01*
X206339Y-1208753D01*
X206694Y-1202218D01*
X210053Y-1163827D01*
X211180Y-1155265D01*
X235792Y-1015681D01*
X237661Y-1007249D01*
X244592Y-981382D01*
X247189Y-973145D01*
X295666Y-839956D01*
X298970Y-831979D01*
X310289Y-807704D01*
X310298Y-807686D01*
X314276Y-800044D01*
X385147Y-677295D01*
X389780Y-670022D01*
X405160Y-648057D01*
X410411Y-641215D01*
X417822Y-632384D01*
X501500Y-532660D01*
X507332Y-526294D01*
X526292Y-507334D01*
X532660Y-501499D01*
X631406Y-418642D01*
X641216Y-410410D01*
X648067Y-405154D01*
X670025Y-389779D01*
X677309Y-385139D01*
X800045Y-314277D01*
X807697Y-310292D01*
X831986Y-298966D01*
X839952Y-295667D01*
X973147Y-247189D01*
X981384Y-244592D01*
X1007252Y-237661D01*
X1015682Y-235792D01*
X1155255Y-211181D01*
X1163818Y-210054D01*
X1202230Y-206693D01*
X1208767Y-206338D01*
X1296242Y-204491D01*
X1302334Y-202965D01*
X1326381Y-200000D01*
X44393486Y-200000D01*
X44412587Y-202372D01*
G37*
G04 #@! TD.AperFunction*
G04 #@! TA.AperFunction,Conductor*
G36*
X7751790Y-8091407D02*
G01*
X7787754Y-8140907D01*
X7787754Y-8202093D01*
X7783214Y-8213573D01*
X7774344Y-8232467D01*
X7770096Y-8241515D01*
X7749136Y-8376130D01*
X7750051Y-8383128D01*
X7761214Y-8468499D01*
X7766800Y-8511216D01*
X7769641Y-8517672D01*
X7769641Y-8517673D01*
X7818426Y-8628544D01*
X7821669Y-8635915D01*
X7826206Y-8641312D01*
X7826207Y-8641314D01*
X7855839Y-8676565D01*
X7909331Y-8740201D01*
X7915202Y-8744109D01*
X7915203Y-8744110D01*
X7966035Y-8777946D01*
X8022739Y-8815692D01*
X8152777Y-8856319D01*
X8220884Y-8857567D01*
X8281938Y-8858686D01*
X8281940Y-8858686D01*
X8288991Y-8858815D01*
X8295794Y-8856960D01*
X8295796Y-8856960D01*
X8368688Y-8837087D01*
X8420430Y-8822981D01*
X8467814Y-8793887D01*
X8530519Y-8755386D01*
X8530521Y-8755384D01*
X8536528Y-8751696D01*
X8547058Y-8740063D01*
X8600127Y-8709610D01*
X8620455Y-8707500D01*
X8748985Y-8707500D01*
X8757614Y-8707877D01*
X8796075Y-8711242D01*
X8833601Y-8701187D01*
X8842032Y-8699317D01*
X8871781Y-8694072D01*
X8871783Y-8694071D01*
X8880308Y-8692568D01*
X8887805Y-8688240D01*
X8893271Y-8686250D01*
X8898577Y-8683776D01*
X8906944Y-8681534D01*
X8938771Y-8659249D01*
X8946029Y-8654624D01*
X8979711Y-8635178D01*
X9004539Y-8605589D01*
X9010374Y-8599221D01*
X9058088Y-8551507D01*
X9112605Y-8523730D01*
X9128092Y-8522511D01*
X10069870Y-8522511D01*
X10128061Y-8541418D01*
X10164025Y-8590918D01*
X10164025Y-8652104D01*
X10139874Y-8691514D01*
X9483087Y-9348303D01*
X9428570Y-9376081D01*
X9413083Y-9377300D01*
X8755881Y-9377300D01*
X8747252Y-9376923D01*
X8717423Y-9374313D01*
X8708794Y-9373558D01*
X8671258Y-9383616D01*
X8662832Y-9385484D01*
X8624562Y-9392232D01*
X8617061Y-9396563D01*
X8611585Y-9398556D01*
X8606293Y-9401024D01*
X8597924Y-9403266D01*
X8590827Y-9408235D01*
X8590828Y-9408235D01*
X8566094Y-9425554D01*
X8558818Y-9430189D01*
X8525159Y-9449622D01*
X8500324Y-9479219D01*
X8494502Y-9485572D01*
X8321768Y-9658307D01*
X8174572Y-9805503D01*
X8120055Y-9833281D01*
X8104568Y-9834500D01*
X6991891Y-9834500D01*
X6933700Y-9815593D01*
X6897736Y-9766093D01*
X6897736Y-9704907D01*
X6931761Y-9656853D01*
X6942131Y-9648925D01*
X7012299Y-9595277D01*
X7015586Y-9591496D01*
X7015590Y-9591492D01*
X7137296Y-9451485D01*
X7140588Y-9447698D01*
X7236581Y-9277338D01*
X7296358Y-9091155D01*
X7317476Y-8896754D01*
X7317500Y-8890000D01*
X7314333Y-8858815D01*
X7298246Y-8700444D01*
X7298245Y-8700440D01*
X7297739Y-8695457D01*
X7296242Y-8690681D01*
X7296241Y-8690675D01*
X7240762Y-8513644D01*
X7240762Y-8513643D01*
X7239263Y-8508861D01*
X7144462Y-8337835D01*
X7057116Y-8235926D01*
X7033603Y-8179440D01*
X7047782Y-8119920D01*
X7094239Y-8080102D01*
X7132284Y-8072500D01*
X7693599Y-8072500D01*
X7751790Y-8091407D01*
G37*
G04 #@! TD.AperFunction*
G04 #@! TA.AperFunction,Conductor*
G36*
X30789322Y-3265407D02*
G01*
X30825286Y-3314907D01*
X30825286Y-3376093D01*
X30816738Y-3395224D01*
X30790672Y-3440101D01*
X30785281Y-3453717D01*
X30761276Y-3557280D01*
X30760001Y-3568429D01*
X30760001Y-3794320D01*
X30764123Y-3807005D01*
X30768244Y-3810000D01*
X31218501Y-3810000D01*
X32169320Y-3810001D01*
X32182005Y-3805879D01*
X32185000Y-3801758D01*
X32185000Y-3584444D01*
X32184450Y-3577087D01*
X32170986Y-3487530D01*
X32166683Y-3473542D01*
X32125776Y-3388354D01*
X32117631Y-3327714D01*
X32146685Y-3273867D01*
X32201841Y-3247381D01*
X32215020Y-3246500D01*
X32555559Y-3246500D01*
X32613750Y-3265407D01*
X32649714Y-3314907D01*
X32649714Y-3376093D01*
X32641166Y-3395224D01*
X32633796Y-3407913D01*
X32611488Y-3446319D01*
X32609816Y-3453533D01*
X32588596Y-3545083D01*
X32584501Y-3562748D01*
X32584500Y-4547257D01*
X32588150Y-4571533D01*
X32598243Y-4638666D01*
X32599636Y-4647934D01*
X32602840Y-4654605D01*
X32602841Y-4654610D01*
X32643675Y-4739646D01*
X32651820Y-4800286D01*
X32622766Y-4854133D01*
X32567610Y-4880619D01*
X32554431Y-4881500D01*
X32213869Y-4881500D01*
X32155678Y-4862593D01*
X32119714Y-4813093D01*
X32119714Y-4751907D01*
X32128262Y-4732776D01*
X32154328Y-4687899D01*
X32159719Y-4674283D01*
X32183724Y-4570720D01*
X32184999Y-4559571D01*
X32184999Y-4333680D01*
X32180877Y-4320995D01*
X32176756Y-4318000D01*
X31726499Y-4318000D01*
X30775680Y-4317999D01*
X30762995Y-4322121D01*
X30760000Y-4326242D01*
X30760000Y-4543557D01*
X30760550Y-4550913D01*
X30774014Y-4640470D01*
X30778317Y-4654458D01*
X30819224Y-4739646D01*
X30827369Y-4800286D01*
X30798315Y-4854133D01*
X30743159Y-4880619D01*
X30729980Y-4881500D01*
X29943500Y-4881500D01*
X29885309Y-4862593D01*
X29849345Y-4813093D01*
X29844500Y-4782500D01*
X29844500Y-4698743D01*
X29834773Y-4634046D01*
X29830465Y-4605387D01*
X29830464Y-4605385D01*
X29829364Y-4598066D01*
X29819135Y-4576763D01*
X29773937Y-4482640D01*
X29770735Y-4475972D01*
X29678798Y-4376515D01*
X29670139Y-4371485D01*
X29568082Y-4312205D01*
X29561681Y-4308487D01*
X29472527Y-4287822D01*
X29450754Y-4282775D01*
X29450751Y-4282775D01*
X29445252Y-4281500D01*
X28860743Y-4281500D01*
X28824673Y-4286923D01*
X28785074Y-4292876D01*
X28724719Y-4282830D01*
X28681796Y-4239227D01*
X28672700Y-4178721D01*
X28700353Y-4124972D01*
X28780712Y-4044614D01*
X28974830Y-3850496D01*
X29029346Y-3822719D01*
X29044833Y-3821500D01*
X29402257Y-3821500D01*
X29451126Y-3814153D01*
X29495613Y-3807465D01*
X29495615Y-3807464D01*
X29502934Y-3806364D01*
X29509605Y-3803161D01*
X29509607Y-3803160D01*
X29618360Y-3750937D01*
X29625028Y-3747735D01*
X29724485Y-3655798D01*
X29766975Y-3582646D01*
X29788794Y-3545083D01*
X29788795Y-3545080D01*
X29792512Y-3538681D01*
X29809284Y-3466321D01*
X29818224Y-3427754D01*
X29818224Y-3427751D01*
X29819499Y-3422252D01*
X29819499Y-3345500D01*
X29838406Y-3287309D01*
X29887906Y-3251345D01*
X29918499Y-3246500D01*
X30731131Y-3246500D01*
X30789322Y-3265407D01*
G37*
G04 #@! TD.AperFunction*
M02*
